<svg xmlns="http://www.w3.org/2000/svg" xmlns:xlink="http://www.w3.org/1999/xlink" width="648" height="700" viewBox="0 0 648 700">
  <defs>
    <filter id="Rectángulo_268436" x="0" y="0" width="648" height="700" filterUnits="userSpaceOnUse">
      <feOffset dy="3" input="SourceAlpha"/>
      <feGaussianBlur stdDeviation="3" result="blur"/>
      <feFlood flood-opacity="0.161"/>
      <feComposite operator="in" in2="blur"/>
      <feComposite in="SourceGraphic"/>
    </filter>
    <clipPath id="clip-path">
      <rect id="Rectángulo_271586" data-name="Rectángulo 271586" width="501.836" height="576.041" fill="#00bbcb"/>
    </clipPath>
    <filter id="Trazado_481052" x="292.188" y="76.43" width="225.295" height="225.298" filterUnits="userSpaceOnUse">
      <feOffset dy="3" input="SourceAlpha"/>
      <feGaussianBlur stdDeviation="3" result="blur-2"/>
      <feFlood flood-opacity="0.161"/>
      <feComposite operator="in" in2="blur-2"/>
      <feComposite in="SourceGraphic"/>
    </filter>
    <filter id="Trazado_481054" x="84.996" y="178.439" width="225.295" height="225.298" filterUnits="userSpaceOnUse">
      <feOffset dy="3" input="SourceAlpha"/>
      <feGaussianBlur stdDeviation="3" result="blur-3"/>
      <feFlood flood-opacity="0.161"/>
      <feComposite operator="in" in2="blur-3"/>
      <feComposite in="SourceGraphic"/>
    </filter>
    <filter id="Trazado_481062" x="334.601" y="119.059" width="140.374" height="140.374" filterUnits="userSpaceOnUse">
      <feOffset dy="3" input="SourceAlpha"/>
      <feGaussianBlur stdDeviation="3" result="blur-4"/>
      <feFlood flood-opacity="0.161"/>
      <feComposite operator="in" in2="blur-4"/>
      <feComposite in="SourceGraphic"/>
    </filter>
    <filter id="Elipse_5914" x="127.314" y="220.621" width="140.374" height="140.374" filterUnits="userSpaceOnUse">
      <feOffset dy="3" input="SourceAlpha"/>
      <feGaussianBlur stdDeviation="3" result="blur-5"/>
      <feFlood flood-opacity="0.161"/>
      <feComposite operator="in" in2="blur-5"/>
      <feComposite in="SourceGraphic"/>
    </filter>
    <filter id="Trazado_481063" x="307.722" y="368.802" width="191.155" height="191.155" filterUnits="userSpaceOnUse">
      <feOffset dy="3" input="SourceAlpha"/>
      <feGaussianBlur stdDeviation="3" result="blur-6"/>
      <feFlood flood-opacity="0.161"/>
      <feComposite operator="in" in2="blur-6"/>
      <feComposite in="SourceGraphic"/>
    </filter>
    <clipPath id="clip-path-2">
      <rect id="Rectángulo_273355" data-name="Rectángulo 273355" width="174.518" height="172.181" fill="none"/>
    </clipPath>
  </defs>
  <g id="Grupo_726941" data-name="Grupo 726941" transform="translate(-465.767 -5409.091)">
    <g id="Grupo_726314" data-name="Grupo 726314" transform="translate(334.233 -1010.909)">
      <g transform="matrix(1, 0, 0, 1, 131.53, 6420)" filter="url(#Rectángulo_268436)">
        <rect id="Rectángulo_268436-2" data-name="Rectángulo 268436" width="630" height="682" rx="10" transform="translate(9 6)" fill="#fafafa"/>
      </g>
    </g>
    <g id="Grupo_726315" data-name="Grupo 726315" transform="translate(43.767 164.443)">
      <g id="Grupo_726312" data-name="Grupo 726312" transform="translate(495 5303.647)">
        <g id="Grupo_726311" data-name="Grupo 726311" clip-path="url(#clip-path)">
          <path id="Trazado_481050" data-name="Trazado 481050" d="M35.02,238.71c0-7.949-12.5-15.62-23.02-18.769a144.76,144.76,0,0,1,12.7-38.841c10.4,3.69,25.7,5.395,29.926-1.921,3.976-6.878-3.01-19.76-10.532-27.75a147.006,147.006,0,0,1,30.413-27.284c7.166,8.384,19.549,17.507,26.865,13.289,6.888-3.973,7.272-18.645,4.741-29.334a145.618,145.618,0,0,1,40-8.376c2.008,10.846,8.183,24.936,16.619,24.936,7.949,0,15.612-12.5,18.761-23.023a144.814,144.814,0,0,1,38.849,12.707c-3.7,10.411-5.4,25.708,1.913,29.926,6.88,3.973,19.75-3.01,27.743-10.532a146.405,146.405,0,0,1,27.282,30.4c-8.384,7.176-17.5,19.559-13.279,26.875,3.973,6.888,18.638,7.272,29.326,4.741a145.184,145.184,0,0,1,8.382,40c-10.843,2.008-24.923,8.176-24.923,16.611-.01,7.949,12.5,15.62,23.012,18.766a144.732,144.732,0,0,1-12.707,38.841c-10.4-3.687-25.7-5.392-29.919,1.923-3.973,6.878,3,19.75,10.534,27.743a146.7,146.7,0,0,1-30.413,27.282c-7.176-8.384-19.559-17.5-26.867-13.279-6.888,3.973-7.277,18.638-4.738,29.326a145.377,145.377,0,0,1-40,8.382c-2.019-10.843-8.183-24.933-16.621-24.933-7.949,0-15.609,12.5-18.759,23.023A144.876,144.876,0,0,1,91.464,376.73c3.687-10.4,5.4-25.7-1.913-29.926-6.88-3.973-19.753,3.01-27.745,10.539a146.36,146.36,0,0,1-27.29-30.413c8.384-7.166,17.507-19.559,13.289-26.872-3.976-6.888-18.648-7.272-29.337-4.741a145.184,145.184,0,0,1-8.382-40c10.853-2.008,24.933-8.175,24.933-16.611M155.9,342.875a97.338,97.338,0,1,0-97.339-97.336A97.338,97.338,0,0,0,155.9,342.875" transform="translate(174.152 157.061)" fill="#555"/>
          <path id="Trazado_481051" data-name="Trazado 481051" d="M119.193,129.312a79.519,79.519,0,1,0,79.52,79.52,79.612,79.612,0,0,0-79.52-79.52m0-6.283a85.8,85.8,0,1,1-85.8,85.8,85.8,85.8,0,0,1,85.8-85.8" transform="translate(210.861 193.767)" fill="#555"/>
          <g transform="matrix(1, 0, 0, 1, -73, -59)" filter="url(#Trazado_481052)">
            <path id="Trazado_481052-2" data-name="Trazado 481052" d="M43.492,107.9c0-5.652-8.884-11.1-16.364-13.341a102.8,102.8,0,0,1,9.033-27.609c7.393,2.621,18.267,3.832,21.272-1.367,2.825-4.89-2.14-14.046-7.485-19.727A104.448,104.448,0,0,1,71.564,26.459c5.093,5.958,13.9,12.445,19.1,9.445,4.9-2.825,5.168-13.253,3.371-20.852A103.588,103.588,0,0,1,122.461,9.1c1.429,7.709,5.817,17.724,11.814,17.724,5.649,0,11.1-8.884,13.336-16.361a102.861,102.861,0,0,1,27.614,9.03c-2.626,7.4-3.839,18.275,1.36,21.272,4.89,2.825,14.041-2.137,19.722-7.485A104.157,104.157,0,0,1,215.7,54.89c-5.958,5.1-12.437,13.9-9.44,19.1,2.825,4.9,13.248,5.168,20.847,3.368a103.172,103.172,0,0,1,5.958,28.433c-7.709,1.427-17.718,5.809-17.718,11.806-.005,5.649,8.884,11.1,16.359,13.341a102.8,102.8,0,0,1-9.033,27.609c-7.393-2.621-18.267-3.832-21.267,1.367-2.825,4.89,2.135,14.039,7.488,19.719a104.32,104.32,0,0,1-21.619,19.395c-5.1-5.961-13.9-12.44-19.1-9.44-4.9,2.825-5.173,13.248-3.371,20.844a103.293,103.293,0,0,1-28.43,5.961c-1.434-7.709-5.817-17.726-11.814-17.726-5.649,0-11.1,8.884-13.333,16.367A103.066,103.066,0,0,1,83.612,206c2.621-7.393,3.839-18.267-1.36-21.272-4.89-2.825-14.039,2.137-19.722,7.491a104.065,104.065,0,0,1-19.4-21.617c5.958-5.1,12.445-13.9,9.445-19.1-2.825-4.9-13.253-5.168-20.852-3.368a103.175,103.175,0,0,1-5.959-28.43c7.715-1.429,17.724-5.812,17.724-11.809m85.927,74.043a69.191,69.191,0,1,0-69.192-69.189,69.191,69.191,0,0,0,69.192,69.189" transform="translate(275.42 73.33)" fill="#8ca8c6"/>
          </g>
          <path id="Trazado_481053" data-name="Trazado 481053" d="M103.324,30.133a56.523,56.523,0,1,0,56.526,56.523,56.589,56.589,0,0,0-56.526-56.523m0-4.468A60.991,60.991,0,1,1,42.333,86.656a60.992,60.992,0,0,1,60.991-60.991" transform="translate(228.515 40.422)" fill="#82e102"/>
          <g transform="matrix(1, 0, 0, 1, -73, -59)" filter="url(#Trazado_481054)">
            <path id="Trazado_481054-2" data-name="Trazado 481054" d="M123.956,147.511c0-5.649-8.884-11.1-16.364-13.341a102.8,102.8,0,0,1,9.033-27.609c7.393,2.621,18.267,3.832,21.272-1.367,2.825-4.89-2.14-14.044-7.485-19.727a104.445,104.445,0,0,1,21.617-19.392c5.093,5.958,13.9,12.445,19.1,9.445,4.9-2.825,5.168-13.253,3.371-20.852a103.587,103.587,0,0,1,28.43-5.953c1.429,7.709,5.817,17.724,11.814,17.724,5.649,0,11.1-8.884,13.336-16.361a102.952,102.952,0,0,1,27.614,9.03c-2.626,7.4-3.839,18.275,1.36,21.272,4.89,2.825,14.041-2.137,19.722-7.485a104.158,104.158,0,0,1,19.392,21.612c-5.958,5.1-12.437,13.9-9.44,19.1,2.825,4.9,13.248,5.168,20.847,3.368a103.175,103.175,0,0,1,5.958,28.433c-7.709,1.427-17.718,5.809-17.718,11.806-.005,5.649,8.884,11.1,16.359,13.341a102.8,102.8,0,0,1-9.033,27.609c-7.393-2.621-18.267-3.832-21.264,1.367-2.827,4.89,2.132,14.039,7.485,19.719a104.318,104.318,0,0,1-21.619,19.395c-5.1-5.961-13.9-12.44-19.1-9.44-4.895,2.825-5.173,13.248-3.368,20.844a103.332,103.332,0,0,1-28.433,5.961c-1.434-7.709-5.817-17.724-11.814-17.724-5.649,0-11.1,8.884-13.333,16.364a103.063,103.063,0,0,1-27.617-9.033c2.621-7.393,3.839-18.269-1.36-21.272-4.89-2.825-14.039,2.137-19.719,7.493a104.081,104.081,0,0,1-19.4-21.619c5.958-5.1,12.445-13.9,9.445-19.1-2.825-4.9-13.253-5.168-20.852-3.368a103.176,103.176,0,0,1-5.958-28.43c7.715-1.429,17.724-5.812,17.724-11.809m85.927,74.043a69.191,69.191,0,1,0-69.192-69.189,69.191,69.191,0,0,0,69.192,69.189" transform="translate(-12.24 135.72)" fill="#01bccd"/>
          </g>
          <path id="Trazado_481055" data-name="Trazado 481055" d="M183.788,69.747a56.524,56.524,0,1,0,56.526,56.526,56.591,56.591,0,0,0-56.526-56.526m0-4.465A60.991,60.991,0,1,1,122.8,126.273a60.992,60.992,0,0,1,60.991-60.991" transform="translate(-59.141 102.817)" fill="#01bccd"/>
          <path id="Trazado_481056" data-name="Trazado 481056" d="M231.839,211.862c1.694-1.97,3.342-4.009,4.9-6.064l-2.052-1.558c-1.53,2.014-3.144,4.014-4.8,5.946Zm12.226-16.8c1.347-2.207,2.644-4.483,3.857-6.772l-2.274-1.205c-1.19,2.24-2.462,4.473-3.78,6.633Zm9.352-18.55c.973-2.395,1.885-4.856,2.711-7.313l-2.441-.821c-.809,2.408-1.7,4.82-2.657,7.166Zm6.221-19.827c.569-2.531,1.071-5.109,1.486-7.658l-2.542-.412c-.407,2.5-.9,5.021-1.457,7.5Zm2.917-20.574c.154-2.572.234-5.2.234-7.8h-2.575c0,2.549-.077,5.122-.229,7.645ZM259.585,115.6l2.562-.257c-.258-2.57-.6-5.171-1.015-7.733l-2.542.412c.407,2.511.742,5.06.994,7.578m-3.669-20.028L258.4,94.9c-.672-2.5-1.429-5.016-2.253-7.467l-2.444.821c.809,2.4,1.553,4.862,2.209,7.315M17.978,81c.958-2.354,2-4.7,3.085-6.978l-2.32-1.112c-1.115,2.325-2.173,4.72-3.152,7.12Zm231.065-4.6,2.346-1.063c-1.071-2.359-2.23-4.717-3.443-7.009l-2.276,1.2c1.19,2.248,2.325,4.558,3.373,6.87M27.145,62.836c1.316-2.158,2.722-4.308,4.177-6.394L29.21,54.969c-1.483,2.127-2.917,4.323-4.264,6.525Zm212-4.241,2.142-1.427c-1.437-2.155-2.961-4.3-4.529-6.358l-2.047,1.555c1.535,2.024,3.026,4.117,4.434,6.229M39.129,46.379c1.656-1.926,3.391-3.826,5.155-5.644l-1.849-1.792c-1.8,1.854-3.569,3.79-5.261,5.758Zm187.378-3.757,1.882-1.756c-1.761-1.89-3.6-3.754-5.485-5.544l-1.774,1.864c1.841,1.754,3.651,3.582,5.377,5.436M53.6,32.055c1.942-1.633,3.96-3.229,6-4.746l-1.537-2.065c-2.081,1.545-4.141,3.175-6.118,4.841Zm157.869-3.17,1.576-2.034c-2.042-1.584-4.161-3.129-6.3-4.589l-1.452,2.127c2.1,1.432,4.174,2.946,6.177,4.5M70.2,20.241c2.178-1.3,4.429-2.549,6.687-3.718L75.7,14.236c-2.307,1.192-4.6,2.467-6.826,3.793Zm124.229-2.49,1.231-2.263c-2.279-1.236-4.617-2.418-6.955-3.51l-1.089,2.335c2.289,1.069,4.583,2.225,6.813,3.438M88.483,11.262c2.372-.932,4.8-1.8,7.207-2.583L94.9,6.228c-2.462.8-4.936,1.687-7.357,2.637Zm87.33-1.741.845-2.433c-2.451-.852-4.957-1.638-7.444-2.335l-.7,2.48c2.439.685,4.89,1.455,7.295,2.289M107.991,5.373c2.485-.53,5.013-.994,7.516-1.372l-.384-2.547c-2.554.386-5.134.857-7.673,1.4ZM156.1,4.425l.44-2.539c-2.544-.44-5.14-.809-7.722-1.094l-.283,2.56c2.529.281,5.073.641,7.565,1.074m-27.92-1.694q3.14-.154,6.319-.157l1.324.008L135.85.007,134.5,0q-3.241,0-6.445.16Z" transform="translate(198.899 -0.002)" fill="#8ca8c6"/>
          <path id="Trazado_481057" data-name="Trazado 481057" d="M244.29,289.935l.031-2.575c-2.534-.028-5.1-.139-7.635-.324L236.5,289.6c2.585.191,5.209.3,7.794.332M223.6,287.98l.453-2.536c-2.5-.445-5.011-.978-7.473-1.581l-.613,2.5c2.516.615,5.083,1.156,7.632,1.615m-20.08-5.358.87-2.423c-2.387-.858-4.774-1.8-7.1-2.8l-1.02,2.364c2.374,1.025,4.81,1.985,7.246,2.861M184.626,274l1.262-2.245c-2.207-1.239-4.406-2.565-6.538-3.942l-1.4,2.16c2.176,1.409,4.421,2.763,6.674,4.027M167.415,262.36l1.615-2.006c-1.975-1.589-3.927-3.262-5.8-4.972l-1.736,1.9c1.913,1.746,3.906,3.453,5.922,5.075M152.354,248.04l1.921-1.712c-1.684-1.893-3.337-3.865-4.905-5.863l-2.026,1.591c1.6,2.039,3.291,4.053,5.011,5.984m-12.5-16.611,2.178-1.372c-1.354-2.15-2.657-4.37-3.873-6.6L135.9,224.7c1.244,2.274,2.572,4.54,3.955,6.734m-9.581-18.455,2.374-.994c-.979-2.346-1.9-4.753-2.724-7.148l-2.433.839c.845,2.446,1.782,4.905,2.784,7.3m-6.378-19.8,2.511-.579c-.574-2.472-1.074-4.993-1.493-7.5l-2.539.425c.425,2.554.937,5.127,1.522,7.65m-2.99-20.566,2.57-.157c-.154-2.523-.232-5.093-.232-7.637h-2.575c0,2.6.08,5.219.237,7.794m2.621-16.217c.173-2.549.427-5.106.752-7.606l-2.552-.332c-.335,2.552-.592,5.163-.77,7.761Zm3.059-20.126c.59-2.469,1.264-4.949,2.006-7.372l-2.462-.754c-.76,2.475-1.447,5.006-2.05,7.527Zm6.363-19.335c.986-2.323,2.063-4.653,3.2-6.924l-2.3-1.154c-1.164,2.32-2.266,4.7-3.273,7.073Zm9.486-17.991c1.367-2.142,2.82-4.264,4.311-6.309l-2.081-1.517c-1.522,2.086-3,4.251-4.4,6.437ZM154.769,82.75c1.71-1.9,3.492-3.749,5.294-5.513l-1.8-1.841c-1.841,1.8-3.659,3.7-5.4,5.629Zm14.842-13.941c2-1.584,4.058-3.121,6.131-4.568l-1.473-2.111c-2.117,1.475-4.223,3.046-6.26,4.663Zm140.815-8.142,1.362-2.186c-2.2-1.367-4.465-2.681-6.744-3.909l-1.223,2.266c2.235,1.2,4.455,2.493,6.6,3.829M186.549,57.505c2.217-1.226,4.506-2.4,6.806-3.492l-1.1-2.325C189.9,52.8,187.566,54,185.3,55.252ZM292.316,51.4l.979-2.382c-2.39-.978-4.846-1.9-7.308-2.735l-.827,2.439c2.41.819,4.818,1.72,7.156,2.678m-87.186-2.23c2.4-.845,4.849-1.62,7.282-2.307l-.7-2.477c-2.487.7-4.988,1.493-7.439,2.356Zm67.776-3.9.566-2.513c-2.531-.572-5.109-1.069-7.66-1.478l-.407,2.541c2.5.4,5.021.888,7.5,1.45m-48.077-1.223c2.487-.427,5.034-.785,7.565-1.061l-.278-2.562c-2.585.283-5.183.646-7.725,1.087Zm27.918-1.594.144-2.57c-2.346-.131-4.733-.2-7.1-.2l-.7,0,.015,2.575.685,0c2.315,0,4.656.067,6.952.193" transform="translate(-120.663 62.501)" fill="#01bccd"/>
          <path id="Trazado_481058" data-name="Trazado 481058" d="M143.168,417.376q2.634,0,5.245-.08l-.075-2.575c-2.541.077-5.106.1-7.666.059l-.039,2.575q1.267.019,2.534.021m-15.478-.682.229-2.565c-2.554-.227-5.116-.512-7.617-.847l-.342,2.552c2.539.34,5.14.631,7.73.86m33.657-.263c2.567-.265,5.165-.595,7.717-.976l-.381-2.549c-2.513.379-5.073.7-7.6.966Zm-54.164-2.8.533-2.518c-2.505-.53-5.013-1.12-7.46-1.754l-.646,2.493c2.482.644,5.031,1.241,7.573,1.779m74.623-.585c2.521-.572,5.06-1.21,7.545-1.9l-.685-2.482c-2.449.677-4.949,1.306-7.431,1.872Zm-94.617-4.916.832-2.436c-2.413-.824-4.833-1.712-7.194-2.637l-.94,2.395c2.4.94,4.854,1.844,7.3,2.678m114.522-.9c2.441-.878,4.89-1.818,7.277-2.8l-.978-2.382c-2.351.966-4.764,1.893-7.169,2.758Zm-133.7-6.963,1.12-2.317c-2.289-1.107-4.583-2.276-6.816-3.479L61.1,396.748c2.266,1.218,4.594,2.408,6.916,3.528M220.8,399.06c2.315-1.161,4.63-2.39,6.883-3.651l-1.257-2.248c-2.22,1.244-4.5,2.454-6.78,3.6Zm-170.87-8.881,1.388-2.171c-2.129-1.362-4.267-2.8-6.355-4.269l-1.483,2.106c2.119,1.493,4.29,2.951,6.45,4.334m188.83-1.524c2.158-1.432,4.308-2.925,6.391-4.447l-1.517-2.078c-2.052,1.5-4.171,2.969-6.3,4.377ZM33.163,377.991,34.8,376q-2.959-2.437-5.807-5l-1.723,1.913c1.908,1.718,3.891,3.425,5.894,5.073m222.173-1.808c1.967-1.671,3.924-3.412,5.817-5.171l-1.754-1.885q-2.808,2.611-5.732,5.093ZM17.96,363.893l1.862-1.782c-1.756-1.833-3.5-3.736-5.178-5.655l-1.936,1.7c1.7,1.947,3.471,3.878,5.253,5.74m252.352-2.055c1.764-1.9,3.5-3.86,5.158-5.822l-1.965-1.663c-1.635,1.931-3.345,3.862-5.083,5.737ZM4.537,348.083l2.057-1.548c-1.522-2.024-3.026-4.123-4.47-6.234L0,341.754c1.465,2.145,2.99,4.274,4.537,6.329m278.936-2.261q2.279-3.144,4.426-6.389l-2.148-1.421q-2.113,3.2-4.362,6.3Zm11.157-17.463c1.249-2.24,2.469-4.55,3.631-6.865l-2.3-1.154q-1.715,3.426-3.574,6.764Zm8.984-18.661c.976-2.384,1.913-4.828,2.786-7.267l-2.423-.865c-.86,2.4-1.784,4.807-2.745,7.156Zm6.687-19.629c.685-2.5,1.321-5.034,1.89-7.547l-2.513-.566c-.559,2.472-1.184,4.975-1.859,7.434Zm4.277-20.288c.381-2.552.708-5.15.973-7.717l-2.562-.265c-.263,2.531-.585,5.091-.958,7.6Zm1.82-20.651q.073-2.522.075-5.057c0-.912-.008-1.818-.023-2.724l-2.575.041c.015.894.023,1.784.023,2.681q0,2.5-.075,4.985Zm-3.19-20.494,2.567-.229c-.229-2.557-.523-5.158-.868-7.73l-2.552.345c.342,2.534.628,5.1.852,7.614m-3.036-20.2,2.521-.536c-.536-2.521-1.138-5.068-1.79-7.57l-2.49.646c.641,2.469,1.233,4.977,1.759,7.46m-5.438-19.688,2.439-.834c-.837-2.441-1.743-4.905-2.693-7.318l-2.4.942c.937,2.379,1.831,4.8,2.652,7.21m-7.779-18.918,2.318-1.123c-1.125-2.325-2.318-4.658-3.551-6.937L293.456,163c1.215,2.245,2.392,4.545,3.5,6.834m-9.993-17.839,2.168-1.39c-1.39-2.168-2.853-4.339-4.352-6.458l-2.1,1.486q2.209,3.129,4.285,6.363m-12.046-16.513,1.985-1.64c-1.643-1.99-3.353-3.973-5.086-5.892l-1.911,1.725q2.569,2.847,5.011,5.807M261,120.518l1.779-1.862c-1.869-1.784-3.8-3.546-5.747-5.243l-1.694,1.942c1.918,1.671,3.821,3.407,5.662,5.163M245.4,107.324l1.545-2.063c-2.068-1.545-4.195-3.067-6.324-4.519l-1.452,2.127c2.1,1.432,4.195,2.93,6.231,4.455" transform="translate(185.362 158.665)" fill="#555"/>
          <path id="Trazado_481059" data-name="Trazado 481059" d="M15.465,0,0,10.779l18.723,7.537Z" transform="matrix(0.719, -0.695, 0.695, 0.719, 412.195, 215.107)" fill="#8ca8c6"/>
          <path id="Trazado_481060" data-name="Trazado 481060" d="M18.594,16.869,10.179,0,0,17.43Z" transform="matrix(0.875, -0.485, 0.485, 0.875, 114.799, 345.875)" fill="#01bccd"/>
          <path id="Trazado_481061" data-name="Trazado 481061" d="M119.073,188.989l.368,18.846,16.67-11.379Z" transform="translate(59.113 297.652)" fill="#555"/>
          <g transform="matrix(1, 0, 0, 1, -73, -59)" filter="url(#Trazado_481062)">
            <path id="Trazado_481062-2" data-name="Trazado 481062" d="M61.187,0a61.187,61.187,0,1,0,61.187,61.187A61.187,61.187,0,0,0,61.187,0Z" transform="translate(343.6 125.06)" fill="#8ca8c6"/>
          </g>
          <g transform="matrix(1, 0, 0, 1, -73, -59)" filter="url(#Elipse_5914)">
            <circle id="Elipse_5914-2" data-name="Elipse 5914" cx="61.187" cy="61.187" r="61.187" transform="translate(136.31 226.62)" fill="#01bccd"/>
          </g>
          <g transform="matrix(1, 0, 0, 1, -73, -59)" filter="url(#Trazado_481063)">
            <path id="Trazado_481063-2" data-name="Trazado 481063" d="M86.578,0A86.578,86.578,0,1,1,0,86.578,86.578,86.578,0,0,1,86.578,0Z" transform="translate(316.72 374.8)" fill="#555"/>
          </g>
        </g>
      </g>
    </g>
    <path id="Trazado_484875" data-name="Trazado 484875" d="M28.161,12.992V17H25.818V5.625h4.438a5.134,5.134,0,0,1,2.254.469,3.454,3.454,0,0,1,1.5,1.332,3.714,3.714,0,0,1,.523,1.965,3.266,3.266,0,0,1-1.145,2.637,4.767,4.767,0,0,1-3.168.965Zm0-1.9h2.094a2.059,2.059,0,0,0,1.418-.437,1.591,1.591,0,0,0,.488-1.25,1.876,1.876,0,0,0-.492-1.352,1.839,1.839,0,0,0-1.359-.531H28.161ZM39.88,17.156a4.15,4.15,0,0,1-3.027-1.141,4.054,4.054,0,0,1-1.168-3.039v-.219a5.106,5.106,0,0,1,.492-2.277,3.612,3.612,0,0,1,1.395-1.547,3.914,3.914,0,0,1,2.059-.543,3.508,3.508,0,0,1,2.73,1.094,4.444,4.444,0,0,1,1,3.1v.922H37.974a2.1,2.1,0,0,0,.66,1.328,2,2,0,0,0,1.395.5,2.437,2.437,0,0,0,2.039-.945l1.109,1.242A3.389,3.389,0,0,1,41.8,16.754,4.511,4.511,0,0,1,39.88,17.156Zm-.258-6.945a1.411,1.411,0,0,0-1.09.455,2.357,2.357,0,0,0-.535,1.3h3.141v-.181a1.681,1.681,0,0,0-.406-1.165A1.456,1.456,0,0,0,39.622,10.211Zm9.766.453a6.134,6.134,0,0,0-.812-.062,1.654,1.654,0,0,0-1.68.867V17H44.638V8.547h2.133l.063,1.008a2.092,2.092,0,0,1,1.883-1.164,2.366,2.366,0,0,1,.7.1Zm3.2-2.117.07.945a2.971,2.971,0,0,1,2.43-1.1A2.255,2.255,0,0,1,57.333,9.68a2.9,2.9,0,0,1,2.539-1.289,2.521,2.521,0,0,1,2.047.8,3.681,3.681,0,0,1,.672,2.41V17H60.325V11.609a1.61,1.61,0,0,0-.281-1.051,1.246,1.246,0,0,0-.992-.332,1.409,1.409,0,0,0-1.406.969l.008,5.8H55.4V11.617a1.59,1.59,0,0,0-.289-1.062,1.259,1.259,0,0,0-.984-.328,1.463,1.463,0,0,0-1.391.8V17H50.474V8.547ZM66.708,17H64.443V8.547h2.266ZM64.31,6.359a1.112,1.112,0,0,1,.34-.836,1.465,1.465,0,0,1,1.848,0,1.105,1.105,0,0,1,.344.836,1.108,1.108,0,0,1-.348.844,1.448,1.448,0,0,1-1.836,0A1.108,1.108,0,0,1,64.31,6.359Zm6.961.109V8.547h1.445V10.2H71.271v4.219a1.007,1.007,0,0,0,.18.672.9.9,0,0,0,.688.2,3.6,3.6,0,0,0,.664-.055v1.711a4.648,4.648,0,0,1-1.367.2,2.156,2.156,0,0,1-2.422-2.4V10.2H67.779V8.547h1.234V6.469Zm6.594,10.688a4.15,4.15,0,0,1-3.027-1.141,4.054,4.054,0,0,1-1.168-3.039v-.219a5.106,5.106,0,0,1,.492-2.277,3.612,3.612,0,0,1,1.395-1.547,3.914,3.914,0,0,1,2.059-.543,3.508,3.508,0,0,1,2.73,1.094,4.444,4.444,0,0,1,1,3.1v.922H75.958a2.1,2.1,0,0,0,.66,1.328,2,2,0,0,0,1.395.5,2.437,2.437,0,0,0,2.039-.945l1.109,1.242a3.389,3.389,0,0,1-1.375,1.121A4.511,4.511,0,0,1,77.864,17.156Zm-.258-6.945a1.411,1.411,0,0,0-1.09.455,2.357,2.357,0,0,0-.535,1.3h3.141v-.181a1.681,1.681,0,0,0-.406-1.165A1.456,1.456,0,0,0,77.607,10.211ZM34.63,41a2.507,2.507,0,0,1-.227-.758,2.732,2.732,0,0,1-2.133.914,3,3,0,0,1-2.059-.719,2.312,2.312,0,0,1-.816-1.812,2.389,2.389,0,0,1,1-2.062,4.915,4.915,0,0,1,2.879-.727H34.31v-.484a1.393,1.393,0,0,0-.3-.937,1.183,1.183,0,0,0-.949-.352,1.345,1.345,0,0,0-.895.273.929.929,0,0,0-.324.75H29.583a2.268,2.268,0,0,1,.453-1.359,3,3,0,0,1,1.281-.98,4.669,4.669,0,0,1,1.859-.355,3.689,3.689,0,0,1,2.48.785,2.747,2.747,0,0,1,.918,2.207v3.664a4.041,4.041,0,0,0,.336,1.82V41Zm-1.867-1.57a1.945,1.945,0,0,0,.922-.223,1.462,1.462,0,0,0,.625-.6V37.156h-.844q-1.7,0-1.8,1.172l-.008.133a.9.9,0,0,0,.3.7A1.153,1.153,0,0,0,32.763,39.43Zm13.156-2.578a5.07,5.07,0,0,1-.887,3.129,2.843,2.843,0,0,1-2.395,1.176,2.633,2.633,0,0,1-2.07-.891V44.25H38.31v-11.7H40.4l.078.828a2.654,2.654,0,0,1,2.141-.984,2.862,2.862,0,0,1,2.43,1.156,5.207,5.207,0,0,1,.867,3.188Zm-2.258-.164a3.327,3.327,0,0,0-.418-1.82,1.361,1.361,0,0,0-1.215-.641,1.478,1.478,0,0,0-1.461.813V38.5a1.5,1.5,0,0,0,1.477.836Q43.661,39.336,43.661,36.688ZM49.7,41H47.435V29H49.7Zm4.242,0H51.677V32.547h2.266Zm-2.4-10.641a1.112,1.112,0,0,1,.34-.836,1.465,1.465,0,0,1,1.848,0,1.193,1.193,0,0,1,0,1.68,1.448,1.448,0,0,1-1.836,0A1.108,1.108,0,0,1,51.544,30.359Zm7.773,8.977a1.481,1.481,0,0,0,1.016-.344,1.2,1.2,0,0,0,.406-.914h2.117a2.9,2.9,0,0,1-.469,1.574,3.093,3.093,0,0,1-1.262,1.109,3.949,3.949,0,0,1-1.77.395A3.67,3.67,0,0,1,56.5,40,4.56,4.56,0,0,1,55.45,36.82v-.148a4.508,4.508,0,0,1,1.039-3.117,3.627,3.627,0,0,1,2.852-1.164,3.555,3.555,0,0,1,2.543.9,3.2,3.2,0,0,1,.973,2.4H60.739a1.551,1.551,0,0,0-.406-1.072,1.51,1.51,0,0,0-2.223.163,3.333,3.333,0,0,0-.4,1.866v.235a3.375,3.375,0,0,0,.4,1.878A1.377,1.377,0,0,0,59.318,39.336ZM69.044,41a2.507,2.507,0,0,1-.227-.758,2.732,2.732,0,0,1-2.133.914,3,3,0,0,1-2.059-.719,2.312,2.312,0,0,1-.816-1.812,2.389,2.389,0,0,1,1-2.062,4.915,4.915,0,0,1,2.879-.727h1.039v-.484a1.393,1.393,0,0,0-.3-.937,1.183,1.183,0,0,0-.949-.352,1.345,1.345,0,0,0-.895.273.929.929,0,0,0-.324.75H64a2.268,2.268,0,0,1,.453-1.359,3,3,0,0,1,1.281-.98,4.669,4.669,0,0,1,1.859-.355,3.689,3.689,0,0,1,2.48.785,2.747,2.747,0,0,1,.918,2.207v3.664a4.041,4.041,0,0,0,.336,1.82V41Zm-1.867-1.57a1.945,1.945,0,0,0,.922-.223,1.462,1.462,0,0,0,.625-.6V37.156H67.88q-1.7,0-1.8,1.172l-.008.133a.9.9,0,0,0,.3.7A1.153,1.153,0,0,0,67.177,39.43Zm10.3-4.766a6.134,6.134,0,0,0-.812-.062,1.654,1.654,0,0,0-1.68.867V41H72.724V32.547h2.133l.063,1.008A2.092,2.092,0,0,1,76.8,32.391a2.366,2.366,0,0,1,.7.1ZM16.384,56.547l.07.945a2.971,2.971,0,0,1,2.43-1.1,2.255,2.255,0,0,1,2.242,1.289,2.9,2.9,0,0,1,2.539-1.289,2.521,2.521,0,0,1,2.047.8,3.681,3.681,0,0,1,.672,2.41V65H24.118V59.609a1.61,1.61,0,0,0-.281-1.051,1.246,1.246,0,0,0-.992-.332,1.409,1.409,0,0,0-1.406.969l.008,5.8H19.189V59.617a1.59,1.59,0,0,0-.289-1.062,1.259,1.259,0,0,0-.984-.328,1.463,1.463,0,0,0-1.391.8V65H14.267V56.547Zm15.625,8.609a4.15,4.15,0,0,1-3.027-1.141,4.054,4.054,0,0,1-1.168-3.039v-.219a5.106,5.106,0,0,1,.492-2.277A3.612,3.612,0,0,1,29.7,56.934a3.914,3.914,0,0,1,2.059-.543,3.508,3.508,0,0,1,2.73,1.094,4.444,4.444,0,0,1,1,3.1v.922H30.1a2.1,2.1,0,0,0,.66,1.328,2,2,0,0,0,1.395.5,2.437,2.437,0,0,0,2.039-.945l1.109,1.242a3.389,3.389,0,0,1-1.375,1.121A4.511,4.511,0,0,1,32.009,65.156Zm-.258-6.945a1.411,1.411,0,0,0-1.09.455,2.357,2.357,0,0,0-.535,1.3h3.141v-.181a1.681,1.681,0,0,0-.406-1.165A1.456,1.456,0,0,0,31.751,58.211Zm7.406-1.664v8.914a3.024,3.024,0,0,1-.742,2.176,2.821,2.821,0,0,1-2.141.777,4.591,4.591,0,0,1-1.117-.133V66.492a4.238,4.238,0,0,0,.711.07q1.023,0,1.023-1.086v-8.93Zm-2.445-2.187a1.112,1.112,0,0,1,.34-.836,1.47,1.47,0,0,1,1.852,0A1.2,1.2,0,0,1,38.9,55.2a1.448,1.448,0,0,1-1.836,0A1.108,1.108,0,0,1,36.712,54.359ZM40.571,60.7a5.013,5.013,0,0,1,.484-2.242A3.546,3.546,0,0,1,42.45,56.93a4.069,4.069,0,0,1,2.113-.539,3.849,3.849,0,0,1,2.793,1.047,4.2,4.2,0,0,1,1.207,2.844l.016.578a4.418,4.418,0,0,1-1.086,3.121,4.209,4.209,0,0,1-5.832,0,4.5,4.5,0,0,1-1.09-3.187Zm2.258.16a3.16,3.16,0,0,0,.453,1.843,1.628,1.628,0,0,0,2.578.008,3.457,3.457,0,0,0,.461-2.015,3.128,3.128,0,0,0-.461-1.831,1.5,1.5,0,0,0-1.3-.649,1.474,1.474,0,0,0-1.281.646A3.516,3.516,0,0,0,42.829,60.856ZM54.72,58.664a6.134,6.134,0,0,0-.812-.062,1.654,1.654,0,0,0-1.68.867V65H49.97V56.547H52.1l.063,1.008a2.092,2.092,0,0,1,1.883-1.164,2.366,2.366,0,0,1,.7.1ZM60.47,65a2.507,2.507,0,0,1-.227-.758,2.732,2.732,0,0,1-2.133.914,3,3,0,0,1-2.059-.719,2.312,2.312,0,0,1-.816-1.812,2.389,2.389,0,0,1,1-2.062,4.915,4.915,0,0,1,2.879-.727H60.15v-.484a1.393,1.393,0,0,0-.3-.937,1.183,1.183,0,0,0-.949-.352,1.345,1.345,0,0,0-.895.273.929.929,0,0,0-.324.75H55.423a2.268,2.268,0,0,1,.453-1.359,3,3,0,0,1,1.281-.98,4.669,4.669,0,0,1,1.859-.355,3.689,3.689,0,0,1,2.48.785,2.747,2.747,0,0,1,.918,2.207v3.664a4.041,4.041,0,0,0,.336,1.82V65ZM58.6,63.43a1.945,1.945,0,0,0,.922-.223,1.462,1.462,0,0,0,.625-.6V61.156h-.844q-1.7,0-1.8,1.172l-.008.133a.9.9,0,0,0,.3.7A1.153,1.153,0,0,0,58.6,63.43Zm10.125-.766a.727.727,0,0,0-.41-.652A4.659,4.659,0,0,0,67,61.586q-3.016-.633-3.016-2.562a2.323,2.323,0,0,1,.934-1.879,3.766,3.766,0,0,1,2.441-.754,4.053,4.053,0,0,1,2.574.758,2.388,2.388,0,0,1,.965,1.969H68.642a1.092,1.092,0,0,0-.312-.8A1.322,1.322,0,0,0,67.353,58a1.351,1.351,0,0,0-.883.258.814.814,0,0,0-.312.656.7.7,0,0,0,.355.605,3.657,3.657,0,0,0,1.2.4,9.8,9.8,0,0,1,1.422.379,2.336,2.336,0,0,1,1.789,2.273,2.205,2.205,0,0,1-.992,1.871,4.28,4.28,0,0,1-2.562.715,4.47,4.47,0,0,1-1.887-.379,3.166,3.166,0,0,1-1.293-1.039,2.414,2.414,0,0,1-.469-1.426h2.141a1.179,1.179,0,0,0,.445.922,1.766,1.766,0,0,0,1.109.32,1.635,1.635,0,0,0,.98-.246A.766.766,0,0,0,68.728,62.664Zm7.281-1.953a5.094,5.094,0,0,1,.887-3.148,2.877,2.877,0,0,1,2.426-1.172,2.589,2.589,0,0,1,2.039.922V53h2.266V65H81.587l-.109-.9a2.657,2.657,0,0,1-2.172,1.055,2.869,2.869,0,0,1-2.395-1.176A5.258,5.258,0,0,1,76.009,60.711Zm2.258.168a3.337,3.337,0,0,0,.414,1.823,1.349,1.349,0,0,0,1.2.634,1.511,1.511,0,0,0,1.477-.884V59.111a1.489,1.489,0,0,0-1.461-.884Q78.267,58.227,78.267,60.879Zm11,4.277a4.15,4.15,0,0,1-3.027-1.141,4.054,4.054,0,0,1-1.168-3.039v-.219a5.106,5.106,0,0,1,.492-2.277,3.612,3.612,0,0,1,1.395-1.547,3.914,3.914,0,0,1,2.059-.543,3.508,3.508,0,0,1,2.73,1.094,4.444,4.444,0,0,1,1,3.1v.922H87.361a2.1,2.1,0,0,0,.66,1.328,2,2,0,0,0,1.395.5,2.437,2.437,0,0,0,2.039-.945l1.109,1.242a3.389,3.389,0,0,1-1.375,1.121A4.511,4.511,0,0,1,89.267,65.156Zm-.258-6.945a1.411,1.411,0,0,0-1.09.455,2.357,2.357,0,0,0-.535,1.3h3.141v-.181a1.681,1.681,0,0,0-.406-1.165A1.456,1.456,0,0,0,89.009,58.211ZM21.5,84.852a5.07,5.07,0,0,1-.887,3.129,2.843,2.843,0,0,1-2.395,1.176,2.633,2.633,0,0,1-2.07-.891V92.25H13.888v-11.7h2.094l.078.828a2.654,2.654,0,0,1,2.141-.984,2.862,2.862,0,0,1,2.43,1.156,5.207,5.207,0,0,1,.867,3.188Zm-2.258-.164a3.327,3.327,0,0,0-.418-1.82,1.361,1.361,0,0,0-1.215-.641,1.479,1.479,0,0,0-1.461.813V86.5a1.5,1.5,0,0,0,1.477.836Q19.239,87.336,19.239,84.688Zm8.406-2.023a6.134,6.134,0,0,0-.812-.062,1.654,1.654,0,0,0-1.68.867V89H22.9V80.547h2.133l.063,1.008a2.092,2.092,0,0,1,1.883-1.164,2.366,2.366,0,0,1,.7.1ZM28.1,84.7a5.013,5.013,0,0,1,.484-2.242,3.546,3.546,0,0,1,1.395-1.523,4.069,4.069,0,0,1,2.113-.539,3.849,3.849,0,0,1,2.793,1.047,4.2,4.2,0,0,1,1.207,2.844l.016.578a4.418,4.418,0,0,1-1.086,3.121,3.775,3.775,0,0,1-2.914,1.176,3.793,3.793,0,0,1-2.918-1.172A4.5,4.5,0,0,1,28.1,84.8Zm2.258.16A3.16,3.16,0,0,0,30.81,86.7a1.628,1.628,0,0,0,2.578.008,3.457,3.457,0,0,0,.461-2.015,3.128,3.128,0,0,0-.461-1.831,1.5,1.5,0,0,0-1.3-.649,1.474,1.474,0,0,0-1.281.646A3.516,3.516,0,0,0,30.357,84.856Zm6.789-.145a5.094,5.094,0,0,1,.887-3.148,2.877,2.877,0,0,1,2.426-1.172,2.589,2.589,0,0,1,2.039.922V77h2.266V89H42.724l-.109-.9a2.657,2.657,0,0,1-2.172,1.055,2.869,2.869,0,0,1-2.395-1.176A5.258,5.258,0,0,1,37.146,84.711Zm2.258.168a3.337,3.337,0,0,0,.414,1.823,1.349,1.349,0,0,0,1.2.634,1.511,1.511,0,0,0,1.477-.884V83.111a1.489,1.489,0,0,0-1.461-.884Q39.4,82.227,39.4,84.879Zm12.172,3.262a2.831,2.831,0,0,1-2.312,1.016,2.67,2.67,0,0,1-2.074-.781,3.335,3.335,0,0,1-.73-2.289V80.547h2.258v5.467q0,1.322,1.2,1.322a1.63,1.63,0,0,0,1.578-.8V80.547h2.266V89H51.638Zm7.406-.8A1.481,1.481,0,0,0,60,86.992a1.2,1.2,0,0,0,.406-.914h2.117a2.9,2.9,0,0,1-.469,1.574,3.093,3.093,0,0,1-1.262,1.109,3.949,3.949,0,0,1-1.77.395A3.67,3.67,0,0,1,56.161,88a4.56,4.56,0,0,1-1.047-3.184v-.148a4.508,4.508,0,0,1,1.039-3.117,3.627,3.627,0,0,1,2.852-1.164,3.555,3.555,0,0,1,2.543.9,3.2,3.2,0,0,1,.973,2.4H60.4A1.551,1.551,0,0,0,60,82.623a1.51,1.51,0,0,0-2.223.163,3.333,3.333,0,0,0-.4,1.866v.235a3.375,3.375,0,0,0,.4,1.878A1.377,1.377,0,0,0,58.982,87.336Zm8.344,0a1.481,1.481,0,0,0,1.016-.344,1.2,1.2,0,0,0,.406-.914h2.117a2.9,2.9,0,0,1-.469,1.574,3.093,3.093,0,0,1-1.262,1.109,3.949,3.949,0,0,1-1.77.395A3.67,3.67,0,0,1,64.505,88a4.56,4.56,0,0,1-1.047-3.184v-.148A4.508,4.508,0,0,1,64.5,81.555a3.627,3.627,0,0,1,2.852-1.164,3.555,3.555,0,0,1,2.543.9,3.2,3.2,0,0,1,.973,2.4H68.747a1.552,1.552,0,0,0-.406-1.072,1.51,1.51,0,0,0-2.223.163,3.333,3.333,0,0,0-.4,1.866v.235a3.375,3.375,0,0,0,.4,1.878A1.377,1.377,0,0,0,67.325,87.336ZM74.536,89H72.271V80.547h2.266Zm-2.4-10.641a1.112,1.112,0,0,1,.34-.836,1.465,1.465,0,0,1,1.848,0,1.193,1.193,0,0,1,0,1.68,1.448,1.448,0,0,1-1.836,0A1.108,1.108,0,0,1,72.138,78.359ZM76.044,84.7a5.013,5.013,0,0,1,.484-2.242,3.546,3.546,0,0,1,1.395-1.523,4.069,4.069,0,0,1,2.113-.539,3.849,3.849,0,0,1,2.793,1.047,4.2,4.2,0,0,1,1.207,2.844l.016.578a4.418,4.418,0,0,1-1.086,3.121,4.209,4.209,0,0,1-5.832,0,4.5,4.5,0,0,1-1.09-3.187Zm2.258.16a3.16,3.16,0,0,0,.453,1.843,1.628,1.628,0,0,0,2.578.008,3.457,3.457,0,0,0,.461-2.015,3.128,3.128,0,0,0-.461-1.831,1.5,1.5,0,0,0-1.3-.649,1.474,1.474,0,0,0-1.281.646A3.516,3.516,0,0,0,78.3,84.856ZM80.482,77h2.461l-2.164,2.422H78.943Zm7.039,3.547.07.977a2.951,2.951,0,0,1,2.43-1.133,2.453,2.453,0,0,1,2,.789,3.682,3.682,0,0,1,.672,2.359V89H90.435V83.594a1.465,1.465,0,0,0-.312-1.043,1.4,1.4,0,0,0-1.039-.324,1.553,1.553,0,0,0-1.43.813V89H85.4V80.547Z" transform="translate(817.693 5544.114)" fill="#12263f"/>
    <path id="Trazado_484876" data-name="Trazado 484876" d="M10.693,12.07h-4.5v3.047h5.281V17H3.849V5.625h7.609v1.9H6.193v2.711h4.5ZM15.083,17H12.818V5h2.266Zm4.242,0H17.06V8.547h2.266Zm-2.4-10.641a1.112,1.112,0,0,1,.34-.836,1.465,1.465,0,0,1,1.848,0,1.105,1.105,0,0,1,.344.836,1.108,1.108,0,0,1-.348.844,1.448,1.448,0,0,1-1.836,0A1.108,1.108,0,0,1,16.927,6.359ZM23.3,8.547l.07.945a2.971,2.971,0,0,1,2.43-1.1A2.255,2.255,0,0,1,28.044,9.68a2.9,2.9,0,0,1,2.539-1.289,2.521,2.521,0,0,1,2.047.8A3.681,3.681,0,0,1,33.3,11.6V17H31.036V11.609a1.61,1.61,0,0,0-.281-1.051,1.246,1.246,0,0,0-.992-.332,1.409,1.409,0,0,0-1.406.969l.008,5.8H26.107V11.617a1.59,1.59,0,0,0-.289-1.062,1.259,1.259,0,0,0-.984-.328,1.463,1.463,0,0,0-1.391.8V17H21.185V8.547ZM37.419,17H35.154V8.547h2.266Zm-2.4-10.641a1.112,1.112,0,0,1,.34-.836,1.465,1.465,0,0,1,1.848,0,1.105,1.105,0,0,1,.344.836A1.108,1.108,0,0,1,37.2,7.2a1.448,1.448,0,0,1-1.836,0A1.108,1.108,0,0,1,35.021,6.359Zm6.336,2.188.07.977a2.951,2.951,0,0,1,2.43-1.133,2.453,2.453,0,0,1,2,.789,3.682,3.682,0,0,1,.672,2.359V17H44.271V11.594a1.465,1.465,0,0,0-.312-1.043,1.4,1.4,0,0,0-1.039-.324,1.553,1.553,0,0,0-1.43.813V17H39.232V8.547ZM53.138,17a2.507,2.507,0,0,1-.227-.758,2.732,2.732,0,0,1-2.133.914,3,3,0,0,1-2.059-.719,2.312,2.312,0,0,1-.816-1.812,2.389,2.389,0,0,1,1-2.062,4.915,4.915,0,0,1,2.879-.727h1.039v-.484a1.393,1.393,0,0,0-.3-.937,1.183,1.183,0,0,0-.949-.352,1.345,1.345,0,0,0-.895.273.929.929,0,0,0-.324.75H48.091a2.268,2.268,0,0,1,.453-1.359,3,3,0,0,1,1.281-.98,4.669,4.669,0,0,1,1.859-.355,3.689,3.689,0,0,1,2.48.785,2.747,2.747,0,0,1,.918,2.207v3.664a4.041,4.041,0,0,0,.336,1.82V17Zm-1.867-1.57a1.945,1.945,0,0,0,.922-.223,1.462,1.462,0,0,0,.625-.6V13.156h-.844q-1.7,0-1.8,1.172l-.008.133a.9.9,0,0,0,.3.7A1.153,1.153,0,0,0,51.271,15.43Zm9.18-2.719a5.094,5.094,0,0,1,.887-3.148,2.877,2.877,0,0,1,2.426-1.172,2.589,2.589,0,0,1,2.039.922V5h2.266V17H66.029l-.109-.9a2.657,2.657,0,0,1-2.172,1.055,2.869,2.869,0,0,1-2.395-1.176A5.258,5.258,0,0,1,60.45,12.711Zm2.258.168a3.337,3.337,0,0,0,.414,1.823,1.349,1.349,0,0,0,1.2.634,1.511,1.511,0,0,0,1.477-.884V11.111a1.489,1.489,0,0,0-1.461-.884Q62.708,10.227,62.708,12.879ZM74.88,16.141a2.831,2.831,0,0,1-2.312,1.016,2.67,2.67,0,0,1-2.074-.781,3.335,3.335,0,0,1-.73-2.289V8.547h2.258v5.467q0,1.322,1.2,1.322a1.63,1.63,0,0,0,1.578-.8V8.547h2.266V17H74.943Zm3.539-3.43a5.094,5.094,0,0,1,.887-3.148,2.877,2.877,0,0,1,2.426-1.172,2.589,2.589,0,0,1,2.039.922V5h2.266V17H84l-.109-.9a2.657,2.657,0,0,1-2.172,1.055,2.869,2.869,0,0,1-2.395-1.176A5.258,5.258,0,0,1,78.419,12.711Zm2.258.168a3.337,3.337,0,0,0,.414,1.823,1.349,1.349,0,0,0,1.2.634,1.511,1.511,0,0,0,1.477-.884V11.111a1.489,1.489,0,0,0-1.461-.884Q80.677,10.227,80.677,12.879ZM92.685,17a2.507,2.507,0,0,1-.227-.758,2.732,2.732,0,0,1-2.133.914,3,3,0,0,1-2.059-.719,2.312,2.312,0,0,1-.816-1.812,2.389,2.389,0,0,1,1-2.062,4.915,4.915,0,0,1,2.879-.727h1.039v-.484a1.393,1.393,0,0,0-.3-.937,1.183,1.183,0,0,0-.949-.352,1.345,1.345,0,0,0-.895.273.929.929,0,0,0-.324.75H87.638a2.268,2.268,0,0,1,.453-1.359,3,3,0,0,1,1.281-.98,4.669,4.669,0,0,1,1.859-.355,3.689,3.689,0,0,1,2.48.785,2.747,2.747,0,0,1,.918,2.207v3.664a4.041,4.041,0,0,0,.336,1.82V17Zm-1.867-1.57a1.945,1.945,0,0,0,.922-.223,1.462,1.462,0,0,0,.625-.6V13.156h-.844q-1.7,0-1.8,1.172l-.008.133a.9.9,0,0,0,.3.7A1.153,1.153,0,0,0,90.818,15.43Zm10.125-.766a.727.727,0,0,0-.41-.652,4.659,4.659,0,0,0-1.316-.426Q96.2,12.953,96.2,11.023a2.323,2.323,0,0,1,.934-1.879,3.766,3.766,0,0,1,2.441-.754,4.053,4.053,0,0,1,2.574.758,2.388,2.388,0,0,1,.965,1.969h-2.258a1.092,1.092,0,0,0-.312-.8A1.322,1.322,0,0,0,99.568,10a1.351,1.351,0,0,0-.883.258.814.814,0,0,0-.312.656.7.7,0,0,0,.355.605,3.657,3.657,0,0,0,1.2.4,9.8,9.8,0,0,1,1.422.379,2.336,2.336,0,0,1,1.789,2.273,2.2,2.2,0,0,1-.992,1.871,4.28,4.28,0,0,1-2.562.715,4.47,4.47,0,0,1-1.887-.379A3.166,3.166,0,0,1,96.4,15.738a2.414,2.414,0,0,1-.469-1.426h2.141a1.179,1.179,0,0,0,.445.922,1.766,1.766,0,0,0,1.109.32,1.635,1.635,0,0,0,.98-.246A.766.766,0,0,0,100.943,14.664ZM15.7,37.8l1.563-5.258h2.422l-3.4,9.766-.187.445a2.577,2.577,0,0,1-2.5,1.656,3.553,3.553,0,0,1-1-.148V42.555l.344.008a1.857,1.857,0,0,0,.957-.2,1.283,1.283,0,0,0,.5-.648l.266-.7L11.7,32.547h2.43Zm12.375,1.531a1.481,1.481,0,0,0,1.016-.344,1.2,1.2,0,0,0,.406-.914h2.117a2.9,2.9,0,0,1-.469,1.574,3.093,3.093,0,0,1-1.262,1.109,3.949,3.949,0,0,1-1.77.395A3.67,3.67,0,0,1,25.255,40a4.56,4.56,0,0,1-1.047-3.184v-.148a4.508,4.508,0,0,1,1.039-3.117A3.627,3.627,0,0,1,28.1,32.391a3.555,3.555,0,0,1,2.543.9,3.2,3.2,0,0,1,.973,2.4H29.5a1.551,1.551,0,0,0-.406-1.072,1.51,1.51,0,0,0-2.223.163,3.333,3.333,0,0,0-.4,1.866v.235a3.375,3.375,0,0,0,.4,1.878A1.377,1.377,0,0,0,28.075,39.336ZM32.552,36.7a5.013,5.013,0,0,1,.484-2.242,3.546,3.546,0,0,1,1.395-1.523,4.069,4.069,0,0,1,2.113-.539,3.849,3.849,0,0,1,2.793,1.047,4.2,4.2,0,0,1,1.207,2.844l.016.578a4.418,4.418,0,0,1-1.086,3.121,4.209,4.209,0,0,1-5.832,0,4.5,4.5,0,0,1-1.09-3.187Zm2.258.16a3.16,3.16,0,0,0,.453,1.843,1.628,1.628,0,0,0,2.578.008,3.457,3.457,0,0,0,.461-2.015,3.128,3.128,0,0,0-.461-1.831,1.5,1.5,0,0,0-1.3-.649,1.474,1.474,0,0,0-1.281.646A3.516,3.516,0,0,0,34.81,36.856Zm9.219-4.309.07.977a2.951,2.951,0,0,1,2.43-1.133,2.453,2.453,0,0,1,2,.789,3.682,3.682,0,0,1,.672,2.359V41H46.943V35.594a1.465,1.465,0,0,0-.312-1.043,1.4,1.4,0,0,0-1.039-.324,1.553,1.553,0,0,0-1.43.813V41H41.9V32.547Zm12.547-1.8a10.866,10.866,0,0,0-1.25-.078q-1.531,0-1.531,1.3v.57h1.68V34.2h-1.68V41H51.529V34.2H50.271V32.547h1.258v-.656a2.888,2.888,0,0,1,.922-2.262,3.769,3.769,0,0,1,2.563-.793q1.18,0,3.828.25V41H56.575ZM63.1,41H60.833V32.547H63.1ZM60.7,30.359a1.112,1.112,0,0,1,.34-.836,1.465,1.465,0,0,1,1.848,0,1.193,1.193,0,0,1,0,1.68,1.448,1.448,0,0,1-1.836,0A1.108,1.108,0,0,1,60.7,30.359Zm7.773,8.977a1.481,1.481,0,0,0,1.016-.344,1.2,1.2,0,0,0,.406-.914h2.117a2.9,2.9,0,0,1-.469,1.574,3.093,3.093,0,0,1-1.262,1.109,3.949,3.949,0,0,1-1.77.395A3.67,3.67,0,0,1,65.654,40a4.56,4.56,0,0,1-1.047-3.184v-.148a4.508,4.508,0,0,1,1.039-3.117A3.627,3.627,0,0,1,68.5,32.391a3.555,3.555,0,0,1,2.543.9,3.2,3.2,0,0,1,.973,2.4H69.9a1.551,1.551,0,0,0-.406-1.072,1.51,1.51,0,0,0-2.223.163,3.333,3.333,0,0,0-.4,1.866v.235a3.375,3.375,0,0,0,.4,1.878A1.377,1.377,0,0,0,68.474,39.336Zm7.531-8.867v2.078H77.45V34.2H76.005v4.219a1.007,1.007,0,0,0,.18.672.9.9,0,0,0,.688.2,3.6,3.6,0,0,0,.664-.055v1.711a4.648,4.648,0,0,1-1.367.2,2.156,2.156,0,0,1-2.422-2.4V34.2H72.513V32.547h1.234V30.469ZM78.122,36.7a5.013,5.013,0,0,1,.484-2.242A3.546,3.546,0,0,1,80,32.93a4.069,4.069,0,0,1,2.113-.539,3.849,3.849,0,0,1,2.793,1.047,4.2,4.2,0,0,1,1.207,2.844l.016.578a4.418,4.418,0,0,1-1.086,3.121,4.209,4.209,0,0,1-5.832,0,4.5,4.5,0,0,1-1.09-3.187Zm2.258.16a3.16,3.16,0,0,0,.453,1.843,1.628,1.628,0,0,0,2.578.008,3.457,3.457,0,0,0,.461-2.015,3.128,3.128,0,0,0-.461-1.831,1.5,1.5,0,0,0-1.3-.649,1.474,1.474,0,0,0-1.281.646A3.516,3.516,0,0,0,80.38,36.856ZM92.1,38.664a.727.727,0,0,0-.41-.652,4.659,4.659,0,0,0-1.316-.426q-3.016-.633-3.016-2.562a2.323,2.323,0,0,1,.934-1.879,3.766,3.766,0,0,1,2.441-.754,4.053,4.053,0,0,1,2.574.758,2.388,2.388,0,0,1,.965,1.969H92.013a1.092,1.092,0,0,0-.312-.8A1.322,1.322,0,0,0,90.724,34a1.351,1.351,0,0,0-.883.258.814.814,0,0,0-.312.656.7.7,0,0,0,.355.605,3.657,3.657,0,0,0,1.2.4,9.8,9.8,0,0,1,1.422.379,2.336,2.336,0,0,1,1.789,2.273,2.2,2.2,0,0,1-.992,1.871,4.28,4.28,0,0,1-2.562.715,4.47,4.47,0,0,1-1.887-.379,3.166,3.166,0,0,1-1.293-1.039,2.414,2.414,0,0,1-.469-1.426h2.141a1.179,1.179,0,0,0,.445.922,1.766,1.766,0,0,0,1.109.32,1.635,1.635,0,0,0,.98-.246A.766.766,0,0,0,92.1,38.664Z" transform="translate(609.244 5677.011)" fill="#12263f"/>
    <path id="Trazado_484874" data-name="Trazado 484874" d="M11.926,13.211A4.025,4.025,0,0,1,10.57,16.1a4.76,4.76,0,0,1-3.223,1.055,4.28,4.28,0,0,1-3.441-1.473,6.038,6.038,0,0,1-1.254-4.043v-.7A6.819,6.819,0,0,1,3.23,8.055,4.332,4.332,0,0,1,4.883,6.137a4.629,4.629,0,0,1,2.5-.668,4.637,4.637,0,0,1,3.172,1.055,4.326,4.326,0,0,1,1.391,2.961H9.6a2.376,2.376,0,0,0-.613-1.6,2.271,2.271,0,0,0-1.605-.5,1.991,1.991,0,0,0-1.754.84,4.707,4.707,0,0,0-.6,2.605V11.7a5.038,5.038,0,0,0,.559,2.7,1.954,1.954,0,0,0,1.762.852,2.314,2.314,0,0,0,1.621-.5,2.241,2.241,0,0,0,.613-1.535Zm1.039-.516a5.013,5.013,0,0,1,.484-2.242A3.546,3.546,0,0,1,14.844,8.93a4.069,4.069,0,0,1,2.113-.539A3.849,3.849,0,0,1,19.75,9.438a4.2,4.2,0,0,1,1.207,2.844l.016.578a4.418,4.418,0,0,1-1.086,3.121,3.775,3.775,0,0,1-2.914,1.176,3.793,3.793,0,0,1-2.918-1.172,4.5,4.5,0,0,1-1.09-3.187Zm2.258.16a3.16,3.16,0,0,0,.453,1.843,1.628,1.628,0,0,0,2.578.008,3.457,3.457,0,0,0,.461-2.015,3.128,3.128,0,0,0-.461-1.831,1.5,1.5,0,0,0-1.3-.649,1.474,1.474,0,0,0-1.281.646A3.516,3.516,0,0,0,15.223,12.856ZM24.48,8.547l.07.945a2.971,2.971,0,0,1,2.43-1.1A2.255,2.255,0,0,1,29.223,9.68a2.9,2.9,0,0,1,2.539-1.289,2.521,2.521,0,0,1,2.047.8,3.681,3.681,0,0,1,.672,2.41V17H32.215V11.609a1.61,1.61,0,0,0-.281-1.051,1.246,1.246,0,0,0-.992-.332,1.409,1.409,0,0,0-1.406.969l.008,5.8H27.285V11.617A1.59,1.59,0,0,0,27,10.555a1.259,1.259,0,0,0-.984-.328,1.463,1.463,0,0,0-1.391.8V17H22.363V8.547Zm16.8,7.594a2.831,2.831,0,0,1-2.312,1.016,2.67,2.67,0,0,1-2.074-.781,3.335,3.335,0,0,1-.73-2.289V8.547h2.258v5.467q0,1.322,1.2,1.322a1.63,1.63,0,0,0,1.578-.8V8.547h2.266V17H41.34Zm5.969-7.594.07.977a2.951,2.951,0,0,1,2.43-1.133,2.453,2.453,0,0,1,2,.789,3.682,3.682,0,0,1,.672,2.359V17H50.16V11.594a1.465,1.465,0,0,0-.312-1.043,1.4,1.4,0,0,0-1.039-.324,1.553,1.553,0,0,0-1.43.813V17H45.121V8.547ZM56.512,17H54.246V8.547h2.266Zm-2.4-10.641a1.112,1.112,0,0,1,.34-.836,1.465,1.465,0,0,1,1.848,0,1.105,1.105,0,0,1,.344.836A1.108,1.108,0,0,1,56.3,7.2a1.448,1.448,0,0,1-1.836,0A1.108,1.108,0,0,1,54.113,6.359Zm7.773,8.977a1.481,1.481,0,0,0,1.016-.344,1.2,1.2,0,0,0,.406-.914h2.117a2.9,2.9,0,0,1-.469,1.574A3.093,3.093,0,0,1,63.7,16.762a3.949,3.949,0,0,1-1.77.395A3.67,3.67,0,0,1,59.066,16,4.56,4.56,0,0,1,58.02,12.82v-.148a4.508,4.508,0,0,1,1.039-3.117A3.627,3.627,0,0,1,61.91,8.391a3.555,3.555,0,0,1,2.543.9,3.2,3.2,0,0,1,.973,2.4H63.309a1.551,1.551,0,0,0-.406-1.072,1.51,1.51,0,0,0-2.223.163,3.333,3.333,0,0,0-.4,1.866v.235a3.375,3.375,0,0,0,.4,1.878A1.377,1.377,0,0,0,61.887,15.336ZM71.613,17a2.507,2.507,0,0,1-.227-.758,2.732,2.732,0,0,1-2.133.914,3,3,0,0,1-2.059-.719,2.312,2.312,0,0,1-.816-1.812,2.389,2.389,0,0,1,1-2.062,4.915,4.915,0,0,1,2.879-.727h1.039v-.484a1.393,1.393,0,0,0-.3-.937,1.183,1.183,0,0,0-.949-.352,1.345,1.345,0,0,0-.895.273.929.929,0,0,0-.324.75H66.566a2.268,2.268,0,0,1,.453-1.359,3,3,0,0,1,1.281-.98,4.669,4.669,0,0,1,1.859-.355,3.689,3.689,0,0,1,2.48.785,2.747,2.747,0,0,1,.918,2.207v3.664a4.041,4.041,0,0,0,.336,1.82V17Zm-1.867-1.57a1.945,1.945,0,0,0,.922-.223,1.462,1.462,0,0,0,.625-.6V13.156h-.844q-1.7,0-1.8,1.172l-.008.133a.9.9,0,0,0,.3.7A1.153,1.153,0,0,0,69.746,15.43Zm9.063-.094a1.481,1.481,0,0,0,1.016-.344,1.2,1.2,0,0,0,.406-.914h2.117a2.9,2.9,0,0,1-.469,1.574,3.093,3.093,0,0,1-1.262,1.109,3.949,3.949,0,0,1-1.77.395A3.67,3.67,0,0,1,75.988,16a4.56,4.56,0,0,1-1.047-3.184v-.148A4.508,4.508,0,0,1,75.98,9.555a3.627,3.627,0,0,1,2.852-1.164,3.555,3.555,0,0,1,2.543.9,3.2,3.2,0,0,1,.973,2.4H80.23a1.551,1.551,0,0,0-.406-1.072,1.51,1.51,0,0,0-2.223.163,3.333,3.333,0,0,0-.4,1.866v.235a3.375,3.375,0,0,0,.4,1.878A1.377,1.377,0,0,0,78.809,15.336ZM86.02,17H83.754V8.547H86.02Zm-2.4-10.641a1.112,1.112,0,0,1,.34-.836,1.465,1.465,0,0,1,1.848,0,1.105,1.105,0,0,1,.344.836A1.108,1.108,0,0,1,85.8,7.2a1.448,1.448,0,0,1-1.836,0A1.108,1.108,0,0,1,83.621,6.359ZM87.527,12.7a5.013,5.013,0,0,1,.484-2.242A3.546,3.546,0,0,1,89.406,8.93a4.069,4.069,0,0,1,2.113-.539,3.849,3.849,0,0,1,2.793,1.047,4.2,4.2,0,0,1,1.207,2.844l.016.578a4.418,4.418,0,0,1-1.086,3.121,4.209,4.209,0,0,1-5.832,0,4.5,4.5,0,0,1-1.09-3.187Zm2.258.16a3.16,3.16,0,0,0,.453,1.843,1.628,1.628,0,0,0,2.578.008,3.457,3.457,0,0,0,.461-2.015,3.128,3.128,0,0,0-.461-1.831,1.5,1.5,0,0,0-1.3-.649,1.474,1.474,0,0,0-1.281.646A3.516,3.516,0,0,0,89.785,12.856ZM91.965,5h2.461L92.262,7.422H90.426ZM99,8.547l.07.977a2.951,2.951,0,0,1,2.43-1.133,2.453,2.453,0,0,1,2,.789,3.682,3.682,0,0,1,.672,2.359V17h-2.258V11.594a1.465,1.465,0,0,0-.312-1.043,1.4,1.4,0,0,0-1.039-.324,1.553,1.553,0,0,0-1.43.813V17H96.879V8.547ZM30.27,41a2.507,2.507,0,0,1-.227-.758,2.732,2.732,0,0,1-2.133.914,3,3,0,0,1-2.059-.719,2.312,2.312,0,0,1-.816-1.812,2.389,2.389,0,0,1,1-2.062,4.915,4.915,0,0,1,2.879-.727h1.039v-.484a1.393,1.393,0,0,0-.3-.937,1.183,1.183,0,0,0-.949-.352,1.345,1.345,0,0,0-.895.273.929.929,0,0,0-.324.75H25.223a2.268,2.268,0,0,1,.453-1.359,3,3,0,0,1,1.281-.98,4.669,4.669,0,0,1,1.859-.355,3.689,3.689,0,0,1,2.48.785,2.747,2.747,0,0,1,.918,2.207v3.664a4.041,4.041,0,0,0,.336,1.82V41ZM28.4,39.43a1.945,1.945,0,0,0,.922-.223,1.462,1.462,0,0,0,.625-.6V37.156h-.844q-1.7,0-1.8,1.172l-.008.133a.9.9,0,0,0,.3.7A1.153,1.153,0,0,0,28.4,39.43Zm9.063-.094a1.481,1.481,0,0,0,1.016-.344,1.2,1.2,0,0,0,.406-.914H41a2.9,2.9,0,0,1-.469,1.574,3.093,3.093,0,0,1-1.262,1.109,3.949,3.949,0,0,1-1.77.395A3.67,3.67,0,0,1,34.645,40,4.56,4.56,0,0,1,33.6,36.82v-.148a4.508,4.508,0,0,1,1.039-3.117,3.627,3.627,0,0,1,2.852-1.164,3.555,3.555,0,0,1,2.543.9A3.2,3.2,0,0,1,41,35.7H38.887a1.551,1.551,0,0,0-.406-1.072,1.51,1.51,0,0,0-2.223.163,3.333,3.333,0,0,0-.4,1.866v.235a3.375,3.375,0,0,0,.4,1.878A1.377,1.377,0,0,0,37.465,39.336Zm8.719,1.82a4.15,4.15,0,0,1-3.027-1.141,4.054,4.054,0,0,1-1.168-3.039v-.219a5.106,5.106,0,0,1,.492-2.277,3.612,3.612,0,0,1,1.395-1.547,3.914,3.914,0,0,1,2.059-.543,3.508,3.508,0,0,1,2.73,1.094,4.444,4.444,0,0,1,1,3.1v.922H44.277a2.1,2.1,0,0,0,.66,1.328,2,2,0,0,0,1.395.5,2.437,2.437,0,0,0,2.039-.945l1.109,1.242a3.389,3.389,0,0,1-1.375,1.121A4.511,4.511,0,0,1,46.184,41.156Zm-.258-6.945a1.411,1.411,0,0,0-1.09.455,2.357,2.357,0,0,0-.535,1.3h3.141v-.181a1.681,1.681,0,0,0-.406-1.165A1.456,1.456,0,0,0,45.926,34.211Zm9.766.453a6.134,6.134,0,0,0-.812-.062,1.654,1.654,0,0,0-1.68.867V41H50.941V32.547h2.133l.063,1.008a2.092,2.092,0,0,1,1.883-1.164,2.366,2.366,0,0,1,.7.1Zm4.18-4.2v2.078h1.445V34.2H59.871v4.219a1.007,1.007,0,0,0,.18.672.9.9,0,0,0,.688.2,3.6,3.6,0,0,0,.664-.055v1.711a4.648,4.648,0,0,1-1.367.2,2.156,2.156,0,0,1-2.422-2.4V34.2H56.379V32.547h1.234V30.469ZM64.957,41H62.691V32.547h2.266Zm-2.4-10.641a1.112,1.112,0,0,1,.34-.836,1.465,1.465,0,0,1,1.848,0,1.193,1.193,0,0,1,0,1.68,1.448,1.448,0,0,1-1.836,0A1.108,1.108,0,0,1,62.559,30.359Zm7.422,7.883,1.57-5.7H73.91L71.059,41H68.9l-2.852-8.453H68.41ZM79.684,41a2.507,2.507,0,0,1-.227-.758,2.732,2.732,0,0,1-2.133.914,3,3,0,0,1-2.059-.719,2.312,2.312,0,0,1-.816-1.812,2.389,2.389,0,0,1,1-2.062,4.915,4.915,0,0,1,2.879-.727h1.039v-.484a1.393,1.393,0,0,0-.3-.937,1.183,1.183,0,0,0-.949-.352,1.345,1.345,0,0,0-.895.273.929.929,0,0,0-.324.75H74.637a2.268,2.268,0,0,1,.453-1.359,3,3,0,0,1,1.281-.98,4.669,4.669,0,0,1,1.859-.355,3.689,3.689,0,0,1,2.48.785,2.747,2.747,0,0,1,.918,2.207v3.664a4.041,4.041,0,0,0,.336,1.82V41Zm-1.867-1.57a1.945,1.945,0,0,0,.922-.223,1.462,1.462,0,0,0,.625-.6V37.156H78.52q-1.7,0-1.8,1.172l-.008.133a.9.9,0,0,0,.3.7A1.153,1.153,0,0,0,77.816,39.43Z" transform="translate(815.534 5851.443)" fill="#f3f9ff"/>
    <g id="Grupo_726795" data-name="Grupo 726795" transform="translate(685.503 5871.951)">
      <g id="Grupo_726793" data-name="Grupo 726793" clip-path="url(#clip-path-2)">
        <path id="Trazado_484720" data-name="Trazado 484720" d="M123.508,59.977s.408-4.036.5-4.625a20.944,20.944,0,0,0-2.539-5.577c-.363-.136-.5,1.065-.544,1.428a10.9,10.9,0,0,0,.838,2.222l-.159,1.292-2.018-1.61S118.18,50.772,118,50.5a14.263,14.263,0,0,0-2.4-2.108c-.363-.114-1.156-.5-1.428-.227s2.222,6.438,2.267,6.8,2.857,4.807,3.265,5.4a21.218,21.218,0,0,0,2.131,2.086Z" fill="#f9d5a0" fill-rule="evenodd"/>
        <path id="Trazado_484721" data-name="Trazado 484721" d="M154.53,52.771l-4.588-4.025c-5.406,5.739-11.495,20.009-12.789,18.512l-13.759-8.073-2.927,2.206s13.89,14.864,18.062,15.175,16.476-16.394,16.476-16.394Z" fill="#f0cf39" fill-rule="evenodd"/>
        <path id="Trazado_484722" data-name="Trazado 484722" d="M121.66,60.493l-1.192.9s13.889,14.863,18.062,15.175c1.338.1,3.512-1.551,5.848-3.839l-.175-2.177s-5.137,4.546-7.146,3.487-15.4-13.545-15.4-13.545" fill="#dbbd34" fill-rule="evenodd"/>
        <path id="Trazado_484723" data-name="Trazado 484723" d="M150.426,45.835l-3.1,1.183-1.417,3.409,4.032-1.681Z" fill="#f7d94f" fill-rule="evenodd"/>
        <path id="Trazado_484724" data-name="Trazado 484724" d="M51.581,43.652s-.529-5.231.373-6.352,5.33-3.521,5.33-3.521S60.3,31.665,60.7,32.412s-6.224,11.154-6.224,11.154Z" fill="#f9d5a0" fill-rule="evenodd"/>
        <path id="Trazado_484725" data-name="Trazado 484725" d="M22.063,50.454l19.926,7.1,9.5-15.065,3.075.741S46.161,66.4,44.854,66.894s-20.051-4.11-21.8-3.986-4.608-3.113-5.729-6.85,4.733-5.6,4.733-5.6" fill="#a3c2e6" fill-rule="evenodd"/>
        <path id="Trazado_484726" data-name="Trazado 484726" d="M53.11,42.878l1.455.351s-8.4,23.166-9.711,23.664c-.72.274-6.707-.995-12.243-2.173-.869-.878-1.483-1.51-1.483-1.51l-.454-2.823s11.769,3.861,13.014,3.8c1.068-.053,7.589-16.6,9.422-21.307" fill="#98b5d7" fill-rule="evenodd"/>
        <path id="Trazado_484727" data-name="Trazado 484727" d="M18.135,84.785,14.7,90.669c.466,10.235,16.155,28.8,23.257,37.674-1.657,14.564-2.05,24.613-5.148,38.8l-.2,5h3.643l.467-.435a14.715,14.715,0,0,0,2.21.443c.7.029,7.73-.015,7.73-.015s.224-.794-.436-.887-4.53-.772-5.573-1.456A6.187,6.187,0,0,1,38.9,167.62l.078,0c4.447-14.278,6.679-25.94,9.6-38.84,2.017-6.151-9.9-27.378-13.671-38.933-5.873-2.036-10.893-3.028-16.766-5.064" fill="#4e4a3a" fill-rule="evenodd"/>
        <path id="Trazado_484728" data-name="Trazado 484728" d="M31.611,120.424c2.4,3.038,4.625,5.764,6.348,7.919-1.656,14.564-2.049,24.613-5.147,38.8l-.2,5h3.062l-.631-.858a26.894,26.894,0,0,1-.031-3.954c.187-.592,5.043-38.11,5.043-38.11l4.359-3.051-4.3-.561-7.784-19.677-3.205,2.4Z" fill="#423d31" fill-rule="evenodd"/>
        <path id="Trazado_484729" data-name="Trazado 484729" d="M18.135,84.785s-5.6,5.73-4.605,10.3S26.3,122.594,25.673,124.513l-14,42.651-.2,5h3.643l.466-.436a14.578,14.578,0,0,0,2.211.443c.7.029,7.729-.015,7.729-.015s.225-.794-.435-.887-4.531-.771-5.574-1.456a6.192,6.192,0,0,1-1.752-2.177l18.584-39.044c1.741-3.659-3.729-33.254-3.811-37.735s-14.395-6.072-14.395-6.072" fill="#5a574a" fill-rule="evenodd"/>
        <path id="Trazado_484730" data-name="Trazado 484730" d="M13.656,92.147a6.379,6.379,0,0,0-.126,2.938c.995,4.571,12.773,27.509,12.143,29.428l-14,42.651-.2,5h2.846c-.6-.406-1.932-1.268-1.957-1.606a45.5,45.5,0,0,1,1.511-5.122c.186-.436,14.011-39.417,14.011-39.417s3.113-1.557,3.8-1.806-4.234-1.992-4.483-2.366-9.278-25.469-9.278-25.469a29.6,29.6,0,0,0,5.666-.934,62.1,62.1,0,0,0,8.29-3.462s-3.993.286-7.356.411c-2.517.093-8.176-.128-10.861-.245" fill="#504e3e" fill-rule="evenodd"/>
        <path id="Trazado_484731" data-name="Trazado 484731" d="M6.782,33.086c2.905,4.134,5.372,7.829,6.348,17.088l15.759-3.341S22.6,45.7,20.48,42.024A17.216,17.216,0,0,1,18.5,33.943c-3.174-.779-8.542-.077-11.716-.857" fill="#f9ce93" fill-rule="evenodd"/>
        <path id="Trazado_484732" data-name="Trazado 484732" d="M20.5,20.052c1.236,1.475,1.143,4.149,1.143,4.149a13.969,13.969,0,0,0,6.659,2.085c.305,2.037-.829,2.472-1.035,3.086s.8,5.548.508,7.877-6.521,4.712-10.259,4.159a17.981,17.981,0,0,1-6.592-2.448C-.945,29.513-.852,16.2,12.392,15.263c2.266-.159,7.334,3.886,8.112,4.789" fill="#f9d5a0" fill-rule="evenodd"/>
        <path id="Trazado_484733" data-name="Trazado 484733" d="M28.306,26.286c.305,2.038-.829,2.473-1.035,3.087a.61.61,0,0,0-.023.134c-1.957.46-1.93-.069-3.646-1.518l1.752.77c.4.177,1.268-.428,1.751-1.019s1.2-1.454,1.2-1.454" fill="#f9ca85" fill-rule="evenodd"/>
        <path id="Trazado_484734" data-name="Trazado 484734" d="M7.783,49.356c1.689,11.42,5.181,17.941,2.882,40.106-.895,8.619,26.617,2.5,25.5.118C35.574,65.892,35.467,60.1,24.68,45.5c-1.561-2.326-16.506-3.548-16.9,3.852" fill="#a3c2e6" fill-rule="evenodd"/>
        <path id="Trazado_484735" data-name="Trazado 484735" d="M28.057,50.333c-.463.155-.853.311-1.129.394A13.4,13.4,0,0,0,23.647,52.8s1.708,8.559,2.589,14.915.83,19.757-1.561,22.84c-2.075,2.676-11.451,1.424-14.012-.843-.311,8.231,26.606,2.224,25.5-.135-.524-20.9-.675-27.868-8.111-39.247" fill="#98b5d7" fill-rule="evenodd"/>
        <path id="Trazado_484736" data-name="Trazado 484736" d="M26.263,50.05a105.585,105.585,0,0,1,4.341,11.4A104.955,104.955,0,0,1,34.45,80.789l-1.891,6.556L27.938,82.3c.039-16.431.591-17.072-4.29-32.252Z" fill="#333" fill-rule="evenodd"/>
        <path id="Trazado_484737" data-name="Trazado 484737" d="M38.414,6.149l4,.75c.273,1.438,4.5,27.476,1.012,32.644C38.4,47.005,18.257,56.85,16.333,57.065c-5.818.649-7.358-7.3-4.861-9.615,8.64-5.73,24.744-10.258,25.652-12.734.607-1.655-.186-17.807,1.29-28.567" fill="#a3c2e6" fill-rule="evenodd"/>
        <path id="Trazado_484738" data-name="Trazado 484738" d="M40.834,7.021l1.748.328c.273,1.438,4.5,27.475,1.012,32.643C38.561,47.454,19.575,55.93,17.651,56.145c-2.979.332-5.924-.806-6.314-4.23a10.86,10.86,0,0,0,7.846,1.806c4.546-.748,21.11-12.517,22.978-15.88,1.568-2.822-.592-24.065-1.327-30.82" fill="#98b5d7" fill-rule="evenodd"/>
        <path id="Trazado_484739" data-name="Trazado 484739" d="M.08,28.1a11.681,11.681,0,0,1,.685-5.293A6.628,6.628,0,0,1,.7,19.194c.56-1.681,7.908-5.542,11.022-6.476a9.434,9.434,0,0,0,4.608-2.927,7.985,7.985,0,0,1,.56,5.916c-.934,3.487-8.345,7.286-8.9,7.846s2.684,5.921,3.8,6.725c1.488,1.068.556,1.686-.581,1.324S8.6,29.247,7.677,29.656c-4.951,2.181,1.341,7.034,4.005,8.753C8.131,39.9.885,33.872.08,28.1" fill="#3e3b3a" fill-rule="evenodd"/>
        <path id="Trazado_484740" data-name="Trazado 484740" d="M16.332,9.792a7.984,7.984,0,0,1,.56,5.916c-.934,3.487-8.344,7.286-8.9,7.846s2.684,5.921,3.8,6.725c1.488,1.068.556,1.686-.582,1.323S8.6,29.248,7.676,29.656c-4.45,1.962.186,6.081,3.1,8.143l-.551.835-.063,0a38.4,38.4,0,0,1-3.543-3.045c-1-1.09-1.977-4.4-1.105-5.464s3.441-1.2,3.534-1.184a11.377,11.377,0,0,0-.965-1.354c-.623-.887-1.993-3.145-1.993-3.145a21.58,21.58,0,0,1-2.21,1.588,15.728,15.728,0,0,1,2.459-3.986c1.339-1.432,8.127-5.355,9.466-7.846a5.367,5.367,0,0,0,.524-4.4" fill="#373331" fill-rule="evenodd"/>
        <path id="Trazado_484741" data-name="Trazado 484741" d="M8.482,30.965a1.987,1.987,0,0,0-.732.125,1.116,1.116,0,0,0-.576.467c-.373.638.872,2.475,1.744,3.191s2.179-.327,2.241-.9-.373-.576-1-.81-.545-.4-.358-1.011c.266-.862-.671-1.026-1.323-1.059" fill="#d5ad77" fill-rule="evenodd"/>
        <path id="Trazado_484742" data-name="Trazado 484742" d="M9,36.427a1.633,1.633,0,0,0,1.266.327,6.851,6.851,0,0,0,1.4-.622c-.018,2.835,4.188,5.51,4,5.479s-4.412-.012-4.63-1.009A29.136,29.136,0,0,0,9,36.427" fill="#f9ce93" fill-rule="evenodd"/>
        <path id="Trazado_484743" data-name="Trazado 484743" d="M38.708,6.632s1.152-4.3,1.339-4.733S45.495,0,45.495,0s8.033,1.931,7.847,2.18.186.2-.5.451c-1.612.579-5.28,1.287-6.994,1.675C44.856,6.488,42.288,5.9,42.288,5.9l.143,1.084Z" fill="#f9d5a0" fill-rule="evenodd"/>
        <path id="Trazado_484744" data-name="Trazado 484744" d="M54.554,39.745s4.437-.545,4.608.2S54.43,42.1,54.43,42.1Z" fill="#f9d5a0" fill-rule="evenodd"/>
        <path id="Trazado_484745" data-name="Trazado 484745" d="M167.82,84.7l3.431,5.884c-.465,10.235-15.944,30.682-23.045,39.56,1.657,14.564,1.839,22.727,4.937,36.919l.2,5H149.7l-.467-.435a14.557,14.557,0,0,1-2.21.443c-.7.029-7.73-.015-7.73-.015s-.224-.794.436-.887,4.53-.771,5.574-1.456a6.192,6.192,0,0,0,1.752-2.177l-.078,0c-4.447-14.278-6.468-24.053-9.386-36.954-2.017-6.151,9.694-29.264,13.461-40.819,5.873-2.036,10.893-3.029,16.766-5.064" fill="#4e4a3a" fill-rule="evenodd"/>
        <path id="Trazado_484746" data-name="Trazado 484746" d="M139.259,171.74a.528.528,0,0,1,.472-.574c.661-.094,4.531-.771,5.574-1.456a6.192,6.192,0,0,0,1.752-2.177l-.078,0c-4.447-14.278-6.468-24.053-9.386-36.954-1.778-5.422,7.111-24.025,11.823-36.273,2.351.04,5.186.071,5.509,0,.56-.125.311,2.926.311,2.926s-4.919,1.308-5.106,1.682-9.963,29.454-9.9,30.076,7.441,37.939,7.441,37.939l3.565.436-2.927.747a8.353,8.353,0,0,1-1.774,2.476c-.844.7-5.6,1.048-7.275,1.15" fill="#45412f" fill-rule="evenodd"/>
        <path id="Trazado_484747" data-name="Trazado 484747" d="M167.851,84.613s5.6,5.73,4.6,10.3-11.7,29.719-11.089,31.642l12.948,40.437.2,5h-3.643l-.466-.435A14.736,14.736,0,0,1,168.2,172c-.7.029-7.729-.015-7.729-.015s-.225-.794.435-.887,4.531-.771,5.574-1.456a6.192,6.192,0,0,0,1.752-2.177l-17.53-36.83c-1.741-3.659,2.675-35.468,2.757-39.949s14.4-6.072,14.4-6.072" fill="#5a574a" fill-rule="evenodd"/>
        <path id="Trazado_484748" data-name="Trazado 484748" d="M160.445,171.528a.5.5,0,0,1,.458-.431c.661-.094,4.53-.771,5.573-1.456a6.188,6.188,0,0,0,1.753-2.177L150.7,130.635c-1.539-3.233,1.729-28.439,2.568-37.357l9.147-.391c1.681.374,7.793-.016,7.793-.016a41.927,41.927,0,0,1-7.357,5.122,19.494,19.494,0,0,1-6.289,2.117s-2.553,25.9-2.428,26.776,15.3,39.024,15.385,39.423.337,1.239.337,1.239l2.429.436-3.083.5a8.5,8.5,0,0,1-2.584,1.9,29.613,29.613,0,0,1-6.172,1.146" fill="#504e3e" fill-rule="evenodd"/>
        <path id="Trazado_484749" data-name="Trazado 484749" d="M161.412,32.691c-1.7,4.759-3.09,8.978-1.562,18.162-5.36.328-7.589-.229-12.949.1a11.085,11.085,0,0,0,3.692-5.995,17.22,17.22,0,0,0-.244-8.316c2.851-1.6,8.211-2.352,11.063-3.95" fill="#f9ce93" fill-rule="evenodd"/>
        <path id="Trazado_484750" data-name="Trazado 484750" d="M144.712,23.788c-.8,1.751,0,4.3,0,4.3a13.975,13.975,0,0,1-5.863,3.786c-.879.934,1.376,2.341,1.821,2.7s.447,4.781,1.346,6.948,7.806,3.581,11.261,2.052a17.974,17.974,0,0,0,5.7-4.118c8.924-12.27,5.285-25.079-7.729-22.448-2.227.451-6.033,5.7-6.542,6.778" fill="#f9d5a0" fill-rule="evenodd"/>
        <path id="Trazado_484751" data-name="Trazado 484751" d="M138.854,31.877c-.879.934,1.376,2.341,1.821,2.7a.369.369,0,0,1,.092.145,3.768,3.768,0,0,0,.76-.256c.4-.218.716-1.214.716-1.214s-1.152.747-1.588.482a16.947,16.947,0,0,1-1.8-1.856" fill="#f9ce8e" fill-rule="evenodd"/>
        <path id="Trazado_484752" data-name="Trazado 484752" d="M164.786,48.639c1.417,11.457-.21,18.673,7.917,39.422,3.16,8.069-24.987,9.508-24.55,6.915-5.743-22.989-7.183-28.6-.679-45.544.884-2.658,14.962-7.821,17.312-.793" fill="#f7d53b" fill-rule="evenodd"/>
        <path id="Trazado_484753" data-name="Trazado 484753" d="M172.77,90.278c-2.241,6.1-25.011,7.032-24.617,4.7-3.547-14.2-5.452-21.767-4.858-29.471.193-.126.386-.26.574-.4,1.308-1,17.125-9.839,17.125-9.839s.567,1.031-1.121,2.678-5.916,5.791-6.539,6.227c0,0,2.111,28.75,3.33,28.964,1.99.351,12.145-1.658,13.609-2.187a21.31,21.31,0,0,1,2.5-.667" fill="#ebca38" fill-rule="evenodd"/>
        <path id="Trazado_484754" data-name="Trazado 484754" d="M147.489,92.312c-.7-2.806-1.323-5.338-1.865-7.661l1.607-21.045,2.5-1.982c0,.005.048,2.641.3,7.524s2.243,17.125,2.243,17.125l-3.487,7.411Z" fill="#b0972a" fill-rule="evenodd"/>
        <path id="Trazado_484755" data-name="Trazado 484755" d="M147.441,51.2c-1.051,7.278-4.213,18.9-2.84,35.467l3.571,5.815,3.11-6.093c-2.649-16.76-2.125-19.611-1.467-35.543Z" fill="#333" fill-rule="evenodd"/>
        <path id="Trazado_484756" data-name="Trazado 484756" d="M151,49.415l-1.09,2.46-2.291.214a14.415,14.415,0,0,1-.355-2.269,18.145,18.145,0,0,1,1.976-1.323Z" fill="#4f648f" fill-rule="evenodd"/>
        <path id="Trazado_484757" data-name="Trazado 484757" d="M166.542,26.1a11.693,11.693,0,0,0-2.071-4.919,6.633,6.633,0,0,0-.9-3.5c-.989-1.471-9.1-3.233-12.35-3.3A9.428,9.428,0,0,1,146,12.787a7.976,7.976,0,0,0,1.037,5.851c1.83,3.111,9.985,4.8,10.674,5.187s-1.008,6.423-1.873,7.5c-1.149,1.426-.087,1.773.913,1.121s1.884-2.964,2.887-2.818c5.353.782.583,7.137-1.526,9.505,3.822.494,9.2-7.252,8.433-13.031" fill="#a95c40" fill-rule="evenodd"/>
        <path id="Trazado_484758" data-name="Trazado 484758" d="M146,12.787a7.982,7.982,0,0,0,1.037,5.851c1.83,3.112,9.985,4.8,10.675,5.188s-1.009,6.422-1.874,7.495c-1.149,1.427-.086,1.774.913,1.121s1.885-2.964,2.887-2.817c4.719.689,1.572,5.708-.685,8.509l.627.821.047-.016a49.065,49.065,0,0,0,3.388-5.969,4.046,4.046,0,0,0-1.743-4.39c-1.619-.809-3.176.685-3.176.685s1.837-4.141,2.117-4.888-2.21-2.865-3.954-3.923-4.856-2.834-5.074-2.989A31.083,31.083,0,0,0,152.8,20.2a10.9,10.9,0,0,1-4.515-3.737A20.424,20.424,0,0,1,146,12.787" fill="#9f5436" fill-rule="evenodd"/>
        <path id="Trazado_484759" data-name="Trazado 484759" d="M159.209,31.1a1.986,1.986,0,0,1,.738-.075,1.121,1.121,0,0,1,.68.3c.53.516-.18,2.619-.829,3.541s-2.188.267-2.4-.272.207-.655.745-1.046.417-.535.075-1.071c-.485-.759.374-1.167.993-1.373" fill="#d5ad77" fill-rule="evenodd"/>
        <path id="Trazado_484760" data-name="Trazado 484760" d="M160.164,36.5a1.635,1.635,0,0,1-1.133.653,6.863,6.863,0,0,1-1.516-.227c.773,2.728-2.567,6.428-2.4,6.349s4.249-1.189,4.193-2.208a29.07,29.07,0,0,1,.851-4.567" fill="#f9ce93" fill-rule="evenodd"/>
        <path id="Trazado_484761" data-name="Trazado 484761" d="M105.859,63.9l-1.973-1.925L98.677,59.3s-.347,0-.367.617,2.594,2.518,2.517,2.633a46.958,46.958,0,0,1-5.148.193A19.961,19.961,0,0,0,92,62.8c-.212.173-.1,1.08-.1,1.08a.952.952,0,0,0-.945.25c-.348.425-.309,1.35-.039,1.388A8.8,8.8,0,0,1,92.131,66a1.781,1.781,0,0,0,.019.713c.1.213,1.33.618,1.33.618a.72.72,0,0,0,.251.674c.347.347,4.068.116,4.415.367a14.694,14.694,0,0,0,4.743.424,18.773,18.773,0,0,0,2.371-1.137Z" fill="#f9d5a0" fill-rule="evenodd"/>
        <path id="Trazado_484762" data-name="Trazado 484762" d="M163.618,50.129c-.374-1.993-3.3-4.234-5.854-3.985s-25.956,17.49-25.956,17.49l-26.508,0-.776,4.425,29.911,3.6s25.694-14.179,27.126-15.363,2.057-6.165,2.057-6.165" fill="#f7d53b" fill-rule="evenodd"/>
        <path id="Trazado_484763" data-name="Trazado 484763" d="M104.74,66.828l-.215,1.227,29.91,3.6s25.694-14.18,27.126-15.363c.814-.672,1.367-2.573,1.693-4.088-1,1.2-2.677,3.112-3.42,3.366-1.089.374-25.157,13.731-25.593,13.917-.394.169-24.77-2.2-29.5-2.662" fill="#ebca38" fill-rule="evenodd"/>
        <path id="Trazado_484764" data-name="Trazado 484764" d="M158.8,42.861l2.64,2.63-7.536,3.85-2.95,1.506-2.429-3.035Z" fill="#f7d94f" fill-rule="evenodd"/>
      </g>
    </g>
  </g>
</svg>
