<svg xmlns="http://www.w3.org/2000/svg" xmlns:xlink="http://www.w3.org/1999/xlink" width="166.872" height="278.823" viewBox="0 0 166.872 278.823">
  <defs>
    <filter id="Trazado_113525" x="17.878" y="101.438" width="107.607" height="105.074" filterUnits="userSpaceOnUse">
      <feOffset dy="3" input="SourceAlpha"/>
      <feGaussianBlur stdDeviation="3" result="blur"/>
      <feFlood flood-opacity="0.161"/>
      <feComposite operator="in" in2="blur"/>
      <feComposite in="SourceGraphic"/>
    </filter>
  </defs>
  <g id="Grupo_726943" data-name="Grupo 726943" transform="translate(-1245.03 -166.441)">
    <g transform="matrix(1, 0, 0, 1, 1245.03, 166.44)" filter="url(#Trazado_113525)">
      <path id="Trazado_113525-2" data-name="Trazado 113525" d="M10.14,0a10.14,10.14,0,0,1,10.14,10.14v84.4A10.14,10.14,0,1,1,0,94.541V10.14A10.14,10.14,0,0,1,10.14,0Z" transform="translate(102.45 107.44) rotate(46.22)" fill="#fff"/>
    </g>
    <path id="Trazado_113168" data-name="Trazado 113168" d="M8.756.8a1.171,1.171,0,0,1,.828,2l-2,2-.567.567.567.567,2,2A1.171,1.171,0,1,1,7.928,9.584l-2-2-.567-.567L4.8,7.588l-2,2A1.171,1.171,0,0,1,1.145,7.928l2-2,.567-.567L3.141,4.8l-2-2A1.171,1.171,0,0,1,2.8,1.145l2,2,.567.567.567-.567,2-2A1.165,1.165,0,0,1,8.756.8m0-.8a1.968,1.968,0,0,0-1.4.577l-2,2-2-2A1.973,1.973,0,1,0,.578,3.368l2,2-2,2a1.973,1.973,0,1,0,2.79,2.79l2-2,2,2a1.973,1.973,0,0,0,2.791,0h0a1.973,1.973,0,0,0,0-2.79l-2-2,2-2a1.974,1.974,0,0,0,0-2.791h0A1.968,1.968,0,0,0,8.756,0Z" transform="translate(1404.314 255.18) rotate(-135)" fill="#fff"/>
    <path id="Trazado_113169" data-name="Trazado 113169" d="M8.756.8a1.171,1.171,0,0,1,.828,2l-2,2-.567.567.567.567,2,2A1.171,1.171,0,1,1,7.928,9.584l-2-2-.567-.567L4.8,7.588l-2,2A1.171,1.171,0,0,1,1.145,7.928l2-2,.567-.567L3.141,4.8l-2-2A1.171,1.171,0,0,1,2.8,1.145l2,2,.567.567.567-.567,2-2A1.165,1.165,0,0,1,8.756.8m0-.8a1.966,1.966,0,0,0-1.4.578l-2,2-2-2a1.973,1.973,0,0,0-2.79,0h0a1.974,1.974,0,0,0,0,2.79l2,2-2,2a1.973,1.973,0,1,0,2.79,2.79l2-2,2,2a1.973,1.973,0,0,0,2.791,0h0a1.973,1.973,0,0,0,0-2.79l-2-2,2-2a1.973,1.973,0,0,0,0-2.79h0A1.966,1.966,0,0,0,8.756,0Z" transform="translate(1252.616 181.614) rotate(-135)" fill="#35b5d5"/>
    <path id="Trazado_113540" data-name="Trazado 113540" d="M325.19,447.512a3.1,3.1,0,0,0,.909,2.2l3.142,3.141-3.142,3.141a3.105,3.105,0,0,0,4.391,4.391l3.141-3.141,3.141,3.141a3.1,3.1,0,0,0,4.391-4.391l-3.141-3.141,3.141-3.141a3.105,3.105,0,0,0,0-4.391h0a3.105,3.105,0,0,0-4.391,0l-3.141,3.141-3.141-3.141a3.106,3.106,0,0,0-4.391,0h0a3.1,3.1,0,0,0-.909,2.2Z" transform="translate(1057.935 -16.027)" fill="#fff"/>
  </g>
</svg>
