<svg id="Grupo_716106" data-name="Grupo 716106" xmlns="http://www.w3.org/2000/svg" xmlns:xlink="http://www.w3.org/1999/xlink" width="436.36" height="378.712" viewBox="0 0 436.36 378.712">
  <defs>
    <clipPath id="clip-path">
      <rect id="Rectángulo_268458" data-name="Rectángulo 268458" width="436.36" height="378.712" fill="none"/>
    </clipPath>
    <clipPath id="clip-path-3">
      <rect id="Rectángulo_268402" data-name="Rectángulo 268402" width="267.897" height="16.386" fill="none"/>
    </clipPath>
    <clipPath id="clip-path-4">
      <rect id="Rectángulo_268403" data-name="Rectángulo 268403" width="267.899" height="16.386" fill="none"/>
    </clipPath>
    <clipPath id="clip-path-5">
      <rect id="Rectángulo_268404" data-name="Rectángulo 268404" width="267.9" height="16.386" fill="none"/>
    </clipPath>
    <clipPath id="clip-path-6">
      <rect id="Rectángulo_268405" data-name="Rectángulo 268405" width="133.715" height="16.386" fill="none"/>
    </clipPath>
    <clipPath id="clip-path-8">
      <rect id="Rectángulo_268407" data-name="Rectángulo 268407" width="133.714" height="16.386" fill="none"/>
    </clipPath>
    <clipPath id="clip-path-13">
      <rect id="Rectángulo_268412" data-name="Rectángulo 268412" width="267.901" height="16.386" fill="none"/>
    </clipPath>
    <clipPath id="clip-path-17">
      <rect id="Rectángulo_268416" data-name="Rectángulo 268416" width="267.899" height="16.384" fill="none"/>
    </clipPath>
    <clipPath id="clip-path-21">
      <rect id="Rectángulo_268420" data-name="Rectángulo 268420" width="133.715" height="16.387" fill="none"/>
    </clipPath>
  </defs>
  <g id="Grupo_716105" data-name="Grupo 716105" clip-path="url(#clip-path)">
    <g id="Grupo_716104" data-name="Grupo 716104">
      <g id="Grupo_716103" data-name="Grupo 716103" clip-path="url(#clip-path)">
        <path id="Trazado_467452" data-name="Trazado 467452" d="M322.134,305.063a2.057,2.057,0,0,1-1.428-3.538c2.921-2.816,5.77-5.764,8.475-8.769a2.057,2.057,0,0,1,3.057,2.752c-2.769,3.073-5.686,6.1-8.677,8.979a2.05,2.05,0,0,1-1.428.576m-259.682-5.6a2.059,2.059,0,0,1-1.491-.642c-2.855-3.012-5.634-6.163-8.259-9.366a2.057,2.057,0,1,1,3.182-2.606c2.563,3.123,5.276,6.2,8.061,9.141a2.059,2.059,0,0,1-1.493,3.472m276.177-12.745a2.052,2.052,0,0,1-1.623-3.316c2.485-3.2,4.881-6.527,7.123-9.89a2.057,2.057,0,0,1,3.425,2.279c-2.3,3.448-4.754,6.856-7.3,10.133a2.055,2.055,0,0,1-1.625.794M46.823,280.4a2.062,2.062,0,0,1-1.685-.874c-2.392-3.39-4.686-6.914-6.817-10.462a2.057,2.057,0,1,1,3.528-2.117c2.08,3.462,4.318,6.9,6.652,10.207a2.059,2.059,0,0,1-.5,2.87,2.038,2.038,0,0,1-1.183.376M352.3,266.2a2.056,2.056,0,0,1-1.79-3.067c1.991-3.532,3.869-7.175,5.583-10.828a2.058,2.058,0,0,1,3.725,1.748c-1.757,3.744-3.684,7.479-5.725,11.1A2.055,2.055,0,0,1,352.3,266.2M34.137,259.251a2.065,2.065,0,0,1-1.841-1.133c-1.866-3.711-3.61-7.537-5.186-11.369a2.056,2.056,0,0,1,3.8-1.565c1.539,3.738,3.24,7.469,5.058,11.085a2.061,2.061,0,0,1-.913,2.765,2.082,2.082,0,0,1-.922.218m328.627-15.374a2.058,2.058,0,0,1-1.925-2.787c1.438-3.785,2.744-7.667,3.884-11.54a2.057,2.057,0,1,1,3.947,1.16c-1.17,3.974-2.51,7.955-3.982,11.84a2.06,2.06,0,0,1-1.923,1.327M24.757,236.439a2.055,2.055,0,0,1-1.956-1.421c-1.284-3.954-2.427-8-3.4-12.03a2.057,2.057,0,1,1,4-.965c.948,3.927,2.063,7.87,3.314,11.723a2.06,2.06,0,0,1-1.321,2.592,2.081,2.081,0,0,1-.636.1m344.962-16.205a2.06,2.06,0,0,1-2.014-2.485c.841-3.952,1.535-7.987,2.067-11.995a2.057,2.057,0,1,1,4.079.541c-.545,4.112-1.261,8.253-2.123,12.309a2.056,2.056,0,0,1-2.01,1.629M18.963,212.462a2.06,2.06,0,0,1-2.028-1.73c-.658-4.1-1.166-8.275-1.512-12.412a2.057,2.057,0,1,1,4.1-.341c.335,4.03.833,8.1,1.475,12.1a2.057,2.057,0,0,1-1.705,2.357,1.954,1.954,0,0,1-.329.027M372.971,195.8c-.039,0-.078,0-.117,0a2.06,2.06,0,0,1-1.94-2.168c.167-2.95.249-5.949.249-8.915q0-1.638-.033-3.267a2.057,2.057,0,1,1,4.114-.082q.034,1.672.033,3.349c0,3.04-.084,6.118-.253,9.143a2.058,2.058,0,0,1-2.053,1.942M16.92,187.87a2.055,2.055,0,0,1-2.057-2.039l0-1.117c0-3.787.132-7.613.393-11.371a2.057,2.057,0,1,1,4.1.284c-.253,3.668-.383,7.4-.383,11.087l0,1.084a2.052,2.052,0,0,1-2.039,2.071Zm355.545-16.717a2.059,2.059,0,0,1-2.045-1.86c-.389-4.015-.94-8.076-1.637-12.064a2.057,2.057,0,0,1,4.052-.71c.716,4.091,1.282,8.259,1.679,12.377a2.055,2.055,0,0,1-1.847,2.246c-.068.006-.134.01-.2.01m-353.834-7.87a2.492,2.492,0,0,1-.3-.023,2.055,2.055,0,0,1-1.736-2.335c.6-4.1,1.372-8.23,2.292-12.28a2.057,2.057,0,1,1,4.011.911c-.895,3.945-1.646,7.971-2.234,11.968a2.056,2.056,0,0,1-2.03,1.759m349.58-16.407a2.06,2.06,0,0,1-1.991-1.547c-1-3.915-2.17-7.846-3.472-11.686a2.056,2.056,0,1,1,3.894-1.323c1.337,3.939,2.536,7.971,3.565,11.986a2.058,2.058,0,0,1-1.483,2.5,1.989,1.989,0,0,1-.512.066M24.079,139.244a2.083,2.083,0,0,1-.609-.093,2.057,2.057,0,0,1-1.358-2.573c1.224-3.958,2.619-7.918,4.139-11.77a2.058,2.058,0,0,1,3.828,1.51c-1.485,3.756-2.843,7.619-4.036,11.476a2.059,2.059,0,0,1-1.964,1.45m336.205-15.732a2.059,2.059,0,0,1-1.892-1.251c-1.584-3.711-3.337-7.418-5.206-11.017a2.057,2.057,0,0,1,3.651-1.9c1.917,3.692,3.713,7.494,5.338,11.3a2.06,2.06,0,0,1-1.89,2.865M33.125,116.333a2.055,2.055,0,0,1-1.849-2.954c1.806-3.723,3.781-7.43,5.871-11.022a2.057,2.057,0,1,1,3.555,2.069c-2.036,3.5-3.962,7.117-5.725,10.748a2.056,2.056,0,0,1-1.851,1.158m315.8-14.71a2.05,2.05,0,0,1-1.751-.975c-2.125-3.435-4.406-6.842-6.784-10.121a2.057,2.057,0,1,1,3.33-2.415c2.438,3.361,4.776,6.852,6.953,10.374a2.055,2.055,0,0,1-.671,2.83,2.025,2.025,0,0,1-1.078.307m-303.408-6.6A2.06,2.06,0,0,1,43.818,91.8c2.343-3.417,4.842-6.794,7.43-10.036a2.057,2.057,0,0,1,3.215,2.565c-2.526,3.166-4.966,6.461-7.251,9.8a2.055,2.055,0,0,1-1.7.895M334.46,81.658a2.05,2.05,0,0,1-1.574-.732c-2.6-3.09-5.35-6.13-8.173-9.037a2.057,2.057,0,0,1,2.95-2.868c2.892,2.977,5.706,6.091,8.37,9.255a2.057,2.057,0,0,1-1.574,3.382M60.9,75.739a2.057,2.057,0,0,1-1.512-3.452c2.806-3.04,5.762-6.025,8.792-8.872a2.057,2.057,0,1,1,2.818,3c-2.958,2.781-5.848,5.7-8.586,8.664a2.049,2.049,0,0,1-1.512.662m256.392-11.76a2.055,2.055,0,0,1-1.37-.522c-3.014-2.695-6.163-5.317-9.362-7.8a2.056,2.056,0,0,1,2.518-3.252c3.275,2.538,6.5,5.223,9.586,7.981a2.056,2.056,0,0,1-1.372,3.59M78.872,58.837a2.058,2.058,0,0,1-1.3-3.651c3.2-2.612,6.55-5.155,9.95-7.555a2.057,2.057,0,0,1,2.374,3.361c-3.324,2.345-6.593,4.83-9.722,7.383a2.054,2.054,0,0,1-1.3.463m218.944-9.956a2.036,2.036,0,0,1-1.142-.348c-3.349-2.242-6.831-4.406-10.349-6.43a2.056,2.056,0,1,1,2.051-3.565c3.6,2.069,7.161,4.283,10.588,6.578a2.056,2.056,0,0,1-1.148,3.764M99.039,44.6a2.058,2.058,0,0,1-1.072-3.816c3.536-2.15,7.2-4.207,10.9-6.118a2.057,2.057,0,0,1,1.888,3.655c-3.61,1.866-7.191,3.878-10.647,5.978a2.047,2.047,0,0,1-1.066.3m177.411-8a2.066,2.066,0,0,1-.9-.208c-3.645-1.777-7.393-3.448-11.141-4.968a2.058,2.058,0,1,1,1.547-3.814c3.834,1.555,7.669,3.265,11.4,5.083a2.057,2.057,0,0,1-.9,3.906m-155.5-3.343a2.058,2.058,0,0,1-.819-3.945c3.8-1.65,7.708-3.188,11.608-4.577a2.057,2.057,0,0,1,1.378,3.875c-3.814,1.358-7.634,2.863-11.349,4.476a2.066,2.066,0,0,1-.819.171M253.6,27.321a2.064,2.064,0,0,1-.644-.1c-3.836-1.265-7.774-2.417-11.709-3.427a2.057,2.057,0,1,1,1.022-3.984c4.024,1.033,8.051,2.211,11.974,3.5a2.058,2.058,0,0,1-.644,4.011M144.18,24.986a2.058,2.058,0,0,1-.557-4.038c3.984-1.123,8.059-2.125,12.114-2.981a2.057,2.057,0,0,1,.85,4.026c-3.966.837-7.95,1.816-11.846,2.915a2.018,2.018,0,0,1-.56.078m85.537-3.8a1.979,1.979,0,0,1-.378-.035c-3.98-.743-8.039-1.362-12.06-1.841a2.057,2.057,0,0,1,.485-4.085c4.112.49,8.261,1.123,12.33,1.884a2.056,2.056,0,0,1-.376,4.077m-61.411-1.3a2.057,2.057,0,0,1-.286-4.093c4.085-.584,8.257-1.039,12.4-1.356a2.057,2.057,0,0,1,.313,4.1c-4.048.311-8.129.757-12.128,1.327a2.356,2.356,0,0,1-.294.021m36.928-1.621c-.037,0-.074,0-.111,0-4.028-.214-8.133-.3-12.2-.255H192.9a2.057,2.057,0,0,1-.023-4.114c4.153-.045,8.352.041,12.468.261a2.056,2.056,0,0,1-.107,4.11" transform="translate(15.706 14.679)" fill="#bbd2e7"/>
        <rect id="Rectángulo_268423" data-name="Rectángulo 268423" width="156.03" height="129.334" transform="translate(132.855 97.898)" fill="#969696"/>
        <rect id="Rectángulo_268424" data-name="Rectángulo 268424" width="156.036" height="129.334" transform="translate(122.28 97.898)" fill="#fff"/>
        <rect id="Rectángulo_268425" data-name="Rectángulo 268425" width="78.021" height="129.334" transform="translate(200.295 97.898)" fill="#e0e0e0"/>
        <rect id="Rectángulo_268426" data-name="Rectángulo 268426" width="71.342" height="1.553" transform="translate(200.702 153.169)" fill="#1e2d4f"/>
        <rect id="Rectángulo_268427" data-name="Rectángulo 268427" width="71.342" height="1.559" transform="translate(200.702 185.982)" fill="#1e2d4f"/>
        <rect id="Rectángulo_268428" data-name="Rectángulo 268428" width="1.553" height="98.445" transform="translate(235.392 121.132)" fill="#1e2d4f"/>
        <rect id="Rectángulo_268429" data-name="Rectángulo 268429" width="1.549" height="98.445" transform="translate(199.52 121.132)" fill="#1e2d4f"/>
        <path id="Trazado_467461" data-name="Trazado 467461" d="M99.363,53.691,98.7,55.837Z" transform="translate(101.035 53.955)" fill="#4860a8"/>
        <rect id="Rectángulo_268430" data-name="Rectángulo 268430" width="19.011" height="19.013" transform="translate(203.63 158.369)" fill="#4860a8"/>
        <rect id="Rectángulo_268431" data-name="Rectángulo 268431" width="19.021" height="19.015" transform="translate(212.493 164.044)" fill="#c886d3"/>
        <rect id="Rectángulo_268432" data-name="Rectángulo 268432" width="19.019" height="19.019" transform="translate(239.691 124.226)" fill="#1e814c"/>
        <rect id="Rectángulo_268433" data-name="Rectángulo 268433" width="19.019" height="19.017" transform="translate(240.475 190.954)" fill="#fea311"/>
        <rect id="Rectángulo_268434" data-name="Rectángulo 268434" width="19.013" height="19.019" transform="translate(209.984 127.772)" fill="#62c3ed"/>
        <rect id="Rectángulo_268435" data-name="Rectángulo 268435" width="19.021" height="19.017" transform="translate(212.024 190.954)" fill="#2a9ed1"/>
        <rect id="Rectángulo_268436" data-name="Rectángulo 268436" width="19.019" height="19.007" transform="translate(204.469 200.472)" fill="#62c3ed"/>
        <rect id="Rectángulo_268437" data-name="Rectángulo 268437" width="19.017" height="19.015" transform="translate(246.311 160.566)" fill="#ffca00"/>
        <rect id="Rectángulo_268438" data-name="Rectángulo 268438" width="19.017" height="19.019" transform="translate(247.749 129.803)" fill="#2ecb71"/>
        <rect id="Rectángulo_268439" data-name="Rectángulo 268439" width="19.017" height="19.017" transform="translate(247.749 199.186)" fill="#c886d3"/>
        <path id="Trazado_467469" data-name="Trazado 467469" d="M98.679,81.413a12.139,12.139,0,0,1-17.931-5.961L65.6,81.125a28.335,28.335,0,0,0,41.815,13.908Z" transform="translate(69.339 79.755)" fill="#4860a8"/>
        <path id="Trazado_467470" data-name="Trazado 467470" d="M85.826,76.169A11.974,11.974,0,0,1,83.3,79.4a11.429,11.429,0,0,1-1.625,1.253l8.734,13.62a28.524,28.524,0,0,0,9.672-10.464Z" transform="translate(86.337 80.513)" fill="#62c3ed"/>
        <path id="Trazado_467471" data-name="Trazado 467471" d="M104.441,85.241A28.3,28.3,0,0,0,86.693,60.6L80.684,75.62a12.164,12.164,0,0,1,6.86,7.014,12.32,12.32,0,0,1,.753,3.548c.01.237.014.471.014.71a12.074,12.074,0,0,1-1.434,5.735l14.259,7.64a28.218,28.218,0,0,0,3.351-13.375c0-.551-.014-1.1-.047-1.652" transform="translate(85.285 64.056)" fill="#2ecb71"/>
        <path id="Trazado_467472" data-name="Trazado 467472" d="M93.039,59.617A28.282,28.282,0,0,0,64.728,87.932c0,.551.012,1.1.043,1.656a28.458,28.458,0,0,0,1.744,8.275L81.668,92.19a11.932,11.932,0,0,1-.753-3.546c-.014-.234-.019-.477-.019-.712a12.091,12.091,0,0,1,3.956-8.965,12.375,12.375,0,0,1,1.629-1.259A12.167,12.167,0,0,1,97.55,76.66l6.009-15.02a28.218,28.218,0,0,0-10.52-2.022" transform="translate(68.419 63.017)" fill="#94529f"/>
        <path id="Trazado_467473" data-name="Trazado 467473" d="M65.585,89.265l1.284-2.222,1.282,2.222Z" transform="translate(69.325 92.008)" fill="#00447d"/>
        <path id="Trazado_467474" data-name="Trazado 467474" d="M89.978,107.932l2.215-1.284-2.215-1.271Z" transform="translate(95.109 111.387)" fill="#00447d"/>
        <path id="Trazado_467475" data-name="Trazado 467475" d="M66.738,117.046l-.7-.819,10.686-9.1L88,110.768l11.248-11.1L112.8,95.241l.335,1.029-13.311,4.342L88.29,112,76.97,108.34Z" transform="translate(69.805 100.673)" fill="#7eb033"/>
        <path id="Trazado_467476" data-name="Trazado 467476" d="M66.918,118.83l-.936-.537L76.7,99.511l9.66,5.463L98.956,92.235l15.006,1.637-.117,1.07L99.359,93.366,86.55,106.322l-9.442-5.34Z" transform="translate(69.745 97.495)" fill="#4860a8"/>
        <path id="Trazado_467477" data-name="Trazado 467477" d="M115.7,125.513H66V87.94h.854v36.72H115.7Z" transform="translate(69.764 92.955)" fill="#00447d"/>
        <path id="Trazado_467478" data-name="Trazado 467478" d="M127.093,113.384c-.033-.251-.808-.8-.985-.969-.644-.646-1.286-1.292-1.942-1.919-1.265-1.21-2.9-1.938-4.174-3.112-.393-.352-1.452-1.67-2.041-1.625a.422.422,0,0,0-.3.253c-1.055,1.847,1.277,3.073,2.388,4,.422.352.767.858,1.17,1.251-1.557-.393-3.106-.784-4.661-1.181-.895-.224-5.352-1.479-5.6-.4-.119.553.636.852,1.026,1.018a36.81,36.81,0,0,0,5.219,1.742c-1.508-.35-3.022-.691-4.538-1.045-.7-.154-3.45-.642-3.622.461a.668.668,0,0,0,.424.712,23.719,23.719,0,0,0,6.513,1.434c-1.689-.224-3.374-.436-5.052-.654-.446-.056-1.308-.093-1.57.453-.315.66.543,1.07.969,1.205a33.135,33.135,0,0,0,5.63,1.226c-1.5.22-6.14-.588-5.33.541a1.725,1.725,0,0,0,.965.555c2.176.7,3.462,1.16,5.642,1.855a20.5,20.5,0,0,0,3.3.706c1.156.136,2.047.259,3.2.463a12.644,12.644,0,0,0,4.277-.28Z" transform="translate(115.25 111.789)" fill="#edb485"/>
        <path id="Trazado_467479" data-name="Trazado 467479" d="M135.371,134.016l-8.825-.792,4.03-13.5,13.879-15.171a6.7,6.7,0,1,1,11.351,7.128Z" transform="translate(133.763 107.19)" fill="#072e47"/>
        <path id="Trazado_467480" data-name="Trazado 467480" d="M132.279,161.3l-2.7-1.3-9.7-.9.87,2.44L115,163l-8.273,2.707v2.979s10.573.1,11.044,0c0,0,8.615-.831,9.6-1.08l.331,1.08h5.046l.463-3.094Z" transform="translate(112.816 168.17)"/>
        <path id="Trazado_467481" data-name="Trazado 467481" d="M176.752,139.92s-7.57-9.534-12.614-9.534l-43.611,4.439a15.053,15.053,0,0,0-1.415.648,9.772,9.772,0,0,0-6.214,8.786l-2.281,48.256,18.491,1.228.994-42.319,40.521.152c5.046,0,7.356-3.513,6.13-11.655" transform="translate(116.924 137.822)" fill="#041d2b"/>
        <rect id="Rectángulo_268440" data-name="Rectángulo 268440" width="7.235" height="33.102" transform="translate(283.92 299.765)" fill="#232038"/>
        <rect id="Rectángulo_268441" data-name="Rectángulo 268441" width="17.908" height="4.139" transform="translate(278.579 297.7)" fill="#00447d"/>
        <path id="Trazado_467482" data-name="Trazado 467482" d="M145.664,165.837a1.344,1.344,0,1,1,1.341,1.343,1.342,1.342,0,0,1-1.341-1.343" transform="translate(153.971 173.875)" fill="#cc2221"/>
        <path id="Trazado_467483" data-name="Trazado 467483" d="M147.259,165.465a.622.622,0,0,0-1.245,0,.622.622,0,1,0,1.245,0" transform="translate(154.341 174.247)" fill="#00447d"/>
        <path id="Trazado_467484" data-name="Trazado 467484" d="M135.278,165.829a1.345,1.345,0,1,0-1.349,1.339,1.341,1.341,0,0,0,1.349-1.339" transform="translate(140.148 173.871)" fill="#cc2221"/>
        <path id="Trazado_467485" data-name="Trazado 467485" d="M134.189,165.459a.626.626,0,0,0-1.253,0,.626.626,0,1,0,1.253,0" transform="translate(140.517 174.241)" fill="#00447d"/>
        <path id="Trazado_467486" data-name="Trazado 467486" d="M141.815,165.837a1.339,1.339,0,1,0-1.339,1.343,1.339,1.339,0,0,0,1.339-1.343" transform="translate(147.072 173.875)" fill="#cc2221"/>
        <path id="Trazado_467487" data-name="Trazado 467487" d="M140.735,165.465a.624.624,0,1,0-.629.627.632.632,0,0,0,.629-.627" transform="translate(147.441 174.247)" fill="#00447d"/>
        <path id="Trazado_467488" data-name="Trazado 467488" d="M160.894,167.516v-2.485l-.01.006-9.061-3.411H142.1l-8.946,3.415v2.475h-.237v.177h1.325v-.177h-.228v-.831l8.565-3.221h3.53v3.018h.5v1.035h-.228v.177H147.7v-.177h-.232v-1.035h.512v-3.018h3.5l8.565,3.221v.831h-.23v.177h1.323v-.177Z" transform="translate(140.499 170.844)" fill="#00447d"/>
        <path id="Trazado_467489" data-name="Trazado 467489" d="M177.152,116.944l-3.637-.424-6.009,52.166H128.8v3.061h41.429Z" transform="translate(136.141 123.165)" fill="#ffca00"/>
        <path id="Trazado_467490" data-name="Trazado 467490" d="M177.152,116.726l-6.928,54.8H128.8V174.8h45.419l6.105-57.718Z" transform="translate(136.141 123.383)" fill="#fdb813"/>
        <path id="Trazado_467491" data-name="Trazado 467491" d="M144.916,162.792l-2.7-1.3-9.7-.907.87,2.446-5.749,1.454-8.267,2.715v2.981s10.569.091,11.04,0c0,0,8.615-.833,9.6-1.08l.333,1.08h5.048l.463-3.1Z" transform="translate(126.176 169.747)" fill="#09161c"/>
        <path id="Trazado_467492" data-name="Trazado 467492" d="M180.626,141.051s-7.576-9.536-12.616-9.536L125.1,135.888a7.36,7.36,0,0,0-1.792.241c-4.637,1.216-7.156,6.689-5.937,11.328l11.645,48.077,20.243-.64-12.322-42.328,37.557.134c5.042,0,7.356-3.507,6.134-11.649" transform="translate(123.738 139.015)" fill="#041d2b"/>
        <path id="Trazado_467493" data-name="Trazado 467493" d="M138.916,107.414l10.1-1.728L146.7,97.506l-10.851-1.512Z" transform="translate(143.599 101.468)" fill="#edb485"/>
        <path id="Trazado_467494" data-name="Trazado 467494" d="M134.351,98.822c1-.936-.119-1.456-.045-2.341a1.955,1.955,0,0,1,.395-1.074c-.072.051-.171-.027-.125-.1a27.732,27.732,0,0,1,3.692-4.54,28.881,28.881,0,0,1,2.148-2.139c.566-.5,1.314-.745,1.888-1.249a.118.118,0,0,1,.189.14,1.47,1.47,0,0,1-.15.243c3.075,3.993,3.592,9.884,3.147,14.718-.2,2.117-.378,5.048-1.775,6.755-.72.88,3.09,1.3,2.7,1.168-1.913,1.173-9.109,4.165-11.676,2.036-.819-.683-.321-2.489-.018-3.291.362-.965-1.746-1.563-.646-2.67.584-.576-.619-.527-.444-1.319.078-.374.409-1.185.455-1.563.043-.339-1.895-.531-1.88-.94a7.491,7.491,0,0,1,2.145-3.832" transform="translate(139.745 92.32)" fill="#ffc89f"/>
        <path id="Trazado_467495" data-name="Trazado 467495" d="M134.546,108.161a1.285,1.285,0,0,0,.274-1.89,1.7,1.7,0,0,0-.3-.307,1.392,1.392,0,0,0,.473-.527,2.408,2.408,0,0,0,.142-1.866c.681-.045,1.31-.683.8-1.393a10.21,10.21,0,0,0-2.787-2.423,31.349,31.349,0,0,1,.708-10.435s14.955-.671,17.668,2.386.821,10.524-.134,11.406c-.4.372-5.8,5.258-5.8,5.258s-9.37,4.414-10.98,1.979a5.852,5.852,0,0,1-.681-2.106.993.993,0,0,0,.615-.082" transform="translate(140.567 94.349)" fill="#ffc89f"/>
        <path id="Trazado_467496" data-name="Trazado 467496" d="M151.3,113.455l-1.331-4.7s-3.036-4.059-3.6-3.943c-2.133.428-.506-10.7-3.915-11-.7-.064-3.188.942-5.157,1.152a10.181,10.181,0,0,1-3.908-.307s-1.358-4.137-.088-5.221a21.445,21.445,0,0,1,6.157-2.9c2.176-.73,6.268-2.444,11.429.407,4.97,2.742,6.8,7.058,6.463,10.682s-3.869,13.21-6.046,15.831" transform="translate(140.329 90.222)" fill="#662410"/>
        <path id="Trazado_467497" data-name="Trazado 467497" d="M138.973,154.965c.2-1.607,4.258-23.154,4.456-24.756.8-6.494,1.732-12.976,2.721-19.445.4-2.594.924-5.169,1.539-7.72-6.037-.008-8.014-1.913-8.014-1.913a.583.583,0,0,0-.078.082,6.693,6.693,0,0,0-1.3,2.018c-.086.167-.154.339-.234.522a26.289,26.289,0,0,0-1.119,3.524c-.13.52-.259,1.061-.376,1.617l-.006.037a90.219,90.219,0,0,0-1.615,12.661c-.07,1.16-.125,2.308-.15,3.466-.329,13.186,2.006,25.84,4.18,29.907" transform="translate(142.447 106.897)" fill="#dcdcdc"/>
        <path id="Trazado_467498" data-name="Trazado 467498" d="M135.843,122.583,140.1,102.5l-.878.241-1.016-.586c-.086.165-.156.337-.237.522a26.285,26.285,0,0,0-1.119,3.524l-.374,1.617-.006.035a90.246,90.246,0,0,0-1.615,12.663,2.9,2.9,0,0,0,.991,2.071" transform="translate(142.539 107.977)" fill="#c62b27"/>
        <path id="Trazado_467499" data-name="Trazado 467499" d="M136.442,103.711s-.5,1.135.319.794c0,0,1.8-.749,1.849-.813a4.2,4.2,0,0,0,1-1.487c-.023-.21-1.629-1.037-1.629-1.037a6.759,6.759,0,0,0-1.3,2.02c-.086.165-.154.337-.234.522" transform="translate(144.063 106.939)" fill="#fa7564"/>
        <path id="Trazado_467500" data-name="Trazado 467500" d="M140.43,107.984l9.314-4.774-1.923-4.194-10.67,4.349Z" transform="translate(144.973 104.662)" fill="#fdfffe"/>
        <path id="Trazado_467501" data-name="Trazado 467501" d="M139.484,95.7c-.4,1.751.064,3.355,1.037,3.573S142.6,98.249,143,96.5s-.068-3.355-1.039-3.575-2.08,1.018-2.481,2.775" transform="translate(147.287 98.194)" fill="#ffc89f"/>
        <path id="Trazado_467502" data-name="Trazado 467502" d="M134.954,167.679c-.539,4.054-1.557,7.813-3.686,10.657l36.144,3.812-.023-42.243c.465-28.44-5.49-31.183-7.091-33.641-.5-.775-4.145-6.424-6.26-7.249l-15.4,24.812s-2.205,17.477-2.954,33.371c-.16,3.454-.272,7.074-.728,10.481" transform="translate(138.754 104.662)" fill="#00447d"/>
        <rect id="Rectángulo_268442" data-name="Rectángulo 268442" width="14.208" height="5.006" transform="translate(283.811 264.789) rotate(-16.21)" fill="#002c52"/>
        <path id="Trazado_467503" data-name="Trazado 467503" d="M134.85,124.018l10.141-7.06v-4.667s7.745-4.672,7.648-7.488c-.177-5.443-2.433-5.969-2.433-5.969Z" transform="translate(142.541 104.471)" fill="#002c52"/>
        <path id="Trazado_467504" data-name="Trazado 467504" d="M150.414,146.284a6.892,6.892,0,0,1-13.332-3.505l8.769-33.641a6.895,6.895,0,0,1,13.336,3.509Z" transform="translate(144.659 109.929)" fill="#07334e"/>
        <path id="Trazado_467505" data-name="Trazado 467505" d="M118.879,139.112c-.014-.385-.029-.765-.037-1.138a2.967,2.967,0,0,0,.288-.833c.128-.648.481-.854.93-1.277.325-.311.636-.65.944-.981a7.552,7.552,0,0,1,2.707-1.866,5.612,5.612,0,0,1,1.96-.572,15.242,15.242,0,0,1,.969,1.629l-.023,0a12.706,12.706,0,0,0-1.748.872,5.887,5.887,0,0,0-2.337,1.74c-.2.333,2.664-5.832,2.968-5.762-.006.062,5.4-.012,5.416.051-.008,0,2.135,2.248,2.129,2.248-.666.385-6.148,1.613-8.463,3.343a7.608,7.608,0,0,0-2.452,4.3.757.757,0,0,1-1.374.177,5.092,5.092,0,0,1-.181-.728,7.68,7.68,0,0,1-.422,1.783.75.75,0,0,1-1.236-.475,13,13,0,0,1-.039-2.514" transform="translate(125.604 138.396)" fill="#ffc89f"/>
        <path id="Trazado_467506" data-name="Trazado 467506" d="M77.863,121.046a2.787,2.787,0,0,0,2.974-.878c1.051-1.3,3.207-1.664,3.429-3.322.14-1.072,1.862-2.884,1.2-3.544s-7.138,4.184-7.138,4.184-4.994,2.7-.461,3.561" transform="translate(80.293 119.698)" fill="#ffc89f"/>
        <path id="Trazado_467507" data-name="Trazado 467507" d="M101.972,129.286l-23.131-.673L68.127,101.635a6.44,6.44,0,0,0-12.25,3.982l8.989,24.637a6.444,6.444,0,0,0,3.211,10.822,6.17,6.17,0,0,0,1.1.136l1.037-.016a7.539,7.539,0,0,0,1.314-.021l24.608-.416c.662.035,6.212-11.46,5.838-11.474" transform="translate(58.732 102.727)" fill="#041d2b"/>
        <path id="Trazado_467508" data-name="Trazado 467508" d="M79.738,161.139l2.8-1.339,10.042-.938-.9,2.532,5.949,1.5,8.555,2.81v3.086s-10.933.1-11.425,0c0,0-8.915-.864-9.94-1.121l-.344,1.121H79.25l-.481-3.209Z" transform="translate(83.261 167.922)"/>
        <path id="Trazado_467509" data-name="Trazado 467509" d="M123.421,193.455,121.07,143.5c-.117-4-2.734-8.045-6.432-9.09-6.4-1.812-46.612-5.266-46.612-5.266-5.221,0-13.058,9.87-13.058,9.87-1.269,8.43,1.123,12.06,6.346,12.06l41.943-.15,1.026,43.8Z" transform="translate(57.748 136.509)" fill="#041d2b"/>
        <rect id="Rectángulo_268443" data-name="Rectángulo 268443" width="7.492" height="34.264" transform="translate(115.329 298.321)" fill="#232038"/>
        <rect id="Rectángulo_268444" data-name="Rectángulo 268444" width="18.534" height="4.281" transform="translate(109.81 296.179)" fill="#00447d"/>
        <path id="Trazado_467510" data-name="Trazado 467510" d="M53.223,165.833a1.389,1.389,0,1,0-1.388,1.395,1.385,1.385,0,0,0,1.388-1.395" transform="translate(53.323 173.83)" fill="#cc2221"/>
        <path id="Trazado_467511" data-name="Trazado 467511" d="M50.809,165.451a.643.643,0,0,1,1.286,0,.643.643,0,1,1-1.286,0" transform="translate(53.707 174.212)" fill="#00447d"/>
        <path id="Trazado_467512" data-name="Trazado 467512" d="M63.979,165.835a1.391,1.391,0,1,1,1.391,1.388,1.39,1.39,0,0,1-1.391-1.388" transform="translate(67.628 173.822)" fill="#cc2221"/>
        <path id="Trazado_467513" data-name="Trazado 467513" d="M64.341,165.45a.648.648,0,0,1,1.3,0,.648.648,0,0,1-1.3,0" transform="translate(68.01 174.207)" fill="#00447d"/>
        <path id="Trazado_467514" data-name="Trazado 467514" d="M57.2,165.833a1.387,1.387,0,1,1,1.393,1.395,1.393,1.393,0,0,1-1.393-1.395" transform="translate(60.465 173.83)" fill="#cc2221"/>
        <path id="Trazado_467515" data-name="Trazado 467515" d="M57.564,165.451a.647.647,0,0,1,1.294,0,.647.647,0,1,1-1.294,0" transform="translate(60.847 174.212)" fill="#00447d"/>
        <path id="Trazado_467516" data-name="Trazado 467516" d="M51.04,167.573V165l.01.006,9.382-3.522H70.491l9.263,3.534v2.557h.237v.185H78.629v-.185h.239v-.86L70,163.379H66.342v3.131h-.52v1.063h.241v.185H64.7v-.185h.243V166.51h-.527v-3.131H60.79l-8.872,3.334v.86h.241v.185H50.793v-.185Z" transform="translate(53.69 170.692)" fill="#00447d"/>
        <path id="Trazado_467517" data-name="Trazado 467517" d="M44.925,115.225l3.764-.436,6.218,54.005H94.972v3.162H52.091Z" transform="translate(47.487 121.336)" fill="#ffca00"/>
        <path id="Trazado_467518" data-name="Trazado 467518" d="M46.611,115l7.167,56.731H96.658v3.392H49.653L43.33,115.38Z" transform="translate(45.801 121.56)" fill="#fdb813"/>
        <path id="Trazado_467519" data-name="Trazado 467519" d="M66.655,162.687l2.8-1.343,10.04-.936-.9,2.524,5.945,1.51,8.557,2.812v3.081s-10.935.1-11.427,0c0,0-8.913-.862-9.938-1.115l-.346,1.115H66.171l-.481-3.209Z" transform="translate(69.436 169.556)" fill="#09161c"/>
        <path id="Trazado_467520" data-name="Trazado 467520" d="M108.8,135.087c-.481-.128-46.034-4.774-46.034-4.774-5.219,0-13.06,9.87-13.06,9.87-1.265,8.43,1.129,12.2,6.346,12.2l38.541.064L81.935,195.914l20.955.662,12.056-49.76c1.267-4.8-1.345-10.472-6.148-11.729" transform="translate(52.187 137.745)" fill="#041d2b"/>
        <path id="Trazado_467521" data-name="Trazado 467521" d="M65.784,105.363l-10.456-1.783,2.4-8.471,11.227-1.565Z" transform="translate(58.484 98.878)" fill="#edb485"/>
        <path id="Trazado_467522" data-name="Trazado 467522" d="M58.635,96.209c-.012,0-.027-.012-.041-.019-.053.019-.033.021.041.019" transform="translate(61.903 101.676)" fill="#ffc89f"/>
        <path id="Trazado_467523" data-name="Trazado 467523" d="M77.186,102.225a6.962,6.962,0,0,0-1.664-3.361,32.4,32.4,0,0,0-.9-8.337s-.1-.006-.28-.012c.035-1.411,0-2.767-.652-3.478-.708-.775-4.063-2-4.848-2.691-.586-.518-1.51,2.582-2.106,2.055a.127.127,0,0,0-.2.154c.047.1-3.984-3.736-3.931-3.657-.72.936-4.357,3.312-4.83,4.427-.514,1.218-.138,2.781.617,4.482a4.874,4.874,0,0,0-2.059,1.187c-2.812,3.162-.845,10.9.14,11.805.413.389,6,5.443,6,5.443l.049.019h-.01c2.039,1.238,9.4,4.287,12.042,2.094.858-.708.339-2.586.027-3.411-.381-1,1.806-1.617.664-2.756-.6-.6.636-.551.457-1.376-.08-.387-.42-1.214-.469-1.609-.039-.354,1.964-.557,1.944-.977" transform="translate(58.016 87.624)" fill="#ffc89f"/>
        <path id="Trazado_467524" data-name="Trazado 467524" d="M59.062,111.621l1.382-4.873s3.141-4.2,3.727-4.081c1.327.267,3.939-2.557,3.279-6.021-.432-2.3-3.388-4.4-3.211-5.8.615-4.922,6.535-3.736,8.578-3.051,2.2.738,4.472,5.118,4.472,5.118a26.242,26.242,0,0,0-.555-4.776c-.438-1.674-3.162-3.633-5.408-4.381s-6.486-2.53-11.828.418c-5.147,2.847-7.047,7.311-6.7,11.059s4.011,13.677,6.262,16.392" transform="translate(55.769 87.238)" fill="#817f85"/>
        <path id="Trazado_467525" data-name="Trazado 467525" d="M65.6,154.577c-.2-1.658-4.4-23.954-4.614-25.614-.823-6.722-1.786-13.437-2.814-20.126q-.623-4.03-1.594-8c6.245,0,8.294-1.973,8.294-1.973.031.025.058.058.086.082a7.013,7.013,0,0,1,1.345,2.088c.082.173.162.348.245.539a28.454,28.454,0,0,1,1.16,3.651c.134.539.269,1.1.389,1.674l.008.037a94.14,94.14,0,0,1,1.668,13.105c.074,1.2.128,2.388.154,3.581.341,13.653-2.078,26.754-4.328,30.956" transform="translate(59.804 104.5)" fill="#dcdcdc"/>
        <path id="Trazado_467526" data-name="Trazado 467526" d="M64.755,121.074l-4.406-20.8.913.255,1.053-.609c.082.173.162.348.245.539a28.454,28.454,0,0,1,1.16,3.651l.389,1.674.006.037a94.143,94.143,0,0,1,1.67,13.105,3.009,3.009,0,0,1-1.031,2.15" transform="translate(63.791 105.615)" fill="#c62b27"/>
        <path id="Trazado_467527" data-name="Trazado 467527" d="M63.107,101.529s.512,1.181-.335.827c0,0-1.847-.775-1.911-.839a4.41,4.41,0,0,1-1.029-1.543c.023-.218,1.685-1.072,1.685-1.072a7.013,7.013,0,0,1,1.345,2.088c.082.173.162.348.245.539" transform="translate(63.244 104.542)" fill="#fa7564"/>
        <path id="Trazado_467528" data-name="Trazado 467528" d="M63.91,105.956l-9.639-4.939,2-4.344,11.042,4.5Z" transform="translate(57.366 102.186)" fill="#fdfffe"/>
        <path id="Trazado_467529" data-name="Trazado 467529" d="M60.216,93.238c.411,1.812-.068,3.47-1.072,3.7s-2.152-1.057-2.565-2.872.064-3.47,1.068-3.7,2.162,1.057,2.569,2.876" transform="translate(59.647 95.488)" fill="#ffc89f"/>
        <path id="Trazado_467530" data-name="Trazado 467530" d="M82.112,167.748c.557,4.194,1.611,8.084,3.818,11.028L48.51,182.717l.027-43.724c-.49-29.428,5.684-32.275,7.337-34.813.52-.813,4.3-6.659,6.482-7.506L78.3,122.353s2.283,18.087,3.053,34.538c.165,3.579.288,7.325.759,10.857" transform="translate(51.276 102.186)" fill="#00447d"/>
        <rect id="Rectángulo_268445" data-name="Rectángulo 268445" width="5.179" height="14.707" transform="translate(107.359 262.978) rotate(-73.775)" fill="#002c52"/>
        <path id="Trazado_467531" data-name="Trazado 467531" d="M72.457,122.551l-10.5-7.3V110.41s-8.016-4.828-7.918-7.749c.191-5.63,2.52-6.175,2.52-6.175Z" transform="translate(57.119 101.989)" fill="#002c52"/>
        <path id="Trazado_467532" data-name="Trazado 467532" d="M63.686,106.174a6.438,6.438,0,1,0-12.245,3.982l12.536,34.361a5.276,5.276,0,0,0,.337.915,6.014,6.014,0,0,0,2.516,2.637l6.387-17.9Z" transform="translate(54.04 107.527)" fill="#002c52"/>
        <path id="Trazado_467533" data-name="Trazado 467533" d="M156.331,112.879a6.021,6.021,0,0,0-7.152,4.618l-7.529,22.615-1.051.138,5.422,11.643c2.707-.323,5.667-.965,5.667-.965l.1-.012c.346-.047,7.833-31.4,7.833-31.4.7-3.25-.039-5.943-3.293-6.64" transform="translate(148.617 119.173)" fill="#ffcd64"/>
        <path id="Trazado_467534" data-name="Trazado 467534" d="M162.014,97.409c2.259,3.423,1.979,7.6-.634,9.322s-6.554.344-8.823-3.081-1.977-7.6.638-9.32,6.558-.346,8.818,3.079" transform="translate(159.648 98.925)" fill="#67432d"/>
        <path id="Trazado_467535" data-name="Trazado 467535" d="M130.266,193.451c.165-1.746,2.555-22.343,4.106-35.724,2.734.551,6.473-7.376,9.259-7.259.518.021,3.09.113,5.813.286-.261,4.188-.751,12.272-3.234,19.564-3.176,9.347-7.547,19.128-7.449,24.3.029,1.944.113,4.089.185,5.278-1.308,1.3-3.034,5.128-4.412,6.362a14.49,14.49,0,0,1-2.571,1.88,9.3,9.3,0,0,0-2.567,2.205c-3.929,4.927-5.132.922-5.04.808.5-.572,2.863-7.809,3.417-9.386.977-2.8,2.18-4.976,2.493-8.319" transform="translate(131.443 159.047)" fill="#edb485"/>
        <path id="Trazado_467536" data-name="Trazado 467536" d="M142.544,174.5a2.955,2.955,0,0,0-.267-.531,8.03,8.03,0,0,1-2.047,2.479,57.922,57.922,0,0,0-6.792,7.064,9.109,9.109,0,0,1-2.853,2.442,5.118,5.118,0,0,1-1.767.543,1.844,1.844,0,0,1-.644.035,1,1,0,0,1-.49-.22,27.441,27.441,0,0,0-2.168,1.742c-.71.545-4.785,2.865-4.27,3.594.288.409,2.285.158,2.738.146.932-.023,1.979-.06,2.913-.074,1.917-.023,2.726-.072,5.027-.13,2.236-.049,2.3-4.562,3.629-5.984.745-.806,3.081-2.265,3.886-.934.623,1.039,1.292,6.105,1.384,6.692l.825-.006c.315-2.919-.187-7.446,1.44-10.11,1.218-1.993-.07-5.354-.543-6.747" transform="translate(128.113 183.89)"/>
        <path id="Trazado_467537" data-name="Trazado 467537" d="M140.7,195.476c-.383-1.705-6.739-32.285-9.4-45.5,2.781-.315,6.159,1.249,8.845.494.5-.136,2.977-.848,5.618-1.526,1.047,4.069,3.073,11.908,2.966,19.614-.14,9.87-1.282,20.519.411,25.417.634,1.837,1.368,3.851,1.8,4.953-.845,1.642-1.3,5.826-2.234,7.428a14.361,14.361,0,0,1-1.864,2.573,9.513,9.513,0,0,0-1.769,2.892c-2.2,5.9-4.6,2.462-4.534,2.324.294-.7.309-8.317.348-9.987.068-2.964.537-5.394-.2-8.685" transform="translate(138.787 157.44)" fill="#ffc89f"/>
        <path id="Trazado_467538" data-name="Trazado 467538" d="M148.637,173.164a2.413,2.413,0,0,0-.422-.415,8.028,8.028,0,0,1-1.181,2.991,57.321,57.321,0,0,0-4.275,8.812,9.321,9.321,0,0,1-1.966,3.2,5.205,5.205,0,0,1-1.512,1.057,2.105,2.105,0,0,1-.6.228,1.012,1.012,0,0,1-.529-.056,25.386,25.386,0,0,0-1.526,2.324c-.506.734-3.666,4.2-2.958,4.739.4.3,2.224-.562,2.654-.706.882-.317,1.864-.673,2.748-.977,1.814-.613,2.573-.905,4.735-1.668,2.121-.741.8-5.05,1.609-6.811.461-1,2.23-3.106,3.411-2.082.911.79,3.106,5.4,3.38,5.928l.778-.257c-.6-2.88-2.468-7.025-1.74-10.061.539-2.273-1.726-5.075-2.6-6.253" transform="translate(141.18 182.599)" fill="#182a36"/>
        <rect id="Rectángulo_268446" data-name="Rectángulo 268446" width="8.22" height="37.637" transform="translate(309.511 329.631)" fill="#002c52"/>
        <rect id="Rectángulo_268447" data-name="Rectángulo 268447" width="20.36" height="4.704" transform="translate(303.437 327.284)" fill="#00447d"/>
        <path id="Trazado_467539" data-name="Trazado 467539" d="M159.15,183.1a1.525,1.525,0,1,1,1.524,1.535,1.524,1.524,0,0,1-1.524-1.535" transform="translate(168.226 191.938)" fill="#cc2221"/>
        <path id="Trazado_467540" data-name="Trazado 467540" d="M160.957,182.68a.7.7,0,0,0-.7-.7.708.708,0,0,0-.716.7.706.706,0,1,0,1.411,0" transform="translate(168.645 192.359)" fill="#00447d"/>
        <path id="Trazado_467541" data-name="Trazado 467541" d="M147.339,183.1a1.527,1.527,0,1,0-1.532,1.526,1.526,1.526,0,0,0,1.532-1.526" transform="translate(152.513 191.932)" fill="#cc2221"/>
        <path id="Trazado_467542" data-name="Trazado 467542" d="M146.1,182.68a.709.709,0,1,0-.718.712.711.711,0,0,0,.718-.712" transform="translate(152.934 192.35)" fill="#00447d"/>
        <path id="Trazado_467543" data-name="Trazado 467543" d="M154.775,183.1a1.523,1.523,0,1,0-1.528,1.535,1.521,1.521,0,0,0,1.528-1.535" transform="translate(160.382 191.938)" fill="#cc2221"/>
        <path id="Trazado_467544" data-name="Trazado 467544" d="M153.543,182.68a.71.71,0,0,0-1.419,0,.71.71,0,1,0,1.419,0" transform="translate(160.8 192.359)" fill="#00447d"/>
        <path id="Trazado_467545" data-name="Trazado 467545" d="M176.465,185.015v-2.826h-.012l-10.3-3.863H155.1l-10.17,3.875v2.814h-.272v.2h1.5v-.2H145.9v-.948l9.738-3.657h4.021v3.431h.566v1.175h-.263v.2h1.493v-.2H161.2V183.84h.58v-3.431h3.976l9.742,3.657v.948h-.267v.2h1.506v-.2Z" transform="translate(152.909 188.495)" fill="#00447d"/>
        <path id="Trazado_467546" data-name="Trazado 467546" d="M194.943,127.521l-4.137-.477-6.829,59.308h-44v3.474h47.1Z" transform="translate(147.956 134.289)" fill="#6674a7"/>
        <path id="Trazado_467547" data-name="Trazado 467547" d="M194.943,127.275l-7.87,62.305h-47.1v3.727H191.6l6.945-65.615Z" transform="translate(147.956 134.534)" fill="#263980"/>
        <path id="Trazado_467548" data-name="Trazado 467548" d="M149.531,120.718l-.85.973-.547,8.059,9.382-1.115,4.556-9.121L157.605,105.2l-11.1,4.994Z" transform="translate(154.863 111.199)" fill="#edb485"/>
        <path id="Trazado_467549" data-name="Trazado 467549" d="M150.375,108.043a.219.219,0,0,1,.031-.035c.056.012.031.025-.031.035" transform="translate(158.951 114.168)" fill="#e2bba1"/>
        <path id="Trazado_467550" data-name="Trazado 467550" d="M142.487,115.435c-.058-.967,1.119-3.094,1.358-4.542.056-.243.091-.492.123-.736.158-1.212-.784-2.555-.86-3.651a14.073,14.073,0,0,1,.284-4.075s1.212-.255,3.016-.562c.128-.193.255-.391.387-.59a27.306,27.306,0,0,1,1.748-2.427c.475-.584,1.164-.946,1.642-1.539a.122.122,0,0,1,.21.117,2.292,2.292,0,0,1-.109.257,14.081,14.081,0,0,1,2.588,3.349c3.443-.282,6.811-.212,8.146.866,3.149,2.542,2.5,10.139,1.716,11.157-.274.344-2.156,2.857-3,4.028a21.2,21.2,0,0,1-4.172,4.458c-2.721,1.927-4.264,2.479-5.2,2.538-2.886.187-2.46-1.788-2.966-3.184a1.764,1.764,0,0,0-.745-.782.631.631,0,0,1-.3-.529c-.018-.391.259-.666.745-.843.06-.016-.06-.082-.28-.031a2.872,2.872,0,0,1-.882.064c-.189-.049-.57-.344-.448-.619a1.15,1.15,0,0,0-.045-.821c-.257-.71-.825-1.314-1.275-1.3-.337.012-1.619.368-1.679-.607" transform="translate(150.611 102.814)" fill="#ffc89f"/>
        <path id="Trazado_467551" data-name="Trazado 467551" d="M193.594,166.969h0a13.6,13.6,0,0,0-1.428-3.548c-1.711-4.593-4.209-11.618-4.414-14.091-.782-9.207,1.094-15.238,1.29-19.846.467-11.318-.208-11.8-2.324-14.128-.693-.755-3.984-2.444-6.373-3.2-12.394,8.275-12.507,1.938-12.542,1.2,0-.031-.082.095-.082.095-.121.125-.658.738-1.421,1.654-.086.1-.171.206-.265.315-2.487,3.03-6.854,8.779-6.938,12-.051,1.74,1.168,4.24,2.176,6.858.173.442,1.539,14.177,2.3,21.971.313,6.311.553,12.754.5,17-.4,1.825-1.035,3.793-2.777,4.381-6.819,2.308-16.218,3.215-24.129,4.951-5.671,1.234-7.942,15.627-7.942,15.627.175.136,22.115,5.19,22.115,5.19s.086-1.463.957-1.442c0,0,18.4.014,21.932.1,4.744.1,15.852.9,19.367-3.83,5.83-7.829,2.38-23.514,0-31.265" transform="translate(136.593 118.555)" fill="#ffcd64"/>
        <path id="Trazado_467552" data-name="Trazado 467552" d="M176.036,141.82c-.082-.276-.16-.549-.245-.815a13.522,13.522,0,0,0-1.43-3.548c-.088-.245-.181-.492-.272-.736H146.065c.066,1.771.113,3.491.158,5.1Z" transform="translate(154.395 144.518)" fill="#fff"/>
        <path id="Trazado_467553" data-name="Trazado 467553" d="M159.837,115.275c.706,1.574,3.059,2.789,3.766,4.357.654,0,.391-2.047.887-2.429,8.21-6.251,5.029-18.616-4.18-22.084-4.032-1.508-9.736.632-13.023,3.33a9.671,9.671,0,0,0-3.674,5.025c-2.3.039-1.917,6.611-1.545,8.16.053.218,14.484,1.547,14.372,2.717,2.631-6.07,3.974-.292,3.4.924" transform="translate(149.874 100.015)" fill="#78401f"/>
        <path id="Trazado_467554" data-name="Trazado 467554" d="M149.1,105.322c-.284,1.736.274,3.271,1.232,3.425s1.964-1.131,2.25-2.861-.274-3.273-1.236-3.427-1.969,1.129-2.246,2.863" transform="translate(157.527 108.288)" fill="#ffc89f"/>
        <path id="Trazado_467555" data-name="Trazado 467555" d="M60.353,116.131a10.187,10.187,0,0,0-4.873-5.348l-1.839-.936,1.4,28.815L59.736,144l7.979-9.366Z" transform="translate(56.7 116.112)" fill="#041d2b"/>
        <path id="Trazado_467556" data-name="Trazado 467556" d="M69.1,99.658s.444,17.886-4.2,31.03-18.293-8.572-18.406-8.629.821-39.643,22.6-22.4" transform="translate(49.136 100.744)" fill="#1f140d"/>
        <path id="Trazado_467557" data-name="Trazado 467557" d="M83.685,191.33c-.171-1.761-2.582-22.559-4.149-36.068-2.763.557-6.529-7.442-9.349-7.327-.525.023-3.121.109-5.871.286.263,4.229.759,12.4,3.265,19.756,3.207,9.434,7.625,19.313,7.529,24.534-.039,1.962-.121,4.128-.189,5.328,1.316,1.308,3.063,5.186,4.449,6.43a14.181,14.181,0,0,0,2.6,1.895,9.464,9.464,0,0,1,2.594,2.224c3.96,4.984,5.184.936,5.079.821-.5-.576-2.884-7.891-3.441-9.477-.989-2.828-2.205-5.021-2.516-8.4" transform="translate(67.984 156.37)" fill="#edb485"/>
        <path id="Trazado_467558" data-name="Trazado 467558" d="M69.884,172.2a2.885,2.885,0,0,1,.269-.533,7.976,7.976,0,0,0,2.073,2.5,58.852,58.852,0,0,1,6.852,7.134,9.344,9.344,0,0,0,2.88,2.466,5.219,5.219,0,0,0,1.785.545,1.9,1.9,0,0,0,.654.033.979.979,0,0,0,.483-.218,24.236,24.236,0,0,1,2.193,1.753c.716.551,4.834,2.9,4.314,3.637-.29.416-2.3.148-2.767.14-.944-.019-2-.058-2.937-.068-1.94-.029-2.748-.072-5.073-.128-2.267-.056-2.335-4.61-3.664-6.048-.759-.817-3.116-2.283-3.931-.938-.625,1.045-1.3,6.155-1.4,6.749h-.825c-.323-2.956.185-7.523-1.458-10.213-1.232-2.008.074-5.406.547-6.811" transform="translate(72.747 181.454)"/>
        <path id="Trazado_467559" data-name="Trazado 467559" d="M80.616,192.987c-.163-1.761-3.585-33.114-5.151-46.621-2.769.555-5.525,3.11-8.341,3.225-.518.023-3.116.109-5.867.286.261,4.229.753,12.4,3.256,19.756,3.213,9.434,7.63,19.313,7.533,24.534-.041,1.962-.115,4.128-.189,5.328,1.316,1.308,3.059,5.186,4.447,6.43a14.017,14.017,0,0,0,2.606,1.895,9.507,9.507,0,0,1,2.59,2.224c3.96,4.984,5.18.936,5.085.821-.51-.576-2.888-7.891-3.446-9.477-.991-2.828-2.2-5.021-2.524-8.4" transform="translate(64.75 154.713)" fill="#ffc89f"/>
        <path id="Trazado_467560" data-name="Trazado 467560" d="M66.82,172.2a2.665,2.665,0,0,1,.278-.533,7.889,7.889,0,0,0,2.063,2.5,58.888,58.888,0,0,1,6.856,7.134,9.265,9.265,0,0,0,2.884,2.466,5.2,5.2,0,0,0,1.777.545,1.9,1.9,0,0,0,.656.033,1.036,1.036,0,0,0,.492-.218,24.5,24.5,0,0,1,2.183,1.753c.72.551,4.838,2.9,4.324,3.637-.292.416-2.31.148-2.771.14-.94-.019-2-.058-2.944-.068-1.94-.029-2.746-.072-5.073-.128-2.259-.056-2.333-4.61-3.661-6.048-.753-.817-3.114-2.283-3.925-.938-.632,1.045-1.3,6.155-1.4,6.749h-.831c-.321-2.956.187-7.523-1.46-10.213-1.226-2.008.076-5.406.549-6.811" transform="translate(69.51 181.454)" fill="#2f3e4a"/>
        <rect id="Rectángulo_268448" data-name="Rectángulo 268448" width="8.302" height="37.995" transform="translate(95.103 324.616)" fill="#002c52"/>
        <rect id="Rectángulo_268449" data-name="Rectángulo 268449" width="20.558" height="4.754" transform="translate(88.979 322.238)" fill="#00447d"/>
        <path id="Trazado_467561" data-name="Trazado 467561" d="M43.078,180.888a1.539,1.539,0,1,0-1.537,1.545,1.533,1.533,0,0,0,1.537-1.545" transform="translate(42.282 189.577)" fill="#cc2221"/>
        <path id="Trazado_467562" data-name="Trazado 467562" d="M40.4,180.462a.713.713,0,1,1,.708.718.711.711,0,0,1-.708-.718" transform="translate(42.706 190.003)" fill="#00447d"/>
        <path id="Trazado_467563" data-name="Trazado 467563" d="M55.008,180.887a1.543,1.543,0,1,1,1.543,1.541,1.546,1.546,0,0,1-1.543-1.541" transform="translate(58.145 189.568)" fill="#cc2221"/>
        <path id="Trazado_467564" data-name="Trazado 467564" d="M55.409,180.459a.718.718,0,1,1,.718.714.715.715,0,0,1-.718-.714" transform="translate(58.569 189.996)" fill="#00447d"/>
        <path id="Trazado_467565" data-name="Trazado 467565" d="M47.5,180.888a1.539,1.539,0,1,1,1.547,1.545,1.541,1.541,0,0,1-1.547-1.545" transform="translate(50.205 189.577)" fill="#cc2221"/>
        <path id="Trazado_467566" data-name="Trazado 467566" d="M47.9,180.462a.715.715,0,1,1,.724.718.714.714,0,0,1-.724-.718" transform="translate(50.628 190.003)" fill="#00447d"/>
        <path id="Trazado_467567" data-name="Trazado 467567" d="M40.661,182.807v-2.849l.012.008,10.4-3.908H62.231L72.5,179.981v2.826h.265v.208H71.251v-.208h.263v-.946l-9.831-3.7h-4.05v3.472h-.578v1.177h.267v.208H55.807v-.208h.263v-1.177h-.58v-3.472H51.481l-9.839,3.7v.946H41.9v.208H40.386v-.208Z" transform="translate(42.689 186.099)" fill="#00447d"/>
        <path id="Trazado_467568" data-name="Trazado 467568" d="M33.878,124.769l4.178-.485,6.9,59.878H89.379v3.509H41.828Z" transform="translate(35.81 131.372)" fill="#6674a7"/>
        <path id="Trazado_467569" data-name="Trazado 467569" d="M35.747,124.52l7.95,62.9h47.55v3.764H39.124L32.11,124.938Z" transform="translate(33.941 131.621)" fill="#263980"/>
        <path id="Trazado_467570" data-name="Trazado 467570" d="M106.777,169.889s-2.3-14.527-8.02-15.777c-7.985-1.753-17.479-2.67-24.357-4.994-2.411-.821-3.1-4.439-3.306-6.391-.025-.442-.056-.862-.082-1.257-.154-2.485-.253-3.964-.253-3.964l-9.421-3.262v.329s-17.281-.843-17.762-.286a11.194,11.194,0,0,0-1.792,4.056c-2.4,7.821-5.889,23.658,0,31.565,3.557,4.774,14.767,3.966,19.554,3.857,3.571-.07,23.726-.095,23.726-.095.876-.016.241,1.461.241,1.461s21.3-5.106,21.473-5.241" transform="translate(40.745 141.743)" fill="#002c52"/>
        <path id="Trazado_467571" data-name="Trazado 467571" d="M58.788,118.818l-1.008-.154-11.157-1.981,4.513-14.455,11.2,5.038Z" transform="translate(49.282 108.059)" fill="#edb485"/>
        <path id="Trazado_467572" data-name="Trazado 467572" d="M50.395,105.1a.217.217,0,0,1-.039-.031c-.047.006-.029.018.039.031" transform="translate(53.199 111.057)" fill="#e2bba1"/>
        <path id="Trazado_467573" data-name="Trazado 467573" d="M69.162,112.558c.06-.975-1.127-3.127-1.376-4.583-.043-.247-.086-.5-.117-.747-.16-1.224.792-2.575.866-3.684a14.08,14.08,0,0,0-.284-4.106s-1.226-.267-3.046-.57c-.128-.2-.261-.4-.387-.6a26.753,26.753,0,0,0-1.773-2.45c-.477-.586-1.17-.952-1.652-1.549a.121.121,0,0,0-.21.115,1.068,1.068,0,0,0,.111.257,13.923,13.923,0,0,0-2.617,3.382c-3.474-.282-6.883-.214-8.224.876-3.174,2.565-2.526,10.236-1.736,11.264.276.35,3.011,3.682,3.011,3.682a13.088,13.088,0,0,0,4.235,4.888c2.744,1.94,4.307,2.5,5.252,2.561,2.911.189,2.481-1.806,3-3.215a1.7,1.7,0,0,1,.747-.79.644.644,0,0,0,.3-.529c.016-.4-.263-.681-.755-.854-.058-.023.068-.082.284-.037a2.591,2.591,0,0,0,.893.064c.181-.045.57-.346.453-.625a1.14,1.14,0,0,1,.045-.825c.257-.714.833-1.323,1.284-1.316.341.019,1.637.383,1.7-.607" transform="translate(50.811 99.593)" fill="#ffc89f"/>
        <path id="Trazado_467574" data-name="Trazado 467574" d="M57.012,133.493c.724-.183,1.446-.405,2.178-.6,1.44-.379,3.158.313,3.717.249a19.856,19.856,0,0,0,1.125-2.176c1.024-2.641,2.252-5.171,2.2-6.92-.093-3.258-4.495-9.063-7.014-12.118-.091-.115-.177-.218-.259-.317-.771-.926-1.314-1.543-1.434-1.674l-.088-.093a5.264,5.264,0,0,1-1.467.753,18.651,18.651,0,0,1-7.6.8c.5,2.894.893,5.8,1.154,8.728q.42,4.764.794,9.543c2.145,1.378,4.349,2.691,6.62,3.849a.671.671,0,0,0,.076-.023" transform="translate(51.126 116.112)" fill="#dcdcdc"/>
        <path id="Trazado_467575" data-name="Trazado 467575" d="M55.214,117.919l-10.044-6,2.452-4.536,11.694,5.823Z" transform="translate(47.746 113.512)" fill="#fdfffe"/>
        <path id="Trazado_467576" data-name="Trazado 467576" d="M55.926,115.573l2.106-3.752-4.548-2.213-1.438,1.257Z" transform="translate(55.015 115.858)" fill="#fdfffe"/>
        <path id="Trazado_467577" data-name="Trazado 467577" d="M58.28,133.4s4.587-7.379,4.174-9.732c-.241-1.335-5.289-8.407-5.289-8.407a7.168,7.168,0,0,0,.49-3.437c-.23-1.2-4.908-2.211-4.908-2.211s5.749,10.682,7.2,14.22c1.3,3.158-1.67,9.567-1.67,9.567" transform="translate(55.755 115.859)" fill="#002c52"/>
        <path id="Trazado_467578" data-name="Trazado 467578" d="M39.606,167.362s6.638-14.484,6.957-18.312c.786-9.3-1.109-15.387-1.3-20.042-.475-11.419.957-12.394,2.345-14.259.615-.839,5.093-6.868,7.508-7.636l17.055,28.92,3.524-6.77s-4.3,33.038-4.153,44.164Z" transform="translate(41.865 113.223)" fill="#00447d"/>
        <path id="Trazado_467579" data-name="Trazado 467579" d="M56.67,122.855a1.9,1.9,0,0,1-.868,1.5c-.479.278-.868.053-.868-.5a1.931,1.931,0,0,1,.868-1.5c.481-.274.868-.053.868.5" transform="translate(58.067 129.205)" fill="#002c52"/>
        <path id="Trazado_467580" data-name="Trazado 467580" d="M56.225,127.288a1.912,1.912,0,0,1-.876,1.5c-.475.276-.866.051-.866-.5a1.945,1.945,0,0,1,.866-1.512c.483-.274.876-.049.876.506" transform="translate(57.59 133.889)" fill="#002c52"/>
        <path id="Trazado_467581" data-name="Trazado 467581" d="M65.571,136.391s-10.3-6.033-12.3-9.728c-.615-1.146,1.074-6.126,1.074-6.126s-8.794-4.6-8.491-7.736c.6-6.054,2.74-6.027,2.74-6.027Z" transform="translate(48.464 112.863)" fill="#002c52"/>
        <path id="Trazado_467582" data-name="Trazado 467582" d="M39.9,140.476c-.718-9.388,7.926-32.248,8.3-33.75A22.364,22.364,0,0,1,54.5,95.741,15.125,15.125,0,0,1,66.987,92.3a14.184,14.184,0,0,1,7.286,3.843c3.417,3.524,4.758,6.1,3.976,10.869-.525-.051-4.937.677-4.937.677s-7.876,3.579-8.668,3.89c0,0-.5-1.94-.555-1.915a26.639,26.639,0,0,0-2.479,1.191,3.235,3.235,0,0,0-1.033,2.03c-.716,3.9,2.331,11.268,1.892,13.9-.909,5.451-3.511,7-5.21,6.875-2.561-.179-4.97-4.328-9.257-3.112a5.188,5.188,0,0,0-3.483,2.549,4.715,4.715,0,0,0-1.2,3.248c.043,1.967,2.069,9.135,1.57,10.588-.319.905-4.357,1.934-5-6.451" transform="translate(42.126 97.315)" fill="#4a3020"/>
        <path id="Trazado_467583" data-name="Trazado 467583" d="M53.531,102.351c.28,1.757-.284,3.306-1.247,3.464s-1.991-1.14-2.271-2.894.274-3.308,1.247-3.462,1.987,1.142,2.271,2.892" transform="translate(52.787 105.119)" fill="#ffc89f"/>
        <rect id="Rectángulo_268450" data-name="Rectángulo 268450" width="210.484" height="8.709" transform="translate(99.034 284.288)" fill="#d1d3d4"/>
        <path id="Trazado_467584" data-name="Trazado 467584" d="M94.789,115.683,48.143,162.071H258.627L211.98,115.683Z" transform="translate(50.889 122.28)" fill="#a7a9ac"/>
        <path id="Trazado_467585" data-name="Trazado 467585" d="M109.526,128.46l-3.133,12.04h54.688l-12.215-11.694Z" transform="translate(112.461 135.786)" fill="#fff"/>
        <path id="Trazado_467586" data-name="Trazado 467586" d="M105.754,131.3l3.131,12.04H54.195l12.219-11.694Z" transform="translate(57.286 138.785)" fill="#fff"/>
        <path id="Trazado_467587" data-name="Trazado 467587" d="M146.907,120.42c.226-1.487.465-2.97.664-4.464a21.17,21.17,0,0,1-.594-3.456l-28.731-4.262a85.162,85.162,0,0,1-1.921,11.118c.385.16,18.892,6.159,29.757,7.494a.789.789,0,0,0,.093-.056c.189-2.131.4-4.26.732-6.375" transform="translate(122.959 114.411)" fill="#072e47"/>
        <path id="Trazado_467588" data-name="Trazado 467588" d="M132.315,123.847l-7.054-1.107-6.044-.8a2.963,2.963,0,0,0-1.693.265,48.655,48.655,0,0,0-5.865,2.662c-1.224.786-1.773,1.279-.169,2.129a2.785,2.785,0,0,0,3.116-.274c-.356.267-.835.629-.806,1.135.041.991,1.072.658,1.658.527,1.253-.286,2.514-.568,3.775-.854a3.464,3.464,0,0,1,2.267.249l5.062,2.427a3.81,3.81,0,0,0,1.979.372l4.569-.352Z" transform="translate(116.8 128.867)" fill="#edb485"/>
        <path id="Trazado_467589" data-name="Trazado 467589" d="M160.043,132.994a7.647,7.647,0,0,1-1.156.22s-39.018,3.406-39.676,3.279a113.226,113.226,0,0,0-.6-13.393l38.822-3.6a6.9,6.9,0,0,1,2.606,13.49" transform="translate(125.379 126.278)" fill="#07334e"/>
        <path id="Trazado_467590" data-name="Trazado 467590" d="M130.659,128.811c-.352.06,5.91,10.217,6.521,10.121l15.154-1.292c.537.416,2.308.348,4.209.119l-5.424-11.645Z" transform="translate(138.096 133.306)" fill="#a31b1a"/>
        <path id="Trazado_467591" data-name="Trazado 467591" d="M136.271,134.625a2.591,2.591,0,0,1-2.845-.527c-1.107-1.115-3.145-1.249-3.507-2.767-.234-.981-2.01-2.5-1.454-3.184s7.051,3.211,7.051,3.211,4.9,2.036.755,3.267" transform="translate(135.678 135.372)" fill="#ffc89f"/>
        <path id="Trazado_467592" data-name="Trazado 467592" d="M147.18,147.48l3.036-5.844-23.051-21.747-5.844,3.088Z" transform="translate(128.24 126.727)" fill="#fc2c4a"/>
        <path id="Trazado_467593" data-name="Trazado 467593" d="M148.934,141.38l-22.4-21.132-4.715,2.485,24.666,23.372Z" transform="translate(128.77 127.106)" fill="#fffbe0"/>
        <path id="Trazado_467594" data-name="Trazado 467594" d="M130.644,125.845l6.914-2.014-.339-1.158-6.908,2.006Z" transform="translate(137.742 129.669)" fill="#041d2b"/>
        <path id="Trazado_467595" data-name="Trazado 467595" d="M128.837,122.732c-.064.018-.6,3.408-.6,3.408a23.936,23.936,0,0,0,2.582.263c.064-.078,1.646-1.275,1.646-1.275s-2.536-2.742-3.622-2.4" transform="translate(135.545 129.7)" fill="#edb485"/>
        <path id="Trazado_467596" data-name="Trazado 467596" d="M131.242,130.049c.012,0-.047.1-.056.2,0,0-1.6-.333-2.351-.416-.771-.074-.86.93-.261,1.288,1.467.889,8.312,5.307,8.312,5.307.411.058,5.71,2.076,5.768,1.662,3.143.788,1.808-4.466,1.773-4.538s-3.269-1.985-3.269-1.985l-5.017-5.97s-4.437-3.057-5.655-3.073-1.3,1.016-.7,1.57a26.646,26.646,0,0,0,2.45,1.711l-.056.16-3.277-.43a.913.913,0,0,0-.284,1.8l3.279.52c.041.01.016.222,0,.222l-3.3-.411a.908.908,0,0,0-1.018.786.92.92,0,0,0,.788,1.022Z" transform="translate(134.849 129.516)" fill="#ffc89f"/>
        <path id="Trazado_467597" data-name="Trazado 467597" d="M178.187,114.033a6.023,6.023,0,0,0-7.152,4.62l-12.058,28.7-22.294-8.16c-.333-.115-3.927,10.018-3.347,10.217,0,0,26.324,11.209,28.7,11.779a6.566,6.566,0,0,0,7.241-4.015l13.525-35.986a6.021,6.021,0,0,0-4.618-7.156" transform="translate(140.873 120.395)" fill="#ffcd64"/>
        <path id="Trazado_467598" data-name="Trazado 467598" d="M80.492,130.941c-.1-.263-.2-.52-.309-.775a2.089,2.089,0,0,1-.442-.481c-.286-.4-.586-.43-1.014-.59-.319-.113-.625-.249-.934-.385a5.616,5.616,0,0,0-2.392-.455,4.082,4.082,0,0,0-1.5.206,12.707,12.707,0,0,0-.177,1.391c.01,0,.012-.006.029-.012a10.577,10.577,0,0,1,1.438.076,4.424,4.424,0,0,1,2.106.481.392.392,0,0,1,.025.627.611.611,0,0,1,.06.128h.006c.987.1,1.138,1.049,1.705,1.872.3.422.747.662.954.018a1.562,1.562,0,0,0,.479.311c.463.148.778-.269.7-.7a10.176,10.176,0,0,0-.732-1.714" transform="translate(77.926 135.568)" fill="#edb485"/>
        <path id="Trazado_467599" data-name="Trazado 467599" d="M79.36,130.394a11.449,11.449,0,0,0-1.3.247,13.236,13.236,0,0,1,1.9.154c.436.041,1.851.272,1.66,1.286-.144.706-1.5.413-1.983.333a6.73,6.73,0,0,0-2.769.664c-2.351.7-4.6-.158-6.774-.687l1.236-5.077,8.138-.282a30.384,30.384,0,0,1,4.554,2.294,13.562,13.562,0,0,1,1.395,2.466c.189.368,1.016,1.415.488,1.907-.3.269-.829-.1-1-.321-.514-.677-.928-1.93-1.629-2.368a6.554,6.554,0,0,0-3.919-.617" transform="translate(74.09 134.278)" fill="#ffc89f"/>
        <path id="Trazado_467600" data-name="Trazado 467600" d="M77.3,135.59,73.439,129.7l22.144-25.635,6.552,2.639Z" transform="translate(77.628 110.003)" fill="#fc2c4a"/>
        <path id="Trazado_467601" data-name="Trazado 467601" d="M73.834,129.357l21.517-24.913,5.282,2.121-23.674,27.55Z" transform="translate(78.045 110.401)" fill="#fffbe0"/>
        <rect id="Rectángulo_268451" data-name="Rectángulo 268451" width="1.299" height="7.694" transform="translate(152.8 223.565) rotate(-79.636)" fill="#041d2b"/>
        <path id="Trazado_467602" data-name="Trazado 467602" d="M81.711,107.556c.07.016,1.02,3.563,1.02,3.563a27.409,27.409,0,0,1-2.721.562c-.072-.08-1.886-1.181-1.886-1.181s2.4-3.193,3.587-2.944" transform="translate(82.579 113.675)" fill="#edb485"/>
        <path id="Trazado_467603" data-name="Trazado 467603" d="M89.424,114.568a.973.973,0,1,0-.438-1.9l-3.464.8c-.012.006-.066-.218-.021-.228l3.431-.924a.973.973,0,1,0-.5-1.88L85,111.252l-.08-.167A29.809,29.809,0,0,0,87.337,109c.576-.66.368-1.744-.922-1.6s-5.673,3.888-5.673,3.888l-4.692,6.887s-3.223,2.382-3.254,2.47-.878,5.817,2.382,4.634c.1.438,5.515-2.3,5.951-2.39,0,0,6.8-5.457,8.261-6.556.6-.444.393-1.51-.422-1.337-.782.16-2.456.691-2.456.691a1.307,1.307,0,0,0-.078-.21Z" transform="translate(76.819 113.518)" fill="#ffc89f"/>
        <path id="Trazado_467604" data-name="Trazado 467604" d="M88.956,111.948,66.53,122.861l-1.384-3.491-6.387,17.9a7.893,7.893,0,0,0,5.628.839c1.707-.416,29.237-15.65,29.237-15.65.6-.282-4.328-10.67-4.667-10.507" transform="translate(62.11 118.33)" fill="#002c52"/>
        <path id="Trazado_467605" data-name="Trazado 467605" d="M67.03,129.8l-3.787-9.534L56.6,132.994l3.9,4.453a7.571,7.571,0,0,0,5.78,3.783l19.854-.531,3.071-7.331Z" transform="translate(59.833 127.122)" fill="#041d2b"/>
        <path id="Trazado_467606" data-name="Trazado 467606" d="M80.588,140.342a15.667,15.667,0,0,0-.749-3.145,35.286,35.286,0,0,0-4.272-3.945l-9.006-2.261L63.6,136.16a33.067,33.067,0,0,0,4.725,1.3c.6.241,3.733.362,5.867,1.543a6.408,6.408,0,0,1,2.542,3.316.64.64,0,0,0,1.173,0,4.573,4.573,0,0,0,.066-.636,6.8,6.8,0,0,0,.557,1.45.64.64,0,0,0,.985-.543,3.7,3.7,0,0,0-.033-.815c.016.045.033.1.045.142.117.286.582.874.987.667.738-.372.167-1.767.072-2.244" transform="translate(67.228 138.461)" fill="#ffc89f"/>
        <path id="Trazado_467607" data-name="Trazado 467607" d="M92.5,152.626l-27.57-10.978L53.647,114.176a6.439,6.439,0,0,0-11.9,4.922l12.336,30.039a7.337,7.337,0,0,0,3.182,3.476,6.119,6.119,0,0,0,1.018.422l31.8,8.411Z" transform="translate(43.608 116.481)" fill="#002c52"/>
        <path id="Trazado_467608" data-name="Trazado 467608" d="M195.969,91.809H195.9c-10.7-.064-18.731,7.329-19.676,17.958-.461,5.21-.578,9.927,7.922,20.027,1.779,2.115,2.281,6.332,2.468,8.812.1,1.347,6.622,2.273,9.057,2.464Z" transform="translate(186.093 97.045)" fill="#ba71c6"/>
        <path id="Trazado_467609" data-name="Trazado 467609" d="M205.418,110.007c-.815-10.641-8.761-18.131-19.457-18.194a.376.376,0,0,0-.07,0l-.3,49.264c2.44-.167,8.969-1.008,9.092-2.359.212-2.475.763-6.685,2.569-8.775,8.627-10,8.563-14.718,8.166-19.931" transform="translate(196.174 97.044)" fill="#94529f"/>
        <path id="Trazado_467610" data-name="Trazado 467610" d="M190.531,129.825a1.63,1.63,0,0,1-1.543-1.109L181,105.416a1.648,1.648,0,0,1,1.567-2.174l16.261.1a1.644,1.644,0,0,1,1.537,2.193l-8.271,23.2a1.636,1.636,0,0,1-1.559,1.092m-5.675-23.284,5.714,16.668,5.918-16.6Z" transform="translate(191.227 109.13)" fill="#fff"/>
        <path id="Trazado_467611" data-name="Trazado 467611" d="M180.6,112.463l-.084,13.356h0c.018.23.311.533.891.856l7.068,4a5.016,5.016,0,0,0,2.4.574l.115-18.719Z" transform="translate(190.813 118.877)" fill="#00447d"/>
        <path id="Trazado_467612" data-name="Trazado 467612" d="M185.669,112.494l-.115,18.719a5.01,5.01,0,0,0,2.4-.543l7.121-3.908c.582-.323.878-.619.9-.854l.086-13.35Z" transform="translate(196.136 118.91)" fill="#002c52"/>
        <path id="Trazado_467613" data-name="Trazado 467613" d="M190.531,94.754a3.152,3.152,0,1,1-6.3-.039l.058-9.722a3.153,3.153,0,1,1,6.307.033Z" transform="translate(194.732 86.524)" fill="#ba71c6"/>
        <path id="Trazado_467614" data-name="Trazado 467614" d="M183.2,94.587a3.155,3.155,0,1,1-4.493,4.431l-6.833-6.92a3.154,3.154,0,1,1,4.488-4.433Z" transform="translate(180.714 91.673)" fill="#ba71c6"/>
        <path id="Trazado_467615" data-name="Trazado 467615" d="M195.057,94.636a3.154,3.154,0,1,0,4.433,4.488l6.922-6.836a3.156,3.156,0,0,0-4.435-4.493Z" transform="translate(205.188 91.845)" fill="#ba71c6"/>
        <path id="Trazado_467616" data-name="Trazado 467616" d="M178.741,97.669a3.157,3.157,0,0,1-.037,6.313l-9.73-.062a3.153,3.153,0,0,1,.039-6.307Z" transform="translate(175.299 103.18)" fill="#ba71c6"/>
        <path id="Trazado_467617" data-name="Trazado 467617" d="M210.643,97.866a3.153,3.153,0,1,1-.035,6.307l-9.726-.058a3.153,3.153,0,1,1,.037-6.307Z" transform="translate(209.022 103.386)" fill="#ba71c6"/>
        <path id="Trazado_467618" data-name="Trazado 467618" d="M197.317,115.881a1.341,1.341,0,0,0-1.333-1.347l-10.38-.066-.014,2.676,10.382.064a1.342,1.342,0,0,0,1.345-1.327" transform="translate(196.174 120.996)" fill="#f0f0f0"/>
        <path id="Trazado_467619" data-name="Trazado 467619" d="M181.243,114.44a1.337,1.337,0,0,0-.018,2.674l10.382.062.014-2.676Z" transform="translate(190.158 120.967)" fill="#fff"/>
        <path id="Trazado_467620" data-name="Trazado 467620" d="M181.223,117.143a1.338,1.338,0,0,0-.012,2.676l10.374.062.023-2.676Z" transform="translate(190.141 123.824)" fill="#fff"/>
        <path id="Trazado_467621" data-name="Trazado 467621" d="M195.973,117.237l-10.38-.064-.023,2.678,10.386.062a1.338,1.338,0,0,0,.016-2.676" transform="translate(196.154 123.855)" fill="#f0f0f0"/>
        <path id="Trazado_467622" data-name="Trazado 467622" d="M36.814,52.552a46.01,46.01,0,0,0,8.347,19.966V52.552Z" transform="translate(38.914 55.549)" fill="#fbb74b"/>
        <path id="Trazado_467623" data-name="Trazado 467623" d="M40.872,52.552V72.518a46,46,0,0,0,8.343-19.966Z" transform="translate(43.203 55.549)" fill="#fea311"/>
        <path id="Trazado_467624" data-name="Trazado 467624" d="M37.792,52.458a38.831,38.831,0,0,0,6.336,13.5v-13.5Z" transform="translate(39.947 55.45)" fill="#ffca00"/>
        <path id="Trazado_467625" data-name="Trazado 467625" d="M40.872,52.458v13.5a38.891,38.891,0,0,0,6.334-13.5Z" transform="translate(43.203 55.45)" fill="#fa0"/>
        <path id="Trazado_467626" data-name="Trazado 467626" d="M46.74,56.95,60.1,74.192V50.505L46.74,40.179Z" transform="translate(49.406 42.471)" fill="#94529f"/>
        <path id="Trazado_467627" data-name="Trazado 467627" d="M46.74,43.6v9.74L55.666,64.85V50.494Z" transform="translate(49.406 46.083)" fill="#b363c0"/>
        <path id="Trazado_467628" data-name="Trazado 467628" d="M41.877,56.95,28.521,74.192V50.505L41.877,40.179Z" transform="translate(30.147 42.471)" fill="#94529f"/>
        <path id="Trazado_467629" data-name="Trazado 467629" d="M39.6,43.6v9.74L30.678,64.85V50.494Z" transform="translate(32.427 46.083)" fill="#b363c0"/>
        <path id="Trazado_467630" data-name="Trazado 467630" d="M36.669,21.061c.274-.475.545-.94.813-1.391-.267.45-.539.915-.813,1.391" transform="translate(38.76 20.792)" fill="#ffca00"/>
        <path id="Trazado_467631" data-name="Trazado 467631" d="M34.761,26.339q.916-2.169,1.917-4.157-1,1.984-1.917,4.157" transform="translate(36.743 23.447)" fill="#ffca00"/>
        <path id="Trazado_467632" data-name="Trazado 467632" d="M37.26,20.321q.6-.99,1.193-1.9-.586.91-1.193,1.9" transform="translate(39.385 19.47)" fill="#ff4a39"/>
        <path id="Trazado_467633" data-name="Trazado 467633" d="M34.085,27.778q.657-1.839,1.391-3.575-.731,1.734-1.391,3.575" transform="translate(36.029 25.583)" fill="#fff"/>
        <path id="Trazado_467634" data-name="Trazado 467634" d="M41.778,15.433c1.138,1.432,2.7,3.522,4.4,6.144-1.7-2.623-3.26-4.713-4.4-6.144" transform="translate(44.161 16.313)" fill="#db2639"/>
        <path id="Trazado_467635" data-name="Trazado 467635" d="M43.916,18.42c.389.607.788,1.24,1.191,1.9-.4-.66-.8-1.294-1.191-1.9" transform="translate(46.421 19.47)" fill="#db2639"/>
        <path id="Trazado_467636" data-name="Trazado 467636" d="M49.426,40.286q-.339,2.99-.856,5.791.515-2.8.856-5.791" transform="translate(51.34 42.584)" fill="#ffca00"/>
        <path id="Trazado_467637" data-name="Trazado 467637" d="M33.778,27.8q.3-.944.632-1.862-.327.916-.632,1.862" transform="translate(35.704 27.42)" fill="#ffca00"/>
        <path id="Trazado_467638" data-name="Trazado 467638" d="M34.964,49.456c-.22-.594-.436-1.205-.642-1.835.206.629.422,1.24.642,1.835" transform="translate(36.279 50.337)" fill="#ffca00"/>
        <path id="Trazado_467639" data-name="Trazado 467639" d="M46.063,22.181c.656,1.325,1.306,2.711,1.913,4.157-.607-1.446-1.257-2.833-1.913-4.157" transform="translate(48.69 23.446)" fill="#ffca00"/>
        <path id="Trazado_467640" data-name="Trazado 467640" d="M48.033,46.685q-.284.981-.6,1.925.315-.944.6-1.925" transform="translate(50.141 49.347)" fill="#ffca00"/>
        <path id="Trazado_467641" data-name="Trazado 467641" d="M33.625,46.077q-.512-2.8-.856-5.791.339,2.99.856,5.791" transform="translate(34.638 42.584)" fill="#ffca00"/>
        <path id="Trazado_467642" data-name="Trazado 467642" d="M33.693,45.571c-.142-.634-.282-1.277-.407-1.932.125.654.265,1.3.407,1.932" transform="translate(35.184 46.128)" fill="#ffca00"/>
        <path id="Trazado_467643" data-name="Trazado 467643" d="M34.632,48.61c-.208-.627-.411-1.271-.6-1.925.193.654.4,1.3.6,1.925" transform="translate(35.968 49.347)" fill="#ffca00"/>
        <path id="Trazado_467644" data-name="Trazado 467644" d="M37.84,21.577c1.695-2.623,3.258-4.715,4.4-6.144-1.138,1.43-2.7,3.522-4.4,6.144" transform="translate(39.998 16.313)" fill="#ffca00"/>
        <path id="Trazado_467645" data-name="Trazado 467645" d="M37.054,20.346c-.251.442-.5.893-.749,1.354.251-.461.5-.911.749-1.354" transform="translate(38.375 21.506)" fill="#ffca00"/>
        <path id="Trazado_467646" data-name="Trazado 467646" d="M43.683,16.568c-1.14-1.434-1.853-2.209-1.853-2.209s-.712.775-1.853,2.209c1.142-1.434,1.853-2.209,1.853-2.209s.714.775,1.853,2.209" transform="translate(42.256 15.178)" fill="#ffca00"/>
        <path id="Trazado_467647" data-name="Trazado 467647" d="M46.993,24.2q.731,1.734,1.393,3.575-.657-1.839-1.393-3.575" transform="translate(49.673 25.583)" fill="#ffca00"/>
        <path id="Trazado_467648" data-name="Trazado 467648" d="M36.952,21c-.424.782-.847,1.59-1.259,2.421.411-.831.835-1.639,1.259-2.421" transform="translate(37.729 22.202)" fill="#ffca00"/>
        <path id="Trazado_467649" data-name="Trazado 467649" d="M35.169,26.846a53.358,53.358,0,0,0-2.707,16.37,99.289,99.289,0,0,0,.629,11.277,99.289,99.289,0,0,1-.629-11.277,53.358,53.358,0,0,1,2.707-16.37" transform="translate(34.313 28.377)" fill="#ffca00"/>
        <path id="Trazado_467650" data-name="Trazado 467650" d="M47.67,25.941c.218.611.432,1.232.632,1.862-.2-.629-.413-1.251-.632-1.862" transform="translate(50.389 27.42)" fill="#ffca00"/>
        <path id="Trazado_467651" data-name="Trazado 467651" d="M46.938,52.85H36.671c-.533-.959-1.045-1.989-1.528-3.083.483,1.094,1,2.125,1.528,3.083H57.207c.535-.959,1.045-1.989,1.528-3.083-.483,1.094-.994,2.125-1.528,3.083Z" transform="translate(37.147 52.605)" fill="#ffca00"/>
        <path id="Trazado_467652" data-name="Trazado 467652" d="M46.711,23.425Q46.088,22.179,45.45,21q.636,1.173,1.261,2.421" transform="translate(48.042 22.202)" fill="#ffca00"/>
        <path id="Trazado_467653" data-name="Trazado 467653" d="M50.684,43.217a98.769,98.769,0,0,1-.632,11.275,98.769,98.769,0,0,0,.632-11.275,53.338,53.338,0,0,0-2.707-16.37,53.338,53.338,0,0,1,2.707,16.37" transform="translate(50.713 28.378)" fill="#ffca00"/>
        <path id="Trazado_467654" data-name="Trazado 467654" d="M46.253,22.414c-.518-.957-1.043-1.874-1.563-2.744.52.87,1.045,1.788,1.563,2.744" transform="translate(47.239 20.792)" fill="#ffca00"/>
        <path id="Trazado_467655" data-name="Trazado 467655" d="M34.164,47.257q-.275-1.009-.533-2.053.256,1.046.533,2.053" transform="translate(35.549 47.782)" fill="#ffca00"/>
        <path id="Trazado_467656" data-name="Trazado 467656" d="M33.785,45.866c-.1-.422-.206-.854-.3-1.288.095.434.2.866.3,1.288" transform="translate(35.395 47.12)" fill="#ffca00"/>
        <path id="Trazado_467657" data-name="Trazado 467657" d="M49.772,83.254V21h-9.4c-.424.782-.847,1.59-1.261,2.421-.662,1.325-1.3,2.711-1.915,4.159-.485,1.156-.952,2.349-1.391,3.575-.216.611-.43,1.232-.632,1.862a53.361,53.361,0,0,0-2.707,16.372,98.8,98.8,0,0,0,.632,11.275q.339,2.99.856,5.791c.066.374.136.743.208,1.109.128.652.265,1.3.407,1.929.1.434.2.866.3,1.288q.256,1.046.533,2.053c.1.333.189.664.282.994.193.654.4,1.3.6,1.925s.422,1.238.644,1.835c.333.895.683,1.757,1.047,2.579.483,1.094,1,2.125,1.528,3.083Z" transform="translate(34.313 22.202)" fill="#fff"/>
        <path id="Trazado_467658" data-name="Trazado 467658" d="M45.71,28.029V14.358s-.712.775-1.851,2.209-2.7,3.522-4.4,6.146q-.586.91-1.193,1.9c-.136.22-.267.444-.4.671-.267.45-.539.915-.813,1.391-.251.442-.5.893-.749,1.354Z" transform="translate(38.375 15.177)" fill="#94529f"/>
        <path id="Trazado_467659" data-name="Trazado 467659" d="M48.4,45.2c-.173.7-.35,1.38-.537,2.053.187-.673.364-1.356.537-2.053" transform="translate(50.594 47.782)" fill="#fea311"/>
        <path id="Trazado_467660" data-name="Trazado 467660" d="M48.831,43.64c-.218,1.1-.453,2.176-.706,3.217.253-1.041.488-2.117.706-3.217" transform="translate(50.87 46.129)" fill="#fea311"/>
        <path id="Trazado_467661" data-name="Trazado 467661" d="M55.482,33.021q-.3-.944-.632-1.862-.657-1.839-1.391-3.577c-.607-1.446-1.257-2.833-1.913-4.157Q50.924,22.179,50.286,21H40.877v62.25H51.148q.8-1.438,1.528-3.086.913-2.058,1.693-4.414.315-.941.6-1.923.148-.494.286-.994c.187-.673.362-1.356.535-2.053q.38-1.564.706-3.219c.072-.364.144-.734.212-1.107q.515-2.8.856-5.791a99.289,99.289,0,0,0,.629-11.277,53.359,53.359,0,0,0-2.707-16.37" transform="translate(43.208 22.202)" fill="#e0e0e0"/>
        <path id="Trazado_467662" data-name="Trazado 467662" d="M40.877,28.029h9.407c-.518-.957-1.043-1.874-1.561-2.744-.136-.226-.269-.45-.4-.671q-.6-.99-1.191-1.9c-1.7-2.625-3.26-4.715-4.4-6.146s-1.853-2.209-1.853-2.209Z" transform="translate(43.208 15.177)" fill="#b363c0"/>
        <path id="Trazado_467663" data-name="Trazado 467663" d="M35.305,50.122q.574,1.237,1.2,2.353H46.767V50.122Z" transform="translate(37.318 52.98)" fill="#ffca00"/>
        <path id="Trazado_467664" data-name="Trazado 467664" d="M52.343,50.122H40.877v2.353H51.146c.413-.743.815-1.528,1.2-2.353" transform="translate(43.208 52.98)" fill="#fa0"/>
        <path id="Trazado_467665" data-name="Trazado 467665" d="M36.941,51.189l-2.053,5.225h12.32V51.189Z" transform="translate(36.877 54.108)" fill="#94529f"/>
        <path id="Trazado_467666" data-name="Trazado 467666" d="M51.146,51.189H40.877v5.225H53.2Z" transform="translate(43.208 54.108)" fill="#b363c0"/>
        <path id="Trazado_467667" data-name="Trazado 467667" d="M40.877,27.251V50.127a11.438,11.438,0,1,0,0-22.876" transform="translate(43.208 28.805)" fill="#fff"/>
        <path id="Trazado_467668" data-name="Trazado 467668" d="M35.317,38.689A11.439,11.439,0,0,0,46.754,50.128V27.252A11.438,11.438,0,0,0,35.317,38.689" transform="translate(37.331 28.806)" fill="#e0e0e0"/>
        <path id="Trazado_467669" data-name="Trazado 467669" d="M45.817,28.138A9.613,9.613,0,0,0,36.2,37.751h9.613Z" transform="translate(38.269 29.743)" fill="#00447d"/>
        <path id="Trazado_467670" data-name="Trazado 467670" d="M36.2,32.812h0a9.612,9.612,0,0,0,9.613,9.615V32.812Z" transform="translate(38.269 34.683)" fill="#002c52"/>
        <path id="Trazado_467671" data-name="Trazado 467671" d="M40.877,28.138v9.613h9.615a9.614,9.614,0,0,0-9.615-9.613" transform="translate(43.208 29.743)" fill="#002c52"/>
        <path id="Trazado_467672" data-name="Trazado 467672" d="M40.877,32.812v9.615a9.614,9.614,0,0,0,9.615-9.615Z" transform="translate(43.208 34.683)" fill="#00447d"/>
        <path id="Trazado_467673" data-name="Trazado 467673" d="M39.991,33.326a1.255,1.255,0,0,1-2.51,0V31.535a1.255,1.255,0,0,1,2.51,0Z" transform="translate(39.619 32.007)" fill="#fff"/>
        <rect id="Rectángulo_268452" data-name="Rectángulo 268452" width="10.487" height="23.133" transform="translate(190.205 39.699)" fill="#ffca00"/>
        <rect id="Rectángulo_268453" data-name="Rectángulo 268453" width="10.489" height="33.205" transform="translate(202.768 29.627)" fill="#94529f"/>
        <rect id="Rectángulo_268454" data-name="Rectángulo 268454" width="10.489" height="46.446" transform="translate(215.33 16.386)" fill="#1e814c"/>
        <rect id="Rectángulo_268455" data-name="Rectángulo 268455" width="10.489" height="36.985" transform="translate(227.894 25.847)" fill="#00447d"/>
        <rect id="Rectángulo_268456" data-name="Rectángulo 268456" width="10.487" height="41.634" transform="translate(241.187 21.198)" fill="#fea311"/>
        <path id="Trazado_467674" data-name="Trazado 467674" d="M154.484,4.863l-8.59,1.23L147.5,8.136a1.574,1.574,0,0,0-.407.144l-11.18,6.743L121.934,3.489a1.68,1.68,0,0,0-2.277.132L93.594,30.8a1.675,1.675,0,1,0,2.417,2.32L121,7.064l13.692,11.3a1.681,1.681,0,0,0,1.934.144l12.194-7.354a1.628,1.628,0,0,0,.568-.611l1.868,2.378Z" transform="translate(98.438 3.283)" fill="#94529f"/>
        <path id="Trazado_467675" data-name="Trazado 467675" d="M111.332,5.792a3.072,3.072,0,1,1-3.073-3.071,3.077,3.077,0,0,1,3.073,3.071" transform="translate(111.187 2.876)" fill="#00447d"/>
        <path id="Trazado_467676" data-name="Trazado 467676" d="M166.075,64.547H89.553a1.679,1.679,0,0,1-1.676-1.676V8.13a1.675,1.675,0,1,1,3.351,0V61.194h74.847a1.676,1.676,0,1,1,0,3.353" transform="translate(92.889 6.822)" fill="#16405e"/>
        <path id="Trazado_467677" data-name="Trazado 467677" d="M239.1,29.519l-7.648,4.764,2.789,1.5-6.975,13.083-9.436-1.954a1.322,1.322,0,0,0-1.152.294l-5.359,4.634a1.314,1.314,0,0,0-.385.57L208.728,58.6l-6.377-7.9a1.346,1.346,0,0,0-1.179-.492c-.023.006-.045.006-.056.01a1.338,1.338,0,0,0-1.051.819L194.74,64.192l-3.417-2.874a1.349,1.349,0,0,0-1-.3,1.38,1.38,0,0,0-.232.049,1.321,1.321,0,0,0-.905.885l-2.812,8.925L177.6,65a1.373,1.373,0,0,0-1.572.064l-7.667,6.085a1.273,1.273,0,0,0-.428.566l-4.982,12.533-2.466-2.758a1.308,1.308,0,0,0-1.214-.424,1.329,1.329,0,0,0-1.008.773l-4.48,10.044a1.342,1.342,0,0,0,2.458,1.08l3.627-8.142,2.53,2.828a1.345,1.345,0,0,0,1.129.442.908.908,0,0,0,.107-.019,1.341,1.341,0,0,0,1.01-.821l5.644-14.212,6.64-5.27,9.444,6.315a1.3,1.3,0,0,0,.882.22,1.265,1.265,0,0,0,.3-.064,1.342,1.342,0,0,0,.847-.866l2.744-8.707,3.275,2.761a1.351,1.351,0,0,0,1.01.311.987.987,0,0,0,.2-.037,1.359,1.359,0,0,0,.9-.763l5.18-12.782,6.447,7.983a1.354,1.354,0,0,0,1.2.492l.078-.012a1.358,1.358,0,0,0,1.033-.87l2.89-8.125,4.593-3.966,9.773,2.026a1.3,1.3,0,0,0,.407.021,1.329,1.329,0,0,0,1.043-.7l7.446-13.963,2.791,1.5Z" transform="translate(162.436 31.202)" fill="#fff"/>
        <path id="Trazado_467678" data-name="Trazado 467678" d="M206.249,55.766a31.77,31.77,0,0,0-34.071-23.654l.679,6.469a25.264,25.264,0,0,1,5.274,50.251l.677,6.467a31.8,31.8,0,0,0,27.441-39.534" transform="translate(181.997 33.756)" fill="#bd7bc7"/>
        <path id="Trazado_467679" data-name="Trazado 467679" d="M165.657,69.93a25.293,25.293,0,0,1,21.819-31.442l-.677-6.467a32.611,32.611,0,0,0-4.624.835,31.767,31.767,0,0,0,11.256,62.351l-.679-6.465a25.268,25.268,0,0,1-27.1-18.812" transform="translate(167.376 33.847)" fill="#cf96d8"/>
        <path id="Trazado_467680" data-name="Trazado 467680" d="M199.605,54.048a25.269,25.269,0,0,0-27.1-18.809l.679,6.465a18.762,18.762,0,0,1,3.919,37.319l.679,6.467a25.25,25.25,0,0,0,21.821-31.442" transform="translate(182.346 37.099)" fill="#fefeff"/>
        <path id="Trazado_467681" data-name="Trazado 467681" d="M162.316,66.607a25.268,25.268,0,0,0,27.1,18.812l-.679-6.469a18.761,18.761,0,0,1-6.648-36.823,19.1,19.1,0,0,1,2.73-.5l-.679-6.465a25.293,25.293,0,0,0-21.819,31.442" transform="translate(170.717 37.17)" fill="#fefeff"/>
        <path id="Trazado_467682" data-name="Trazado 467682" d="M173.02,59.657a10.752,10.752,0,0,1,7.724-13.105,11.072,11.072,0,0,1,1.565-.28l-.837-7.963a19.382,19.382,0,0,0-2.73.494,18.761,18.761,0,0,0,6.648,36.823l-.837-7.963a10.75,10.75,0,0,1-11.534-8.006" transform="translate(174.061 40.494)" fill="#cf96d8"/>
        <path id="Trazado_467683" data-name="Trazado 467683" d="M192.96,52.336a18.764,18.764,0,0,0-20.122-13.973l.835,7.965a10.756,10.756,0,0,1,3.816,21.109,10.568,10.568,0,0,1-1.57.28l.835,7.965A18.777,18.777,0,0,0,192.96,52.336" transform="translate(182.695 40.44)" fill="#bd7bc7"/>
        <path id="Trazado_467684" data-name="Trazado 467684" d="M179.695,51.533a5.494,5.494,0,0,1-3.954,6.7,5.159,5.159,0,0,1-.8.148l.549,5.223a10.574,10.574,0,0,0,1.57-.282,10.755,10.755,0,0,0-3.816-21.109l.549,5.223a5.5,5.5,0,0,1,5.9,4.1" transform="translate(183.124 44.555)" fill="#fefeff"/>
        <path id="Trazado_467685" data-name="Trazado 467685" d="M168.906,55.565a10.75,10.75,0,0,0,11.534,8.006l-.547-5.223a5.5,5.5,0,0,1-1.95-10.8,5.79,5.79,0,0,1,.8-.144L178.2,42.18a11.072,11.072,0,0,0-1.565.28,10.752,10.752,0,0,0-7.724,13.105" transform="translate(178.174 44.586)" fill="#fefeff"/>
        <path id="Trazado_467686" data-name="Trazado 467686" d="M175.245,44.863a5.5,5.5,0,0,0,1.948,10.8l-1.148-10.945a5.5,5.5,0,0,0-.8.144" transform="translate(180.872 47.269)" fill="#cf96d8"/>
        <path id="Trazado_467687" data-name="Trazado 467687" d="M179.413,48.834a5.5,5.5,0,0,0-5.9-4.1l1.148,10.945a5.159,5.159,0,0,0,.8-.148,5.494,5.494,0,0,0,3.954-6.7" transform="translate(183.406 47.254)" fill="#bd7bc7"/>
        <path id="Trazado_467688" data-name="Trazado 467688" d="M191.722,53.536l-3.966-2.158-3.133,1.428,3.855,2.1Z" transform="translate(195.152 54.308)" fill="#ffca00"/>
        <path id="Trazado_467689" data-name="Trazado 467689" d="M199.865,56.108l-7.113-3.867L187.125,54.8l6.92,3.762Z" transform="translate(197.797 55.22)" fill="#ffca00"/>
        <path id="Trazado_467690" data-name="Trazado 467690" d="M194.463,64.726l-7.109-3.867-.911-6.118,6.92,3.764Z" transform="translate(197.076 57.863)" fill="#ffca00"/>
        <path id="Trazado_467691" data-name="Trazado 467691" d="M188.484,58.991l-3.966-2.156-.5-3.408,3.857,2.1Z" transform="translate(194.511 56.473)" fill="#ffca00"/>
        <path id="Trazado_467692" data-name="Trazado 467692" d="M211.353,67.807a1.573,1.573,0,0,0-.634-2.137L175.859,46.822a1.347,1.347,0,0,0-1.886.658,1.406,1.406,0,0,0,.479,1.946L209.21,68.441a1.578,1.578,0,0,0,2.143-.634" transform="translate(183.654 49.318)" fill="#002c52"/>
        <path id="Trazado_467693" data-name="Trazado 467693" d="M56.152,82.035v26.408l-14.7,14.7H14.322V82.035Z" transform="translate(15.139 86.713)" fill="#4860a8"/>
        <path id="Trazado_467694" data-name="Trazado 467694" d="M27.482,109.572v-14.7h14.7Z" transform="translate(29.049 100.283)" fill="#5c79cd"/>
        <path id="Trazado_467695" data-name="Trazado 467695" d="M41.828,73.861v26.4l-14.7,14.7H0v-41.1Z" transform="translate(0 78.073)" fill="#94529f"/>
        <path id="Trazado_467696" data-name="Trazado 467696" d="M13.159,101.4V86.7h14.7Z" transform="translate(13.91 91.64)" fill="#ba71c6"/>
        <text id="KAIZEN" transform="translate(180.994 115.7)" fill="#4860a8" font-size="13" font-family="SegoeUI-Bold, Segoe UI" font-weight="700"><tspan x="0" y="0">KAIZEN</tspan></text>
      </g>
    </g>
  </g>
</svg>
