<svg xmlns="http://www.w3.org/2000/svg" width="119.123" height="307.706" viewBox="0 0 119.123 307.706">
  <g id="Grupo_726941" data-name="Grupo 726941" transform="translate(-942.625 -211.321)">
    <path id="Trazado_113538" data-name="Trazado 113538" d="M8.756.8a1.171,1.171,0,0,1,.828,2l-2,2-.567.567.567.567,2,2A1.171,1.171,0,1,1,7.928,9.584l-2-2-.567-.567L4.8,7.588l-2,2A1.171,1.171,0,0,1,1.145,7.928l2-2,.567-.567L3.141,4.8l-2-2A1.171,1.171,0,0,1,2.8,1.145l2,2,.567.567.567-.567,2-2A1.165,1.165,0,0,1,8.756.8m0-.8a1.968,1.968,0,0,0-1.4.577l-2,2-2-2A1.973,1.973,0,1,0,.578,3.368l2,2-2,2a1.973,1.973,0,1,0,2.79,2.79l2-2,2,2a1.973,1.973,0,0,0,2.791,0h0a1.973,1.973,0,0,0,0-2.79l-2-2,2-2a1.974,1.974,0,0,0,0-2.791h0A1.968,1.968,0,0,0,8.756,0Z" transform="translate(1054.161 283.027) rotate(-135)" fill="#fff"/>
    <path id="Trazado_483779" data-name="Trazado 483779" d="M8.756.8a1.171,1.171,0,0,1,.828,2l-2,2-.567.567.567.567,2,2A1.171,1.171,0,1,1,7.928,9.584l-2-2-.567-.567L4.8,7.588l-2,2A1.171,1.171,0,0,1,1.145,7.928l2-2,.567-.567L3.141,4.8l-2-2A1.171,1.171,0,0,1,2.8,1.145l2,2,.567.567.567-.567,2-2A1.165,1.165,0,0,1,8.756.8m0-.8a1.968,1.968,0,0,0-1.4.577l-2,2-2-2A1.973,1.973,0,1,0,.578,3.368l2,2-2,2a1.973,1.973,0,1,0,2.79,2.79l2-2,2,2a1.973,1.973,0,0,0,2.791,0h0a1.973,1.973,0,0,0,0-2.79l-2-2,2-2a1.974,1.974,0,0,0,0-2.791h0A1.968,1.968,0,0,0,8.756,0Z" transform="translate(1046.161 519.027) rotate(-135)" fill="#fff"/>
    <g id="Grupo_80141" data-name="Grupo 80141" transform="translate(986.804 211.321)">
      <path id="Trazado_113163" data-name="Trazado 113163" d="M69.477,473.922v9.386a2.011,2.011,0,0,1-2.011,2.011h0a2.011,2.011,0,0,1-2.011-2.011v-9.386a2.011,2.011,0,0,1,2.011-2.011h0A2.011,2.011,0,0,1,69.477,473.922Z" transform="translate(-65.455 -471.911)" fill="#fff"/>
      <path id="Trazado_113164" data-name="Trazado 113164" d="M88.1,473.922v9.386a2.011,2.011,0,0,1-2.011,2.011h0a2.011,2.011,0,0,1-2.011-2.011v-9.386a2.011,2.011,0,0,1,2.011-2.011h0A2.011,2.011,0,0,1,88.1,473.922Z" transform="translate(-75.185 -471.911)" fill="#fff"/>
      <path id="Trazado_113165" data-name="Trazado 113165" d="M106.721,473.922v9.386a2.011,2.011,0,0,1-2.011,2.011h0a2.011,2.011,0,0,1-2.011-2.011v-9.386a2.011,2.011,0,0,1,2.011-2.011h0A2.011,2.011,0,0,1,106.721,473.922Z" transform="translate(-84.915 -471.911)" fill="#fff"/>
      <path id="Trazado_113166" data-name="Trazado 113166" d="M125.343,473.922v9.386a2.011,2.011,0,0,1-2.011,2.011h0a2.011,2.011,0,0,1-2.011-2.011v-9.386a2.011,2.011,0,0,1,2.011-2.011h0A2.011,2.011,0,0,1,125.343,473.922Z" transform="translate(-94.646 -471.911)" fill="#fff"/>
      <path id="Trazado_113167" data-name="Trazado 113167" d="M143.965,473.922v9.386a2.011,2.011,0,0,1-2.011,2.011h0a2.011,2.011,0,0,1-2.011-2.011v-9.386a2.011,2.011,0,0,1,2.011-2.011h0A2.011,2.011,0,0,1,143.965,473.922Z" transform="translate(-104.376 -471.911)" fill="#fff"/>
    </g>
    <path id="Trazado_465155" data-name="Trazado 465155" d="M325.19,447.512a3.1,3.1,0,0,0,.909,2.2l3.142,3.141-3.142,3.141a3.105,3.105,0,0,0,4.391,4.391l3.141-3.141,3.141,3.141a3.1,3.1,0,0,0,4.391-4.391l-3.141-3.141,3.141-3.141a3.105,3.105,0,0,0,0-4.391h0a3.105,3.105,0,0,0-4.391,0l-3.141,3.141-3.141-3.141a3.106,3.106,0,0,0-4.391,0h0a3.1,3.1,0,0,0-.909,2.2Z" transform="translate(617.935 0.855)" fill="none" stroke="#35b5d5" stroke-width="1" opacity="0.41"/>
  </g>
</svg>
