<svg xmlns="http://www.w3.org/2000/svg" xmlns:xlink="http://www.w3.org/1999/xlink" width="449" height="449" viewBox="0 0 449 449">
  <defs>
    <clipPath id="clip-path">
      <rect id="Rect치ngulo_268071" data-name="Rect치ngulo 268071" width="449" height="449" transform="translate(0 -0.137)" fill="none"/>
    </clipPath>
    <clipPath id="clip-path-2">
      <rect id="Rect치ngulo_268069" data-name="Rect치ngulo 268069" width="111.121" height="73.562" fill="none"/>
    </clipPath>
  </defs>
  <g id="Grupo_726939" data-name="Grupo 726939" transform="translate(0 20.137)">
    <g id="Grupo_715305" data-name="Grupo 715305" transform="translate(0 -20)" clip-path="url(#clip-path)">
      <path id="Trazado_465235" data-name="Trazado 465235" d="M817.776,1124.177l-62.351-26.237-48.641,32.822,25.826,10.866a11.113,11.113,0,0,1-1.74,1.135,14.243,14.243,0,0,1-3.186.927c-2.173.4-4.839.335-6.387,1.379-2.42,1.634-.515,4.6,4.247,6.721.137.062.279.122.421.183,5.069,2.132,11.2,2.5,13.687.82,2.022-1.364.467-3.531,1.674-5.117a12.218,12.218,0,0,1,2.016-1.532L769.136,1157l20.125-13.579c-.082-.038-.168-.078-.258-.118a23.958,23.958,0,0,0-2.649-.97c-3-.66-7.06.14-9.653-.951-3.177-1.414-2.529-4.624,1.381-7.262,3.953-2.668,9.746-3.742,12.938-2.4,1.98.882,1.9,2.272,2.671,3.411a5.874,5.874,0,0,0,1.784,1.7c.095.058.454.238.909.442.381.17.83.356,1.248.5Z" transform="translate(-557.273 -865.684)" fill="#98a7d3"/>
      <path id="Trazado_465236" data-name="Trazado 465236" d="M553.109,1478.888c-1.573-1.063-4.285-.995-6.491-1.4a14.406,14.406,0,0,1-3.241-.944,11.281,11.281,0,0,1-1.768-1.151l26.249-11.046-20.452-13.8c.083-.042.172-.082.263-.122a24.309,24.309,0,0,1,2.691-.987c3.048-.67,7.174.143,9.917-1.012,3.122-1.393,2.464-4.655-1.512-7.335-4.018-2.712-9.906-3.8-13.247-2.4-1.915.854-1.838,2.266-2.617,3.423a5.966,5.966,0,0,1-1.815,1.734c-.1.058-.465.244-.931.453-.386.173-.839.358-1.259.5l-20.477-13.818-63.374,26.667,49.439,33.359,26.22-11.032a12.649,12.649,0,0,1,2.048,1.556c1.226,1.613-.355,3.815,1.7,5.2,2.532,1.707,8.759,1.334,13.911-.833.145-.061.288-.124.428-.185,4.84-2.158,6.778-5.171,4.319-6.83" transform="translate(-358.786 -1128.277)" fill="#98a7d3"/>
      <path id="Trazado_465237" data-name="Trazado 465237" d="M1150.352,1263.99l26.217-11.032a12.578,12.578,0,0,1,2.051,1.555c1.226,1.614-.355,3.816,1.7,5.2,2.532,1.707,8.758,1.334,13.91-.833.144-.061.285-.121.425-.183,4.841-2.159,6.781-5.174,4.32-6.834-1.573-1.06-4.284-.993-6.492-1.4a14.453,14.453,0,0,1-3.239-.943,11.528,11.528,0,0,1-1.768-1.153l26.25-11.045,49.44,33.36-63.375,26.668-20.453-13.8c.081-.04.166-.079.254-.118a24.711,24.711,0,0,1,2.7-.991c3.051-.67,7.177.144,9.812-.965,3.229-1.439,2.57-4.7-1.4-7.382-4.019-2.712-9.906-3.8-13.15-2.439-2.013.9-1.935,2.309-2.715,3.466a5.975,5.975,0,0,1-1.814,1.734c-.1.057-.465.243-.932.451-.385.173-.837.359-1.258.5Z" transform="translate(-907.009 -975.583)" fill="#98a7d3"/>
      <path id="Trazado_465238" data-name="Trazado 465238" d="M1135.873,1608.079l-25.8-10.854a12.356,12.356,0,0,0-2.014,1.53c-1.206,1.587.349,3.754-1.673,5.118-2.491,1.68-8.618,1.313-13.686-.819-.143-.061-.283-.121-.421-.183-4.762-2.123-6.668-5.089-4.249-6.721,1.547-1.045,4.216-.978,6.386-1.378a14.183,14.183,0,0,0,3.187-.929,11.182,11.182,0,0,0,1.74-1.134l-25.825-10.868-20.146,13.6c-.417-.14-.865-.326-1.247-.5-.455-.2-.814-.384-.907-.442a5.884,5.884,0,0,1-1.787-1.7c-.767-1.14-.691-2.529-2.573-3.369-3.288-1.385-9.08-.311-13.035,2.358-3.91,2.638-4.557,5.847-1.485,7.217,2.7,1.137,6.757.334,9.756,1a23.713,23.713,0,0,1,2.648.97c.091.04.178.08.259.12l-20.124,13.577,62.353,26.237Z" transform="translate(-808.079 -1247.223)" fill="#98a7d3"/>
      <path id="Trazado_465239" data-name="Trazado 465239" d="M93.567,1.336" transform="translate(32.935 0.47)" fill="#b5e2fb"/>
      <path id="Trazado_465241" data-name="Trazado 465241" d="M590.69,1139.494c0,8.752-15.945,15.846-35.615,15.846s-35.614-7.094-35.614-15.846,15.945-15.846,35.614-15.846,35.615,7.093,35.615,15.846" transform="translate(-409.576 -885.954)" fill="#98a7d3"/>
      <path id="Trazado_465242" data-name="Trazado 465242" d="M731.778,1168.085l.584-.108.584-4.9-1.534-1.816Z" transform="translate(-576.691 -915.607)" fill="#401427"/>
      <path id="Trazado_465243" data-name="Trazado 465243" d="M727.408,1162.169l.7.4-.11-8.027-1.24-.282Z" transform="translate(-573.024 -910.089)" fill="#161c29"/>
      <path id="Trazado_465244" data-name="Trazado 465244" d="M733.069,1136.449l1.3,4.3a28.987,28.987,0,0,0,3.236,5.782s2.64,3.619-2.3,3.377c0,0-5.268-.281-5.188-3.66.069-2.907-2.6-6.514-2.6-6.514a2.94,2.94,0,0,1,.344-3.469l.913-1.043,4.43-.774Z" transform="translate(-573.288 -894.473)" fill="#e28262"/>
      <path id="Trazado_465245" data-name="Trazado 465245" d="M737.632,1150.756a6.635,6.635,0,0,1-5.737-1.737c-1.37-1.349-2.932-6.286-2.414-4.646.214.678-1.4-5.323-.967-6.261l-.913,1.043a3.067,3.067,0,0,0-.435,3.561s2.761,3.515,2.693,6.422c-.08,3.379,5.188,3.66,5.188,3.66,2.964.145,3.2-1.1,2.911-2.12a3.128,3.128,0,0,1-.326.077" transform="translate(-573.026 -897.359)" fill="#161c29"/>
      <path id="Trazado_465246" data-name="Trazado 465246" d="M750.908,1182.3s.744,1.405-1.616,1.405c0,0-8.839-.562-8.835-4.359l0-3.058s.695,4.366,6.154,4.376c0,0,2.424,0,1.172-1.544Z" transform="translate(-583.819 -927.456)" fill="#161c29"/>
      <path id="Trazado_465247" data-name="Trazado 465247" d="M678.77,215.416a5.882,5.882,0,1,1-5.882-5.883,5.882,5.882,0,0,1,5.882,5.883" transform="translate(-525.909 -165.209)" fill="#151e40"/>
      <path id="Trazado_465248" data-name="Trazado 465248" d="M714.564,303.217h11.585c-.527-1.687-1.618-6.052.071-9.025l-11.705-7.686s2.081,12.9.049,16.711" transform="translate(-563.368 -225.899)" fill="#f39672"/>
      <path id="Trazado_465249" data-name="Trazado 465249" d="M715.863,295.938a5.088,5.088,0,0,0,3.647,3.217,12.225,12.225,0,0,0,5.883.436,9.158,9.158,0,0,1,.827-5.4l-11.7-7.686s.634,3.935.86,8.1c.159.445.314.89.488,1.333" transform="translate(-563.369 -225.899)" fill="#db765e"/>
      <path id="Trazado_465250" data-name="Trazado 465250" d="M716.264,241.549l.615-1.743,1.5-5.126a5.17,5.17,0,0,0,.026-2.721,8.23,8.23,0,0,1-.238-4.255c.954-4.665-1.116-7.1-1.116-7.1-2.723-4.288-9.148-4.268-9.148-4.268-7.944.412-8.593,8.1-8.593,8.1-1.276,5.119,2.805,9.367,2.812,9.375a5.673,5.673,0,0,1,.821,2.074,6.394,6.394,0,0,0,1.165,1.944,14.288,14.288,0,0,0,4.073,3.269,15.728,15.728,0,0,0,6.125,1.444c.81-.009,1.606,0,1.958-1" transform="translate(-551.185 -170.573)" fill="#f39672"/>
      <path id="Trazado_465251" data-name="Trazado 465251" d="M605.084,1173.346l.589.084,2.127-4.457-.87-2.213Z" transform="translate(-477.086 -919.946)" fill="#401427"/>
      <path id="Trazado_465252" data-name="Trazado 465252" d="M602.541,1166.343l.538.6,2.471-7.641-1.084-.663Z" transform="translate(-475.081 -913.546)" fill="#161c29"/>
      <path id="Trazado_465253" data-name="Trazado 465253" d="M618.253,1148.541c-.117,3.587-.383,7.614,1.063,11.009,0,0,1.339,4.275-3.261,2.462,0,0-4.9-1.956-3.74-5.13,1-2.731-.375-7-.375-7a2.94,2.94,0,0,1,1.439-3.175l1.2-.7h4.6Z" transform="translate(-482.439 -903.583)" fill="#f39672"/>
      <path id="Trazado_465254" data-name="Trazado 465254" d="M618.748,1160.905a6.638,6.638,0,0,1-4.877-3.485c-.865-1.717-.761-6.9-.8-5.175-.014.711.385-5.491,1.093-6.24l-1.2.7a3.066,3.066,0,0,0-1.554,3.233s1.487,4.215.49,6.946c-1.159,3.174,3.74,5.13,3.74,5.13,2.762,1.088,3.382-.017,3.438-1.075a2.932,2.932,0,0,1-.333-.031" transform="translate(-482.027 -903.582)" fill="#161c29"/>
      <path id="Trazado_465255" data-name="Trazado 465255" d="M621.414,1192.948s.254,1.569-1.981.813c0,0-8.192-3.368-6.97-6.963l.978-2.9s-.743,4.358,4.424,6.119c0,0,2.3.778,1.606-1.087Z" transform="translate(-482.806 -933.46)" fill="#161c29"/>
      <path id="Trazado_465256" data-name="Trazado 465256" d="M632.513,887.712c-5.875,10.847-6.914,15.262-7.959,23.511-.609,4.8-.407,25.006-1.036,28.02-.263,1.25,4.487.564,4.487.564.868-2.114,14.7-48.545,14.7-48.545s1.546-4.809.263-5.645c-6.448-4.2-7.893-2.634-10.453,2.095" transform="translate(-491.612 -696.352)" fill="#f39672"/>
      <path id="Trazado_465257" data-name="Trazado 465257" d="M623.742,940.777c.868-2.114,14.556-49.514,14.556-49.514s1.546-4.81.263-5.645c-6.449-4.2-7.893-2.634-10.453,2.095-5.875,10.848-6.914,15.263-7.959,23.511-.609,4.8-1.6,24.309-2.229,27.323,0,0,3.514,4.187,5.822,2.23" transform="translate(-487.207 -696.353)" fill="#1d2127"/>
      <path id="Trazado_465258" data-name="Trazado 465258" d="M683.38,523.528s4.515,19.108,3.908,21.2c-1.745,6.012-17.943,14.45-32.713,2.146,0,0,3.377-14.133,10.388-26.088,0,0,2.576,2.662,18.416,2.747" transform="translate(-516.109 -410.616)" fill="#1d2127"/>
      <path id="Trazado_465259" data-name="Trazado 465259" d="M696.468,349.265s5.909,11.423,8.547,17.689c-1.105,7.346-5.1,18.243-6.7,20.542-3.515,5.036-19.587.54-19.587.54l-4.632-15.466c13.522-4.855,6.4-19.1,6.4-19.1l2.12-1.338s2.163,7,10.964,6.753c0,0,2.891-1.882.763-9.871a12.376,12.376,0,0,1,2.125.255" transform="translate(-531.499 -275.181)" fill="#4c3887"/>
      <path id="Trazado_465260" data-name="Trazado 465260" d="M710.328,618.412s1.556,30.826,7.258,47.406c.849,2.472,10.6-.813,10.6-.813s4.918-26.523,4.623-37.512c-.167-6.211-2.389-19.6-2.389-19.6s-18.277-2.39-20.088,10.523" transform="translate(-560.067 -479.16)" fill="#e28262"/>
      <path id="Trazado_465261" data-name="Trazado 465261" d="M728.9,879.241l10.315-.7s-6.339,52.623-6.913,54.835c0,0-4.435,1.6-4.344.33.215-3.073-3.485-26.688-3.6-31.523-.182-7.767.123-12.673,4.539-22.939" transform="translate(-571.103 -692.695)" fill="#e28262"/>
      <path id="Trazado_465262" data-name="Trazado 465262" d="M710.328,618.412s1.556,30.826,7.258,47.406c.849,2.472,10.6-.813,10.6-.813s4.918-26.523,4.623-37.512c-.167-6.211-2.389-19.6-2.389-19.6s-18.277-2.39-20.088,10.523" transform="translate(-560.067 -479.16)" fill="#181b21"/>
      <path id="Trazado_465263" data-name="Trazado 465263" d="M733.583,933.7c1.046-2.032,5.635-55.165,5.635-55.165l-10.315.7c-4.416,10.266-4.721,15.172-4.539,22.939.113,4.835,2.454,28.451,2.239,31.523,0,0,5.607,2.668,6.981,0" transform="translate(-571.103 -692.695)" fill="#181b21"/>
      <path id="Trazado_465264" data-name="Trazado 465264" d="M795.916,392.487l-7.821-28.35c-2.815-7.584-7.016-7.769-7.016-7.769-8.052,1.218-2.9,15.349-2.9,15.349l9.939,23.549" transform="translate(-612.286 -280.982)" fill="#e28262"/>
      <path id="Trazado_465265" data-name="Trazado 465265" d="M957.939,599.027c-3.381-2.508-3.615-3.19-4.126-4.21-2.2-4.378,3.418-3.418,4.791-2.886.788.307.552,2.252,2.73,4.991,0,0,3.632,2.895,4.634,2.876,0,0,1,.3.89,1.031,0,0-3.034,1.236-8.919-1.8" transform="translate(-751.647 -466.34)" fill="#e28262"/>
      <path id="Trazado_465266" data-name="Trazado 465266" d="M835.206,513.78l22.9,17.325c.632,3.157-.815,3.384-.815,3.384l-18.471-8.4c-7.909-3.423-10.662-7.362-10.662-7.362s-3.232-3.028,1.913-6.064c0,0,2.338-1.345,5.134,1.122" transform="translate(-652.182 -403.923)" fill="#e28262"/>
      <path id="Trazado_465267" data-name="Trazado 465267" d="M974.571,588.827s-1,1.939,1.616,1.814l2.77-1.528a.989.989,0,0,0,.67-1.078s-.235-.466-1.092-.165Z" transform="translate(-768.264 -463.433)" fill="#e28262"/>
      <path id="Trazado_465268" data-name="Trazado 465268" d="M650.7,641.686s.119,30.838,4.187,47.892c.605,2.543,9.9,1.764,9.9,1.764s6.063-29.164,6.835-40.129c.437-6.2,1.677-17.044,1.677-17.044s-21.751-2.156-22.6,7.517" transform="translate(-513.05 -499.857)" fill="#f39672"/>
      <path id="Trazado_465269" data-name="Trazado 465269" d="M661.022,356.581c-4.741,3.466-2.317,8.677-2.317,8.677L667.657,387s14.518,4.938,18.034-.1c1.6-2.3,3.09-8.395,5.038-17.186,1.325-5.974,1.415-16.41-1.948-19.5-1.939-1.783-8.217-1.747-8.263-1.958l-10.17,3.276Z" transform="translate(-518.875 -274.589)" fill="#f39672"/>
      <path id="Trazado_465270" data-name="Trazado 465270" d="M679.391,518.052c.86-.156,5.5,1.677,5.5,1.677s3.343,14.249,3.533,16.414-14.71,13.38-31.353,7c0,0,8.4-19.824,9.633-23.969,1.411-4.759,12.686-1.118,12.686-1.118" transform="translate(-518.077 -407.415)" fill="#f39672"/>
      <path id="Trazado_465271" data-name="Trazado 465271" d="M790.289,391.877s4.913,5.785,5.325,10.082c.229,2.394-2.792,6.4-4.3,7.875-1.071,1.046-7.417-13.965-1.022-17.958" transform="translate(-620.893 -308.98)" fill="#4c3887"/>
      <path id="Trazado_465272" data-name="Trazado 465272" d="M656.321,615.106s-5.868,1.3-5.339,12.061c.516,10.506,19.643,12.69,22.1,2.1,2.642-11.393-6.316-18.071-16.76-14.166" transform="translate(-513.248 -484.105)" fill="#1d2127"/>
      <path id="Trazado_465273" data-name="Trazado 465273" d="M691.507,233.787c-.041-3.628.051-3.4.051-3.4.085-1.06,2.164,1.225,2.121-.156-.2-6.32,2.1-9.33,3-9.817a11.121,11.121,0,0,1,7.051-1.337c3.2.568,3.075,4.823,3.075,4.823,2.724-15.578-14.65-10.6-14.65-10.6a9.629,9.629,0,0,0-7.589,10.2c-1.037,8.562,7.075,13.509,7.075,13.509Z" transform="translate(-539.68 -167.579)" fill="#1b2a59"/>
      <path id="Trazado_465274" data-name="Trazado 465274" d="M707.741,289.5a1.7,1.7,0,0,1-1.1.335,2.5,2.5,0,0,1-2.281-2.569,2.3,2.3,0,0,1,2.172-2.5,2.164,2.164,0,0,1,1.525.7,3.121,3.121,0,0,1,.469,2.545,2.353,2.353,0,0,1-.783,1.5" transform="translate(-555.359 -224.526)" fill="#f3906b"/>
      <path id="Trazado_465275" data-name="Trazado 465275" d="M711.3,289.065c-.073-.735-1.56-.033-1.335.382a2.266,2.266,0,0,0,.6.58,1.08,1.08,0,0,1,.457.8c0,.041.013.169-.03.2-.193.134-.824-.583-.961-.735a1.23,1.23,0,0,1-.178-1.175.736.736,0,0,1,.815-.55c.334.02.674.043.655.458,0,.008-.016.077-.019.04" transform="translate(-559.633 -227.523)" fill="#e47a5d"/>
      <path id="Trazado_465276" data-name="Trazado 465276" d="M711.537,294.268c.155-.154.3-.026.461.088a.708.708,0,0,1,.266.433,1.729,1.729,0,0,1-.185,1.228.928.928,0,0,1-.8.424c-.448-.013-.581-.408-.6-.787-.005-.1-.013-.34.085-.4s.184.1.255.17a.635.635,0,0,0,.379.143.813.813,0,0,0,.666-.3.356.356,0,0,0,.068-.114c0,.247-.013.3-.039.166a.694.694,0,0,0-.084-.175c-.1-.172-.279-.288-.395-.452-.055-.076-.16-.342-.082-.421" transform="translate(-560.345 -231.963)" fill="#e47a5d"/>
      <path id="Trazado_465277" data-name="Trazado 465277" d="M749.617,278.789c.043.441-.165.821-.464.85s-.576-.3-.618-.745.165-.821.464-.849.575.3.618.743" transform="translate(-590.188 -219.227)" fill="#341e13"/>
      <path id="Trazado_465278" data-name="Trazado 465278" d="M778.511,274.77c.016.442-.213.809-.514.819s-.556-.338-.572-.779.213-.809.513-.819.556.337.572.779" transform="translate(-612.971 -216.031)" fill="#341e13"/>
      <path id="Trazado_465279" data-name="Trazado 465279" d="M741.221,270.877c1.149-1.207,3.85-1.111,3.85-1.111s.181-.01.132-.56c0,0-.014-.487-.4-.439,0,0-3.437-.228-3.579,2.11" transform="translate(-584.425 -211.908)" fill="#1b2a59"/>
      <path id="Trazado_465280" data-name="Trazado 465280" d="M776.122,266.006c-1.2-.971-3.4-.214-3.4-.214-.388.057-.274.529-.274.529.1.544.274.505.274.505a7.456,7.456,0,0,1,3.252-.231c.053-.2.107-.392.153-.59" transform="translate(-609.03 -209.345)" fill="#1b2a59"/>
      <path id="Trazado_465281" data-name="Trazado 465281" d="M761.747,307.95l-4.352.805c-.229.043-.32.178-.2.3a2.753,2.753,0,0,0,4.779-.9c.061-.142-.045-.223-.231-.21" transform="translate(-596.979 -242.806)" fill="#fff"/>
      <path id="Trazado_465282" data-name="Trazado 465282" d="M764.131,289.672c2.28-.165,2.406-.763,2.406-.763l-1.2-2.4s.275,2.4-1.209,3.167" transform="translate(-602.489 -225.898)" fill="#e47a5d"/>
      <path id="Trazado_465283" data-name="Trazado 465283" d="M650.7,641.686s.119,30.838,4.187,47.892c.605,2.543,9.9,1.764,9.9,1.764s6.063-29.164,6.835-40.129c.437-6.2,1.677-17.044,1.677-17.044s-21.751-2.156-22.6,7.517" transform="translate(-513.05 -499.857)" fill="#1d2127"/>
      <path id="Trazado_465284" data-name="Trazado 465284" d="M683.38,523.528s4.515,19.108,3.908,21.2c-1.745,6.012-17.943,14.45-32.713,2.146,0,0,3.377-14.133,10.388-26.088,0,0,2.576,2.662,18.416,2.747" transform="translate(-516.109 -410.616)" fill="#1d2127"/>
      <path id="Trazado_465285" data-name="Trazado 465285" d="M679.844,388.036s16.528,5.093,20.043.057c1.6-2.3,5.14-13.793,6.245-21.139-2.638-6.266-8.547-17.689-8.547-17.689a12.378,12.378,0,0,0-2.125-.255c2.128,7.988-.763,9.871-.763,9.871-8.8.25-10.964-6.753-10.964-6.753l-2.12,1.338s6.556,13.617-6.1,19.845c0,0-.3,14.609,4.329,14.725" transform="translate(-532.616 -275.181)" fill="#4c3887"/>
      <path id="Trazado_465286" data-name="Trazado 465286" d="M715.02,305.554a.753.753,0,1,1-.753-.754.753.753,0,0,1,.753.754" transform="translate(-562.579 -240.323)" fill="#fff"/>
      <path id="Trazado_465287" data-name="Trazado 465287" d="M661.79,388.328a6.793,6.793,0,0,1-.295,9.6c-2.733,2.572-11.324,7.475-11.4,3.722-.158-7.374.13-11.381,2.864-13.951s6.264-2.109,8.835.625" transform="translate(-512.545 -304.35)" fill="#f39672"/>
      <path id="Trazado_465288" data-name="Trazado 465288" d="M653.318,413.7l-5.937-3.423-5.967,3.734s-3.493,22.252-2.206,27.345c1.371,5.427,3.863,1.429,5.043-.055,0,0,9.739-23.277,9.068-27.6" transform="translate(-503.766 -323.491)" fill="#f39672"/>
      <path id="Trazado_465289" data-name="Trazado 465289" d="M644.531,540.475s10.677,7.625,20.154,11.772c0,0,3.131-1.315,1.565-2.762-2.658-2.458-14.281-13.588-16.965-16.049-4.754-1.625-4.754,7.039-4.754,7.039" transform="translate(-508.188 -420.434)" fill="#f39672"/>
      <path id="Trazado_465290" data-name="Trazado 465290" d="M743.308,616.757c-3.864-1.67-4.248-2.281-4.979-3.155-3.147-3.758,2.546-4.11,4-3.9.836.119,1.051,2.067,3.8,4.235,0,0,4.2,1.986,5.169,1.739,0,0,1.039.059,1.1.8,0,0-2.67,1.9-9.094.286" transform="translate(-581.409 -480.687)" fill="#f39672"/>
      <path id="Trazado_465291" data-name="Trazado 465291" d="M757.867,609.648s-1.655,1.422.818,2.288l3.14-.378s.886.035,1.025-.75c0,0-.043-.52-.951-.561Z" transform="translate(-597.122 -480.685)" fill="#f39672"/>
      <path id="Trazado_465292" data-name="Trazado 465292" d="M998.279,659.555c-.046-.012-.092-.021-.139-.031-.072-.016-.142-.032-.214-.046-.052-.01-.1-.018-.157-.027s-.1-.018-.151-.026l-.107,12.152-20.125,13.578.127-14.5,16.672-11.248q-.367.043-.74.1c-.053.007-.107.018-.161.027l-.285.052-.191.038q-.138.027-.276.058c-.058.012-.116.026-.174.039q-.218.05-.438.1l-.116.029q-.27.07-.54.15l-.1.028c-.249.073-.5.152-.743.236l-.026.01q-.373.128-.74.271l-.053.021q-.417.164-.824.348l-.038.017q-.411.186-.811.393a.179.179,0,0,0-.026.013c-.27.139-.534.286-.793.438l-.014.009q-.395.232-.769.485c-2.221,1.5-3.39,3.182-3.4,4.615q.064-7.25.128-14.5c.012-1.434,1.18-3.116,3.4-4.616.249-.168.506-.33.769-.485l.014-.008c.259-.153.523-.3.792-.439l.028-.013c.266-.138.535-.268.809-.393l.042-.017c.27-.122.543-.237.819-.346l.017-.006c.015-.007.03-.011.046-.017q.36-.141.726-.266c.012-.005.023-.009.035-.013.244-.083.489-.159.734-.233l.064-.021.042-.012q.268-.077.535-.147c.04-.011.08-.021.12-.031.144-.036.287-.071.43-.1l.087-.021.1-.02.264-.056.2-.04.269-.049c.047-.007.094-.016.142-.026l.035,0c.248-.041.493-.075.737-.1l.064-.009.047,0q.32-.037.635-.058l.053-.005.071,0c.2-.013.394-.022.588-.026h.017c.183,0,.362,0,.541,0h.073l.062,0c.18.006.357.015.531.028h.015l.04.005c.181.016.357.036.531.06.02,0,.04,0,.06.007l.041.006c.07.01.138.023.206.035s.112.018.167.03.133.027.2.042c.046.01.092.018.137.029l.017,0c.156.038.307.081.454.127.035.01.068.022.1.034.149.049.294.1.433.159.112.05.215.1.314.155l.086.048c.035.021.072.04.106.059s.055.038.084.056.071.045.1.068c.055.037.107.075.157.113.03.023.06.045.088.068l.03.023c.06.049.116.1.169.152l.021.021c.043.041.084.083.121.125v0h0v0c.012.013.023.027.035.04l.055.064c.038.045.074.09.109.137l.048.065.025.032c.016.024.03.049.046.072.03.045.059.09.087.137l.058.1c.026.046.052.093.076.139.008.014.016.027.023.041l.022.048c.041.081.079.162.117.245.006.013.012.027.019.04.049.111.1.223.144.334q.047.108.094.216c.014.032.029.066.044.1.043.1.088.191.135.285.024.048.05.094.076.14.014.026.027.052.042.077.042.072.085.143.134.214.03.045.064.09.1.135.045.063.093.126.143.19.021.027.042.055.065.082q.1.126.213.249l.013.016c.078.084.162.169.247.251.025.024.052.048.077.071.063.06.128.117.2.175.032.027.065.056.1.083.068.055.139.11.212.164l.1.071c.106.075.214.149.328.219l.02.011.034.019.022.01.049.027.035.018.057.029.041.02.068.033.055.027.071.035.087.042.052.024.1.047.054.026.164.073c.381.17.83.355,1.248.5l20.143-13.594-.127,14.5-20.145,13.594c-.417-.14-.866-.325-1.248-.495l-.165-.075-.028-.013-.126-.06c-.017-.006-.031-.014-.047-.022l-.093-.044-.057-.027-.07-.035-.044-.02-.066-.034-.033-.017-.059-.03c-.01-.005-.017-.01-.026-.014l-.045-.024-.017-.01a.251.251,0,0,1-.029-.016l-.006,0c-.113-.069-.222-.143-.326-.218l-.1-.074c-.071-.052-.14-.105-.207-.161-.017-.015-.036-.027-.053-.042s-.031-.028-.048-.042c-.066-.057-.129-.113-.191-.17-.027-.026-.055-.05-.081-.076-.086-.082-.168-.166-.245-.25l0,0-.015-.018c-.074-.08-.144-.163-.21-.244l-.065-.082c-.05-.063-.1-.128-.144-.192-.011-.015-.024-.031-.035-.046s-.041-.058-.06-.088c-.047-.07-.091-.14-.133-.213-.019-.033-.036-.067-.055-.1s-.042-.073-.06-.111l0-.005c-.049-.1-.094-.193-.138-.29l-.035-.081-.113-.259c-.042-.1-.086-.2-.13-.3l-.025-.055q-.053-.116-.11-.232c-.016-.031-.031-.063-.048-.094s-.048-.09-.074-.135-.038-.069-.059-.1-.058-.09-.088-.136-.045-.07-.07-.1l-.049-.066c-.034-.045-.069-.09-.107-.134l-.057-.067c-.049-.056-.1-.11-.155-.164a.245.245,0,0,1-.022-.022c-.062-.059-.13-.117-.2-.175l-.088-.067c-.05-.039-.1-.076-.158-.114l-.1-.069q-.091-.058-.189-.113l-.087-.048c-.1-.053-.2-.105-.314-.154-.139-.059-.284-.111-.433-.16-.034-.012-.068-.023-.1-.033-.147-.048-.3-.09-.455-.127" transform="translate(-770.632 -502.907)" fill="#0082bc"/>
      <path id="Trazado_465293" data-name="Trazado 465293" d="M682.631,683.462l.127-14.5,25.826,10.867-.106,12.069.025,0,.167.019c.206.023.411.044.614.06l.061.005c.149.012.3.022.444.03l.166.008.331.014.122,0c.26.007.516.009.766,0l.1,0c.209-.005.415-.013.616-.026l.047,0c.189-.013.372-.031.553-.05l.136-.016c.154-.018.306-.04.454-.063l.054-.008c.161-.027.316-.058.469-.091l.117-.026c.143-.033.282-.069.417-.108l.059-.015.083-.027c.074-.023.147-.046.219-.071l.11-.04c.061-.023.121-.045.18-.07.034-.013.067-.028.1-.041l.171-.077.094-.045.168-.089.077-.043c.078-.045.154-.092.226-.14a2.6,2.6,0,0,0,1.14-2.364l.006-.706a3.22,3.22,0,0,1,.528-2.047,12.242,12.242,0,0,1,2.016-1.532L745.11,695.2l-.127,14.5-25.794-10.854a12.179,12.179,0,0,0-2.015,1.53,2.988,2.988,0,0,0-.524,1.83q0,.352-.007.7a2.726,2.726,0,0,1-1.144,2.585c-.072.049-.147.1-.225.141l-.079.043c-.054.029-.109.059-.166.088l-.1.046c-.055.026-.112.052-.17.076l-.1.043-.055.023-.128.046-.107.04-.215.069-.09.029-.015,0-.038.009c-.137.04-.279.076-.424.109l-.061.016-.051.009c-.154.033-.311.064-.473.092l-.009,0-.036,0c-.151.025-.307.045-.466.065l-.067.009-.062.007c-.182.019-.366.036-.555.049h-.05c-.2.013-.408.022-.618.027l-.063,0h-.031c-.25,0-.506,0-.766,0h-.061c-.022,0-.043,0-.064,0-.109,0-.219-.007-.329-.014-.055,0-.11,0-.166-.008-.157-.009-.315-.019-.475-.034h-.028c-.2-.017-.411-.039-.619-.06l-.162-.019c-.183-.022-.367-.045-.551-.072l-.068-.009c-.008,0-.015,0-.023,0-.172-.026-.343-.053-.515-.081l-.088-.017c-.145-.024-.289-.05-.434-.077l-.194-.04c-.11-.022-.22-.044-.33-.067l-.218-.049c-.1-.022-.206-.046-.31-.071l-.082-.018-.071-.018c-.279-.068-.559-.141-.838-.219l-.11-.031c-.285-.081-.568-.166-.85-.257l-.086-.028c-.29-.1-.579-.195-.864-.3-.017-.006-.033-.014-.051-.019-.3-.111-.593-.228-.883-.35-.143-.06-.284-.122-.421-.182q-.294-.131-.572-.267l-.188-.093q-.182-.091-.357-.182c-.07-.036-.137-.073-.2-.11l-.315-.175-.193-.112c-.039-.023-.079-.045-.117-.068-.065-.039-.126-.079-.189-.119s-.112-.068-.166-.1c-.114-.073-.224-.147-.333-.221-.035-.023-.071-.047-.106-.072-.14-.1-.274-.2-.4-.3-.033-.026-.064-.051-.1-.077-.076-.059-.154-.12-.226-.18l-.04-.035c-.095-.08-.183-.159-.271-.239-.038-.036-.08-.071-.117-.107-.122-.116-.238-.231-.344-.347h0c-.094-.1-.18-.2-.262-.3-.026-.033-.048-.066-.073-.1-.043-.056-.088-.112-.127-.167l-.029-.046c-.019-.028-.037-.057-.055-.085-.047-.071-.09-.142-.13-.213-.016-.03-.034-.059-.049-.089s-.019-.033-.028-.05c-.038-.074-.072-.148-.1-.223-.005-.012-.009-.024-.014-.037-.021-.052-.042-.1-.059-.155-.011-.034-.02-.066-.029-.1-.005-.017-.011-.034-.016-.05-.02-.075-.038-.148-.05-.222,0-.015,0-.029-.007-.045s0-.031-.006-.046a1.912,1.912,0,0,1-.018-.249v-.026q.045-5.162.091-10.322Z" transform="translate(-538.229 -527.45)" fill="#2ca1df"/>
      <path id="Trazado_465294" data-name="Trazado 465294" d="M794.225,540.04,731.874,513.8l-48.641,32.822,25.826,10.867a11.117,11.117,0,0,1-1.74,1.135,14.259,14.259,0,0,1-3.186.928c-2.173.4-4.839.335-6.387,1.379-2.42,1.633-.515,4.6,4.247,6.721.138.062.279.122.421.183,5.069,2.132,11.2,2.5,13.687.819,2.022-1.364.467-3.531,1.674-5.117a12.252,12.252,0,0,1,2.016-1.532l25.793,10.854,20.126-13.578c-.082-.039-.168-.078-.258-.119a24.147,24.147,0,0,0-2.649-.97c-3-.659-7.06.141-9.653-.951-3.177-1.414-2.529-4.624,1.381-7.262,3.953-2.668,9.746-3.742,12.938-2.4,1.98.882,1.9,2.271,2.671,3.411a5.867,5.867,0,0,0,1.784,1.7c.095.058.454.238.909.442.381.17.83.356,1.248.5Z" transform="translate(-538.704 -405.114)" fill="#77b5e5"/>
      <path id="Trazado_465295" data-name="Trazado 465295" d="M899.935,916.926c0,.036,0,.071,0,.107s0,.077,0,.114-.007.062-.01.094-.008.073-.014.11-.013.072-.02.107-.011.054-.016.081-.02.074-.03.108-.015.052-.023.077-.011.03-.017.044a2.243,2.243,0,0,1-.124.3s0,.005,0,.007a2.411,2.411,0,0,1-.162.269c-.009.015-.019.03-.029.044a2.607,2.607,0,0,1-.2.247c-.02.023-.041.045-.062.067s-.046.049-.07.071-.055.053-.084.078-.052.048-.078.069-.049.042-.075.061l-.141.108-.078.054c-.052.036-.107.072-.163.105l-.073.047c-.048.029-.1.055-.15.082-.028.017-.055.032-.084.048-.081.04-.165.081-.251.12a6.84,6.84,0,0,1-1.042.336q-.435.1-.9.17c-.292.043-.592.075-.9.1-.425.034-.859.054-1.3.066-.962.029-1.948.018-2.907.045-.432.013-.859.032-1.274.066l.128,14.741c.417-.033.843-.054,1.275-.066.959-.027,1.945-.018,2.906-.045.44-.012.873-.032,1.3-.067.3-.024.6-.058.9-.1s.606-.1.9-.171a6.719,6.719,0,0,0,1.042-.336c.087-.039.171-.079.253-.121.023-.012.046-.026.068-.037.057-.03.113-.061.167-.093l.017-.009.047-.031c.059-.035.116-.072.171-.11l.077-.054c.047-.036.1-.072.14-.108l.044-.033.032-.029c.026-.023.053-.045.078-.069s.057-.05.084-.077l.071-.071c.014-.017.029-.031.043-.045s.012-.014.018-.022a2.668,2.668,0,0,0,.2-.249l.013-.015c.006-.009.01-.018.016-.027a2.466,2.466,0,0,0,.163-.271h0l0,0a2.318,2.318,0,0,0,.125-.3.12.12,0,0,0,.01-.023s0-.01.005-.016c.01-.03.018-.059.026-.088s.019-.065.027-.1.012-.059.018-.089.012-.048.016-.072l0-.027c.006-.039.011-.079.015-.118s.007-.057.009-.084c0-.045,0-.089.006-.133,0-.022,0-.042,0-.063v-.03Z" transform="translate(-701.458 -722.962)" fill="#6d1e3a"/>
      <path id="Trazado_465296" data-name="Trazado 465296" d="M871.065,933.218a.054.054,0,0,0-.016,0,24.307,24.307,0,0,0-2.675.983c-.091.04-.18.081-.263.122l.129,14.74c.083-.041.171-.081.264-.122a25.367,25.367,0,0,1,2.674-.983.054.054,0,0,0,.015,0c.232-.051.471-.093.713-.129.29-.041.587-.073.89-.1l-.129-14.741c-.3.025-.6.057-.89.1-.243.035-.481.078-.712.128" transform="translate(-684.473 -735.628)" fill="#6d1e3a"/>
      <path id="Trazado_465297" data-name="Trazado 465297" d="M728.71,1019.29l-.129-14.74L702.332,1015.6l.107,12.266c-3.048.365-5.786.079-7.265-.918a2.636,2.636,0,0,1-1.157-2.4c0-.242,0-.486-.006-.729a3.276,3.276,0,0,0-.536-2.075,12.7,12.7,0,0,0-2.048-1.556l-26.22,11.032.129,14.741,26.22-11.033a12.631,12.631,0,0,1,2.048,1.556,3.035,3.035,0,0,1,.532,1.849q0,.365.006.73a2.765,2.765,0,0,0,1.162,2.623c2.532,1.708,8.758,1.334,13.91-.834q.217-.09.428-.186c3.427-1.527,5.4-3.485,5.386-5.086q-.046-5.247-.093-10.491Z" transform="translate(-524.491 -792.05)" fill="#922b58"/>
      <path id="Trazado_465298" data-name="Trazado 465298" d="M880.982,929.289l.13,14.739c-2.743,1.156-6.869.343-9.918,1.011a24.618,24.618,0,0,0-2.69.987c-.092.041-.181.081-.264.122l-.13-14.74c.083-.041.172-.082.263-.122a24.5,24.5,0,0,1,2.691-.987c3.048-.67,7.175.143,9.917-1.011" transform="translate(-684.473 -732.709)" fill="#6d1e3a"/>
      <path id="Trazado_465299" data-name="Trazado 465299" d="M480.933,1006.271l-49.439-33.359.129,14.739,49.439,33.36Z" transform="translate(-340.217 -767.105)" fill="#6d1e3a"/>
      <path id="Trazado_465300" data-name="Trazado 465300" d="M529.558,894.75c-1.573-1.062-4.285-.994-6.491-1.4a14.434,14.434,0,0,1-3.241-.945,11.321,11.321,0,0,1-1.768-1.151l26.249-11.046-20.452-13.8c.083-.041.172-.082.263-.122a24.469,24.469,0,0,1,2.691-.987c3.048-.67,7.174.143,9.917-1.011,3.122-1.393,2.464-4.655-1.512-7.335-4.018-2.712-9.905-3.8-13.247-2.4-1.915.855-1.838,2.266-2.617,3.423a5.965,5.965,0,0,1-1.815,1.734c-.1.058-.465.243-.931.453-.386.172-.838.358-1.259.5l-20.477-13.818-63.375,26.668,49.439,33.359,26.22-11.032A12.7,12.7,0,0,1,509.2,897.4c1.226,1.613-.355,3.815,1.7,5.2,2.532,1.707,8.759,1.333,13.911-.833.145-.061.288-.124.428-.185,4.84-2.158,6.778-5.171,4.319-6.831" transform="translate(-340.217 -667.706)" fill="#bd2f64"/>
      <path id="Trazado_465301" data-name="Trazado 465301" d="M1515.729,1281.334c0,8.752,15.945,15.846,35.614,15.846s35.614-7.094,35.614-15.846-15.945-15.846-35.614-15.846-35.614,7.094-35.614,15.846" transform="translate(-1195.095 -997.79)" fill="#98a7d3"/>
      <path id="Trazado_465302" data-name="Trazado 465302" d="M1580.737,1299.85a19.389,19.389,0,0,1-6.663,3.887,5.688,5.688,0,0,1-5.553-1.438,1.063,1.063,0,0,1,.162-1.627c7.372-5.605,9.579-7.193,9.579-7.193h6.767a15.407,15.407,0,0,1,.147,3.819,5.866,5.866,0,0,1-3.713,2.25c-.139.023-.4-.182-.531-.128Z" transform="translate(-1236.486 -1019.859)" fill="#191818"/>
      <path id="Trazado_465303" data-name="Trazado 465303" d="M1568.648,1309.952a1.916,1.916,0,0,0,.142.463,3.709,3.709,0,0,0,3.426,1.714,9.923,9.923,0,0,0,4.214-1.43,18.77,18.77,0,0,0,3.49-2.368,10.5,10.5,0,0,1,2.638-1.319,13.494,13.494,0,0,0,2.661-1.793c0,.729-.046,1.335-.046,1.335a5.864,5.864,0,0,1-3.713,2.25c-.139.023-.4-.182-.53-.127l-.2.43a19.389,19.389,0,0,1-6.663,3.887,5.688,5.688,0,0,1-5.553-1.438,1.061,1.061,0,0,1,.13-1.6" transform="translate(-1236.483 -1029.116)" fill="#060401"/>
      <path id="Trazado_465304" data-name="Trazado 465304" d="M1608.454,826.768c-7.526,8.309-10.509-.479-10.509-.479l-.933-51.073c-.1.76-.347-5.15,9.154-3.871,9.474,1.277,11.873,4.97,11.873,4.97s-5.213,35.276-9.585,50.453" transform="translate(-1259.165 -608.033)" fill="#e28262"/>
      <path id="Trazado_465305" data-name="Trazado 465305" d="M1601.289,1013.25s3.819,53.786,4.13,55.674c0,0,4.642,1.027,4.662-.043.053-2.576,5.353-34.052,5.421-38.1.173-10.25-2.469-12.187-5.105-19.091,0,0-9.127-6.749-9.108,1.56" transform="translate(-1262.556 -795.64)" fill="#e28262"/>
      <path id="Trazado_465306" data-name="Trazado 465306" d="M1605.765,828.7c4.372-15.177,7.319-52.387,7.319-52.387s-2.4-3.694-11.873-4.971c-9.5-1.279-9.251,4.632-9.153,3.871,0,0-2.878,27.694-.242,52.865,0,0,8.116,4.311,13.95.621" transform="translate(-1254.21 -608.033)" fill="#00315e"/>
      <path id="Trazado_465307" data-name="Trazado 465307" d="M1625.03,648.738c1.342,4.779,6.883,23.016,6.883,23.016-19.836,23.73-34.779,2.966-34.976.8-.237-2.591,2.656-12.484,3.18-23.153,0,0,5.408-8.327,24.913-.665" transform="translate(-1259.114 -508.95)" fill="#f39672"/>
      <path id="Trazado_465308" data-name="Trazado 465308" d="M1596.6,729.567c-.94-6.393,1.009-12.838,2.012-19.3h29.056c1.859,6.193,3.793,12.556,3.793,12.556s1.242,14.652-11.2,16.407c0,0-21.685,3.759-23.661-9.665" transform="translate(-1258.663 -560.02)" fill="#00315e"/>
      <path id="Trazado_465309" data-name="Trazado 465309" d="M1677.224,833.2c-6.212,9.332-10.464,1.082-10.464,1.082l-10.077-49.753c.016.766.3-6.48,9.888-6.622,9.559-.142,12.478,3.155,12.478,3.155s.25,36.48-1.825,52.138" transform="translate(-1306.232 -613.346)" fill="#f39672"/>
      <path id="Trazado_465310" data-name="Trazado 465310" d="M1703.239,1024.338s9.979,56.678,10.566,58.5c0,0,4.742.327,4.6-.733-.33-2.556.526-38.3-.006-42.31-1.348-10.162-2.757-11.909-6.386-18.348,0,0-10.026-5.322-8.778,2.892" transform="translate(-1342.855 -804.035)" fill="#f39672"/>
      <path id="Trazado_465311" data-name="Trazado 465311" d="M1740.983,1308.471l-2.807,8.56s.58,7.663,6.725,2.914l1.831-1.774a1.959,1.959,0,0,0,.661-1.881l-.546-3.28-.652-4.539s-3.851-2.614-5.211,0" transform="translate(-1370.486 -1030.764)" fill="#191818"/>
      <path id="Trazado_465312" data-name="Trazado 465312" d="M1744.9,1351.608l1.831-1.773a1.914,1.914,0,0,0,.629-.98l.032.192a1.959,1.959,0,0,1-.661,1.881l-1.831,1.774c-6.145,4.749-6.725-2.914-6.725-2.914l.11-.333c.345,1.809,1.7,5.953,6.615,2.154" transform="translate(-1370.486 -1063.521)" fill="#060401"/>
      <path id="Trazado_465313" data-name="Trazado 465313" d="M1660.836,815.894c-3.5-10.273-10.107-52.763-10.107-52.763.015.765,1.979-10.148,11.565-10.288,9.559-.142,12.043,3.546,12.043,3.546s2.994,41.586.917,57.244c0,0-6.733,7.776-14.418,2.261" transform="translate(-1301.538 -593.585)" fill="#003980"/>
      <path id="Trazado_465314" data-name="Trazado 465314" d="M1508.792,474.266s-16.231,19.087-24.3,25.412c0,0-5.423-2-5.256-5.69,0,0,11.883-17.579,19.344-27.978,0,0,10.087-2.905,10.215,8.257" transform="translate(-1166.317 -367.163)" fill="#e28262"/>
      <path id="Trazado_465315" data-name="Trazado 465315" d="M1395.435,590.212s-17.724,10.317-25.063,13.766c0,0-1.318,2.061.808,2.257,3.553.325,28.249-8.039,28.852-9.98,2.814-9.052-4.6-6.043-4.6-6.043" transform="translate(-1080.168 -464.982)" fill="#e28262"/>
      <path id="Trazado_465316" data-name="Trazado 465316" d="M1565.333,463.3a6.615,6.615,0,0,0,8.455,3.914,6.524,6.524,0,0,0,3.836-8.432,6.615,6.615,0,0,0-8.456-3.914,6.524,6.524,0,0,0-3.835,8.432" transform="translate(-1233.874 -358.332)" fill="#e28262"/>
      <path id="Trazado_465317" data-name="Trazado 465317" d="M1516.055,453.34a8.668,8.668,0,0,0-9.763,3.65l-14.157,20.535a23.382,23.382,0,0,0,9.808,10.107s25.347-23.341,14.112-34.292" transform="translate(-1176.492 -357.164)" fill="#781a3e"/>
      <path id="Trazado_465318" data-name="Trazado 465318" d="M1660.633,331.04s1.168-2.248,3.746-6.56c0,0,5.486-5.633,2.412-12.714,0,0-1.688-5.919-12.041-5.06,0,0-.99,16.3,5.883,24.335" transform="translate(-1304.669 -241.758)" fill="#f3906b"/>
      <path id="Trazado_465319" data-name="Trazado 465319" d="M1641.4,378.443s-1.741,16.241,1.974,17.469l-13.246-.789s2.082-4.907-.339-8.527Z" transform="translate(-1285.029 -298.388)" fill="#f39672"/>
      <path id="Trazado_465320" data-name="Trazado 465320" d="M1630.857,392.287c.22-3.71-.246-4.464-1.066-5.69l11.611-8.154a79,79,0,0,0-.366,10c-3.362,3.182-6.138,3.93-10.179,3.841" transform="translate(-1285.029 -298.388)" fill="#db765e"/>
      <path id="Trazado_465321" data-name="Trazado 465321" d="M1576.871,449.536c-2.95,2.154-3.289,7.307-2.235,10.527,1.208,3.7,1.688,8.415,2.9,13.761,1.64,7.245,2.751,12.825,4.58,20.02,1.514,5.95,25.426,1.155,25.426,1.155l8.57-29.285s1.477-7.646-5.449-10.189a103.615,103.615,0,0,0-12.638-5.748c-4.717-1.6-6.425-1.747-11.268-1.449,0,0-6.488.238-9.884,1.208" transform="translate(-1241.112 -353.392)" fill="#f39672"/>
      <path id="Trazado_465322" data-name="Trazado 465322" d="M1603.727,312.845c-.683,3.116-1.458,4.744-.6,7.6.774,2.565.595,5.261,1.714,7.747,1.6,3.545,3.677,3.083,5.267-.179,1.627-3.339,3.323-7.851-.351-10.324-2.359-1.588-3.209-4.32-6.033-4.843" transform="translate(-1263.707 -246.667)" fill="#23140a"/>
      <path id="Trazado_465323" data-name="Trazado 465323" d="M1609.422,332.024l-.551-1.836s-1.394-6.789-1.394-6.79a6.881,6.881,0,0,1,.108-2.822,6.926,6.926,0,0,0,.241-2.9c-.836-4.871,1.814-7.405,1.814-7.405,3.034-4.312,9.693-3.973,9.693-3.973,8.216.821,8.508,8.826,8.508,8.826,1.071,5.367-3.369,9.57-3.377,9.579-.355.335-.27,2.088-.4,2.58-.541,2.093-2.631,3.292-4.469,4.1a19.8,19.8,0,0,1-6.671,1.9c-.84.035-3.19-.208-3.506-1.261" transform="translate(-1267.357 -241.502)" fill="#f3906b"/>
      <path id="Trazado_465324" data-name="Trazado 465324" d="M1607.833,377.438c1.08.974,2.548.53,3.7,1.236a1.942,1.942,0,0,0,1.947.191,3.055,3.055,0,0,1,1.858.062c.685.2,1.93.795,2.594,1.063a2.454,2.454,0,0,0,2.946-.68,5.83,5.83,0,0,0,1.528-2.42c.713-2.221,2.959-2.355,4.505-1.109a13.345,13.345,0,0,1-2.258,3.091c-.355.335-.27,3.538-.4,4.029-.541,2.094-2.631,3.292-4.469,4.1-2.021.885-5.1,1.007-7.316,1.1a3.512,3.512,0,0,1-2.86-1.907l-.551-1.836s-1.394-6.789-1.394-6.79c-.024-.119-.033-.25-.049-.378a2.031,2.031,0,0,0,.217.252" transform="translate(-1267.545 -295.668)" fill="#23140a"/>
      <path id="Trazado_465325" data-name="Trazado 465325" d="M1596.623,287.2c1.86,0,1.838,1.558,3.263,2.424,3.055,1.858,7.794-.866,10.256,2.146a5.867,5.867,0,0,1,.624.955,14.1,14.1,0,0,1,1.175,4.5c.069.445-.261,1.58.143,1.92.231.2.633.138,1.058,0,.083.68-.465,1.2-.7,1.828s-.6,1.161-.271,1.795c.858,1.629.2,1.361.277,4.634a13.881,13.881,0,0,1,2.25-2.079,16.637,16.637,0,0,0,3.18-3.518,22.264,22.264,0,0,0,1.931-4.242,11.938,11.938,0,0,0,.688-7.457s-.562-5.805-5.419-6.428c0,0,.617-3.739-8.259-4.728,0,0-7.008.11-7.392-2.309a3.441,3.441,0,0,0-1.065,3.079,3.444,3.444,0,0,1-4.178-2.419s-2.4,8.685,2.439,9.894" transform="translate(-1256.485 -218.125)" fill="#23140a"/>
      <path id="Trazado_465326" data-name="Trazado 465326" d="M1680.467,381.921a1.462,1.462,0,0,0,.932.554c1.105.2,2.212-.826,2.472-2.3s-.423-2.825-1.527-3.028a1.786,1.786,0,0,0-1.483.459,3.733,3.733,0,0,0-.847,2.6,2.789,2.789,0,0,0,.452,1.717" transform="translate(-1324.628 -297.348)" fill="#f3906b"/>
      <path id="Trazado_465327" data-name="Trazado 465327" d="M1687.723,381.713c.171-.771,1.659.165,1.368.575a2.4,2.4,0,0,1-.707.54,1.159,1.159,0,0,0-.587.795c-.012.045-.036.179.005.217.188.166.948-.515,1.115-.658a1.315,1.315,0,0,0,.34-1.225.791.791,0,0,0-.8-.691c-.355-.022-.72-.041-.752.4,0,.009.007.084.016.045" transform="translate(-1330.694 -300.606)" fill="#e47a5d"/>
      <path id="Trazado_465328" data-name="Trazado 465328" d="M1686.193,387.172c-.144-.186-.317-.067-.5.035a.743.743,0,0,0-.339.425,1.848,1.848,0,0,0,.04,1.327.993.993,0,0,0,.793.554c.477.043.669-.361.736-.76.018-.107.058-.362-.04-.44s-.208.081-.292.148a.663.663,0,0,1-.421.1.864.864,0,0,1-.67-.4.453.453,0,0,1-.057-.13q-.047.394.021.182a.727.727,0,0,1,.112-.175c.131-.169.334-.272.477-.431.068-.072.213-.342.14-.437" transform="translate(-1328.757 -305.194)" fill="#e47a5d"/>
      <path id="Trazado_465329" data-name="Trazado 465329" d="M1624.867,372.863l2.239.864s-3.021.188-3.137-.689c0,0,.457-1.713.952-3.335,0,0-.386,3.031-.054,3.16" transform="translate(-1280.438 -291.497)" fill="#e47a5d"/>
      <path id="Trazado_465330" data-name="Trazado 465330" d="M1646.684,366.515c0,.474.261.856.582.856s.581-.381.581-.856-.26-.855-.581-.855-.582.383-.582.855" transform="translate(-1298.349 -288.309)" fill="#23140a"/>
      <path id="Trazado_465331" data-name="Trazado 465331" d="M1616.154,363.122c0,.474.261.856.582.856s.582-.381.582-.856-.26-.855-.582-.855-.582.383-.582.855" transform="translate(-1274.277 -285.634)" fill="#23140a"/>
      <path id="Trazado_465332" data-name="Trazado 465332" d="M1642.755,358.074c-.209.042-.26-.238-.26-.238a.975.975,0,0,1,.014-.5.486.486,0,0,1,.249-.254,7.078,7.078,0,0,1,2.473.323c.491.147,1.287.511,1.339.965.015.135.028.368-.125.41a20.154,20.154,0,0,0-3.689-.7" transform="translate(-1295.025 -281.529)" fill="#23140a"/>
      <path id="Trazado_465333" data-name="Trazado 465333" d="M1608.824,354.69a17.554,17.554,0,0,1,2.887.3c.189.1.314-.157.316-.157a.984.984,0,0,0,.122-.487.481.481,0,0,0-.17-.31,5.238,5.238,0,0,0-2.14-.335,4.2,4.2,0,0,0-1.076.146,2.082,2.082,0,0,0,.06.842" transform="translate(-1268.437 -278.88)" fill="#23140a"/>
      <path id="Trazado_465334" data-name="Trazado 465334" d="M1621.431,397.566c-.183,0-.282.084-.212.216a2.763,2.763,0,0,0,4.778.577c.112-.124.014-.249-.214-.278,0,0-2.435-.31-4.352-.515" transform="translate(-1278.252 -313.466)" fill="#fff"/>
      <path id="Trazado_465335" data-name="Trazado 465335" d="M1675.8,734.835a18.04,18.04,0,0,1,0,17.418c-5.089,9.206-20.626,5.85-20.671-6.073-.046-11.779,10.674-16.283,20.671-11.345" transform="translate(-1305.003 -577.831)" fill="#003980"/>
      <path id="Trazado_465336" data-name="Trazado 465336" d="M1586.755,448.789s-6.488.238-9.883,1.208c-2.95,2.154-3.289,7.307-2.235,10.527,1.208,3.7,1.688,8.415,2.9,13.761,1.64,7.245-.428,12.542,1.4,19.737,1.514,5.95,33.156,0,33.156,0l4.02-27.847s1.476-7.646-5.449-10.189a95.687,95.687,0,0,0-12.308-5.633s.834,5.633-8.349,4.077c0,0-5.61-1.353-3.249-5.642" transform="translate(-1241.112 -353.853)" fill="#781a3e"/>
      <path id="Trazado_465337" data-name="Trazado 465337" d="M1623.529,646.778c1.343,4.78,2.405,20.893,2.405,20.893-3.638,15.086-37.1,4.232-37.3,2.067-.236-2.59.79-14.918,1.314-25.588,0,0,14.076-5.035,33.582,2.627" transform="translate(-1252.55 -506.608)" fill="#781a3e"/>
      <path id="Trazado_465338" data-name="Trazado 465338" d="M1705.146,499.7c2.184,4.441,10.289,26.854,12.893,30.4.693.942,7.373,5.246,8.876-.621-3.682-23.267-9.251-36.539-9.251-36.539s-6.5-5.424-11.7-.411c0,0-2.358,4.1-.818,7.172" transform="translate(-1344.031 -386.663)" fill="#f39672"/>
      <path id="Trazado_465339" data-name="Trazado 465339" d="M1702.327,491.258a7.828,7.828,0,1,0,9.021-6.417,7.828,7.828,0,0,0-9.021,6.417" transform="translate(-1342.134 -382.192)" fill="#f39672"/>
      <path id="Trazado_465340" data-name="Trazado 465340" d="M1701.689,478.765s6.728,2.524,8.32,7.982l4.152,14.858s-5.441,7.913-13.55,7.65l-8.012-17.8s-5.39-9.995,9.091-12.694" transform="translate(-1333.776 -377.488)" fill="#781a3e"/>
      <path id="Trazado_465341" data-name="Trazado 465341" d="M1317.24,648.692l2.072-.057s-3.779.97-5-.258c0,0-.312-.193.173-.633a28.754,28.754,0,0,0,4.812-.536,20.986,20.986,0,0,1-5.661.562.616.616,0,0,1,.072-1.155c-.75-.291-.11-.786-.11-.786a13.114,13.114,0,0,1,2.251-.868,53.615,53.615,0,0,0,5.158-2.011s-2.181-1.427-1.364-2.578l3.364,1.774,3.044,1.957.4,2.06-3.167,2.2a19.74,19.74,0,0,1-4.82,1.3s-5-.178-1.231-.97" transform="translate(-1035.446 -504.91)" fill="#e28262"/>
      <path id="Trazado_465342" data-name="Trazado 465342" d="M1698.506,1026.5l8.7,54.236s2.883,2.779,9.573,0l1.11-26.5s1.965-17.508-4.969-30c0,0-13.658-11.022-14.418,2.261" transform="translate(-1339.208 -804.187)" fill="#003980"/>
      <path id="Trazado_465343" data-name="Trazado 465343" d="M1609.511,1023.232s3.705,5.359.385,25.477l-3.4,27.473a9.058,9.058,0,0,1-8.305.106l-2.739-54.73s2.457-9.291,14.056,1.674" transform="translate(-1257.956 -802.563)" fill="#00315e"/>
      <path id="Trazado_465344" data-name="Trazado 465344" d="M1314.868,710.639a2.115,2.115,0,0,0-1.068-1.744,3.983,3.983,0,0,0-.361-.211c-.039-.021-.08-.039-.12-.058-.09-.044-.183-.086-.277-.125-.024-.01-.045-.022-.069-.031s-.042-.013-.063-.021c-.152-.058-.307-.112-.468-.159l-.008,0h0c-.163-.048-.331-.089-.5-.127-.019-.005-.038-.012-.057-.016l-.072-.014c-.2-.044-.408-.083-.619-.119l-.016,0-.053-.008c-.217-.035-.436-.067-.659-.1l-.07-.01c-.233-.031-.468-.056-.7-.083a.287.287,0,0,0-.041-.005l-.57-.066c-.224-.026-.447-.052-.669-.08-.04-.007-.08-.01-.122-.016-.217-.029-.431-.06-.643-.094-.109-.018-.22-.036-.328-.056-.222-.04-.444-.086-.667-.134l-.119-.027c-.163-.036-.323-.075-.484-.115l-.012,0c-.162-.041-.321-.085-.479-.13l-.151-.046c-.11-.032-.218-.067-.324-.1-.053-.018-.105-.035-.157-.054-.111-.037-.219-.077-.326-.117-.041-.017-.082-.031-.121-.047q-.205-.081-.4-.167a11.46,11.46,0,0,1-1.768-1.153l.129,14.739a11.293,11.293,0,0,0,1.768,1.153c.127.058.26.113.4.168a.231.231,0,0,1,.03.011l.092.033c.107.041.216.081.328.12.051.018.1.033.153.052.109.036.221.071.334.106l.093.028c.016.005.032.008.048.013.16.046.321.091.484.133h0c.164.04.329.078.495.117l.047.01.067.014c.224.049.447.1.67.136l.275.049c.017,0,.036,0,.054.008.211.034.424.063.64.093l.128.017.656.078h.007l.433.049c.058.007.117.014.175.019.239.028.476.057.712.086.019,0,.037.007.056.008.224.03.447.062.666.1.024,0,.047.006.07.01.211.035.416.075.618.117l.131.03c.172.039.342.081.505.129s.322.1.476.162l.132.052c.1.038.188.081.279.125l.119.058a3.673,3.673,0,0,1,.362.213,2.112,2.112,0,0,1,1.067,1.743Z" transform="translate(-1026.815 -556.179)" fill="#2d3a61"/>
      <path id="Trazado_465345" data-name="Trazado 465345" d="M1155.136,801.326l.151-.033c.068-.015.136-.031.205-.045l.171-.03.145-.024.108,12.352,20.453,13.8-.129-14.74L1159.3,801.174c.247.03.5.064.747.106.058.009.115.019.173.029.093.017.187.032.281.052.067.011.135.025.2.04.09.018.179.036.268.055l.189.043c.145.034.291.068.436.105q.061.014.122.031c.182.046.364.1.545.15l.1.031c.25.075.5.153.748.238l.037.013c.249.085.5.177.74.271l.06.024c.281.11.56.228.834.352l.041.018c.279.125.553.259.824.4l.026.013c.274.142.544.291.806.446l.014.008c.268.159.529.322.782.493,2.258,1.524,3.445,3.235,3.458,4.692q-.065-7.371-.13-14.741c-.013-1.456-1.2-3.167-3.458-4.691-.254-.172-.515-.336-.782-.494l-.014-.009c-.263-.155-.532-.3-.805-.445a.237.237,0,0,0-.029-.014c-.27-.139-.544-.274-.823-.4l-.041-.017q-.413-.187-.834-.353l-.016-.007-.044-.015c-.247-.1-.5-.189-.746-.274l-.029-.01c-.251-.087-.5-.165-.756-.24-.019-.005-.038-.013-.057-.02a.309.309,0,0,1-.038-.01c-.183-.054-.367-.1-.551-.152l-.112-.026c-.15-.039-.3-.075-.449-.108l-.084-.021-.094-.019-.281-.059-.194-.039c-.094-.018-.189-.035-.283-.05-.046-.009-.092-.018-.137-.025l-.035,0c-.253-.043-.5-.077-.755-.107l-.059-.008-.044-.005c-.218-.023-.435-.044-.65-.059l-.053-.005a.681.681,0,0,1-.071,0c-.4-.024-.79-.034-1.172-.023-.022,0-.045,0-.068,0l-.059,0c-.185.006-.368.015-.547.03h-.012l-.031,0c-.187.015-.37.036-.551.062l-.058.006c-.014,0-.028.005-.041.007-.074.011-.147.024-.22.037-.052.01-.105.018-.156.029-.076.014-.15.032-.224.047-.039.009-.08.016-.119.026l-.017,0c-.159.039-.315.084-.465.13l-.1.035c-.152.05-.3.1-.443.162-.114.051-.219.1-.32.157l-.089.051c-.035.02-.073.039-.107.059l-.084.054-.108.071c-.055.037-.108.076-.159.116l-.09.068c-.01.009-.021.017-.032.024-.06.052-.118.1-.171.153a.182.182,0,0,1-.021.02c-.044.042-.086.086-.126.13-.012.013-.023.027-.034.04l-.057.066c-.039.046-.075.091-.11.139-.016.021-.033.043-.048.065l-.026.035c-.018.025-.031.049-.047.073-.031.045-.06.09-.087.137s-.042.069-.062.105-.05.091-.074.134c-.008.015-.017.03-.025.047s-.017.035-.025.052c-.039.078-.077.158-.113.237l-.024.053c-.047.106-.093.212-.138.317-.034.081-.069.164-.1.244l-.041.093c-.044.1-.089.193-.137.289-.026.051-.053.1-.081.151-.013.025-.025.048-.038.071-.042.072-.086.145-.135.216l-.094.134c-.047.065-.1.129-.147.2l-.066.083c-.068.083-.139.166-.214.25a.15.15,0,0,0-.018.02c-.08.085-.165.17-.252.255l-.077.073c-.065.059-.13.118-.2.176l-.1.085c-.069.055-.14.111-.212.164l-.1.076c-.107.075-.217.149-.332.222l-.037.02-.015.01-.047.024-.026.014-.056.027-.038.02-.059.03-.054.026c-.018.01-.04.019-.06.029l-.071.035c-.021.009-.044.022-.067.031l-.076.036c-.034.016-.071.033-.107.049-.017.008-.032.017-.05.025-.054.025-.111.05-.169.075-.385.173-.837.359-1.258.5L1126.8,779.246l.129,14.742,20.479,13.817c.42-.143.872-.33,1.258-.5l.317-.144s0,0,.006,0c.047-.02.09-.041.133-.062a.027.027,0,0,1,.01-.006c.032-.016.063-.029.094-.045l.038-.019.069-.034c.015-.006.031-.015.044-.022l.052-.027a.487.487,0,0,0,.044-.022l.036-.018.037-.021.024-.013.023-.013.006,0c.116-.071.226-.147.334-.223.033-.023.065-.048.1-.072.073-.054.146-.11.216-.167.016-.013.035-.026.052-.04s.031-.028.048-.042c.068-.059.134-.117.2-.177l.081-.075c.087-.084.171-.169.25-.255l0,0,.017-.019c.075-.083.145-.163.212-.246.023-.028.044-.058.067-.086.05-.063.1-.128.144-.192.012-.017.026-.033.039-.052l.057-.082c.049-.072.093-.145.135-.218.015-.026.029-.053.043-.079.025-.045.05-.089.072-.134,0,0,0,0,0-.006.048-.1.094-.193.138-.291.013-.031.026-.061.04-.09l.1-.243c.045-.108.092-.215.14-.323.007-.016.015-.03.021-.045.036-.083.076-.162.116-.244.016-.032.032-.063.048-.094.024-.047.05-.094.076-.139s.039-.07.059-.1.058-.091.089-.136.046-.072.072-.108l.049-.066c.035-.045.071-.092.109-.137.02-.022.038-.045.058-.067.05-.057.1-.112.159-.166a.242.242,0,0,1,.021-.022c.063-.061.132-.12.2-.177.028-.024.058-.047.088-.069.052-.04.105-.078.161-.117.034-.024.07-.047.107-.07.061-.038.125-.077.192-.116l.088-.048c.1-.054.205-.107.319-.158.142-.058.29-.112.442-.162l.1-.033c.151-.048.3-.091.464-.13" transform="translate(-888.44 -614.406)" fill="#2f3672"/>
      <path id="Trazado_465346" data-name="Trazado 465346" d="M1423.887,810.89l.13,14.739L1360.641,852.3l-.13-14.74Z" transform="translate(-1072.712 -639.357)" fill="#3d4794"/>
      <path id="Trazado_465347" data-name="Trazado 465347" d="M1126.8,679.853l26.217-11.032a12.585,12.585,0,0,1,2.051,1.555c1.226,1.614-.355,3.816,1.7,5.2,2.532,1.707,8.759,1.333,13.91-.833.144-.061.285-.121.425-.183,4.841-2.159,6.782-5.174,4.321-6.834-1.573-1.06-4.284-.993-6.492-1.4a14.46,14.46,0,0,1-3.239-.943,11.454,11.454,0,0,1-1.768-1.153l26.249-11.044,49.439,33.36-63.375,26.667-20.454-13.8c.081-.04.166-.079.254-.117a24.665,24.665,0,0,1,2.7-.991c3.05-.67,7.176.144,9.812-.965,3.229-1.439,2.571-4.7-1.4-7.382-4.019-2.712-9.906-3.8-13.15-2.439-2.013.9-1.935,2.309-2.714,3.466a5.982,5.982,0,0,1-1.815,1.734c-.1.057-.465.244-.931.451-.385.173-.837.359-1.258.5Z" transform="translate(-888.44 -515.013)" fill="#4860a8"/>
      <path id="Trazado_465348" data-name="Trazado 465348" d="M532.69,994.516s2.169-1.407.086-4c-5.382-.342-11.709-3.249-11.709-3.249-7.912-2.489-19.023-14.735-24.081-20.307-5.681-6.257-14.282-.946-9.666,6.2,8.637,13.367,31.335,22.179,45.256,21.657" transform="translate(-383.198 -760.222)" fill="#f3906b"/>
      <path id="Trazado_465349" data-name="Trazado 465349" d="M365.722,1195.03c3.307-15.444,4.3-51.216,4.3-51.216s-2.649-3.517-12.19-4.131c-9.567-.617-8.906,5.262-8.862,4.5a332.605,332.605,0,0,0,4.389,50.24s6.8,4.693,12.366.607" transform="translate(-275.127 -898.562)" fill="#002d58"/>
      <path id="Trazado_465350" data-name="Trazado 465350" d="M348.586,1097.477c-.94-6.391,1.007-12.838,2.013-19.3h29.056c1.859,6.194,3.792,12.555,3.792,12.555s1.243,14.652-11.2,16.408c0,0-21.685,3.758-23.66-9.666" transform="translate(-274.65 -850.104)" fill="#006d97"/>
      <path id="Trazado_465351" data-name="Trazado 465351" d="M268.877,1613.513c0,12.319,22.443,22.3,50.129,22.3s50.126-9.985,50.126-22.3-22.443-22.3-50.126-22.3-50.129,9.986-50.129,22.3" transform="translate(-211.999 -1254.609)" fill="#98a7d3"/>
      <path id="Trazado_465352" data-name="Trazado 465352" d="M607.9,1666.369l-1.656-.1c-.564-.087-.56.8-.636.83a18.044,18.044,0,0,1-3.92,1.243s-3.063-.4-3.391-1.326l.433-5.683c3.413-.287,6.975-.947,6.975-.947l7.5-1.053c3.61-.377,4.266.928,4.266.928s2.21,3.3-9.572,6.1" transform="translate(-471.735 -1308.272)" fill="#191818"/>
      <path id="Trazado_465353" data-name="Trazado 465353" d="M603.347,1668.169a8.971,8.971,0,0,1,1.94-.631c3.7-.648,7.32-1.015,10.4-3.394a3.048,3.048,0,0,0,1.337-2.166,1.347,1.347,0,0,1,.447.424s2.211,3.3-9.572,6.1l-1.656-.1c-.564-.087-.56.8-.636.83a18.018,18.018,0,0,1-3.921,1.243s-3.062-.4-3.391-1.326l.106-1.385a5.912,5.912,0,0,0,4.944.4" transform="translate(-471.735 -1310.407)" fill="#100f0f"/>
      <path id="Trazado_465354" data-name="Trazado 465354" d="M371,1659.714l-1.655-.1c-.564-.088-.56.8-.638.83a18.1,18.1,0,0,1-3.919,1.243s-3.062-.4-3.389-1.327l.43-5.681c3.414-.287,6.976-.947,6.976-.947l7.5-1.054c3.61-.376,4.265.93,4.265.93s2.211,3.3-9.572,6.1" transform="translate(-284.949 -1303.023)" fill="#191818"/>
      <path id="Trazado_465355" data-name="Trazado 465355" d="M366.446,1661.518a9.043,9.043,0,0,1,1.94-.631c3.7-.648,7.32-1.015,10.4-3.395a3.045,3.045,0,0,0,1.337-2.165,1.344,1.344,0,0,1,.447.424s2.211,3.3-9.572,6.1l-1.656-.1c-.564-.087-.56.8-.637.83a18.086,18.086,0,0,1-3.919,1.243s-3.062-.4-3.389-1.327l.1-1.384a5.915,5.915,0,0,0,4.943.4" transform="translate(-284.949 -1305.164)" fill="#100f0f"/>
      <path id="Trazado_465356" data-name="Trazado 465356" d="M365.725,1437.462c1.229-1.466,5.261-55.345,5.261-55.345.669-8.282-13.1-4.805-13.1-4.805-2.006,8.246-1.682,9.8-2.311,20.029-.25,4.042.394,37.512.245,40.086,0,0,6.392,4.234,9.908.035" transform="translate(-280.309 -1085.387)" fill="#002d58"/>
      <path id="Trazado_465357" data-name="Trazado 465357" d="M371.4,1106.56s8.269,14.08,3.18,23.284-26.53-.813-25.212-11.472c1.445-11.69,12.035-16.752,22.031-11.812" transform="translate(-275.415 -870.996)" fill="#1a3c76"/>
      <path id="Trazado_465358" data-name="Trazado 465358" d="M377.008,1016.648c1.343,4.779,6.883,23.016,6.883,23.016-15.182,14.318-34.777,2.965-34.976.8-.235-2.591,2.656-12.484,3.181-23.153,0,0,5.407-8.327,24.912-.665" transform="translate(-275.096 -799.033)" fill="#f39672"/>
      <path id="Trazado_465359" data-name="Trazado 465359" d="M434.588,1175.083c-1.612-15.713-12.8-55.8-12.8-55.8s-3.271-3.012-12.538-.658c-9.29,2.36-10.292,14.45-10.485,13.709,0,0,10.783,25.37,25.13,47.723,0,0,6.931,3.548,10.7-4.978" transform="translate(-314.407 -881.288)" fill="#1a3c76"/>
      <path id="Trazado_465360" data-name="Trazado 465360" d="M533.654,1433.467c-.272-1.893-14.245-58.192-14.245-58.192-3.289-6.943-12.735.369-12.735.369a59.835,59.835,0,0,0,3.421,20.838c1.284,3.84,13.164,38.608,13.99,41.048,0,0,7.02,2.225,9.569-4.062" transform="translate(-399.493 -1081.993)" fill="#1a3c76"/>
      <path id="Trazado_465361" data-name="Trazado 465361" d="M309.063,845.166s-1.5,25.287-.544,35.495c0,0,0,4.639,8.17,6.964,0,0,2.972-28.153,5.392-40.721,0,0-4.826-9.321-13.018-1.738" transform="translate(-243.003 -664.038)" fill="#e28262"/>
      <path id="Trazado_465362" data-name="Trazado 465362" d="M321.172,840.316a6.613,6.613,0,0,1-8.656-3.446A6.524,6.524,0,0,1,316,828.286a6.616,6.616,0,0,1,8.656,3.448,6.522,6.522,0,0,1-3.484,8.583" transform="translate(-245.99 -652.657)" fill="#e28262"/>
      <path id="Trazado_465363" data-name="Trazado 465363" d="M312.159,822.412a8.666,8.666,0,0,0-6.292,8.308l-.966,24.924a23.378,23.378,0,0,0,13.694,3.287s8.916-33.284-6.436-36.519" transform="translate(-240.403 -648.441)" fill="#ffcd64"/>
      <path id="Trazado_465364" data-name="Trazado 465364" d="M402.524,747.613s.053,8.9.831,17.768l-11.743-1.946a8.689,8.689,0,0,0-.7-7.669Z" transform="translate(-308.219 -589.465)" fill="#f39672"/>
      <path id="Trazado_465365" data-name="Trazado 465365" d="M328.854,817.447c-2.949,2.155-3.287,7.309-2.235,10.527,1.21,3.7,1.689,8.415,2.9,13.761,1.64,7.245,2.751,12.825,4.58,20.02,1.514,5.95,25.425,1.156,25.425,1.156l8.571-29.286s1.475-7.645-5.451-10.189a103.539,103.539,0,0,0-12.637-5.749c-4.717-1.6-6.426-1.747-11.267-1.449,0,0-6.488.238-9.885,1.208" transform="translate(-257.098 -643.476)" fill="#f39672"/>
      <path id="Trazado_465366" data-name="Trazado 465366" d="M427.773,1102.749a18.036,18.036,0,0,1,0,17.417c-5.089,9.206-20.624,5.85-20.671-6.073-.045-11.779,10.675-16.282,20.671-11.343" transform="translate(-320.985 -867.916)" fill="#1a3c76"/>
      <path id="Trazado_465367" data-name="Trazado 465367" d="M338.88,816.7s-6.488.238-9.885,1.208c-3.069,2.243-3.014,6.646-2.422,9.979,1.131,6.372,2.279,12.809,2.87,19.256.263,2.856.974,8.669,1.187,11.528.208,2.774,1.085,4.3,3.924,5.77,2.158,1.113,3.762.229,6.113.292a118.375,118.375,0,0,0,17.806-1.224c.25-.03,9.5,6.208,6.454,1.619l3.307-31.04s1.475-7.645-5.451-10.189a55.7,55.7,0,0,0-10.212-4.858s-9.289.236-13.692-2.339" transform="translate(-257.239 -643.938)" fill="#ffcd64"/>
      <path id="Trazado_465368" data-name="Trazado 465368" d="M383.3,697.673l.5-1.934s1.188-7.127,1.188-7.128a7.167,7.167,0,0,0-.223-2.935,7.235,7.235,0,0,1-.365-3.008c.682-5.105-2.178-7.642-2.178-7.642-3.328-4.372-10.25-3.762-10.253-3.76-3.59.544-6.726,2.028-8.511,5.3-1.621,2.97-2.5,6.591-1.541,9.907a20.072,20.072,0,0,0,5.785,9.052c1.725,1.649,3.488,1.851,5.745,2.677a23.39,23.39,0,0,0,6.249.921c.876,0,3.314-.341,3.6-1.452" transform="translate(-285.048 -529.245)" fill="#f3906b"/>
      <path id="Trazado_465369" data-name="Trazado 465369" d="M377.9,672.3l-1.1,4.425a2.151,2.151,0,0,0-1.591,2.694l.4,3.655-.994.381c.083-1.463-1.948-1.484-1.948-1.484-1.484-.085-1.737,1.18-1.652,2.4.22,3.163-.931,8.185-3.583,9.069-1.047.349-3.021.713-3.352-.706-.4-1.734-3.689-5.179-3.689-5.179-3.946-3.821-4.936-10.344-3.07-15.327a12.062,12.062,0,0,1,2.833-4.187,15.289,15.289,0,0,1,8.825-3.937s4.5-.549,7.028,1.227a14.628,14.628,0,0,1,3.266,2.987s.958,2.032-1.368,3.984" transform="translate(-281.016 -523.554)" fill="#351709"/>
      <path id="Trazado_465370" data-name="Trazado 465370" d="M426.812,752.022a1.825,1.825,0,0,1-1.154.434,2.677,2.677,0,0,1-2.609-2.588,2.454,2.454,0,0,1,2.149-2.817,2.315,2.315,0,0,1,1.675.639,3.331,3.331,0,0,1,.674,2.683,2.506,2.506,0,0,1-.735,1.649" transform="translate(-333.549 -589.02)" fill="#f3906b"/>
      <path id="Trazado_465371" data-name="Trazado 465371" d="M430.225,751.651c-.129-.779-1.667.071-1.4.5a2.393,2.393,0,0,0,.675.578,1.16,1.16,0,0,1,.543.825c.009.047.026.182-.018.217-.2.156-.917-.568-1.076-.719a1.32,1.32,0,0,1-.272-1.243.793.793,0,0,1,.835-.644c.357,0,.723,0,.729.445,0,.009-.012.084-.017.044" transform="translate(-337.957 -592.263)" fill="#e47a5d"/>
      <path id="Trazado_465372" data-name="Trazado 465372" d="M430.928,757.15c.155-.178.321-.05.5.062a.746.746,0,0,1,.313.445,1.847,1.847,0,0,1-.114,1.322.991.991,0,0,1-.824.508c-.478.016-.647-.4-.69-.8-.012-.107-.038-.365.065-.437s.2.093.283.166a.679.679,0,0,0,.415.126.868.868,0,0,0,.692-.362.5.5,0,0,0,.063-.127c.016.264.006.323-.031.18a.677.677,0,0,0-.1-.18c-.122-.177-.317-.291-.452-.457-.063-.076-.193-.353-.115-.443" transform="translate(-339.116 -596.915)" fill="#e47a5d"/>
      <path id="Trazado_465373" data-name="Trazado 465373" d="M708.368,1086.949c-.608-.9-.076-1.37-1.309-1.41-1.4-.046-2.66-.739-3.612-.712-1.659.046-7.923,1.507-3.719,5.094.978.836,3.779,4.58,5.717,3.471,2.864-1.641,1.89-1.036,3.346-4.6Z" transform="translate(-550.584 -855.345)" fill="#f39672"/>
      <path id="Trazado_465374" data-name="Trazado 465374" d="M465.349,864.812a7.352,7.352,0,1,0,10.158-2.212,7.353,7.353,0,0,0-10.158,2.212" transform="translate(-365.99 -679.208)" fill="#f39672"/>
      <path id="Trazado_465375" data-name="Trazado 465375" d="M378.456,995.473c.954,10.025,1.571,34.576,1.571,34.576-3.558,9.495-37.5,1.481-37.694-.683-.237-2.591.459-20.836.983-31.505a40.917,40.917,0,0,1,35.14-2.388" transform="translate(-269.879 -782.622)" fill="#ffcd64"/>
      <path id="Trazado_465376" data-name="Trazado 465376" d="M458.317,846.791c8.939,2.516,10.05,13.334,10.05,13.334l4.036,17.767s-10.156,8.055-16.347,5.788A131.892,131.892,0,0,1,449.43,856.9s.064-9.819,8.887-10.11" transform="translate(-354.359 -667.663)" fill="#ffcd64"/>
      <path id="Trazado_465377" data-name="Trazado 465377" d="M368.206,659.551c-1.01.814-2.3.28-3.45.012-1.574,1.848.31,3.692-2.075,4.588a26.429,26.429,0,0,1-4.529.835c-1.118.18-2.247-.078-3.046.756-.865.9-.046,3.717-1.068,4.255-1.787.943-3.188-3.947-5.466-3.559-1.943.33-2.287,3.413-1.606,4.929a2.388,2.388,0,0,0-.509-.345c-.926-2.414-2.109-2.457-3.13-4.174-1.583-2.662-1.316-2.026-1.631-4.582,0-.023.312-1.119.316-1.134.743-2.72,2.015-3.183,2.626-4.338a22.909,22.909,0,0,1,2.464-3.146c.762-.99,1.144-2.322,2.019-3.206a9.453,9.453,0,0,1,5.329-2.256c1.967-.259,3.838.962,5.786.62.8-.141,1.548-.866,2.35-.821.978.055,1.655,1.026,2.5,1.406,1.572.707,4.049.421,5.391,1.528,1.485,1.223,1.165,2.99.251,4.488-.513.84-1.552,1.323-2.014,2.194-.128.241-.476,1.925-.508,1.95" transform="translate(-269.414 -510.91)" fill="#351709"/>
      <path id="Trazado_465378" data-name="Trazado 465378" d="M1718.236,666.8a276.589,276.589,0,0,0-14.585,30.315s.119,3.056,2.37,2.112,20.415-26.672,20.434-29.014c.047-6.02-8.218-3.413-8.218-3.413" transform="translate(-1343.265 -525.307)" fill="#f39672"/>
      <path id="Trazado_465379" data-name="Trazado 465379" d="M1666.492,808.852l1.962-.667s-3.323,2.045-4.85,1.234c0,0-.355-.094-.023-.656a28.78,28.78,0,0,0,4.438-1.936,21.054,21.054,0,0,1-5.241,2.212s-1.061-.306-.274-1.125c-.8-.055-.336-.718-.336-.718a13.061,13.061,0,0,1,1.894-1.5,53.455,53.455,0,0,0,4.333-3.447s-2.506-.719-2.066-2.059l3.738.7,3.487.969,1,1.849-2.374,3.039a19.778,19.778,0,0,1-4.22,2.666s-4.829,1.31-1.463-.563" transform="translate(-1310.451 -630.924)" fill="#f39672"/>
      <g id="Grupo_715304" data-name="Grupo 715304" transform="translate(211.692 211.051)" style="isolation: isolate">
        <g id="Grupo_715303" data-name="Grupo 715303">
          <g id="Grupo_715302" data-name="Grupo 715302" clip-path="url(#clip-path-2)">
            <path id="Trazado_465380" data-name="Trazado 465380" d="M1294.437,1054.237a2.078,2.078,0,0,1,1.05-1.716,3.608,3.608,0,0,1,.354-.209c.038-.021.079-.039.119-.058.088-.042.178-.084.271-.123.023-.009.045-.021.069-.03s.043-.014.063-.022c.149-.057.3-.11.458-.156l.008,0s0,0,0,0c.16-.046.325-.088.493-.125.02-.005.039-.012.059-.016l.075-.014q.294-.064.6-.116l.019,0,.065-.01c.2-.032.409-.062.617-.09.027,0,.054-.008.082-.01.224-.03.45-.055.677-.081l.039-.005.153-.018c.153-.017.3-.033.457-.052.213-.024.424-.05.634-.077l.127-.015c.21-.028.416-.058.62-.091.109-.017.217-.035.323-.054.219-.041.439-.087.658-.135l.123-.027q.237-.052.47-.112l.015,0c.158-.04.315-.083.47-.129l.144-.042c.107-.032.214-.066.319-.1l.156-.053c.105-.036.208-.074.31-.113.043-.015.087-.031.128-.047.135-.054.266-.11.392-.167a11.049,11.049,0,0,0,1.74-1.134l-.127,14.5a11.019,11.019,0,0,1-1.74,1.134c-.127.058-.259.114-.395.168l-.029.013c-.029.01-.06.021-.089.032-.1.04-.211.079-.321.116l-.151.052c-.1.034-.212.068-.32.1l-.1.031a.466.466,0,0,1-.05.013c-.154.045-.309.088-.466.129l-.02,0c-.153.04-.309.076-.465.112l-.052.011c-.026.006-.051.01-.076.015-.219.048-.437.093-.655.133-.089.017-.179.032-.27.048-.018,0-.039.005-.057.009q-.3.049-.613.089l-.139.018c-.2.026-.407.051-.613.075h-.019l-.435.05-.218.024c-.224.026-.447.052-.669.081l-.08.01c-.208.027-.415.057-.619.09l-.083.012c-.206.035-.406.074-.6.116-.043.009-.086.018-.129.028-.169.039-.336.08-.5.127h0q-.239.071-.464.159l-.131.051c-.094.039-.183.079-.272.123l-.118.056c-.123.066-.242.134-.355.209a2.08,2.08,0,0,0-1.049,1.716Z" transform="translate(-1232.207 -1038.211)" fill="#003c74"/>
            <path id="Trazado_465381" data-name="Trazado 465381" d="M1026.912,1081.757c-.006-.027-.011-.055-.017-.083s-.011-.05-.016-.075c0-.009,0-.017,0-.026-.006-.039-.01-.077-.014-.115s-.007-.058-.01-.087,0-.081-.005-.122c0-.023,0-.045,0-.07v-.028l.128-14.5c0,.033,0,.066,0,.1s0,.081,0,.121.007.058.01.086.008.076.014.115.012.067.019.1.011.055.018.084.018.068.028.1.015.053.023.079.01.027.015.041a2.421,2.421,0,0,0,.124.293.014.014,0,0,1,0,.007,2.5,2.5,0,0,0,.16.265c.009.014.018.028.029.042a2.811,2.811,0,0,0,.2.243c.02.022.04.044.062.066l.068.07.083.077.077.068.074.061c.045.036.091.071.139.105.024.018.049.036.075.053.054.038.11.073.167.108.022.014.042.027.065.04.051.031.1.06.159.089l.073.04c.08.04.162.08.249.118.165.07.336.131.511.188.059.018.12.032.18.05.12.035.239.07.362.1.032.008.066.015.1.021q.208.049.422.085l.173.028c.133.022.269.041.4.058.045.007.089.012.134.017q.265.031.537.053c.113.009.228.016.343.022.1.007.193.013.29.018.117.007.236.009.354.014.1,0,.189.008.285.01.227.007.454.01.683.013h.018c.269,0,.538.007.807.009l.514.007.254,0,.437.009.111,0c.064,0,.127.005.19.006l.331.013.308.017.318.02.107.008v0c.119.009.236.021.352.033l.072.007c.153.016.3.035.452.056l.053.01c.222.032.44.071.653.117l.02,0,.021.005.029.008.046.013.038.012.061.019.046.014.076.024.048.015.091.03.055.018.1.033.059.021.111.037.063.022.113.04.074.026.107.039.089.032.1.038.094.035.108.04c.031.013.063.024.1.036l.108.042.1.038c.036.013.072.028.108.041l.1.039.108.044.094.039.114.047.083.035c.064.027.127.054.188.083.091.04.178.08.26.12l-.128,14.5-.259-.12-.19-.082-.063-.026-.134-.057-.077-.031-.125-.051-.087-.035-.117-.046-.091-.035-.115-.044-.094-.036c-.037-.013-.073-.027-.109-.041l-.092-.034-.109-.04-.086-.031-.105-.037-.094-.034-.088-.031-.092-.032-.083-.028-.082-.029-.079-.026-.072-.024-.074-.024-.064-.021-.062-.02-.057-.017a.4.4,0,0,0-.051-.015l-.044-.013-.042-.013-.031-.008-.041-.01c-.213-.048-.432-.085-.655-.119-.165-.024-.331-.048-.5-.066l-.086-.008c-.148-.015-.3-.028-.45-.04l-.315-.021-.311-.016-.324-.013c-.1,0-.206-.006-.31-.01l-.424-.008-.266-.005-.509-.005c-.221,0-.444,0-.665-.008h-.168q-.338,0-.674-.014h-.033c-.094,0-.186-.008-.278-.01l-.333-.013c-.1-.005-.2-.013-.3-.02l-.331-.02-.037,0q-.255-.021-.5-.05l-.126-.015c-.084-.011-.168-.021-.251-.032v0c-.054-.008-.107-.018-.16-.027l-.17-.029c-.143-.024-.284-.054-.423-.085l-.1-.021-.028-.006c-.116-.029-.226-.062-.338-.094-.058-.017-.118-.031-.175-.049-.176-.057-.346-.119-.512-.188-.086-.038-.168-.079-.248-.119l-.082-.045c-.051-.027-.1-.054-.148-.082l-.019-.01-.053-.035c-.055-.033-.108-.068-.16-.1-.027-.018-.052-.037-.078-.056-.047-.034-.093-.068-.136-.1-.014-.012-.03-.022-.045-.034v0l-.032-.028-.074-.065c-.029-.027-.058-.053-.085-.08s-.046-.045-.068-.068l-.044-.044a.23.23,0,0,0-.017-.022,2.816,2.816,0,0,1-.2-.245c0-.005-.009-.01-.012-.016s-.01-.018-.016-.026a2.785,2.785,0,0,1-.161-.265v0a.01.01,0,0,1,0-.006,2.282,2.282,0,0,1-.122-.288c0-.009-.008-.016-.011-.026v0l-.006-.019c-.008-.024-.015-.05-.023-.077s-.02-.068-.029-.1" transform="translate(-1021.32 -1052.065)" fill="#003c74"/>
            <path id="Trazado_465382" data-name="Trazado 465382" d="M1000.855,1152.863l-.128,14.5,62.353,26.237.127-14.5Z" transform="translate(-1000.728 -1120.04)" fill="#004b8f"/>
            <path id="Trazado_465383" data-name="Trazado 465383" d="M1295.615,1154.558l-.127,14.5,48.641-32.822.127-14.5Z" transform="translate(-1233.135 -1095.498)" fill="#003c74"/>
            <path id="Trazado_465384" data-name="Trazado 465384" d="M1112.323,1023.942l-25.8-10.854a12.4,12.4,0,0,0-2.015,1.531c-1.206,1.587.349,3.754-1.673,5.118-2.49,1.68-8.617,1.313-13.685-.819q-.215-.09-.421-.183c-4.761-2.123-6.668-5.089-4.249-6.721,1.547-1.045,4.216-.978,6.386-1.378a14.171,14.171,0,0,0,3.187-.929,11.082,11.082,0,0,0,1.74-1.134L1049.97,997.7l-20.146,13.6c-.417-.141-.865-.326-1.247-.5-.455-.2-.814-.384-.907-.442a5.888,5.888,0,0,1-1.787-1.7c-.767-1.14-.691-2.529-2.574-3.369-3.288-1.385-9.08-.31-13.035,2.358-3.91,2.638-4.557,5.847-1.485,7.217,2.7,1.138,6.756.335,9.756,1a23.776,23.776,0,0,1,2.648.97c.091.04.178.08.26.12l-20.124,13.577,62.352,26.237Z" transform="translate(-1001.203 -997.704)" fill="#005b9c"/>
          </g>
        </g>
      </g>
      <path id="Trazado_465385" data-name="Trazado 465385" d="M1430.828,1777.813c0,8.753-15.945,15.846-35.615,15.846s-35.614-7.093-35.614-15.846,15.945-15.846,35.614-15.846,35.615,7.095,35.615,15.846" transform="translate(-1071.993 -1389.245)" fill="#98a7d3"/>
      <path id="Trazado_465386" data-name="Trazado 465386" d="M1431.8,1822.164s-3.778-.691-2.715,2.392c0,0,8.82,3.788,14.98,2.933,0,0,4.329-.145,3.65-4.843l.072-3.817-5.807,1.1.33,3.627Z" transform="translate(-1126.635 -1434.079)" fill="#e28262"/>
      <path id="Trazado_465387" data-name="Trazado 465387" d="M1427.476,1833.5a2.444,2.444,0,0,1-.579,1.637c-1.52,1.752-4.508,1.805-6.611,1.671a71.114,71.114,0,0,1-10.061-1.407c-.72-.152-.919-.388-.928-.6a2.937,2.937,0,0,1,2.264-1.785l-3.216-.411c-2.968-.106-4.315.575-5.008,1.023-.821,2.349,3.178,3.915,3.178,3.915a65.055,65.055,0,0,0,9.365,2.614s11.289,2.663,12.653-.81Z" transform="translate(-1106.391 -1444.933)" fill="#411423"/>
      <path id="Trazado_465388" data-name="Trazado 465388" d="M1537.822,1797.359s-3.778-.691-2.714,2.391c0,0,8.819,3.787,14.979,2.935,0,0,4.329-.146,3.65-4.843l.072-3.817-5.808,1.1.33,3.628Z" transform="translate(-1210.226 -1414.521)" fill="#e28262"/>
      <path id="Trazado_465389" data-name="Trazado 465389" d="M1533.494,1808.7a2.435,2.435,0,0,1-.579,1.636c-1.521,1.753-4.508,1.806-6.611,1.672a71.34,71.34,0,0,1-10.06-1.407c-.72-.152-.919-.388-.928-.6a2.937,2.937,0,0,1,2.264-1.786l-3.216-.411c-2.968-.106-4.315.574-5.007,1.023-.821,2.347,3.178,3.914,3.178,3.914a65.113,65.113,0,0,0,9.364,2.615s11.29,2.662,12.654-.81Z" transform="translate(-1189.982 -1425.375)" fill="#411423"/>
      <path id="Trazado_465390" data-name="Trazado 465390" d="M1543.7,1287.681a10.78,10.78,0,1,0,10.781-10.781,10.782,10.782,0,0,0-10.781,10.781" transform="translate(-1217.147 -1006.788)" fill="#003273"/>
      <path id="Trazado_465391" data-name="Trazado 465391" d="M1561.008,1374.261s-.15,2.71-5.019,2.777c0,0-4.608,1.572-6.6-4.429-7.841-23.632-5.768-48.294-5.768-48.294s11.07-6.166,21.381-1.949c0,0-1.667,31.021-4,51.9" transform="translate(-1216.893 -1041.473)" fill="#003273"/>
      <path id="Trazado_465392" data-name="Trazado 465392" d="M1571.814,1565.377s3.8,51.077,4.152,52.9a6.335,6.335,0,0,0,6.979-.064c-.019-2.506,2.711-23.392,2.994-27.314.484-6.741,1.295-15.259-2.966-24.946Z" transform="translate(-1239.316 -1234.241)" fill="#003273"/>
      <path id="Trazado_465393" data-name="Trazado 465393" d="M1440.209,1371.185s-1.039,2.507-5.655.956c0,0-4.869-.043-4.758-6.363.431-24.9,11.341-50.7,11.341-50.7s12.287-1.174,20.619,6.221c0,0-12.434,30.958-21.547,49.883" transform="translate(-1127.338 -1036.838)" fill="#003d8d"/>
      <path id="Trazado_465394" data-name="Trazado 465394" d="M1482.437,1284.1a10.78,10.78,0,1,0,13.743-6.6,10.78,10.78,0,0,0-13.743,6.6" transform="translate(-1168.364 -1006.78)" fill="#003d8d"/>
      <path id="Trazado_465395" data-name="Trazado 465395" d="M1517.025,1245.215c-1.3-11.988-7.317-17.552-7.317-17.552l-20.838-2.632s-5.745,10-6.345,20.184c2.49,6.795,11.369,8.775,11.369,8.775l6.742,2s15.278-2.322,16.39-10.775" transform="translate(-1168.915 -965.891)" fill="#003d8d"/>
      <path id="Trazado_465396" data-name="Trazado 465396" d="M1432.8,1558.8s10.336,53.656,10.957,55.408c-.272-.132,4.885,2.37,7.169-.86-.389-2.475-.607-29.729-.908-33.65-.518-6.74-.447-13.029-6.094-21.979,0,0-14.112-10.1-11.124,1.08" transform="translate(-1129.384 -1224.907)" fill="#003d8d"/>
      <path id="Trazado_465397" data-name="Trazado 465397" d="M1610.619,1134.312s-3.8,4.471-11.346,15.262l1.3,2.212s12.932-6.513,17.057-13.826Z" transform="translate(-1260.967 -894.362)" fill="#e28262"/>
      <path id="Trazado_465398" data-name="Trazado 465398" d="M1593.347,1011.016s9.734,21.241,15.581,20.434c0,0,2.017.126,2.422-1.394,0,0,4.128-3.661-13.039-30.074a5.292,5.292,0,0,0-5.114-1.664s-5.214,3.445.15,12.7" transform="translate(-1254.383 -787.06)" fill="#e28262"/>
      <rect id="Rect치ngulo_268070" data-name="Rect치ngulo 268070" width="10.523" height="11.184" transform="translate(323.221 207.329)" fill="#f5ae80"/>
      <path id="Trazado_465399" data-name="Trazado 465399" d="M1492.676,893.492l-.4-1.788s-.788-6.549-.788-6.55a5.969,5.969,0,0,1,.39-2.66,6.048,6.048,0,0,0,.536-2.721,7.673,7.673,0,0,1,2.622-6.846c3.591-3.811,10.511-2.9,10.513-2.9,3.576.68,6.641,2.193,8.251,5.266,1.46,2.786,2.138,6.13.986,9.1a18.481,18.481,0,0,1-6.324,7.944c-1.827,1.413-3.609,1.507-5.924,2.143a25.852,25.852,0,0,1-6.33.517c-.88-.041-3.309-.479-3.536-1.506" transform="translate(-1175.965 -685.91)" fill="#f39672"/>
      <path id="Trazado_465400" data-name="Trazado 465400" d="M1500.943,881.635c.519-.737,2.41-1.192,2.411-1.192,2.284,0,1.986,3.049,2.2,4.37.07.431.153.872.251,1.312,1.088,3.876,4.346,3.843,7.131,4.312.1-.061.212-.122.325-.184a11.145,11.145,0,0,1,2.107-3.5c4.182-3.615,5.546-10.112,3.954-15.225a12.116,12.116,0,0,0-2.609-4.365,15.39,15.39,0,0,0-8.642-4.456c-3.238-.609-14.82.961-11.659,7.995,0,0,4.765,5.5,4.529,10.938" transform="translate(-1179.44 -680.114)" fill="#2c130d"/>
      <path id="Trazado_465401" data-name="Trazado 465401" d="M1519.842,946.73a2.192,2.192,0,0,1,2.579-1.509,1.724,1.724,0,0,1,1.26,1.859c-.017.188-.058.374-.077.562a3.959,3.959,0,0,1-2.447,2.771" transform="translate(-1198.339 -745.209)" fill="#f7ae80"/>
      <path id="Trazado_465402" data-name="Trazado 465402" d="M1524.731,949.482a1.162,1.162,0,0,0-.509-.138c-.767-.049-1.385,1.134-.618,1.345a.436.436,0,0,1-.01.607c-.264.287-.619.7-.539,1.1.049.24.315.368.556.427.193.048.23-.1.078-.175a.863.863,0,0,1-.293-.24c-.007-.014-.015-.027-.023-.041a.107.107,0,0,1-.018-.031.257.257,0,0,1-.008-.175.474.474,0,0,0,.6-.007c.146-.175.035-.449.084-.649a1.525,1.525,0,0,1,.178-.4.409.409,0,0,0-.282-.685,1.73,1.73,0,0,0-.233.017c-.322-.167.037-.65.233-.727a.618.618,0,0,1,.669.117.952.952,0,0,1,.213.677,2.238,2.238,0,0,1-.209.811c-.07.145-.158.314-.228.46-.08.163.112.237.191.071a4.818,4.818,0,0,0,.548-1.336,1.015,1.015,0,0,0-.375-1.037" transform="translate(-1200.862 -748.521)" fill="#dc9471"/>
      <path id="Trazado_465403" data-name="Trazado 465403" d="M1519.842,945.938s.092-.131.242-.369a3.082,3.082,0,0,1,.318-.367,2.5,2.5,0,0,1,.485-.377,2.019,2.019,0,0,1,.656-.237,1.693,1.693,0,0,1,.749.052,2.029,2.029,0,0,1,.38.161,1.777,1.777,0,0,1,.3.232,1.447,1.447,0,0,1,.4.681,2.054,2.054,0,0,1,.012.847l-.028.231,0,.03v0c0-.014-.006.034,0-.028v.006l0,.014-.011.057-.023.113a2.575,2.575,0,0,1-.109.406,3.273,3.273,0,0,1-.357.71,4.2,4.2,0,0,1-.46.571,5.154,5.154,0,0,1-.866.719c-.23.152-.372.229-.372.229a2.685,2.685,0,0,0,.419-.138,4.359,4.359,0,0,0,1.022-.585,3.486,3.486,0,0,0,.574-.561,3.011,3.011,0,0,0,.475-.782,2.921,2.921,0,0,0,.154-.46l.029-.111.014-.056,0-.015.007-.045.006-.03.034-.231a2.523,2.523,0,0,0-.01-1.03,1.98,1.98,0,0,0-.563-.919,2.624,2.624,0,0,0-.208-.169l-.242-.135a2.152,2.152,0,0,0-.463-.164,1.926,1.926,0,0,0-.948.013,2.087,2.087,0,0,0-.744.372,2.138,2.138,0,0,0-.464.5,3.277,3.277,0,0,0-.26.447c-.1.26-.149.413-.149.413" transform="translate(-1198.339 -744.417)" fill="#dc9471"/>
      <path id="Trazado_465404" data-name="Trazado 465404" d="M1521.307,965.364a.638.638,0,1,1-.638-.638.638.638,0,0,1,.638.638" transform="translate(-1198.487 -760.65)" fill="#fff"/>
      <path id="Trazado_465405" data-name="Trazado 465405" d="M1520.822,965.7a.5.5,0,0,1-.5-.505.5.5,0,0,1,.351-.473.637.637,0,1,0,.638.638c0-.016,0-.031,0-.045a.5.5,0,0,1-.48.385" transform="translate(-1198.487 -760.65)" fill="#e8e8e8"/>
      <path id="Trazado_465406" data-name="Trazado 465406" d="M1504.278,1053.9c-.04-.059-11.616-16.668-11.616-16.668-.542-2.45.679-7.324.679-7.324l3.713-25.543c-.44-2.927-.643-6.644-4.6-5.979a24.533,24.533,0,0,0-5.069,1.413c.5,2.372-3.589,3.9-3.589,3.9-5.632,2.433-6.934.83-6.934.83-1.5.811-6.568,3.343-7.883,4.425-1.367,1.125-2.194,2.876-1.764,5.823l4.054,24.21-.713,6.014-7.4,18.773a15.92,15.92,0,0,1,7.214-.862c2.3.276,4.287,1.633,6.573,1.887,3.455.38,6.02-.867,8.627-2.52a41.6,41.6,0,0,0,9.986-3.509h.217c2.584.014,5.511-.031,7.418-2.054.4-.426,1.584-2.109,1.1-2.811" transform="translate(-1153.636 -787.125)" fill="#411423"/>
      <path id="Trazado_465407" data-name="Trazado 465407" d="M1468.07,1087.2l.068-29.409c.716-8.058,4.718-9.345,4.718-9.345,8.089-.948,6.843,14.042,6.843,14.042l-3.377,25.336" transform="translate(-1157.518 -826.629)" fill="#f39672"/>
      <path id="Trazado_465408" data-name="Trazado 465408" d="M1312.473,1280.756c3.711-1.986,4.043-2.627,4.7-3.561,2.821-4.007-2.882-3.882-4.317-3.556-.824.189-.875,2.148-3.43,4.539,0,0-4.016,2.331-5.006,2.166,0,0-1.03.147-1.03.889,0,0,2.82,1.667,9.086-.477" transform="translate(-1027.672 -1004.102)" fill="#f39672"/>
      <path id="Trazado_465409" data-name="Trazado 465409" d="M1375.513,1213.412l-25.19,13.787c-1.088,3.031.311,3.467.311,3.467l19.5-5.61c8.324-2.229,11.625-5.724,11.625-5.724s3.64-2.522-1.006-6.278c0,0-2.116-1.673-5.243.358" transform="translate(-1064.352 -955.936)" fill="#f39672"/>
      <path id="Trazado_465410" data-name="Trazado 465410" d="M1505.785,881.159c.653,4.877-.083,11.333,2.347,16.664,1.082,2.373,2.275,3.549,1.626,6.3-.531,2.253-1.6,4.379-2.174,6.712-1.277,5.15.458,10.18,6.459,8.316,2.877-.894,3.2-.88,5.82.137a7.615,7.615,0,0,0,6.457.026c3.393-1.653,2.371-4.15,4.272-6.651,1.448-1.907,3.5-1.859,4.588-4.42,1.317-3.092-.252-4.742-1.857-7.365-1.671-2.733-1.938-4.532-1.388-7.828.462-2.769-.222-4.167-1.138-6.713-.94-2.608-.53-4.88-.975-7.5-.881-5.171-3.707-12.19-9.124-13.708-2.655-.743-6.086-1.324-8.641-.386-3.479,1.275-7.354,2.635-7.2,6.914a70.712,70.712,0,0,0,.931,9.5" transform="translate(-1186.517 -681.439)" fill="#2c130d"/>
      <path id="Trazado_465411" data-name="Trazado 465411" d="M1332.89,1267.324s.708,2.065-1.864,1.559l-2.516-1.917a.989.989,0,0,1-.5-1.165s.3-.427,1.1,0Z" transform="translate(-1047.036 -997.886)" fill="#f39672"/>
      <path id="Trazado_465412" data-name="Trazado 465412" d="M1556.777,151.519a8.7,8.7,0,1,1-8.7-8.7,8.7,8.7,0,0,1,8.7,8.7" transform="translate(-1213.745 -112.61)" fill="#82b972"/>
      <path id="Trazado_465413" data-name="Trazado 465413" d="M274.584,1879.365a8.7,8.7,0,1,1-8.7-8.7,8.7,8.7,0,0,1,8.7,8.7" transform="translate(-202.784 -1474.952)" fill="#82b972"/>
      <path id="Trazado_465414" data-name="Trazado 465414" d="M251.9,473.631a6.225,6.225,0,1,1-6.225-6.223,6.225,6.225,0,0,1,6.225,6.223" transform="translate(-188.797 -368.534)" fill="#e77aab"/>
      <path id="Trazado_465415" data-name="Trazado 465415" d="M1947.325,694.527a6.225,6.225,0,1,1-6.225-6.225,6.225,6.225,0,0,1,6.225,6.225" transform="translate(-1525.576 -542.7)" fill="#e77aab"/>
      <path id="Trazado_465416" data-name="Trazado 465416" d="M1133.374,410.7a6.225,6.225,0,1,1-6.225-6.225,6.227,6.227,0,0,1,6.225,6.225" transform="translate(-883.806 -318.913)" fill="#93c0e9"/>
      <path id="Trazado_465417" data-name="Trazado 465417" d="M128,1092.039a6.225,6.225,0,1,1-6.225-6.225,6.224,6.224,0,0,1,6.225,6.225" transform="translate(-91.107 -856.123)" fill="#a4dbf7"/>
      <path id="Trazado_465418" data-name="Trazado 465418" d="M1970.9,1285.564a6.225,6.225,0,1,1-6.225-6.225,6.224,6.224,0,0,1,6.225,6.225" transform="translate(-1544.162 -1008.711)" fill="#a4dbf7"/>
      <path id="Trazado_465419" data-name="Trazado 465419" d="M912.593,103.011a6.224,6.224,0,1,1-6.224-6.224,6.225,6.225,0,0,1,6.224,6.224" transform="translate(-709.73 -76.313)" fill="#ffcd64"/>
      <path id="Trazado_465420" data-name="Trazado 465420" d="M1834.906,1742.032a6.224,6.224,0,1,1-6.225-6.224,6.225,6.225,0,0,1,6.225,6.224" transform="translate(-1436.939 -1368.619)" fill="#ffcd64"/>
      <line id="L칤nea_180" data-name="L칤nea 180" x2="19.517" transform="translate(14.575 284.469)" fill="none" stroke="#5893cf" stroke-miterlimit="10" stroke-width="12.473"/>
      <line id="L칤nea_181" data-name="L칤nea 181" x2="9.76" transform="translate(37.001 284.469)" fill="none" stroke="#5893cf" stroke-miterlimit="10" stroke-width="12.473"/>
      <line id="L칤nea_182" data-name="L칤nea 182" x2="22.735" transform="translate(392.789 326.122)" fill="none" stroke="#5893cf" stroke-miterlimit="10" stroke-width="13.462"/>
      <line id="L칤nea_183" data-name="L칤nea 183" x2="11.368" transform="translate(418.915 326.122)" fill="none" stroke="#5893cf" stroke-miterlimit="10" stroke-width="13.462"/>
      <line id="L칤nea_184" data-name="L칤nea 184" x1="19.519" transform="translate(189.974 400.219)" fill="none" stroke="#5893cf" stroke-miterlimit="10" stroke-width="12.473"/>
      <line id="L칤nea_185" data-name="L칤nea 185" x1="9.759" transform="translate(177.308 400.219)" fill="none" stroke="#5893cf" stroke-miterlimit="10" stroke-width="12.473"/>
      <line id="L칤nea_186" data-name="L칤nea 186" x2="8.189" transform="translate(374.363 62.571)" fill="none" stroke="#5893cf" stroke-miterlimit="10" stroke-width="12.473"/>
      <line id="L칤nea_187" data-name="L칤nea 187" x2="7.08" transform="translate(384.663 62.571)" fill="none" stroke="#5893cf" stroke-miterlimit="10" stroke-width="12.473"/>
      <line id="L칤nea_188" data-name="L칤nea 188" x2="7.079" transform="translate(364.855 62.571)" fill="none" stroke="#5893cf" stroke-miterlimit="10" stroke-width="12.473"/>
      <line id="L칤nea_189" data-name="L칤nea 189" x2="28.76" transform="translate(401.144 200.301)" fill="none" stroke="#5893cf" stroke-miterlimit="10" stroke-width="12.473"/>
      <line id="L칤nea_190" data-name="L칤nea 190" x2="2.721" y2="2.721" transform="translate(251.841 54.23)" fill="none" stroke="#5893cf" stroke-miterlimit="10" stroke-width="12.473"/>
      <line id="L칤nea_191" data-name="L칤nea 191" x2="2.721" y2="2.721" transform="translate(256.481 58.871)" fill="none" stroke="#5893cf" stroke-miterlimit="10" stroke-width="12.473"/>
      <line id="L칤nea_192" data-name="L칤nea 192" x1="2.721" y2="2.721" transform="translate(256.481 54.23)" fill="none" stroke="#5893cf" stroke-miterlimit="10" stroke-width="12.473"/>
      <line id="L칤nea_193" data-name="L칤nea 193" x1="2.721" y2="2.721" transform="translate(251.841 58.871)" fill="none" stroke="#5893cf" stroke-miterlimit="10" stroke-width="12.473"/>
      <line id="L칤nea_194" data-name="L칤nea 194" x2="2.721" y2="2.721" transform="translate(23.307 145.825)" fill="none" stroke="#5893cf" stroke-miterlimit="10" stroke-width="12.473"/>
      <line id="L칤nea_195" data-name="L칤nea 195" x2="2.721" y2="2.721" transform="translate(27.947 150.466)" fill="none" stroke="#5893cf" stroke-miterlimit="10" stroke-width="12.473"/>
      <line id="L칤nea_196" data-name="L칤nea 196" x1="2.721" y2="2.721" transform="translate(27.947 145.825)" fill="none" stroke="#5893cf" stroke-miterlimit="10" stroke-width="12.473"/>
      <line id="L칤nea_197" data-name="L칤nea 197" x1="2.721" y2="2.721" transform="translate(23.307 150.466)" fill="none" stroke="#5893cf" stroke-miterlimit="10" stroke-width="12.473"/>
      <line id="L칤nea_198" data-name="L칤nea 198" x2="2.721" y2="2.721" transform="translate(228.262 315.51)" fill="none" stroke="#5893cf" stroke-miterlimit="10" stroke-width="12.473"/>
      <line id="L칤nea_199" data-name="L칤nea 199" x2="2.721" y2="2.721" transform="translate(232.902 320.151)" fill="none" stroke="#5893cf" stroke-miterlimit="10" stroke-width="12.473"/>
      <line id="L칤nea_200" data-name="L칤nea 200" x1="2.721" y2="2.721" transform="translate(232.903 315.51)" fill="none" stroke="#5893cf" stroke-miterlimit="10" stroke-width="12.473"/>
      <line id="L칤nea_201" data-name="L칤nea 201" x1="2.721" y2="2.721" transform="translate(228.262 320.151)" fill="none" stroke="#5893cf" stroke-miterlimit="10" stroke-width="12.473"/>
      <path id="Trazado_465421" data-name="Trazado 465421" d="M439.367,424.756a3.377,3.377,0,1,1-3.377-3.377A3.377,3.377,0,0,1,439.367,424.756Z" transform="translate(-341.099 -332.242)" fill="none" stroke="#5893cf" stroke-miterlimit="10" stroke-width="12.473"/>
      <path id="Trazado_465422" data-name="Trazado 465422" d="M1492.938,499.653a3.377,3.377,0,1,1-3.377-3.378A3.377,3.377,0,0,1,1492.938,499.653Z" transform="translate(-1171.801 -391.294)" fill="none" stroke="#5893cf" stroke-miterlimit="10" stroke-width="12.473"/>
    </g>
  </g>
</svg>
