<svg xmlns="http://www.w3.org/2000/svg" xmlns:xlink="http://www.w3.org/1999/xlink" width="154" height="142" viewBox="0 0 154 142">
  <defs>
    <clipPath id="clip-path">
      <rect id="Rectángulo_272693" data-name="Rectángulo 272693" width="154" height="142" transform="translate(560.767 2953)" fill="#fff" opacity="0.61"/>
    </clipPath>
    <clipPath id="clip-path-2">
      <rect id="Rectángulo_272692" data-name="Rectángulo 272692" width="260.909" height="153.882" fill="none"/>
    </clipPath>
    <clipPath id="clip-path-3">
      <path id="Trazado_482742" data-name="Trazado 482742" d="M737.344,148.322c-12.955,1.112-24.386,8.551-35.2,15.766-8.285,5.527-17.269,12.061-19.167,21.838-2.712,13.975,10.371,26.393,11.2,40.605.473,8.106-3.089,15.813-5.706,23.5s-4.226,16.566-.183,23.608c3.581,6.237,10.931,9.526,18.1,10.138s14.307-1.036,21.342-2.53,14.286-2.848,21.378-1.655c7.811,1.314,15.009,5.66,22.922,5.988,9.786.406,18.662-5.344,26.573-11.119,10.148-7.409,20.171-15.456,26.94-26.041S835.4,224.2,830.8,212.5c-4.147-10.549-14.085-18.8-15.27-30.068-.413-3.928.148-8.392-2.473-11.347-2.812-3.171-7.756-2.883-11.959-2.338L789.192,170.3c-3.042.395-7.669,1.891-10.7,1.332-4.126-.762-6.908-8.278-9.857-11.287A40.271,40.271,0,0,0,740.274,148.2q-1.464,0-2.93.118" transform="translate(-682.604 -148.204)" fill="none"/>
    </clipPath>
    <clipPath id="clip-path-4">
      <rect id="Rectángulo_272635" data-name="Rectángulo 272635" width="62.566" height="143.391" fill="none"/>
    </clipPath>
    <clipPath id="clip-path-5">
      <rect id="Rectángulo_272636" data-name="Rectángulo 272636" width="65.722" height="138.47" fill="none"/>
    </clipPath>
    <clipPath id="clip-path-6">
      <rect id="Rectángulo_272637" data-name="Rectángulo 272637" width="78.826" height="149.581" fill="none"/>
    </clipPath>
    <clipPath id="clip-path-7">
      <rect id="Rectángulo_272638" data-name="Rectángulo 272638" width="63.648" height="145.572" fill="none"/>
    </clipPath>
    <clipPath id="clip-path-8">
      <rect id="Rectángulo_272639" data-name="Rectángulo 272639" width="65.137" height="145.054" fill="none"/>
    </clipPath>
    <clipPath id="clip-path-9">
      <rect id="Rectángulo_272691" data-name="Rectángulo 272691" width="260.908" height="153.883" fill="none"/>
    </clipPath>
    <clipPath id="clip-path-10">
      <rect id="Rectángulo_272676" data-name="Rectángulo 272676" width="16.234" height="16.568" fill="none"/>
    </clipPath>
    <clipPath id="clip-path-11">
      <rect id="Rectángulo_272677" data-name="Rectángulo 272677" width="16.909" height="17.381" fill="none"/>
    </clipPath>
  </defs>
  <g id="Enmascarar_grupo_726315" data-name="Enmascarar grupo 726315" transform="translate(-560.767 -2953)" clip-path="url(#clip-path)">
    <g id="Grupo_726524" data-name="Grupo 726524" transform="translate(507.859 2944.618)">
      <g id="Grupo_726549" data-name="Grupo 726549" clip-path="url(#clip-path-2)">
        <g id="Grupo_726540" data-name="Grupo 726540" transform="translate(54.258 11.78)">
          <g id="Grupo_726539" data-name="Grupo 726539" clip-path="url(#clip-path-3)">
            <path id="Trazado_482724" data-name="Trazado 482724" d="M0,123.487V267.554H21.978q3-.363,6-.756a29.365,29.365,0,0,1,4.016-.3,21.291,21.291,0,0,1,6.064-2.147,21.384,21.384,0,0,1,10.856-1.095q15.754,0,31.509-.078,28.109-.117,56.218-.177c16.968-.018,33.937-.215,50.9-.454,4.515-.087,9.029-.206,13.545-.218a73.354,73.354,0,0,1,8.7.419,28.528,28.528,0,0,1,12.809,4.8h38.305V123.487Z" transform="translate(-54.258 -125.452)" fill="#f6fafd"/>
            <path id="Trazado_482725" data-name="Trazado 482725" d="M500.421,777.27v-10.13h-22.3v80.666h29.462V777.27Z" transform="translate(-494.377 -717.943)" fill="#d3e4f4"/>
            <path id="Trazado_482726" data-name="Trazado 482726" d="M338.017,777.27v-10.13h-22.3v80.666h29.4V777.27Z" transform="translate(-344.882 -717.943)" fill="#e5eff8"/>
            <rect id="Rectángulo_272492" data-name="Rectángulo 272492" width="14.116" height="1.659" transform="translate(-13.818 108.643)" fill="#fff"/>
            <rect id="Rectángulo_272493" data-name="Rectángulo 272493" width="4.293" height="1.659" transform="translate(-4.043 103.603)" fill="#fff"/>
            <rect id="Rectángulo_272494" data-name="Rectángulo 272494" width="6.263" height="1.659" transform="translate(-5.965 98.528)" fill="#fff"/>
            <rect id="Rectángulo_272495" data-name="Rectángulo 272495" width="5.94" height="1.659" transform="translate(2.967 98.528)" fill="#c5dcef"/>
            <rect id="Rectángulo_272496" data-name="Rectángulo 272496" width="5.647" height="1.659" transform="translate(-5.346 93.219)" fill="#fff"/>
            <rect id="Rectángulo_272497" data-name="Rectángulo 272497" width="5.596" height="1.659" transform="translate(2.139 93.219)" fill="#c5dcef"/>
            <rect id="Rectángulo_272498" data-name="Rectángulo 272498" width="8.068" height="1.659" transform="translate(-7.78 88.173)" fill="#fff"/>
            <rect id="Rectángulo_272499" data-name="Rectángulo 272499" width="7.281" height="1.659" transform="translate(-6.979 83.118)" fill="#fff"/>
            <rect id="Rectángulo_272500" data-name="Rectángulo 272500" width="5.644" height="1.659" transform="translate(-5.394 77.977)" fill="#fff"/>
            <rect id="Rectángulo_272501" data-name="Rectángulo 272501" width="3.287" height="1.659" transform="translate(-3.037 72.883)" fill="#fff"/>
            <rect id="Rectángulo_272502" data-name="Rectángulo 272502" width="7.966" height="1.659" transform="translate(1.587 72.883)" fill="#c5dcef"/>
            <rect id="Rectángulo_272503" data-name="Rectángulo 272503" width="7.423" height="1.659" transform="translate(-7.173 67.771)" fill="#fff"/>
            <rect id="Rectángulo_272504" data-name="Rectángulo 272504" width="5.013" height="1.659" transform="translate(3.23 67.771)" fill="#c5dcef"/>
            <rect id="Rectángulo_272505" data-name="Rectángulo 272505" width="12.125" height="1.659" transform="translate(-11.875 62.533)" fill="#fff"/>
            <rect id="Rectángulo_272506" data-name="Rectángulo 272506" width="10.092" height="1.659" transform="translate(0.25 62.533)" fill="#c5dcef"/>
            <rect id="Rectángulo_272507" data-name="Rectángulo 272507" width="10.077" height="1.659" transform="translate(0.288 83.118)" fill="#c5dcef"/>
            <rect id="Rectángulo_272508" data-name="Rectángulo 272508" width="5.692" height="1.659" transform="translate(-5.394 123.889)" fill="#fff"/>
            <rect id="Rectángulo_272509" data-name="Rectángulo 272509" width="3.335" height="1.659" transform="translate(-3.037 118.795)" fill="#fff"/>
            <rect id="Rectángulo_272510" data-name="Rectángulo 272510" width="7.966" height="1.659" transform="translate(1.587 118.795)" fill="#c5dcef"/>
            <rect id="Rectángulo_272511" data-name="Rectángulo 272511" width="7.47" height="1.659" transform="translate(-7.173 113.683)" fill="#fff"/>
            <rect id="Rectángulo_272512" data-name="Rectángulo 272512" width="5.013" height="1.659" transform="translate(3.23 113.683)" fill="#c5dcef"/>
            <rect id="Rectángulo_272513" data-name="Rectángulo 272513" width="6.027" height="1.659" transform="translate(0.297 108.643)" fill="#c5dcef"/>
            <rect id="Rectángulo_272514" data-name="Rectángulo 272514" width="36.198" height="64.322" transform="translate(11.544 65.545)" fill="#e5eff8"/>
            <rect id="Rectángulo_272515" data-name="Rectángulo 272515" width="10.274" height="64.322" transform="translate(37.468 65.545)" fill="#d3e4f4"/>
            <rect id="Rectángulo_272516" data-name="Rectángulo 272516" width="3.629" height="1.678" transform="translate(11.544 70.568)" fill="#fff"/>
            <rect id="Rectángulo_272517" data-name="Rectángulo 272517" width="11.008" height="1.678" transform="translate(11.544 85.205)" fill="#fff"/>
            <rect id="Rectángulo_272518" data-name="Rectángulo 272518" width="4.74" height="1.678" transform="translate(11.544 90.24)" fill="#fff"/>
            <rect id="Rectángulo_272519" data-name="Rectángulo 272519" width="2.37" height="1.678" transform="translate(11.544 95.388)" fill="#fff"/>
            <rect id="Rectángulo_272520" data-name="Rectángulo 272520" width="7.915" height="1.678" transform="translate(23.519 95.388)" fill="#fff"/>
            <rect id="Rectángulo_272521" data-name="Rectángulo 272521" width="4.294" height="1.678" transform="translate(33.159 95.388)" fill="#fff"/>
            <rect id="Rectángulo_272522" data-name="Rectángulo 272522" width="6.872" height="1.678" transform="translate(18.439 90.24)" fill="#fff"/>
            <rect id="Rectángulo_272523" data-name="Rectángulo 272523" width="4.88" height="1.678" transform="translate(32.626 90.24)" fill="#fff"/>
            <rect id="Rectángulo_272524" data-name="Rectángulo 272524" width="12.947" height="1.678" transform="translate(24.506 85.205)" fill="#fff"/>
            <rect id="Rectángulo_272525" data-name="Rectángulo 272525" width="4.82" height="1.678" transform="translate(38.749 80.336)" fill="#c5dcef"/>
            <rect id="Rectángulo_272526" data-name="Rectángulo 272526" width="5.239" height="1.678" transform="translate(16.39 75.467)" fill="#fff"/>
            <rect id="Rectángulo_272527" data-name="Rectángulo 272527" width="7.469" height="1.678" transform="translate(29.998 75.467)" fill="#fff"/>
            <rect id="Rectángulo_272528" data-name="Rectángulo 272528" width="4.748" height="1.678" transform="translate(40.749 75.467)" fill="#c5dcef"/>
            <rect id="Rectángulo_272529" data-name="Rectángulo 272529" width="4.048" height="1.678" transform="translate(18.416 70.568)" fill="#fff"/>
            <rect id="Rectángulo_272530" data-name="Rectángulo 272530" width="8.906" height="1.678" transform="translate(37.506 70.568)" fill="#c5dcef"/>
            <rect id="Rectángulo_272531" data-name="Rectángulo 272531" width="8.913" height="1.678" transform="translate(37.468 90.24)" fill="#c5dcef"/>
            <rect id="Rectángulo_272532" data-name="Rectángulo 272532" width="3.629" height="1.678" transform="translate(11.544 100.537)" fill="#fff"/>
            <rect id="Rectángulo_272533" data-name="Rectángulo 272533" width="11.008" height="1.678" transform="translate(11.544 115.173)" fill="#fff"/>
            <rect id="Rectángulo_272534" data-name="Rectángulo 272534" width="4.74" height="1.678" transform="translate(11.544 120.208)" fill="#fff"/>
            <rect id="Rectángulo_272535" data-name="Rectángulo 272535" width="2.37" height="1.678" transform="translate(11.544 125.357)" fill="#fff"/>
            <rect id="Rectángulo_272536" data-name="Rectángulo 272536" width="7.915" height="1.678" transform="translate(23.519 125.357)" fill="#fff"/>
            <rect id="Rectángulo_272537" data-name="Rectángulo 272537" width="4.294" height="1.678" transform="translate(33.159 125.357)" fill="#fff"/>
            <rect id="Rectángulo_272538" data-name="Rectángulo 272538" width="6.872" height="1.678" transform="translate(18.439 120.208)" fill="#fff"/>
            <rect id="Rectángulo_272539" data-name="Rectángulo 272539" width="4.88" height="1.678" transform="translate(32.626 120.208)" fill="#fff"/>
            <rect id="Rectángulo_272540" data-name="Rectángulo 272540" width="10.921" height="1.678" transform="translate(26.532 110.304)" fill="#fff"/>
            <rect id="Rectángulo_272541" data-name="Rectángulo 272541" width="4.82" height="1.678" transform="translate(38.749 110.304)" fill="#c5dcef"/>
            <rect id="Rectángulo_272542" data-name="Rectángulo 272542" width="5.239" height="1.678" transform="translate(16.39 105.436)" fill="#fff"/>
            <rect id="Rectángulo_272543" data-name="Rectángulo 272543" width="7.469" height="1.678" transform="translate(29.998 105.436)" fill="#fff"/>
            <rect id="Rectángulo_272544" data-name="Rectángulo 272544" width="4.748" height="1.678" transform="translate(40.749 105.436)" fill="#c5dcef"/>
            <rect id="Rectángulo_272545" data-name="Rectángulo 272545" width="4.048" height="1.678" transform="translate(18.416 100.537)" fill="#fff"/>
            <rect id="Rectángulo_272546" data-name="Rectángulo 272546" width="8.906" height="1.678" transform="translate(37.506 100.537)" fill="#c5dcef"/>
            <rect id="Rectángulo_272547" data-name="Rectángulo 272547" width="8.913" height="1.678" transform="translate(37.468 120.208)" fill="#c5dcef"/>
            <path id="Trazado_482727" data-name="Trazado 482727" d="M1516.522,511.128V498.28h-28.227V600.317h37.245v-89.19Z" transform="translate(-1424.253 -470.454)" fill="#d3e4f4"/>
            <path id="Trazado_482728" data-name="Trazado 482728" d="M1311.379,508.407V495.532h-28.227V597.788H1320.4V508.407Z" transform="translate(-1235.417 -467.924)" fill="#e5eff8"/>
            <rect id="Rectángulo_272548" data-name="Rectángulo 272548" width="15.642" height="2.098" transform="translate(47.742 44.724)" fill="#fff"/>
            <rect id="Rectángulo_272549" data-name="Rectángulo 272549" width="5.829" height="2.098" transform="translate(47.742 51.347)" fill="#fff"/>
            <rect id="Rectángulo_272550" data-name="Rectángulo 272550" width="3.493" height="2.098" transform="translate(47.742 57.811)" fill="#fff"/>
            <rect id="Rectángulo_272551" data-name="Rectángulo 272551" width="9.186" height="2.098" transform="translate(47.742 64.252)" fill="#fff"/>
            <rect id="Rectángulo_272552" data-name="Rectángulo 272552" width="2.661" height="2.098" transform="translate(47.742 70.754)" fill="#fff"/>
            <rect id="Rectángulo_272553" data-name="Rectángulo 272553" width="13.321" height="2.098" transform="translate(47.742 77.146)" fill="#fff"/>
            <rect id="Rectángulo_272554" data-name="Rectángulo 272554" width="7.409" height="2.098" transform="translate(47.742 83.526)" fill="#fff"/>
            <rect id="Rectángulo_272555" data-name="Rectángulo 272555" width="2.88" height="2.098" transform="translate(47.742 90.24)" fill="#fff"/>
            <rect id="Rectángulo_272556" data-name="Rectángulo 272556" width="15.014" height="2.098" transform="translate(47.742 96.656)" fill="#fff"/>
            <rect id="Rectángulo_272557" data-name="Rectángulo 272557" width="17.849" height="2.098" transform="translate(67.179 103.03)" fill="#fff"/>
            <rect id="Rectángulo_272558" data-name="Rectángulo 272558" width="7.507" height="2.098" transform="translate(66.816 96.656)" fill="#fff"/>
            <rect id="Rectángulo_272559" data-name="Rectángulo 272559" width="5.428" height="2.098" transform="translate(79.54 96.656)" fill="#fff"/>
            <rect id="Rectángulo_272560" data-name="Rectángulo 272560" width="5.251" height="2.098" transform="translate(54.467 90.24)" fill="#fff"/>
            <rect id="Rectángulo_272561" data-name="Rectángulo 272561" width="7.919" height="2.098" transform="translate(77.11 90.24)" fill="#fff"/>
            <rect id="Rectángulo_272562" data-name="Rectángulo 272562" width="9.934" height="2.098" transform="translate(61.063 83.526)" fill="#fff"/>
            <rect id="Rectángulo_272563" data-name="Rectángulo 272563" width="7.141" height="2.098" transform="translate(77.892 83.526)" fill="#fff"/>
            <rect id="Rectángulo_272564" data-name="Rectángulo 272564" width="7.076" height="2.098" transform="translate(87.357 83.526)" fill="#c5dcef"/>
            <rect id="Rectángulo_272565" data-name="Rectángulo 272565" width="10.202" height="2.098" transform="translate(74.815 77.146)" fill="#fff"/>
            <rect id="Rectángulo_272566" data-name="Rectángulo 272566" width="2.661" height="2.098" transform="translate(70.143 70.754)" fill="#fff"/>
            <rect id="Rectángulo_272567" data-name="Rectángulo 272567" width="9.206" height="2.098" transform="translate(75.828 70.754)" fill="#fff"/>
            <rect id="Rectángulo_272568" data-name="Rectángulo 272568" width="7.787" height="2.098" transform="translate(66.249 64.252)" fill="#fff"/>
            <rect id="Rectángulo_272569" data-name="Rectángulo 272569" width="7.137" height="2.098" transform="translate(77.831 64.252)" fill="#fff"/>
            <rect id="Rectángulo_272570" data-name="Rectángulo 272570" width="7.938" height="2.098" transform="translate(55.612 57.811)" fill="#fff"/>
            <rect id="Rectángulo_272571" data-name="Rectángulo 272571" width="4.156" height="2.098" transform="translate(80.812 57.811)" fill="#fff"/>
            <rect id="Rectángulo_272572" data-name="Rectángulo 272572" width="10.073" height="2.098" transform="translate(86.659 57.811)" fill="#c5dcef"/>
            <rect id="Rectángulo_272573" data-name="Rectángulo 272573" width="9.386" height="2.098" transform="translate(63.01 51.347)" fill="#fff"/>
            <rect id="Rectángulo_272574" data-name="Rectángulo 272574" width="9.386" height="2.098" transform="translate(75.582 51.347)" fill="#fff"/>
            <rect id="Rectángulo_272575" data-name="Rectángulo 272575" width="6.339" height="2.098" transform="translate(88.737 51.347)" fill="#c5dcef"/>
            <rect id="Rectángulo_272576" data-name="Rectángulo 272576" width="15.332" height="2.098" transform="translate(69.636 44.724)" fill="#fff"/>
            <rect id="Rectángulo_272577" data-name="Rectángulo 272577" width="12.761" height="2.098" transform="translate(84.968 44.724)" fill="#c5dcef"/>
            <rect id="Rectángulo_272578" data-name="Rectángulo 272578" width="12.743" height="2.098" transform="translate(85.017 70.754)" fill="#c5dcef"/>
            <rect id="Rectángulo_272579" data-name="Rectángulo 272579" width="5.829" height="2.098" transform="translate(47.742 109.403)" fill="#fff"/>
            <rect id="Rectángulo_272580" data-name="Rectángulo 272580" width="3.493" height="2.098" transform="translate(47.742 115.867)" fill="#fff"/>
            <rect id="Rectángulo_272581" data-name="Rectángulo 272581" width="9.186" height="2.098" transform="translate(47.742 122.308)" fill="#fff"/>
            <rect id="Rectángulo_272582" data-name="Rectángulo 272582" width="2.691" height="2.098" transform="translate(60.7 122.308)" fill="#fff"/>
            <rect id="Rectángulo_272583" data-name="Rectángulo 272583" width="7.197" height="2.098" transform="translate(77.832 122.308)" fill="#fff"/>
            <rect id="Rectángulo_272584" data-name="Rectángulo 272584" width="7.938" height="2.098" transform="translate(55.612 115.867)" fill="#fff"/>
            <rect id="Rectángulo_272585" data-name="Rectángulo 272585" width="4.217" height="2.098" transform="translate(80.812 115.867)" fill="#fff"/>
            <rect id="Rectángulo_272586" data-name="Rectángulo 272586" width="10.073" height="2.098" transform="translate(86.659 115.867)" fill="#c5dcef"/>
            <rect id="Rectángulo_272587" data-name="Rectángulo 272587" width="9.386" height="2.098" transform="translate(63.01 109.403)" fill="#fff"/>
            <rect id="Rectángulo_272588" data-name="Rectángulo 272588" width="7.621" height="2.098" transform="translate(85.029 103.03)" fill="#c5dcef"/>
            <path id="Trazado_482729" data-name="Trazado 482729" d="M2129.725,989.539V980.83h-19.641v8.709h-6.362v54.972h32.3V989.539Z" transform="translate(-1990.761 -914.647)" fill="#d3e4f4"/>
            <path id="Trazado_482730" data-name="Trazado 482730" d="M1953.334,989.539V980.83h-19.58v8.709h-6.424v54.972H1959.7V989.539Z" transform="translate(-1828.391 -914.647)" fill="#e5eff8"/>
            <rect id="Rectángulo_272589" data-name="Rectángulo 272589" width="4.522" height="1.678" transform="translate(99 82.434)" fill="#fff"/>
            <rect id="Rectángulo_272590" data-name="Rectángulo 272590" width="5.049" height="1.678" transform="translate(99 87.333)" fill="#fff"/>
            <rect id="Rectángulo_272591" data-name="Rectángulo 272591" width="13.608" height="1.678" transform="translate(99 92.202)" fill="#fff"/>
            <rect id="Rectángulo_272592" data-name="Rectángulo 272592" width="13.717" height="1.678" transform="translate(99 97.07)" fill="#fff"/>
            <rect id="Rectángulo_272593" data-name="Rectángulo 272593" width="5.907" height="1.678" transform="translate(99 102.105)" fill="#fff"/>
            <rect id="Rectángulo_272594" data-name="Rectángulo 272594" width="9.524" height="1.678" transform="translate(103.07 107.254)" fill="#fff"/>
            <rect id="Rectángulo_272595" data-name="Rectángulo 272595" width="9.863" height="1.678" transform="translate(113.922 107.254)" fill="#fff"/>
            <rect id="Rectángulo_272596" data-name="Rectángulo 272596" width="5.351" height="1.678" transform="translate(125.934 107.254)" fill="#fff"/>
            <rect id="Rectángulo_272597" data-name="Rectángulo 272597" width="8.563" height="1.678" transform="translate(107.592 102.105)" fill="#fff"/>
            <rect id="Rectángulo_272598" data-name="Rectángulo 272598" width="3.618" height="1.678" transform="translate(119.236 102.105)" fill="#fff"/>
            <rect id="Rectángulo_272599" data-name="Rectángulo 272599" width="6.034" height="1.678" transform="translate(125.27 102.105)" fill="#fff"/>
            <rect id="Rectángulo_272600" data-name="Rectángulo 272600" width="16.133" height="1.678" transform="translate(115.152 97.07)" fill="#fff"/>
            <rect id="Rectángulo_272601" data-name="Rectángulo 272601" width="13.608" height="1.678" transform="translate(117.676 92.202)" fill="#fff"/>
            <rect id="Rectángulo_272602" data-name="Rectángulo 272602" width="6.006" height="1.678" transform="translate(132.9 92.202)" fill="#c5dcef"/>
            <rect id="Rectángulo_272603" data-name="Rectángulo 272603" width="6.529" height="1.678" transform="translate(105.039 87.333)" fill="#fff"/>
            <rect id="Rectángulo_272604" data-name="Rectángulo 272604" width="5.982" height="1.678" transform="translate(114.685 87.333)" fill="#fff"/>
            <rect id="Rectángulo_272605" data-name="Rectángulo 272605" width="9.308" height="1.678" transform="translate(121.996 87.333)" fill="#fff"/>
            <rect id="Rectángulo_272606" data-name="Rectángulo 272606" width="5.916" height="1.678" transform="translate(135.392 87.333)" fill="#c5dcef"/>
            <rect id="Rectángulo_272607" data-name="Rectángulo 272607" width="5.045" height="1.678" transform="translate(107.563 82.434)" fill="#fff"/>
            <rect id="Rectángulo_272608" data-name="Rectángulo 272608" width="13.641" height="1.678" transform="translate(117.709 82.434)" fill="#fff"/>
            <rect id="Rectángulo_272609" data-name="Rectángulo 272609" width="11.098" height="1.678" transform="translate(131.351 82.434)" fill="#c5dcef"/>
            <rect id="Rectángulo_272610" data-name="Rectángulo 272610" width="11.107" height="1.678" transform="translate(131.303 102.105)" fill="#c5dcef"/>
            <rect id="Rectángulo_272611" data-name="Rectángulo 272611" width="4.522" height="1.678" transform="translate(99 112.402)" fill="#fff"/>
            <rect id="Rectángulo_272612" data-name="Rectángulo 272612" width="5.049" height="1.678" transform="translate(99 117.301)" fill="#fff"/>
            <rect id="Rectángulo_272613" data-name="Rectángulo 272613" width="13.608" height="1.678" transform="translate(99 122.17)" fill="#fff"/>
            <rect id="Rectángulo_272614" data-name="Rectángulo 272614" width="13.608" height="1.678" transform="translate(117.676 122.17)" fill="#fff"/>
            <rect id="Rectángulo_272615" data-name="Rectángulo 272615" width="6.006" height="1.678" transform="translate(132.9 122.17)" fill="#c5dcef"/>
            <rect id="Rectángulo_272616" data-name="Rectángulo 272616" width="6.529" height="1.678" transform="translate(105.039 117.301)" fill="#fff"/>
            <rect id="Rectángulo_272617" data-name="Rectángulo 272617" width="5.982" height="1.678" transform="translate(114.685 117.301)" fill="#fff"/>
            <rect id="Rectángulo_272618" data-name="Rectángulo 272618" width="9.308" height="1.678" transform="translate(121.996 117.301)" fill="#fff"/>
            <rect id="Rectángulo_272619" data-name="Rectángulo 272619" width="5.916" height="1.678" transform="translate(135.392 117.301)" fill="#c5dcef"/>
            <rect id="Rectángulo_272620" data-name="Rectángulo 272620" width="5.045" height="1.678" transform="translate(107.563 112.402)" fill="#fff"/>
            <rect id="Rectángulo_272621" data-name="Rectángulo 272621" width="13.587" height="1.678" transform="translate(117.709 112.402)" fill="#fff"/>
            <rect id="Rectángulo_272622" data-name="Rectángulo 272622" width="11.151" height="1.678" transform="translate(131.297 112.402)" fill="#c5dcef"/>
            <rect id="Rectángulo_272623" data-name="Rectángulo 272623" width="44.105" height="87.809" transform="translate(142.448 42.057)" fill="#e5eff8"/>
            <rect id="Rectángulo_272624" data-name="Rectángulo 272624" width="16.76" height="2.045" transform="translate(142.485 72.147)" fill="#fff"/>
            <rect id="Rectángulo_272625" data-name="Rectángulo 272625" width="5.872" height="2.045" transform="translate(145.912 60.08)" fill="#fff"/>
            <rect id="Rectángulo_272626" data-name="Rectángulo 272626" width="5.785" height="2.045" transform="translate(143.563 54.147)" fill="#fff"/>
            <rect id="Rectángulo_272627" data-name="Rectángulo 272627" width="17.79" height="2.045" transform="translate(148.848 48.178)" fill="#fff"/>
            <rect id="Rectángulo_272628" data-name="Rectángulo 272628" width="16.76" height="2.045" transform="translate(142.485 108.662)" fill="#fff"/>
            <rect id="Rectángulo_272629" data-name="Rectángulo 272629" width="5.872" height="2.045" transform="translate(145.912 96.594)" fill="#fff"/>
            <rect id="Rectángulo_272630" data-name="Rectángulo 272630" width="9.101" height="2.045" transform="translate(147.425 120.958)" fill="#fff"/>
            <rect id="Rectángulo_272631" data-name="Rectángulo 272631" width="5.785" height="2.045" transform="translate(143.563 90.662)" fill="#fff"/>
            <rect id="Rectángulo_272632" data-name="Rectángulo 272632" width="24.19" height="2.045" transform="translate(142.448 84.693)" fill="#fff"/>
            <path id="Trazado_482731" data-name="Trazado 482731" d="M1811.609,726.088a3.966,3.966,0,0,1,2.5-.811,4.736,4.736,0,0,1,1.118.119l.464.107.254-.407a3.037,3.037,0,0,1,2.584-1.433c.075,0,.156,0,.25.011l.449.036.165-.334.035-.07a5.852,5.852,0,0,1,.485-.809,5.664,5.664,0,0,1,4.629-2.372,5.722,5.722,0,0,1,1.465.191l.467.124.261-.407c.115-.179.237-.352.365-.518a7.519,7.519,0,0,1,.747-.838,7.472,7.472,0,0,1,10.773.428l.313.353.436-.18a5.171,5.171,0,0,1,5.582,1.081l.344.335.426-.221a6.161,6.161,0,0,1,2.87-.7,6.255,6.255,0,0,1,5.05,2.581l.342.472.512-.279a3.937,3.937,0,0,1,5.627,2.27,4.234,4.234,0,0,1,.185,1.238,4.671,4.671,0,0,1-.044.623h-49.086a1.815,1.815,0,0,1,.437-.588" transform="translate(-1721.465 -671.409)" fill="#fff"/>
            <path id="Trazado_482732" data-name="Trazado 482732" d="M945.624,553.422a3.331,3.331,0,0,0-.9-1.125,3.288,3.288,0,0,0-3.317-.484l-.139.057-.1-.115a4.818,4.818,0,0,0-5.643-1.3l-.118.052-.1-.083a4.108,4.108,0,0,0-3.945-.762l-.122.04-.09-.091a5.653,5.653,0,0,0-4.025-1.687,5.693,5.693,0,0,0-1.329.157,5.606,5.606,0,0,0-2.322,1.181,5.7,5.7,0,0,0-.905.975l-.015.02-.015.02-.077.107-.129-.025a4.519,4.519,0,0,0-.829-.082h-.025a4.441,4.441,0,0,0-3.88,2.251l-.058.1-.117,0a2.721,2.721,0,0,0-.669.1,2.655,2.655,0,0,0-1.025.543,2.726,2.726,0,0,0-.375.39l-.075.1-.12-.02a3.9,3.9,0,0,0-.622-.05,3.545,3.545,0,0,0-1.626.37,2.047,2.047,0,0,0-.945.917,1.4,1.4,0,0,0-.135.595c0,.049,0,.125.008.173l.023.241h33.912l.049-.2v-.013a3.4,3.4,0,0,0,.122-.9,3.284,3.284,0,0,0-.334-1.449" transform="translate(-893.62 -516.148)" fill="#fff"/>
            <rect id="Rectángulo_272633" data-name="Rectángulo 272633" width="128.769" height="2.401" transform="translate(-0.589 30.971)" fill="#feffff"/>
            <path id="Trazado_482733" data-name="Trazado 482733" d="M1347.891,301.348V165.075h-3.276V301.359l3.276-.011" transform="translate(-1291.994 -163.734)" fill="#feffff"/>
            <path id="Trazado_482734" data-name="Trazado 482734" d="M738.552,301.525V165.076h-3.276V301.532l3.276-.007" transform="translate(-731.089 -163.735)" fill="#feffff"/>
            <path id="Trazado_482735" data-name="Trazado 482735" d="M1957.229,301.173v-136.1h-3.276V301.2l3.276-.028" transform="translate(-1852.897 -163.734)" fill="#feffff"/>
            <path id="Trazado_482736" data-name="Trazado 482736" d="M2566.568,300.783V165.076h-3.276V300.64c1.093.025,2.186.069,3.276.143" transform="translate(-2413.801 -163.735)" fill="#feffff"/>
            <rect id="Rectángulo_272634" data-name="Rectángulo 272634" width="169.981" height="2.401" transform="translate(-5.916 81.651)" fill="#feffff"/>
            <g id="Grupo_726526" data-name="Grupo 726526" transform="translate(111.803 -6.024)" opacity="0.35">
              <g id="Grupo_726525" data-name="Grupo 726525">
                <g id="Grupo_726524-2" data-name="Grupo 726524" clip-path="url(#clip-path-4)">
                  <path id="Trazado_482737" data-name="Trazado 482737" d="M2094.335,215.756l57.391-141.539-4.424-1.794L2089.16,215.814l5.175-.057" transform="translate(-2089.16 -72.423)" fill="#feffff"/>
                </g>
              </g>
            </g>
            <g id="Grupo_726529" data-name="Grupo 726529" transform="translate(126.071 -1.274)" opacity="0.35">
              <g id="Grupo_726528" data-name="Grupo 726528">
                <g id="Grupo_726527" data-name="Grupo 726527" clip-path="url(#clip-path-5)">
                  <path id="Trazado_482738" data-name="Trazado 482738" d="M2275.879,270.55q2-.038,4.007-.082l54.5-134.408-9.574-3.882-56.147,138.471q3.607-.048,7.215-.1" transform="translate(-2268.664 -132.178)" fill="#feffff"/>
                </g>
              </g>
            </g>
            <g id="Grupo_726532" data-name="Grupo 726532" transform="translate(2.8 -11.78)" opacity="0.35">
              <g id="Grupo_726531" data-name="Grupo 726531">
                <g id="Grupo_726530" data-name="Grupo 726530" clip-path="url(#clip-path-6)">
                  <path id="Trazado_482739" data-name="Trazado 482739" d="M739.019,149.514,796.658,7.365,778.484,0,717.832,149.577q10.594-.016,21.188-.063" transform="translate(-717.832 0.004)" fill="#feffff"/>
                </g>
              </g>
            </g>
            <g id="Grupo_726535" data-name="Grupo 726535" transform="translate(-11.086 -7.816)" opacity="0.35">
              <g id="Grupo_726534" data-name="Grupo 726534">
                <g id="Grupo_726533" data-name="Grupo 726533" clip-path="url(#clip-path-7)">
                  <path id="Trazado_482740" data-name="Trazado 482740" d="M548.523,195.455,606.784,51.771l-4.654-1.887L543.136,195.376a21.865,21.865,0,0,1,5.387.079" transform="translate(-543.136 -49.884)" fill="#feffff"/>
                </g>
              </g>
            </g>
            <g id="Grupo_726538" data-name="Grupo 726538" transform="translate(56.601 -7.443)" opacity="0.35">
              <g id="Grupo_726537" data-name="Grupo 726537">
                <g id="Grupo_726536" data-name="Grupo 726536" clip-path="url(#clip-path-8)">
                  <path id="Trazado_482741" data-name="Trazado 482741" d="M1402.044,199.6l57.768-142.469-6.321-2.563-58.816,145.054,7.369-.022" transform="translate(-1394.675 -54.571)" fill="#feffff"/>
                </g>
              </g>
            </g>
          </g>
        </g>
        <g id="Grupo_726548" data-name="Grupo 726548" transform="translate(0 0)">
          <g id="Grupo_726547" data-name="Grupo 726547" clip-path="url(#clip-path-9)">
            <path id="Trazado_482743" data-name="Trazado 482743" d="M1035.391,157.593a14.157,14.157,0,0,0-3.464-4.506l1.5-2.628-4.329-2.485-1.5,2.619a14.1,14.1,0,0,0-5.635-.728l-.776-2.882-4.75,1.279.776,2.882a12.983,12.983,0,0,0-4.537,3.472l-2.681-1.49-2.477,4.327,2.627,1.5a14.083,14.083,0,0,0-.728,5.635l-3.01.811,1.386,5.146,3.08-.83a14.1,14.1,0,0,0,3.463,4.5l-1.5,2.628,4.33,2.487,1.5-2.621a14.1,14.1,0,0,0,5.633.731l.776,2.882,4.75-1.28-.776-2.882a12.994,12.994,0,0,0,4.539-3.475l2.682,1.492,2.477-4.329-2.626-1.5a14.059,14.059,0,0,0,.729-5.633l3.009-.81-1.386-5.146Z" transform="translate(-926.41 -135.3)" fill="#465ab3"/>
            <path id="Trazado_482744" data-name="Trazado 482744" d="M1143.673,288.113a6.46,6.46,0,1,1,4.558-7.917,6.459,6.459,0,0,1-4.558,7.917" transform="translate(-1045.271 -253.522)" fill="#7186e2"/>
            <path id="Trazado_482745" data-name="Trazado 482745" d="M1342.023,492.488h-76.662a4.077,4.077,0,0,1-4.077-4.078V386.051a4.077,4.077,0,0,1,4.077-4.077h76.662a4.077,4.077,0,0,1,4.078,4.077V488.41a4.078,4.078,0,0,1-4.078,4.078" transform="translate(-1161.028 -351.612)" fill="#343e6e"/>
            <path id="Trazado_482746" data-name="Trazado 482746" d="M1705.865,227.558a3.535,3.535,0,1,1,.7,2.106,3.535,3.535,0,0,1-.7-2.106" transform="translate(-1570.271 -206.217)" fill="#e6e3f2"/>
            <path id="Trazado_482747" data-name="Trazado 482747" d="M1555.114,202.017l-1.792-10.05a3.2,3.2,0,0,0-3.172-2.379h-5.362a7,7,0,1,0-13.345,0h-5.362a3.2,3.2,0,0,0-3.171,2.379l-1.792,10.05a2.626,2.626,0,0,0,2.7,3.159h28.6a2.626,2.626,0,0,0,2.7-3.159m-20.533-14.535a3.535,3.535,0,1,1,.7,2.106,3.535,3.535,0,0,1-.7-2.106" transform="translate(-1400.166 -166.14)" fill="#343e6e"/>
            <path id="Trazado_482748" data-name="Trazado 482748" d="M1301.92,510.7h-81.863a3.181,3.181,0,0,1-3.244-3.114V403.3a3.181,3.181,0,0,1,3.244-3.114h81.863a3.181,3.181,0,0,1,3.244,3.114V507.581a3.181,3.181,0,0,1-3.244,3.114" transform="translate(-1120.092 -368.372)" fill="#343e6e"/>
            <path id="Trazado_482749" data-name="Trazado 482749" d="M1297.552,492.488h-76.661a4.078,4.078,0,0,1-4.078-4.078V386.051a4.078,4.078,0,0,1,4.078-4.077h76.661a4.077,4.077,0,0,1,4.077,4.077V488.41a4.077,4.077,0,0,1-4.077,4.078" transform="translate(-1120.092 -351.612)" fill="#6676be"/>
            <path id="Trazado_482750" data-name="Trazado 482750" d="M1333.2,515.76H1259.8a2.486,2.486,0,0,1-2.486-2.486V413.741a2.486,2.486,0,0,1,2.486-2.486H1333.2a2.486,2.486,0,0,1,2.486,2.486v99.532a2.486,2.486,0,0,1-2.486,2.486" transform="translate(-1157.369 -378.565)" fill="#97aaef"/>
            <path id="Trazado_482751" data-name="Trazado 482751" d="M1569.94,202.017l-1.792-10.05a3.2,3.2,0,0,0-3.172-2.379h-5.362a7,7,0,1,0-13.345,0h-5.362a3.2,3.2,0,0,0-3.171,2.379l-1.791,10.05a2.626,2.626,0,0,0,2.7,3.159h28.6a2.626,2.626,0,0,0,2.7-3.159m-20.533-14.535a3.535,3.535,0,1,1,.7,2.106,3.535,3.535,0,0,1-.7-2.106" transform="translate(-1413.813 -166.14)" fill="#4d5b8c"/>
            <rect id="Rectángulo_272640" data-name="Rectángulo 272640" width="2.761" height="2.091" transform="translate(135.174 122.423)" fill="#c0c9f2"/>
            <rect id="Rectángulo_272641" data-name="Rectángulo 272641" width="2.761" height="2.091" transform="translate(111.864 126.757)" fill="#c0c9f2"/>
            <rect id="Rectángulo_272642" data-name="Rectángulo 272642" width="8.929" height="2.091" transform="translate(140.096 122.423)" fill="#c0c9f2"/>
            <rect id="Rectángulo_272643" data-name="Rectángulo 272643" width="15.556" height="2.091" transform="translate(114.527 122.423)" fill="#c0c9f2"/>
            <rect id="Rectángulo_272644" data-name="Rectángulo 272644" width="21.857" height="2.091" transform="translate(125.193 126.757)" fill="#c0c9f2"/>
            <rect id="Rectángulo_272645" data-name="Rectángulo 272645" width="8.645" height="2.091" transform="translate(110.065 112.425)" fill="#c0c9f2"/>
            <rect id="Rectángulo_272646" data-name="Rectángulo 272646" width="22.779" height="2.091" transform="translate(121.072 112.425)" fill="#c0c9f2"/>
            <rect id="Rectángulo_272647" data-name="Rectángulo 272647" width="19.156" height="2.091" transform="translate(109.733 108.092)" fill="#c0c9f2"/>
            <rect id="Rectángulo_272648" data-name="Rectángulo 272648" width="8.162" height="2.091" transform="translate(135.707 108.092)" fill="#c0c9f2"/>
            <rect id="Rectángulo_272649" data-name="Rectángulo 272649" width="5.478" height="2.091" transform="translate(113.067 96.582)" fill="#c0c9f2"/>
            <rect id="Rectángulo_272650" data-name="Rectángulo 272650" width="9.665" height="2.091" transform="translate(121.137 96.582)" fill="#c0c9f2"/>
            <rect id="Rectángulo_272651" data-name="Rectángulo 272651" width="14.611" height="2.091" transform="translate(132.524 96.582)" fill="#c0c9f2"/>
            <rect id="Rectángulo_272652" data-name="Rectángulo 272652" width="8.645" height="2.091" transform="translate(138.537 91.73)" fill="#c0c9f2"/>
            <rect id="Rectángulo_272653" data-name="Rectángulo 272653" width="22.779" height="2.091" transform="translate(113.396 91.73)" fill="#c0c9f2"/>
            <rect id="Rectángulo_272654" data-name="Rectángulo 272654" width="2.761" height="2.091" transform="translate(120.626 80.8)" fill="#c0c9f2"/>
            <rect id="Rectángulo_272655" data-name="Rectángulo 272655" width="8.929" height="2.091" transform="translate(109.535 80.8)" fill="#c0c9f2"/>
            <rect id="Rectángulo_272656" data-name="Rectángulo 272656" width="15.556" height="2.091" transform="translate(128.477 80.8)" fill="#c0c9f2"/>
            <rect id="Rectángulo_272657" data-name="Rectángulo 272657" width="21.857" height="2.091" transform="translate(111.511 76.466)" fill="#c0c9f2"/>
            <rect id="Rectángulo_272658" data-name="Rectángulo 272658" width="3.605" height="2.091" transform="translate(142.045 65.708)" fill="#c0c9f2"/>
            <rect id="Rectángulo_272659" data-name="Rectángulo 272659" width="8.2" height="2.091" transform="translate(138.983 61.374)" fill="#c0c9f2"/>
            <rect id="Rectángulo_272660" data-name="Rectángulo 272660" width="26.175" height="2.091" transform="translate(109.535 61.374)" fill="#c0c9f2"/>
            <rect id="Rectángulo_272661" data-name="Rectángulo 272661" width="13.135" height="2.091" transform="translate(126.801 65.708)" fill="#c0c9f2"/>
            <rect id="Rectángulo_272662" data-name="Rectángulo 272662" width="7.95" height="2.091" transform="translate(115.436 65.708)" fill="#c0c9f2"/>
            <path id="Trazado_482752" data-name="Trazado 482752" d="M1958.251,771.5a1.193,1.193,0,0,1-.843-.349l-2.948-2.948a1.192,1.192,0,0,1,1.686-1.686l2.023,2.023,4.1-4.937a1.192,1.192,0,0,1,1.835,1.523l-4.933,5.944a1.192,1.192,0,0,1-.862.43h-.055" transform="translate(-1798.784 -702.509)" fill="#5564a2"/>
            <path id="Trazado_482753" data-name="Trazado 482753" d="M1928.812,744.509h-11.249a2.394,2.394,0,0,1-2.391-2.391v-8.893a2.394,2.394,0,0,1,2.391-2.391h11.249a2.394,2.394,0,0,1,2.391,2.391v8.893a2.394,2.394,0,0,1-2.391,2.391M1917.563,732.9a.325.325,0,0,0-.325.324v8.893a.325.325,0,0,0,.325.325h11.249a.325.325,0,0,0,.325-.325v-8.893a.325.325,0,0,0-.325-.324Z" transform="translate(-1762.94 -672.742)" fill="#c0c9f2"/>
            <path id="Trazado_482754" data-name="Trazado 482754" d="M1958.251,1012.806a1.192,1.192,0,0,1-.843-.349l-2.948-2.948a1.192,1.192,0,0,1,1.686-1.686l2.023,2.023,4.1-4.937a1.192,1.192,0,0,1,1.835,1.523l-4.933,5.944a1.191,1.191,0,0,1-.862.43h-.055" transform="translate(-1798.784 -924.635)" fill="#5564a2"/>
            <path id="Trazado_482755" data-name="Trazado 482755" d="M1928.812,985.816h-11.249a2.394,2.394,0,0,1-2.391-2.391v-8.893a2.394,2.394,0,0,1,2.391-2.391h11.249a2.394,2.394,0,0,1,2.391,2.391v8.893a2.394,2.394,0,0,1-2.391,2.391m-11.249-11.608a.325.325,0,0,0-.325.325v8.893a.325.325,0,0,0,.325.325h11.249a.325.325,0,0,0,.325-.325v-8.893a.325.325,0,0,0-.325-.325Z" transform="translate(-1762.94 -894.868)" fill="#c0c9f2"/>
            <path id="Trazado_482756" data-name="Trazado 482756" d="M1958.251,1254.114a1.192,1.192,0,0,1-.843-.349l-2.948-2.948a1.192,1.192,0,0,1,1.686-1.686l2.023,2.023,4.1-4.937a1.192,1.192,0,1,1,1.835,1.523l-4.933,5.944a1.191,1.191,0,0,1-.862.43h-.055" transform="translate(-1798.784 -1146.761)" fill="#5564a2"/>
            <path id="Trazado_482757" data-name="Trazado 482757" d="M1928.812,1227.123h-11.249a2.394,2.394,0,0,1-2.391-2.391v-8.892a2.394,2.394,0,0,1,2.391-2.391h11.249a2.394,2.394,0,0,1,2.391,2.391v8.892a2.394,2.394,0,0,1-2.391,2.391m-11.249-11.608a.325.325,0,0,0-.325.325v8.892a.325.325,0,0,0,.325.325h11.249a.325.325,0,0,0,.325-.325v-8.892a.325.325,0,0,0-.325-.325Z" transform="translate(-1762.94 -1116.994)" fill="#c0c9f2"/>
            <path id="Trazado_482758" data-name="Trazado 482758" d="M1928.812,1468.429h-11.249a2.394,2.394,0,0,1-2.391-2.391v-8.893a2.394,2.394,0,0,1,2.391-2.391h11.249a2.394,2.394,0,0,1,2.391,2.391v8.893a2.394,2.394,0,0,1-2.391,2.391m-11.249-11.608a.325.325,0,0,0-.325.324v8.893a.325.325,0,0,0,.325.324h11.249a.325.325,0,0,0,.325-.324v-8.893a.325.325,0,0,0-.325-.324Z" transform="translate(-1762.94 -1339.12)" fill="#c0c9f2"/>
            <path id="Trazado_482759" data-name="Trazado 482759" d="M1335.175,1538.563v3.566a.758.758,0,0,0,.012.129.742.742,0,0,0,.73.613h22.071a.739.739,0,0,0,.476-.216.731.731,0,0,0,.205-.4.69.69,0,0,0,.012-.129v-3.566a.741.741,0,0,0-.741-.741h-22.024a.742.742,0,0,0-.741.741" transform="translate(-1229.046 -1415.584)" fill="#d98853"/>
            <path id="Trazado_482760" data-name="Trazado 482760" d="M1525.945,1537.821v5.048h7.712a.63.63,0,0,0,.629-.611.162.162,0,0,0,0-.019v-3.787a.63.63,0,0,0-.63-.63Z" transform="translate(-1404.652 -1415.584)" fill="#f8a66c"/>
            <path id="Trazado_482761" data-name="Trazado 482761" d="M1465.931,1542.866h1.551v-5.047h-1.551v5.047Z" transform="translate(-1349.408 -1415.582)" fill="#f8a66c"/>
            <rect id="Rectángulo_272663" data-name="Rectángulo 272663" width="2.46" height="5.049" transform="translate(125.415 122.237)" fill="#f9b889"/>
            <path id="Trazado_482762" data-name="Trazado 482762" d="M1335.446,1542.869h.91v-5.049h-.91a.269.269,0,0,0-.269.269v4.51a.269.269,0,0,0,.269.269" transform="translate(-1229.048 -1415.583)" fill="#f7a46e"/>
            <path id="Trazado_482763" data-name="Trazado 482763" d="M1335.322,1593.634a.742.742,0,0,0,.73.613H1358.2a.612.612,0,0,0,.611-.613Z" transform="translate(-1229.181 -1466.96)" fill="#c9793c"/>
            <path id="Trazado_482764" data-name="Trazado 482764" d="M1357.167,1602.081v3.566a.774.774,0,0,0,.012.13.745.745,0,0,0,.691.612h22.062l.057,0a.742.742,0,0,0,.672-.61.715.715,0,0,0,.011-.13v-3.566a.741.741,0,0,0-.741-.741h-22.023a.742.742,0,0,0-.741.741" transform="translate(-1249.29 -1474.054)" fill="#d98853"/>
            <path id="Trazado_482765" data-name="Trazado 482765" d="M1547.937,1601.34v5.048h7.712a.63.63,0,0,0,.629-.61.15.15,0,0,0,0-.02v-3.787a.63.63,0,0,0-.63-.63Z" transform="translate(-1424.896 -1474.054)" fill="#f8a66c"/>
            <path id="Trazado_482766" data-name="Trazado 482766" d="M1487.923,1606.391h1.551v-5.047h-1.551v5.047Z" transform="translate(-1369.652 -1474.057)" fill="#f8a66c"/>
            <rect id="Rectángulo_272664" data-name="Rectángulo 272664" width="2.46" height="5.049" transform="translate(127.164 127.286)" fill="#f9b889"/>
            <path id="Trazado_482767" data-name="Trazado 482767" d="M1357.438,1606.393h.91v-5.049h-.91a.269.269,0,0,0-.269.269v4.51a.269.269,0,0,0,.269.269" transform="translate(-1249.292 -1474.057)" fill="#f7a46e"/>
            <path id="Trazado_482768" data-name="Trazado 482768" d="M1357.313,1657.163a.744.744,0,0,0,.691.612H1380.2a.613.613,0,0,0,.611-.613Z" transform="translate(-1249.424 -1525.439)" fill="#c9793c"/>
            <path id="Trazado_482769" data-name="Trazado 482769" d="M1327.826,1665.61v3.566a.773.773,0,0,0,.012.129.742.742,0,0,0,.73.613h22.071a.736.736,0,0,0,.476-.216.729.729,0,0,0,.205-.4.682.682,0,0,0,.012-.129v-3.566a.741.741,0,0,0-.741-.741h-22.023a.742.742,0,0,0-.742.741" transform="translate(-1222.281 -1532.533)" fill="#d98853"/>
            <path id="Trazado_482770" data-name="Trazado 482770" d="M1518.6,1664.869v5.047h7.712a.63.63,0,0,0,.629-.611.155.155,0,0,0,0-.019V1665.5a.63.63,0,0,0-.63-.63Z" transform="translate(-1397.887 -1532.533)" fill="#f8a66c"/>
            <path id="Trazado_482771" data-name="Trazado 482771" d="M1458.582,1669.915h1.551v-5.047h-1.551v5.047Z" transform="translate(-1342.644 -1532.532)" fill="#f8a66c"/>
            <rect id="Rectángulo_272665" data-name="Rectángulo 272665" width="2.46" height="5.049" transform="translate(124.831 132.336)" fill="#f9b889"/>
            <path id="Trazado_482772" data-name="Trazado 482772" d="M1328.1,1669.917h.91v-5.049h-.91a.269.269,0,0,0-.269.269v4.51a.269.269,0,0,0,.269.269" transform="translate(-1222.283 -1532.532)" fill="#f7a46e"/>
            <path id="Trazado_482773" data-name="Trazado 482773" d="M1327.973,1720.682a.742.742,0,0,0,.73.613h22.153a.612.612,0,0,0,.611-.613Z" transform="translate(-1222.416 -1583.91)" fill="#c9793c"/>
            <path id="Trazado_482774" data-name="Trazado 482774" d="M1335.175,1729.13v3.566a.774.774,0,0,0,.012.13.745.745,0,0,0,.691.612h22.062l.057,0a.742.742,0,0,0,.672-.61.7.7,0,0,0,.012-.13v-3.566a.741.741,0,0,0-.741-.741h-22.024a.743.743,0,0,0-.741.741" transform="translate(-1229.046 -1591.004)" fill="#d98853"/>
            <path id="Trazado_482775" data-name="Trazado 482775" d="M1525.945,1728.389v5.048h7.712a.63.63,0,0,0,.629-.61.174.174,0,0,0,0-.02v-3.787a.63.63,0,0,0-.63-.63Z" transform="translate(-1404.652 -1591.004)" fill="#f8a66c"/>
            <path id="Trazado_482776" data-name="Trazado 482776" d="M1465.931,1733.439h1.551v-5.047h-1.551v5.047Z" transform="translate(-1349.408 -1591.007)" fill="#f8a66c"/>
            <rect id="Rectángulo_272666" data-name="Rectángulo 272666" width="2.46" height="5.049" transform="translate(125.416 137.385)" fill="#f9b889"/>
            <path id="Trazado_482777" data-name="Trazado 482777" d="M1335.446,1733.441h.91v-5.049h-.91a.269.269,0,0,0-.269.269v4.51a.269.269,0,0,0,.269.269" transform="translate(-1229.048 -1591.007)" fill="#f7a46e"/>
            <path id="Trazado_482778" data-name="Trazado 482778" d="M1335.322,1784.211a.744.744,0,0,0,.691.612H1358.2a.613.613,0,0,0,.611-.613Z" transform="translate(-1229.181 -1642.389)" fill="#c9793c"/>
            <path id="Trazado_482779" data-name="Trazado 482779" d="M1559.108,1548.559v3.769c0,.01,0,.018,0,.028a.64.64,0,0,0,.6.611h.625a.64.64,0,0,0-.64.64v3.768c0,.01,0,.019,0,.029a.64.64,0,0,0,.6.61h6.035a.613.613,0,0,0,.611-.613h0a.178.178,0,0,0,0-.02V1553.6a.63.63,0,0,0-.63-.63h-.565a.611.611,0,0,0,.611-.613h0a.157.157,0,0,0,0-.019v-3.788a.63.63,0,0,0-.63-.63h2.351a.613.613,0,0,0,.611-.613h0c0-.007,0-.013,0-.02V1543.5a.63.63,0,0,0-.63-.63h-1.729a.612.612,0,0,0,.611-.612h0a.167.167,0,0,0,0-.019v-3.787a.63.63,0,0,0-.63-.63h-5.975a.64.64,0,0,0-.64.64v3.769c0,.009,0,.019,0,.028a.64.64,0,0,0,.6.611h1.789a.64.64,0,0,0-.64.64v3.769c0,.009,0,.019,0,.028a.64.64,0,0,0,.6.61h-2.291a.64.64,0,0,0-.64.64" transform="translate(-1435.179 -1415.583)" fill="#bf6a3c"/>
            <path id="Trazado_482780" data-name="Trazado 482780" d="M1760.447,1602.083v3.566a.719.719,0,0,0,.012.129.741.741,0,0,0,.729.613h22.024a.744.744,0,0,0,.741-.742v-3.566a.742.742,0,0,0-.741-.742h-22.024a.742.742,0,0,0-.741.742" transform="translate(-1620.514 -1474.055)" fill="#d98853"/>
            <path id="Trazado_482781" data-name="Trazado 482781" d="M1951.217,1606.39h7.712a.63.63,0,0,0,.63-.63v-3.787a.63.63,0,0,0-.63-.63h-7.712v5.047Z" transform="translate(-1796.12 -1474.057)" fill="#f8a66c"/>
            <path id="Trazado_482782" data-name="Trazado 482782" d="M1891.2,1606.391h1.551v-5.047H1891.2v5.047Z" transform="translate(-1740.873 -1474.057)" fill="#f8a66c"/>
            <rect id="Rectángulo_272667" data-name="Rectángulo 272667" width="2.46" height="5.049" transform="translate(159.219 127.286)" fill="#f9b889"/>
            <path id="Trazado_482783" data-name="Trazado 482783" d="M1760.715,1606.393h.91v-5.049h-.91a.269.269,0,0,0-.269.269v4.51a.269.269,0,0,0,.269.269" transform="translate(-1620.513 -1474.057)" fill="#f7a46e"/>
            <path id="Trazado_482784" data-name="Trazado 482784" d="M1760.594,1657.16a.741.741,0,0,0,.729.612h22.153a.612.612,0,0,0,.612-.612Z" transform="translate(-1620.649 -1525.437)" fill="#c9793c"/>
            <path id="Trazado_482785" data-name="Trazado 482785" d="M1803.359,1665.608v3.566a.75.75,0,0,0,.218.524.737.737,0,0,0,.523.217h22.024a.741.741,0,0,0,.729-.613.729.729,0,0,0,.012-.129v-3.566a.742.742,0,0,0-.741-.742H1804.1a.742.742,0,0,0-.741.742" transform="translate(-1660.015 -1532.53)" fill="#d98853"/>
            <path id="Trazado_482786" data-name="Trazado 482786" d="M1994.129,1669.916h7.712a.63.63,0,0,0,.63-.63V1665.5a.63.63,0,0,0-.63-.63h-7.712v5.047Z" transform="translate(-1835.621 -1532.532)" fill="#f8a66c"/>
            <path id="Trazado_482787" data-name="Trazado 482787" d="M1934.112,1669.915h1.551v-5.047h-1.551v5.047Z" transform="translate(-1780.375 -1532.532)" fill="#f8a66c"/>
            <rect id="Rectángulo_272668" data-name="Rectángulo 272668" width="2.46" height="5.049" transform="translate(162.63 132.336)" fill="#f9b889"/>
            <path id="Trazado_482788" data-name="Trazado 482788" d="M1803.627,1669.917h.91v-5.049h-.91a.269.269,0,0,0-.269.269v4.51a.269.269,0,0,0,.269.269" transform="translate(-1660.014 -1532.532)" fill="#f7a46e"/>
            <path id="Trazado_482789" data-name="Trazado 482789" d="M1803.506,1720.684a.741.741,0,0,0,.729.613h22.153a.613.613,0,0,0,.612-.613Z" transform="translate(-1660.151 -1583.911)" fill="#c9793c"/>
            <path id="Trazado_482790" data-name="Trazado 482790" d="M1789.928,1729.132v3.566a.75.75,0,0,0,.217.524.737.737,0,0,0,.524.217h22.024a.741.741,0,0,0,.729-.613.729.729,0,0,0,.012-.129v-3.566a.742.742,0,0,0-.741-.742h-22.024a.742.742,0,0,0-.741.742" transform="translate(-1647.652 -1591.005)" fill="#d98853"/>
            <path id="Trazado_482791" data-name="Trazado 482791" d="M1980.7,1733.439h7.712a.63.63,0,0,0,.63-.63v-3.787a.63.63,0,0,0-.63-.63H1980.7v5.047Z" transform="translate(-1823.258 -1591.007)" fill="#f8a66c"/>
            <path id="Trazado_482792" data-name="Trazado 482792" d="M1920.681,1733.439h1.551v-5.047h-1.551v5.047Z" transform="translate(-1768.012 -1591.007)" fill="#f8a66c"/>
            <rect id="Rectángulo_272669" data-name="Rectángulo 272669" width="2.46" height="5.049" transform="translate(161.562 137.385)" fill="#f9b889"/>
            <path id="Trazado_482793" data-name="Trazado 482793" d="M1790.2,1733.441h.91v-5.049h-.91a.269.269,0,0,0-.269.269v4.51a.269.269,0,0,0,.269.269" transform="translate(-1647.651 -1591.007)" fill="#f7a46e"/>
            <path id="Trazado_482794" data-name="Trazado 482794" d="M1790.076,1784.208a.741.741,0,0,0,.729.613h22.153a.613.613,0,0,0,.612-.613Z" transform="translate(-1647.788 -1642.386)" fill="#c9793c"/>
            <path id="Trazado_482795" data-name="Trazado 482795" d="M1590.847,1475.035v3.566a.721.721,0,0,0,.012.129.741.741,0,0,0,.729.613h22.024a.744.744,0,0,0,.741-.742v-3.566a.742.742,0,0,0-.741-.742h-22.024a.742.742,0,0,0-.741.742" transform="translate(-1464.395 -1357.105)" fill="#d98853"/>
            <path id="Trazado_482796" data-name="Trazado 482796" d="M1781.617,1479.342h7.712a.63.63,0,0,0,.63-.63v-3.787a.63.63,0,0,0-.63-.63h-7.712v5.047Z" transform="translate(-1640.001 -1357.107)" fill="#f8a66c"/>
            <path id="Trazado_482797" data-name="Trazado 482797" d="M1721.6,1479.342h1.551v-5.047H1721.6v5.047Z" transform="translate(-1584.754 -1357.107)" fill="#f8a66c"/>
            <rect id="Rectángulo_272670" data-name="Rectángulo 272670" width="2.46" height="5.049" transform="translate(145.738 117.188)" fill="#f9b889"/>
            <path id="Trazado_482798" data-name="Trazado 482798" d="M1591.115,1479.345h.91V1474.3h-.91a.269.269,0,0,0-.269.269v4.51a.269.269,0,0,0,.269.269" transform="translate(-1464.394 -1357.108)" fill="#f7a46e"/>
            <path id="Trazado_482799" data-name="Trazado 482799" d="M1591,1530.111a.741.741,0,0,0,.729.613h22.153a.613.613,0,0,0,.612-.613Z" transform="translate(-1464.531 -1408.486)" fill="#c9793c"/>
            <path id="Trazado_482800" data-name="Trazado 482800" d="M1615.01,1411.511v3.566a.742.742,0,0,0,.012.129.741.741,0,0,0,.729.612h22.024a.74.74,0,0,0,.729-.612.719.719,0,0,0,.012-.129v-3.566a.742.742,0,0,0-.741-.742h-22.024a.742.742,0,0,0-.741.742" transform="translate(-1486.638 -1298.631)" fill="#d98853"/>
            <path id="Trazado_482801" data-name="Trazado 482801" d="M1805.78,1415.818h7.712a.63.63,0,0,0,.63-.63V1411.4a.63.63,0,0,0-.63-.63h-7.712v5.047Z" transform="translate(-1662.244 -1298.632)" fill="#f8a66c"/>
            <path id="Trazado_482802" data-name="Trazado 482802" d="M1745.762,1415.818h1.551v-5.047h-1.551v5.047Z" transform="translate(-1606.997 -1298.632)" fill="#f8a66c"/>
            <rect id="Rectángulo_272671" data-name="Rectángulo 272671" width="2.46" height="5.049" transform="translate(147.659 112.138)" fill="#f9b889"/>
            <path id="Trazado_482803" data-name="Trazado 482803" d="M1615.278,1415.82h.91v-5.049h-.91a.269.269,0,0,0-.269.269v4.51a.269.269,0,0,0,.269.269" transform="translate(-1486.637 -1298.632)" fill="#f7a46e"/>
            <path id="Trazado_482804" data-name="Trazado 482804" d="M1615.157,1466.587a.741.741,0,0,0,.729.613h22.153a.613.613,0,0,0,.612-.613Z" transform="translate(-1486.773 -1350.012)" fill="#c9793c"/>
            <path id="Trazado_482805" data-name="Trazado 482805" d="M1588.438,1538.559v3.566a.723.723,0,0,0,.012.129.741.741,0,0,0,.729.612H1611.2a.741.741,0,0,0,.729-.612.723.723,0,0,0,.012-.129v-3.566a.742.742,0,0,0-.741-.742h-22.024a.742.742,0,0,0-.741.742" transform="translate(-1462.178 -1415.58)" fill="#d98853"/>
            <path id="Trazado_482806" data-name="Trazado 482806" d="M1779.208,1542.866h7.712a.63.63,0,0,0,.63-.63v-3.787a.63.63,0,0,0-.63-.63h-7.712v5.047Z" transform="translate(-1637.784 -1415.582)" fill="#f8a66c"/>
            <path id="Trazado_482807" data-name="Trazado 482807" d="M1719.191,1542.866h1.551v-5.047h-1.551v5.047Z" transform="translate(-1582.538 -1415.582)" fill="#f8a66c"/>
            <rect id="Rectángulo_272672" data-name="Rectángulo 272672" width="2.46" height="5.049" transform="translate(145.546 122.237)" fill="#f9b889"/>
            <path id="Trazado_482808" data-name="Trazado 482808" d="M1588.706,1542.869h.91v-5.049h-.91a.269.269,0,0,0-.269.269v4.51a.269.269,0,0,0,.269.269" transform="translate(-1462.177 -1415.583)" fill="#f7a46e"/>
            <path id="Trazado_482809" data-name="Trazado 482809" d="M1588.586,1593.635a.741.741,0,0,0,.729.613h22.153a.613.613,0,0,0,.612-.613Z" transform="translate(-1462.314 -1466.961)" fill="#c9793c"/>
            <path id="Trazado_482810" data-name="Trazado 482810" d="M1610.43,1602.083v3.566a.708.708,0,0,0,.012.129.741.741,0,0,0,.729.613h22.024a.741.741,0,0,0,.729-.613.754.754,0,0,0,.012-.129v-3.566a.742.742,0,0,0-.741-.742h-22.024a.742.742,0,0,0-.741.742" transform="translate(-1482.422 -1474.055)" fill="#d98853"/>
            <path id="Trazado_482811" data-name="Trazado 482811" d="M1801.2,1606.39h7.712a.63.63,0,0,0,.63-.63v-3.787a.63.63,0,0,0-.63-.63H1801.2v5.047Z" transform="translate(-1658.028 -1474.057)" fill="#f8a66c"/>
            <path id="Trazado_482812" data-name="Trazado 482812" d="M1741.183,1606.391h1.551v-5.047h-1.551v5.047Z" transform="translate(-1602.781 -1474.057)" fill="#f8a66c"/>
            <rect id="Rectángulo_272673" data-name="Rectángulo 272673" width="2.46" height="5.049" transform="translate(147.295 127.286)" fill="#f9b889"/>
            <path id="Trazado_482813" data-name="Trazado 482813" d="M1610.7,1606.393h.91v-5.049h-.91a.269.269,0,0,0-.269.269v4.51a.269.269,0,0,0,.269.269" transform="translate(-1482.421 -1474.057)" fill="#f7a46e"/>
            <path id="Trazado_482814" data-name="Trazado 482814" d="M1610.578,1657.16a.74.74,0,0,0,.729.612h22.153a.613.613,0,0,0,.612-.612Z" transform="translate(-1482.558 -1525.437)" fill="#c9793c"/>
            <path id="Trazado_482815" data-name="Trazado 482815" d="M1581.09,1665.608v3.566a.74.74,0,0,0,.012.129.741.741,0,0,0,.729.613h22.024a.743.743,0,0,0,.741-.742v-3.566a.742.742,0,0,0-.741-.742h-22.024a.742.742,0,0,0-.741.742" transform="translate(-1455.414 -1532.53)" fill="#d98853"/>
            <path id="Trazado_482816" data-name="Trazado 482816" d="M1771.86,1669.916h7.712a.63.63,0,0,0,.63-.63V1665.5a.63.63,0,0,0-.63-.63h-7.712v5.047Z" transform="translate(-1631.02 -1532.532)" fill="#f8a66c"/>
            <path id="Trazado_482817" data-name="Trazado 482817" d="M1711.842,1669.915h1.551v-5.047h-1.551v5.047Z" transform="translate(-1575.773 -1532.532)" fill="#f8a66c"/>
            <rect id="Rectángulo_272674" data-name="Rectángulo 272674" width="2.46" height="5.049" transform="translate(144.962 132.336)" fill="#f9b889"/>
            <path id="Trazado_482818" data-name="Trazado 482818" d="M1581.358,1669.917h.91v-5.049h-.91a.269.269,0,0,0-.269.269v4.51a.269.269,0,0,0,.269.269" transform="translate(-1455.413 -1532.532)" fill="#f7a46e"/>
            <path id="Trazado_482819" data-name="Trazado 482819" d="M1581.238,1720.684a.741.741,0,0,0,.729.613h22.153a.613.613,0,0,0,.612-.613Z" transform="translate(-1455.55 -1583.911)" fill="#c9793c"/>
            <path id="Trazado_482820" data-name="Trazado 482820" d="M1588.438,1729.132v3.566a.718.718,0,0,0,.012.129.741.741,0,0,0,.729.613H1611.2a.741.741,0,0,0,.729-.613.718.718,0,0,0,.012-.129v-3.566a.742.742,0,0,0-.741-.742h-22.024a.742.742,0,0,0-.741.742" transform="translate(-1462.178 -1591.005)" fill="#d98853"/>
            <path id="Trazado_482821" data-name="Trazado 482821" d="M1779.208,1733.439h7.712a.63.63,0,0,0,.63-.63v-3.787a.63.63,0,0,0-.63-.63h-7.712v5.047Z" transform="translate(-1637.784 -1591.007)" fill="#f8a66c"/>
            <path id="Trazado_482822" data-name="Trazado 482822" d="M1719.191,1733.439h1.551v-5.047h-1.551v5.047Z" transform="translate(-1582.538 -1591.007)" fill="#f8a66c"/>
            <rect id="Rectángulo_272675" data-name="Rectángulo 272675" width="2.46" height="5.049" transform="translate(145.546 137.385)" fill="#f9b889"/>
            <path id="Trazado_482823" data-name="Trazado 482823" d="M1588.706,1733.441h.91v-5.049h-.91a.269.269,0,0,0-.269.269v4.51a.269.269,0,0,0,.269.269" transform="translate(-1462.177 -1591.007)" fill="#f7a46e"/>
            <path id="Trazado_482824" data-name="Trazado 482824" d="M1588.586,1784.208a.741.741,0,0,0,.729.613h22.153a.613.613,0,0,0,.612-.613Z" transform="translate(-1462.314 -1642.386)" fill="#c9793c"/>
            <path id="Trazado_482825" data-name="Trazado 482825" d="M1688.609,1523.034a11.27,11.27,0,1,0,10.776-11.742,11.269,11.269,0,0,0-10.776,11.742" transform="translate(-1554.377 -1391.154)" fill="#bf6a3c"/>
            <path id="Trazado_482826" data-name="Trazado 482826" d="M1710.36,1519.049c.157,15.242,22.445,15.5,23.041.368-.128-15.159-22.388-15.6-23.041-.368" transform="translate(-1574.409 -1387.982)" fill="#f9b889"/>
            <path id="Trazado_482827" data-name="Trazado 482827" d="M1716.33,1524.932c.016,14.523,21.614,14.866,22.092.352-.016-14.524-21.614-14.866-22.092-.352" transform="translate(-1579.904 -1393.856)" fill="#f8a66c"/>
            <path id="Trazado_482828" data-name="Trazado 482828" d="M1813.823,1590.378c-.848-1.266-3.418-1.338-4.534-1.97-1.258-1.808,3.049-2.212,2.9-.29.042.6,1.17.284,1.526.345a.4.4,0,0,0,.436-.42,3.3,3.3,0,0,0-3.7-3.2c-2.727-.2-4.491,3.135-2.578,5.058.639.839,3.375,1.163,4.192,1.655,1.524,1.543-1.523,2.551-2.638,1.541-1.181-.963.192-1.824-2.133-1.579a.425.425,0,0,0-.317.121c-.668,6.05,10.145,4.508,6.84-1.265" transform="translate(-1663.325 -1458.865)" fill="#d98853"/>
            <path id="Trazado_482829" data-name="Trazado 482829" d="M1845.393,1569.516c-1.828-.035-1.168.04-1.261,1.6l1.5-.024c-.071-.188.162-1.629-.235-1.576" transform="translate(-1697.508 -1444.754)" fill="#d98853"/>
            <path id="Trazado_482830" data-name="Trazado 482830" d="M1846.777,1714.279c1.828.035,1.168-.04,1.261-1.6l-1.5.024c.071.188-.162,1.629.235,1.576" transform="translate(-1699.761 -1576.543)" fill="#d98853"/>
            <g id="Grupo_726543" data-name="Grupo 726543" transform="translate(142.76 119.729)" opacity="0.42">
              <g id="Grupo_726542" data-name="Grupo 726542">
                <g id="Grupo_726541" data-name="Grupo 726541" clip-path="url(#clip-path-10)">
                  <path id="Trazado_482831" data-name="Trazado 482831" d="M1796.017,1507.27l15.073,15.563a11.555,11.555,0,0,0,1.147-5.6l-10.588-10.932a11.55,11.55,0,0,0-5.632.968" transform="translate(-1796.017 -1506.265)" fill="#fff"/>
                </g>
              </g>
            </g>
            <g id="Grupo_726546" data-name="Grupo 726546" transform="translate(140.42 121.208)" opacity="0.42">
              <g id="Grupo_726545" data-name="Grupo 726545">
                <g id="Grupo_726544" data-name="Grupo 726544" clip-path="url(#clip-path-11)">
                  <path id="Trazado_482832" data-name="Trazado 482832" d="M1766.585,1525.808l15.933,16.451a11.527,11.527,0,0,0,.976-1.37l-15.508-16.011a11.514,11.514,0,0,0-1.4.931" transform="translate(-1766.585 -1524.877)" fill="#fff"/>
                </g>
              </g>
            </g>
            <path id="Trazado_482833" data-name="Trazado 482833" d="M1739.4,1512c1.916.045,2.337.485,2.3,2.4.039-1.916.478-2.335,2.394-2.291-1.916-.044-2.337-.485-2.3-2.4-.039,1.916-.478,2.336-2.394,2.291" transform="translate(-1601.143 -1389.708)" fill="#fff"/>
            <path id="Trazado_482834" data-name="Trazado 482834" d="M1160.989,1633.093a15.723,15.723,0,0,0,4.245.887,6.413,6.413,0,0,0-.706,4.477l-1.666-.571c-.448-.153-.9-.307-1.351-.442-.23-.068-.461-.131-.694-.187a1.962,1.962,0,0,1-.6-.154c-.167-.111-.085-.242-.02-.4q.135-.323.248-.655a10.384,10.384,0,0,0,.546-2.958" transform="translate(-1067.902 -1503.283)" fill="#ffa188"/>
            <path id="Trazado_482835" data-name="Trazado 482835" d="M1161.768,1636.479c-.44-.151-.894-.306-1.346-.44-.248-.074-.473-.134-.689-.186-.051-.012-.112-.022-.176-.031a1.151,1.151,0,0,1-.457-.135c-.214-.143-.132-.329-.073-.465l.02-.046c.089-.212.171-.431.246-.65a10.29,10.29,0,0,0,.541-2.932l0-.126.119.042a15.6,15.6,0,0,0,4.22.882l.147.01-.073.128a6.332,6.332,0,0,0-.7,4.412l.034.159Zm-1.756-4.753a10.465,10.465,0,0,1-.546,2.859c-.076.223-.16.445-.25.661l-.021.048c-.066.151-.072.185.007.238a1.013,1.013,0,0,0,.382.106c.068.01.132.02.191.034.219.052.447.114.7.188.456.135.912.291,1.355.443l1.514.519a6.53,6.53,0,0,1,.676-4.257,15.78,15.78,0,0,1-4.007-.84" transform="translate(-1066.839 -1501.788)" fill="#ffa188"/>
            <path id="Trazado_482836" data-name="Trazado 482836" d="M1149.538,1677.126a6.723,6.723,0,0,0-.669,2.621,11.935,11.935,0,0,0,4.458,4.1,10.82,10.82,0,0,0,5.643,1.173,1.084,1.084,0,0,0,.915-.4.773.773,0,0,0-.11-.824,2.591,2.591,0,0,0-.679-.554,12.433,12.433,0,0,1-4.807-6.086,17.5,17.5,0,0,1-4.751-.038" transform="translate(-1057.549 -1543.816)" fill="#2d3969"/>
            <path id="Trazado_482837" data-name="Trazado 482837" d="M1144.91,1705.227a2.086,2.086,0,0,0,.638,1.275,13.313,13.313,0,0,0,3.932,3.19,9.725,9.725,0,0,0,5.206,1.042,2.009,2.009,0,0,0,.652-.169.7.7,0,0,0,.5-.618c-.014-.1-.079-.284-.07-.3.142.025.246.257.271.35a3.048,3.048,0,0,1-.011,1.024,1.325,1.325,0,0,1-1.155,1.138,10.6,10.6,0,0,1-1.141.087,11.557,11.557,0,0,1-2.285-.163,13.208,13.208,0,0,1-2.311-.713,6.2,6.2,0,0,1-2.036-1.4l-2.551-2.493a4.906,4.906,0,0,1,.364-2.252" transform="translate(-1053.559 -1569.683)" fill="#1d263f"/>
            <path id="Trazado_482838" data-name="Trazado 482838" d="M1104.281,1068.348c-1.645-.268-3.392-.571-5.036-.84a126.566,126.566,0,0,0-.749-17.605c-.186-1.635-.4-3.233-.648-4.767-.022-.147-3.795-15.781-3.816-15.928-.659-4.8,2.336-5.937,2.073-9.217a4.293,4.293,0,0,1,.117-1.793c.058-.161.367-.337.79-.5a9.316,9.316,0,0,1,1.67-.44,2.529,2.529,0,0,1,1.493.023c1.6,1.171,6.418,12.4,6.777,24.058.807,11.684-1.878,23.329-2.672,27.007" transform="translate(-1006.984 -936.316)" fill="#2d3969"/>
            <path id="Trazado_482839" data-name="Trazado 482839" d="M894.224,1640.747a15.7,15.7,0,0,0,4.235.932,6.413,6.413,0,0,0-.753,4.47l-1.659-.588c-.447-.158-.893-.317-1.346-.456-.229-.071-.459-.136-.692-.195a1.966,1.966,0,0,1-.6-.16c-.165-.113-.083-.243-.016-.4q.138-.322.255-.653a10.377,10.377,0,0,0,.577-2.952" transform="translate(-822.304 -1510.328)" fill="#ffa188"/>
            <path id="Trazado_482840" data-name="Trazado 482840" d="M894.948,1644.14c-.437-.154-.888-.314-1.338-.453-.247-.076-.472-.14-.687-.193-.051-.013-.112-.023-.176-.033a1.151,1.151,0,0,1-.455-.14c-.212-.145-.129-.33-.068-.465l.02-.046c.091-.211.176-.429.253-.647a10.277,10.277,0,0,0,.572-2.926l.006-.126.118.044a15.586,15.586,0,0,0,4.21.927l.147.011-.075.127a6.332,6.332,0,0,0-.742,4.4l.032.159Zm-1.7-4.77a10.467,10.467,0,0,1-.576,2.854c-.078.222-.165.444-.257.658l-.021.048c-.067.15-.074.185,0,.238a1.01,1.01,0,0,0,.381.11c.068.011.132.021.191.036.219.055.447.119.7.2.453.14.906.3,1.35.457l1.509.535a6.53,6.53,0,0,1,.721-4.25,15.757,15.757,0,0,1-4-.883" transform="translate(-821.241 -1508.822)" fill="#ffa188"/>
            <path id="Trazado_482841" data-name="Trazado 482841" d="M904.716,1010.045a38.979,38.979,0,0,0-2.38,9.273c-.352,3.153-.173,7.446-2.772,15.554-2.406,8.2-3.86,19.923-5.212,25.415,3.949.866,5.563,1.178,5.563,1.178s6.478-17.894,7.563-20.307c4.041-8.39,7.721-22,8.471-24.362.642-1.514-.251-5.966-1.827-7.694-2.723.675-6.643,1.539-9.407.942" transform="translate(-823.262 -928.892)" fill="#2d3969"/>
            <path id="Trazado_482842" data-name="Trazado 482842" d="M1124.113,1024.057c-.557,1.752-2.666,9.439-5.361,16.868-.312-1.3-.664-2.765-1.013-4.213,1.945-5.82,3.4-11.1,3.841-12.489.561-1.322-.049-4.879-1.259-6.912.091-.018.182-.035.271-.05a2.535,2.535,0,0,1,1.494.024,10.583,10.583,0,0,1,2.049,3.4,6.761,6.761,0,0,1-.022,3.374" transform="translate(-1028.893 -936.318)" fill="#1d263f"/>
            <path id="Trazado_482843" data-name="Trazado 482843" d="M934.066,1100.82c.013-.1.416-2.777.429-2.876a4.348,4.348,0,0,1-1.324-.27,9.339,9.339,0,0,1-1.186-.4c-.044.288-.506,2.881-.543,3.169-.351,3.153-.172,7.446-2.772,15.555-.5,1.7-2.647,11.985-2.659,12.482,2.275-1.108,4.581-9.723,5.282-12.11,2.6-8.109,2.42-12.4,2.772-15.555" transform="translate(-852.406 -1010.059)" fill="#1d263f"/>
            <path id="Trazado_482844" data-name="Trazado 482844" d="M882.458,1684.631a6.723,6.723,0,0,0-.7,2.614,11.935,11.935,0,0,0,4.414,4.151,10.82,10.82,0,0,0,5.631,1.232,1.083,1.083,0,0,0,.919-.386.773.773,0,0,0-.1-.825,2.59,2.59,0,0,0-.673-.561,12.434,12.434,0,0,1-4.743-6.136,17.5,17.5,0,0,1-4.751-.089" transform="translate(-811.673 -1550.724)" fill="#2d3969"/>
            <path id="Trazado_482845" data-name="Trazado 482845" d="M877.616,1712.645a2.086,2.086,0,0,0,.625,1.282,13.307,13.307,0,0,0,3.9,3.232,9.724,9.724,0,0,0,5.195,1.1,2.008,2.008,0,0,0,.653-.162c.329-.147.489-.333.5-.613-.013-.1-.076-.284-.066-.305.142.026.243.26.267.353a3.048,3.048,0,0,1-.022,1.023,1.325,1.325,0,0,1-1.167,1.126,10.649,10.649,0,0,1-1.142.075,11.573,11.573,0,0,1-2.283-.187,13.223,13.223,0,0,1-2.3-.738,6.206,6.206,0,0,1-2.021-1.417l-2.524-2.52a4.9,4.9,0,0,1,.387-2.248" transform="translate(-807.493 -1576.511)" fill="#1d263f"/>
            <path id="Trazado_482846" data-name="Trazado 482846" d="M1068.253,663.594a3.285,3.285,0,0,0,2.43,1.757,5.369,5.369,0,0,0,3.3-.341,9.272,9.272,0,0,0,2.772-2.025,6.546,6.546,0,0,1-.822-1.077,8.3,8.3,0,0,1-.932-2.226,12.29,12.29,0,0,1-.36-1.943,9.222,9.222,0,0,1-.009-1.747,6.244,6.244,0,0,1-5.659.291,36.665,36.665,0,0,0-.45,3.813c-.076,1-.136,1.994-.223,2.969q-.024.265-.051.527" transform="translate(-983.341 -603.85)" fill="#ffa188"/>
            <path id="Trazado_482847" data-name="Trazado 482847" d="M1069.571,663.559a3.341,3.341,0,0,1-2.491-1.807l-.011-.023,0-.026c.018-.175.035-.35.051-.526.057-.635.1-1.291.148-1.925q.037-.519.075-1.042a36.647,36.647,0,0,1,.451-3.823l.019-.107.1.036a6.173,6.173,0,0,0,5.584-.285l.151-.081-.016.171a9.088,9.088,0,0,0,.009,1.729,12.163,12.163,0,0,0,.357,1.929,8.2,8.2,0,0,0,.922,2.2,6.485,6.485,0,0,0,.81,1.062l.062.065-.064.063a9.487,9.487,0,0,1-2.8,2.044,5.846,5.846,0,0,1-2.256.472,4.736,4.736,0,0,1-1.106-.127m5.2-3.484a8.376,8.376,0,0,1-.943-2.25,12.313,12.313,0,0,1-.363-1.958,9.332,9.332,0,0,1-.023-1.6,6.285,6.285,0,0,1-5.482.254,36.969,36.969,0,0,0-.43,3.7q-.04.523-.075,1.041c-.045.635-.091,1.292-.148,1.929-.015.168-.031.336-.048.5a3.179,3.179,0,0,0,2.357,1.684,5.288,5.288,0,0,0,3.247-.336,9.159,9.159,0,0,0,2.679-1.943,6.689,6.689,0,0,1-.772-1.026" transform="translate(-982.25 -601.968)" fill="#ffa188"/>
            <path id="Trazado_482848" data-name="Trazado 482848" d="M1072.5,683.146a3.85,3.85,0,0,0,1.3,1.423,4.019,4.019,0,0,0,1.377.42,14.132,14.132,0,0,0,3.8.088c-.061-.184-.116-.369-.166-.556-.088-.334-.165-.668-.226-1a14.125,14.125,0,0,1-4.491.007,4.021,4.021,0,0,1-1.377-.42c-.071-.04-.2-.131-.2-.131s0,.02-.011.1c0,.013,0,.036-.006.056,0,0,0,.007,0,.01" transform="translate(-987.252 -628.687)" fill="#ed836e"/>
            <path id="Trazado_482849" data-name="Trazado 482849" d="M1273.293,795.286s-.372.028-.742.1c-10.646,1.976-16.952,1.095-20.328-.553-.04.053-2.979,6.6-2.728,6.728.432.444,9.3,1.342,9.871,1.231,2.424-.47,8.969-2.468,12.114-3.427.874-.267,1.506-.46,1.564-.471l.085-.016-.009-.086a11.684,11.684,0,0,1,.22-2.873Z" transform="translate(-1150.163 -731.65)" fill="#ffa188"/>
            <path id="Trazado_482850" data-name="Trazado 482850" d="M969.763,727.039a19.454,19.454,0,0,0,.318,3.07c.092.539.308,1.234.418,1.769.328,1.569.6,2.966.933,4.534a57.952,57.952,0,0,1,.255,6.736c0,1.59-.01,7.719-.01,7.719a95.593,95.593,0,0,0,10.124.6c3.873.047,7.182-1.133,7.8-1.132,0,0,.06-10.842.123-12.032.016-.3.035-.611.055-.922a21.657,21.657,0,0,0,0-3.859c-.056-.458-.119-.914-.182-1.369a12.1,12.1,0,0,0,1.951,1.418,18.946,18.946,0,0,0,2.128,1.077A36.179,36.179,0,0,0,995.551,725c-2.5-2.969-10.713-5.923-10.713-5.923a4.1,4.1,0,0,1-1.033,2.013,3.254,3.254,0,0,1-1.641.788,5.033,5.033,0,0,1-2.9-.5,4.407,4.407,0,0,1-1.564-2.164s-2.8,1.252-4.02,1.909a17.609,17.609,0,0,0-2.048,1.29,3.865,3.865,0,0,0-1.669,1.828,7.446,7.446,0,0,0-.2,2.8" transform="translate(-892.647 -661.919)" fill="#ead6c5"/>
            <path id="Trazado_482851" data-name="Trazado 482851" d="M988.393,779.674a1.5,1.5,0,0,0-.251.452,6.537,6.537,0,0,0,.259,2.269,8.237,8.237,0,0,1,.074,2.293,18.917,18.917,0,0,1,6.105-.7c1.814.078,3.657.585,5.471.585a1.593,1.593,0,0,0,1.27-.208,1.373,1.373,0,0,0,.195-1.418,11.892,11.892,0,0,0-1.75-3.053,20.75,20.75,0,0,1-2.946-6.721c-.366-1.528-.654-3.26-1.924-4.185a1.041,1.041,0,0,0-.784-.248,1.18,1.18,0,0,0-.651.511c-1.714,2.264-2.228,5.135-3.343,7.69a12.544,12.544,0,0,1-.951,1.808c-.19.293-.53.6-.773.924" transform="translate(-909.549 -707.624)" fill="#c6aa95"/>
            <path id="Trazado_482852" data-name="Trazado 482852" d="M1179.952,842.672a69.939,69.939,0,0,1,3.341,8.48,21.652,21.652,0,0,0,0-3.859c-.056-.458-.119-.914-.182-1.369a12.1,12.1,0,0,0,1.951,1.418c-.016-.138-.112-.246-.33-.421a42.635,42.635,0,0,1-4.784-4.249" transform="translate(-1086.161 -775.69)" fill="#c6aa95"/>
            <path id="Trazado_482853" data-name="Trazado 482853" d="M1132.277,512.259a4.061,4.061,0,0,1,.723,3.266c-.034.133-.373,1.186-.373,1.186a4.021,4.021,0,0,0-.3-.951,5.279,5.279,0,0,1-1.768-1.673,11.245,11.245,0,0,1-1.11-2.186,2.824,2.824,0,0,1-.2-.647c-.028-.2-.056-.615.225-.609a2.944,2.944,0,0,1,.784.163,4.009,4.009,0,0,1,1.4.783,3.821,3.821,0,0,1,.611.666" transform="translate(-1039.476 -470.057)" fill="#4b2c1b"/>
            <path id="Trazado_482854" data-name="Trazado 482854" d="M1029.643,508.031c1.214,4.2,4.351,7.375,7.443,6.482s4.216-5.239,3.253-9.5c-1.062-4.705-4.827-7.021-7.92-6.127s-3.99,4.949-2.776,9.149" transform="translate(-947.32 -459.053)" fill="#ffa188"/>
            <path id="Trazado_482855" data-name="Trazado 482855" d="M1031.534,512.177a11.315,11.315,0,0,1-3.043-5.194,11.024,11.024,0,0,1-.227-5.865,4.516,4.516,0,0,1,3.066-3.4,5.425,5.425,0,0,1,4.284.639,8.424,8.424,0,0,1,3.751,5.556,11.868,11.868,0,0,1-.108,6.064,4.982,4.982,0,0,1-3.209,3.548,3.882,3.882,0,0,1-1.08.153,5.153,5.153,0,0,1-3.433-1.5m-.153-14.28a4.341,4.341,0,0,0-2.94,3.271,10.84,10.84,0,0,0,.226,5.764,11.128,11.128,0,0,0,2.991,5.109,4.538,4.538,0,0,0,4.339,1.31c2.842-.821,4.212-4.86,3.188-9.395a8.242,8.242,0,0,0-3.665-5.438,5.543,5.543,0,0,0-2.816-.807,4.757,4.757,0,0,0-1.323.186" transform="translate(-946.256 -457.98)" fill="#ffa188"/>
            <path id="Trazado_482856" data-name="Trazado 482856" d="M982.655,450.283s1.648-5.326-3.192-5.758a11.9,11.9,0,0,1-2.694,3.061,7.921,7.921,0,0,0-1.815,1.484,4.257,4.257,0,0,0-.686,2.175,11.081,11.081,0,0,0,.362,3.944.983.983,0,0,0-.84-.407,2.872,2.872,0,0,0-.978.251c.244.362.588.637.859.98a4.27,4.27,0,0,1,.66,1.552,4.111,4.111,0,0,1-1.781-.633,11.475,11.475,0,0,1-1.438-1.15c-.969-.863-1.338-2.171-2.352-2.959-.976-.758-2.209-1.567-2.4-2.791a4.906,4.906,0,0,1,.844-3.458,6.506,6.506,0,0,1,.831-.9,9.777,9.777,0,0,0,.847-.706c.708-.828.607-2.11,1.24-3a3.683,3.683,0,0,1,2.655-1.234,8.807,8.807,0,0,0,2.944-.573c.657-.328,1.185-.869,1.828-1.225a3.746,3.746,0,0,1,2.821-.317,3.685,3.685,0,0,1,1.854,1.237,4.051,4.051,0,0,1,.577,1.945,15.593,15.593,0,0,0,.079,2.426,13.8,13.8,0,0,0,.844,1.828,3.619,3.619,0,0,1-1.07,4.221" transform="translate(-889.504 -403.629)" fill="#643a24"/>
            <path id="Trazado_482857" data-name="Trazado 482857" d="M1066.277,521.141a11.046,11.046,0,0,0,.032,2.278,11.467,11.467,0,0,1,.141-1.6,4.314,4.314,0,0,1,.882-2.12,8.274,8.274,0,0,1,1.989-1.341,19.168,19.168,0,0,0,3.2-2.99,3.84,3.84,0,0,0-.9-.854l-.176-.018a11.4,11.4,0,0,1-2.655,2.981,7.954,7.954,0,0,0-1.82,1.485,4.255,4.255,0,0,0-.689,2.176" transform="translate(-981.481 -473.602)" fill="#ed836e"/>
            <path id="Trazado_482858" data-name="Trazado 482858" d="M1096.281,434.645a3.939,3.939,0,0,0-.047-3.239,3.555,3.555,0,0,0-2.793-1.8,3.331,3.331,0,0,0-2.281.847,6.193,6.193,0,0,0-1.457,1.953l.2.1a5.987,5.987,0,0,1,1.4-1.886,3.121,3.121,0,0,1,2.127-.795,3.321,3.321,0,0,1,2.609,1.686,3.716,3.716,0,0,1,.038,3.055Z" transform="translate(-1003.086 -395.449)" fill="#643a24"/>
            <path id="Trazado_482859" data-name="Trazado 482859" d="M958.119,475.422l.208-.072a1.885,1.885,0,0,0-1.544-1.029c-.142-.024-.289-.044-.43-.062a3.192,3.192,0,0,1-1.3-.356,1.993,1.993,0,0,1-.845-1.327,4.273,4.273,0,0,1,.055-1.655,3.033,3.033,0,0,1,.915-1.852,3.527,3.527,0,0,1,1.211-.52c.117-.034.233-.068.348-.1a2.056,2.056,0,0,0,1.411-1.061,2.4,2.4,0,0,0,.068-1.214,3.167,3.167,0,0,1-.02-.871,2.013,2.013,0,0,1,1.347-1.431,6.135,6.135,0,0,1,2.109-.255l2.539-.012v-.221l-2.539.012a6.394,6.394,0,0,0-2.184.268,2.232,2.232,0,0,0-1.488,1.6,3.332,3.332,0,0,0,.018.933,2.208,2.208,0,0,1-.052,1.1,1.858,1.858,0,0,1-1.274.935c-.113.036-.228.069-.343.1a3.694,3.694,0,0,0-1.285.558,3.23,3.23,0,0,0-1,1.985,4.605,4.605,0,0,0-.055,1.74,2.212,2.212,0,0,0,.945,1.472,3.4,3.4,0,0,0,1.384.387c.139.018.283.037.422.061.424.072,1.166.283,1.373.883" transform="translate(-878.108 -426.547)" fill="#643a24"/>
            <path id="Trazado_482860" data-name="Trazado 482860" d="M1534.566,762.077c.27-.1.809-.217,1.077-.326a10.5,10.5,0,0,1,6.606.543,9.119,9.119,0,0,0,1.6.529,1.627,1.627,0,0,0,.875.066.272.272,0,0,0,.061-.5,19.97,19.97,0,0,0-1.882-.752.156.156,0,0,1,.079-.3,5.871,5.871,0,0,1,1.048.292,9.524,9.524,0,0,0,1.682.354,2.23,2.23,0,0,0,.906-.062.289.289,0,0,0-.017-.559q-1.7-.388-3.363-.926a.156.156,0,0,1,.039-.3,2.633,2.633,0,0,1,.97.121c.492.147,1.052.23,1.544.374a5.179,5.179,0,0,0,1.466.247.329.329,0,0,0,.132-.627,10.271,10.271,0,0,0-2.322-.555c-.682-.131-1.115-.236-1.985-.476-.055-.015-.122-.039-.194-.066a.158.158,0,0,1,.056-.306c.647,0,1.537.148,2.018.166a5.087,5.087,0,0,0,1.5-.053.365.365,0,0,0,.073-.677,2.962,2.962,0,0,0-1.082-.247l-5-.414c-.383-.032-.86-.139-.919-.534a.562.562,0,0,1,.081-.365,2.733,2.733,0,0,1,.6-.573,3.373,3.373,0,0,0,.838-1.164.248.248,0,0,0-.349-.3,8.4,8.4,0,0,0-2.146,1.88,5.037,5.037,0,0,1-1.741,1.463,9.933,9.933,0,0,1-.97.249h0c-.505.12-.659.079-1.194.173" transform="translate(-1412.588 -694.664)" fill="#ffa188"/>
            <rect id="Rectángulo_272678" data-name="Rectángulo 272678" width="74.156" height="8.907" transform="translate(69.575 74.649) rotate(-11.201)" fill="#5971d4"/>
            <rect id="Rectángulo_272679" data-name="Rectángulo 272679" width="74.16" height="3.13" transform="translate(70.128 77.443) rotate(-11.201)" fill="#7186e2"/>
            <rect id="Rectángulo_272680" data-name="Rectángulo 272680" width="74.16" height="2.929" transform="translate(70.736 80.513) rotate(-11.201)" fill="#5971d4"/>
            <rect id="Rectángulo_272681" data-name="Rectángulo 272681" width="2.119" height="8.912" transform="matrix(0.981, -0.194, 0.194, 0.981, 67.496, 75.061)" fill="#c4d2ff"/>
            <path id="Trazado_482861" data-name="Trazado 482861" d="M750.574,953l-1.036-5.234a1.783,1.783,0,0,1,1.4-2.1l6.485-1.284,1.729,8.731-6.485,1.284a1.783,1.783,0,0,1-2.1-1.4" transform="translate(-689.928 -869.317)" fill="#465ab3"/>
            <path id="Trazado_482862" data-name="Trazado 482862" d="M750.053,950.38l-.518-2.618a1.781,1.781,0,0,1,1.4-2.094l6.486-1.284.864,4.366Z" transform="translate(-689.925 -869.317)" fill="#465ab3"/>
            <path id="Trazado_482863" data-name="Trazado 482863" d="M1790.459,757.911l12.454,2.006-10.719,6.736Z" transform="translate(-1648.141 -697.667)" fill="#fff"/>
            <path id="Trazado_482864" data-name="Trazado 482864" d="M1892.857,774.487l.587,2.963,3.621-2.333-4.225-.72Z" transform="translate(-1742.383 -712.843)" fill="#5971d4"/>
            <path id="Trazado_482865" data-name="Trazado 482865" d="M1026.653,883.575c-.466.042-6.158-6.276-7.18-9.772,2.337-.517,3.4-1.319,5.782-1.534.747,1.473,2.032,4.064,2.788,6.046a101.434,101.434,0,0,1,10.029-3.927h0a19.478,19.478,0,0,1,2.257-.8,5.933,5.933,0,0,0,1.229.914,6.082,6.082,0,0,0,1.018.677l-3.249,2.266s-7.839,4.568-11.016,6a1.767,1.767,0,0,1-1.657.134" transform="translate(-938.438 -802.935)" fill="#ffa188"/>
            <path id="Trazado_482866" data-name="Trazado 482866" d="M1038.031,876.4c-.078.046-7.879,4.587-11.025,6a1.868,1.868,0,0,1-1.731.137,18.473,18.473,0,0,1-3.418-3.589c-1.171-1.464-3.224-4.221-3.815-6.244l-.028-.094.1-.021a19.81,19.81,0,0,0,2.4-.718,12.884,12.884,0,0,1,3.392-.818l.062-.006.028.056c1.265,2.493,2.191,4.5,2.756,5.962a102.234,102.234,0,0,1,9.944-3.886,19.629,19.629,0,0,1,2.267-.8l.051-.014.038.036a5.866,5.866,0,0,0,1.21.9l.013.009a6.013,6.013,0,0,0,1,.666l.134.07Zm.93-3.834a19.827,19.827,0,0,0-2.2.785,100.961,100.961,0,0,0-10.017,3.923l-.09.044-.036-.094c-.554-1.455-1.481-3.467-2.755-5.982a12.8,12.8,0,0,0-3.285.8,20.326,20.326,0,0,1-2.327.7,23.045,23.045,0,0,0,3.7,6.026,19.628,19.628,0,0,0,3.354,3.586l.028,0,.027.018a1.7,1.7,0,0,0,1.569-.141c3.137-1.411,10.929-5.947,11-5.988l3.127-2.181a6.2,6.2,0,0,1-.9-.61,6.05,6.05,0,0,1-1.2-.888m-13.652,9.794h0Z" transform="translate(-937.096 -801.808)" fill="#ffa188"/>
            <path id="Trazado_482867" data-name="Trazado 482867" d="M979.871,780.676a35.3,35.3,0,0,1,6.408,8.459c-2.195,2.765-2.967,3.9-6.223,5.264a44.79,44.79,0,0,1-5.255-7.544" transform="translate(-897.317 -718.622)" fill="#ead6c5"/>
            <path id="Trazado_482868" data-name="Trazado 482868" d="M1255.981,842.7a6.692,6.692,0,0,0,1.143-2.017,2.663,2.663,0,0,1,.823-1.119,1.983,1.983,0,0,0,.018.577.669.669,0,0,0,.324.458c.309.155.671-.042.959-.232l3.341-2.2a1.28,1.28,0,0,1,.455-.22.436.436,0,0,1,.45.163c.135.219-.041.512-.267.635l-2.622,2.162a.644.644,0,0,0,.526-.083,10.312,10.312,0,0,1,1.524-.906l1.6-.868c.122-.082.42.037.423.184a.549.549,0,0,1-.2.377,5.671,5.671,0,0,1-.568.471L1261.9,841.6l2.384-.927a.325.325,0,0,1,.24-.027.219.219,0,0,1,.093.272.593.593,0,0,1-.2.242,5.471,5.471,0,0,1-1.921,1.03l.047.112c.125.037.245-.059.348-.138s.256-.146.354-.061a.211.211,0,0,1,.032.247.6.6,0,0,1-.18.195,12.412,12.412,0,0,1-3.648,2.011,5.028,5.028,0,0,0-1.372.556" transform="translate(-1156.147 -771.333)" fill="#ffa188"/>
            <path id="Trazado_482869" data-name="Trazado 482869" d="M1264.148,839.8a.3.3,0,0,0-.161-.3.409.409,0,0,0-.31.026l-1.771.689,1.483-1.125a5.81,5.81,0,0,0,.577-.479.634.634,0,0,0,.231-.445.3.3,0,0,0-.184-.242.4.4,0,0,0-.382-.016l-1.588.86a3.505,3.505,0,0,0-.939.53,5.169,5.169,0,0,1-.592.38.92.92,0,0,1-.252.094l2.443-2.015a.716.716,0,0,0,.338-.421A.423.423,0,0,0,1263,837a.526.526,0,0,0-.545-.205,1.36,1.36,0,0,0-.489.234l-3.341,2.2c-.282.186-.605.358-.867.226a.573.573,0,0,1-.276-.4,1.913,1.913,0,0,1-.015-.55l.013-.195-.159.114a2.689,2.689,0,0,0-.853,1.156l-.06.137a6.11,6.11,0,0,1-1.048,1.84l.1.155a5.425,5.425,0,0,0,1.118-1.921l.059-.136a2.773,2.773,0,0,1,.635-.954,1.545,1.545,0,0,0,.031.4.754.754,0,0,0,.372.519,1.1,1.1,0,0,0,1.051-.237l3.341-2.2a1.2,1.2,0,0,1,.421-.206.348.348,0,0,1,.355.121.239.239,0,0,1,.023.2.543.543,0,0,1-.256.311l-.014.01-2.742,2.261.144.057a.737.737,0,0,0,.6-.087,5.273,5.273,0,0,0,.614-.394,3.3,3.3,0,0,1,.9-.507l.016-.007,1.6-.868a.232.232,0,0,1,.2.022c.055.028.085.064.085.083a.476.476,0,0,1-.177.309,5.618,5.618,0,0,1-.559.463l-2.531,1.92,3-1.166a.261.261,0,0,1,.17-.028c.048.021.063.1.043.157a.518.518,0,0,1-.171.2,5.408,5.408,0,0,1-1.889,1.012l-.1.029.1.247.042.012a.487.487,0,0,0,.422-.147l.008-.007c.08-.061.188-.107.238-.064a.123.123,0,0,1,.01.137.523.523,0,0,1-.154.163,12.257,12.257,0,0,1-3.621,2c-.122.043-.244.08-.361.117a3.407,3.407,0,0,0-1.034.451l.107.15a3.267,3.267,0,0,1,.981-.425c.119-.037.243-.075.368-.118a12.447,12.447,0,0,0,3.676-2.026.687.687,0,0,0,.205-.227.3.3,0,0,0-.055-.356.243.243,0,0,0-.049-.034,5.593,5.593,0,0,0,1.22-.769.678.678,0,0,0,.227-.282.33.33,0,0,0,.018-.084" transform="translate(-1155.571 -770.269)" fill="#ffa188"/>
            <path id="Trazado_482870" data-name="Trazado 482870" d="M2173.611,704.966h27.67a1.589,1.589,0,0,0,1.59-1.589V685.405a1.589,1.589,0,0,0-1.59-1.589h-27.67a1.589,1.589,0,0,0-1.589,1.589v17.971a1.589,1.589,0,0,0,1.589,1.589" transform="translate(-1999.374 -629.461)" fill="#c4d2ff"/>
            <path id="Trazado_482871" data-name="Trazado 482871" d="M2200.131,704.047h-27.379a1.824,1.824,0,0,1-1.822-1.822v-17.68a1.824,1.824,0,0,1,1.822-1.822h27.379a1.824,1.824,0,0,1,1.822,1.822v17.68a1.824,1.824,0,0,1-1.822,1.822m-27.379-21.15a1.65,1.65,0,0,0-1.648,1.648v17.68a1.65,1.65,0,0,0,1.648,1.648h27.379a1.65,1.65,0,0,0,1.648-1.648v-17.68a1.65,1.65,0,0,0-1.648-1.648Z" transform="translate(-1998.37 -628.456)" fill="#6676be"/>
            <rect id="Rectángulo_272682" data-name="Rectángulo 272682" width="3.133" height="14.613" transform="translate(196.019 57.623)" fill="#899bdd"/>
            <rect id="Rectángulo_272683" data-name="Rectángulo 272683" width="3.133" height="14.613" transform="translate(191.262 57.623)" fill="#899bdd"/>
            <rect id="Rectángulo_272684" data-name="Rectángulo 272684" width="3.133" height="14.613" transform="translate(186.506 57.623)" fill="#899bdd"/>
            <rect id="Rectángulo_272685" data-name="Rectángulo 272685" width="3.133" height="14.613" transform="translate(181.749 57.623)" fill="#899bdd"/>
            <rect id="Rectángulo_272686" data-name="Rectángulo 272686" width="3.133" height="5.583" transform="translate(196.019 66.653)" fill="#fff"/>
            <rect id="Rectángulo_272687" data-name="Rectángulo 272687" width="3.133" height="8.033" transform="translate(191.262 64.203)" fill="#fff"/>
            <rect id="Rectángulo_272688" data-name="Rectángulo 272688" width="3.133" height="10.824" transform="translate(186.506 61.412)" fill="#fff"/>
            <rect id="Rectángulo_272689" data-name="Rectángulo 272689" width="3.133" height="6.21" transform="translate(181.749 66.026)" fill="#fff"/>
            <rect id="Rectángulo_272690" data-name="Rectángulo 272690" width="3.133" height="14.613" transform="translate(176.992 57.623)" fill="#fff"/>
            <path id="Trazado_482872" data-name="Trazado 482872" d="M2108.666,1264.475l1.648-.122a15.933,15.933,0,0,1-4.014-2.678,5.384,5.384,0,0,1-1.7-4.355,2.814,2.814,0,0,0,1.726.073,13.376,13.376,0,0,1-3.687-4.263c-.9-1.977-.786-4.252-.593-6.417a6.906,6.906,0,0,1,.435-2.16,2.427,2.427,0,0,1,1.565-1.452,2.772,2.772,0,0,1,2.833,1.726c.54,1.065,1.034,2.668,1.6,3.734.279-.917.344-2.617.718-3.528a24.579,24.579,0,0,1,6.417,5.53,3.411,3.411,0,0,1,.933,1.506,3.65,3.65,0,0,1-.136,1.6l-1.18,4.961,2.313-3.262a8.465,8.465,0,0,0,.54,1.235q.243.628.431,1.276a16.348,16.348,0,0,1,.546,2.722,16.753,16.753,0,0,1-.292,5.529,16.068,16.068,0,0,1-.85,2.686c-.138.33-.241.8-.67.777-.35-.021-.676-.443-.921-.651a12.793,12.793,0,0,0-3.78-1.9,7.538,7.538,0,0,1-3.876-2.572" transform="translate(-1934.831 -1144.247)" fill="#f9b889"/>
            <path id="Trazado_482873" data-name="Trazado 482873" d="M2157.639,1327.484a88.52,88.52,0,0,0-13.881-32.235l.3-.205a88.423,88.423,0,0,1,13.938,32.367Z" transform="translate(-1973.357 -1192.104)" fill="#d98853"/>
            <path id="Trazado_482874" data-name="Trazado 482874" d="M2114.193,1330.028a4.356,4.356,0,0,1-2.6-1.825l.3-.2a3.992,3.992,0,0,0,2.383,1.673Z" transform="translate(-1943.75 -1222.445)" fill="#d98853"/>
            <path id="Trazado_482875" data-name="Trazado 482875" d="M2136.73,1372.032a5.03,5.03,0,0,1-2.885-.905l.207-.294a4.734,4.734,0,0,0,3.936.665l.1.346a4.94,4.94,0,0,1-1.357.189" transform="translate(-1964.232 -1261.869)" fill="#d98853"/>
            <path id="Trazado_482876" data-name="Trazado 482876" d="M2214.137,1346.708l-.312-.179a8.321,8.321,0,0,0,1.109-4.352l.36-.009a8.679,8.679,0,0,1-1.157,4.54" transform="translate(-2037.855 -1235.482)" fill="#d98853"/>
            <path id="Trazado_482877" data-name="Trazado 482877" d="M2232.449,1402.528l-.261-.247a2.5,2.5,0,0,0,.6-2.269l.349-.087a2.868,2.868,0,0,1-.685,2.6" transform="translate(-2054.758 -1288.65)" fill="#d98853"/>
            <path id="Trazado_482878" data-name="Trazado 482878" d="M2234.15,1516.883a3.456,3.456,0,0,1-1.762-.485l.184-.309a3.1,3.1,0,0,0,1.82.424l.029.358c-.09.007-.18.011-.271.011" transform="translate(-2054.942 -1395.579)" fill="#d98853"/>
            <path id="Trazado_482879" data-name="Trazado 482879" d="M2329.949,1218.674l-1.641.2a15.924,15.924,0,0,0,3.427-3.4,5.383,5.383,0,0,0,.84-4.6,2.815,2.815,0,0,1-1.68.4,13.373,13.373,0,0,0,2.8-4.89c.508-2.113-.042-4.323-.646-6.411a6.9,6.9,0,0,0-.841-2.036,2.426,2.426,0,0,0-1.813-1.125,2.772,2.772,0,0,0-2.451,2.236c-.326,1.149-.5,2.817-.858,3.972-.449-.846-.838-2.5-1.379-3.326a24.569,24.569,0,0,0-5.24,6.656,3.407,3.407,0,0,0-.627,1.657,3.648,3.648,0,0,0,.44,1.543l2.108,4.644-2.894-2.759a8.47,8.47,0,0,1-.294,1.315q-.118.663-.179,1.335a16.39,16.39,0,0,0-.015,2.776,16.76,16.76,0,0,0,1.345,5.371,16.137,16.137,0,0,0,1.348,2.473c.2.3.39.742.807.635.339-.087.578-.564.779-.815a12.8,12.8,0,0,1,3.348-2.584,7.538,7.538,0,0,0,3.312-3.266" transform="translate(-2134.631 -1101.678)" fill="#f9b889"/>
            <path id="Trazado_482880" data-name="Trazado 482880" d="M2360.544,1285.275l-.36,0a88.433,88.433,0,0,1,7.487-34.436l.329.145a88.522,88.522,0,0,0-7.456,34.3" transform="translate(-2172.579 -1151.409)" fill="#d98853"/>
            <path id="Trazado_482881" data-name="Trazado 482881" d="M2466.938,1279.472l-.149-.327a3.994,3.994,0,0,0,2.019-2.1l.333.136a4.356,4.356,0,0,1-2.2,2.289" transform="translate(-2270.711 -1175.538)" fill="#d98853"/>
            <path id="Trazado_482882" data-name="Trazado 482882" d="M2432.719,1324.9q-.208,0-.417-.018l.031-.358a4.733,4.733,0,0,0,3.736-1.406l.259.249a5.038,5.038,0,0,1-3.609,1.533" transform="translate(-2238.965 -1217.945)" fill="#d98853"/>
            <path id="Trazado_482883" data-name="Trazado 482883" d="M2382.128,1316.855a8.681,8.681,0,0,1-2-4.235l.354-.06a8.322,8.322,0,0,0,1.921,4.06Z" transform="translate(-2190.934 -1208.228)" fill="#d98853"/>
            <path id="Trazado_482884" data-name="Trazado 482884" d="M2380.735,1374.692a2.868,2.868,0,0,1-1.171-2.423l.359.018a2.5,2.5,0,0,0,1.021,2.112Z" transform="translate(-2190.417 -1263.191)" fill="#d98853"/>
            <path id="Trazado_482885" data-name="Trazado 482885" d="M2389.63,1485.612l-.04-.357a3.091,3.091,0,0,0,1.705-.765l.24.267a3.451,3.451,0,0,1-1.9.854" transform="translate(-2199.648 -1366.492)" fill="#d98853"/>
            <path id="Trazado_482886" data-name="Trazado 482886" d="M2282.218,1045.949a9.882,9.882,0,0,0,1.3-1.978,2.078,2.078,0,0,1,1.941-1.12,2.292,2.292,0,0,1,1.3,1,17.052,17.052,0,0,1,2.548,5.542,17.458,17.458,0,0,1,.847,5.7,8.458,8.458,0,0,1-2.017,5.3l1.406-.164a14.031,14.031,0,0,1-4.184,9.879c1.046-.318,2.183-.429,3.23-.747a13.606,13.606,0,0,1-3.536,5.461,27.924,27.924,0,0,0-4.22,5.016,17.858,17.858,0,0,1-4.437-7.569,29.492,29.492,0,0,1-1-8.731,7.367,7.367,0,0,1,3.316,2.843,9.4,9.4,0,0,0-3.789-6.77,21.326,21.326,0,0,1,5.55-11.651,16.36,16.36,0,0,0,1.878,2.866,9.793,9.793,0,0,0-.13-4.867" transform="translate(-2094.094 -959.937)" fill="#d98853"/>
            <path id="Trazado_482887" data-name="Trazado 482887" d="M2349.928,1158.663a82.319,82.319,0,0,1-.44-33.51c.236-1.2.5-2.421.761-3.6a67.785,67.785,0,0,0,1.514-8.7l.358.031a68.019,68.019,0,0,1-1.521,8.747c-.258,1.176-.525,2.392-.76,3.591a81.958,81.958,0,0,0,.438,33.362Z" transform="translate(-2161.344 -1024.396)" fill="#f9b889"/>
            <path id="Trazado_482888" data-name="Trazado 482888" d="M2356.769,1421.064l-.073-.352a2.784,2.784,0,0,0,2.039-1.843l.343.108a3.111,3.111,0,0,1-2.31,2.088" transform="translate(-2169.369 -1306.087)" fill="#f9b889"/>
            <path id="Trazado_482889" data-name="Trazado 482889" d="M2331.594,1278.494a5.394,5.394,0,0,1-2.138-3.3l.353-.071a5.031,5.031,0,0,0,1.994,3.076Z" transform="translate(-2144.294 -1173.769)" fill="#d98853"/>
            <path id="Trazado_482890" data-name="Trazado 482890" d="M2333.16,1222.171a12.463,12.463,0,0,1-1.7-4.249l.353-.07a12.09,12.09,0,0,0,1.652,4.126Z" transform="translate(-2146.138 -1121.048)" fill="#f9b889"/>
            <path id="Trazado_482891" data-name="Trazado 482891" d="M2377.08,1220.9l-.017-.359a3.628,3.628,0,0,0,2.519-1.221l.271.236a4,4,0,0,1-2.773,1.344" transform="translate(-2188.117 -1122.399)" fill="#f9b889"/>
            <path id="Trazado_482892" data-name="Trazado 482892" d="M2398.485,1133.817l-.209-.292a3.791,3.791,0,0,0,1.468-2.21l.351.08a4.155,4.155,0,0,1-1.609,2.423" transform="translate(-2207.644 -1041.39)" fill="#f9b889"/>
            <path id="Trazado_482893" data-name="Trazado 482893" d="M2185.069,1616.583a3.993,3.993,0,0,1,.536-1.1h21.476a4,4,0,0,1,.536,1.1,12.2,12.2,0,0,1,.366,3,11.728,11.728,0,0,1-5.179,9.671,11.182,11.182,0,0,1-2.462.271h-8a11.185,11.185,0,0,1-2.462-.271,11.729,11.729,0,0,1-5.179-9.671,12.191,12.191,0,0,1,.366-3" transform="translate(-2011.047 -1487.069)" fill="#a2aac7"/>
            <path id="Trazado_482894" data-name="Trazado 482894" d="M2304.415,1629.522h6.124a11.2,11.2,0,0,0,2.462-.271,11.729,11.729,0,0,0,5.179-9.671,12.21,12.21,0,0,0-.366-3,4.006,4.006,0,0,0-.536-1.1h-.235a11.754,11.754,0,0,1,.133,1.767,12.525,12.525,0,0,1-12.76,12.275" transform="translate(-2121.244 -1487.07)" fill="#c7ccdd"/>
            <path id="Trazado_482895" data-name="Trazado 482895" d="M2192,1629.517a10.128,10.128,0,0,1-2.115-.265,11.729,11.729,0,0,1-5.179-9.671,12.2,12.2,0,0,1,.366-3,3.994,3.994,0,0,1,.536-1.1h4.625c-1.664.206-6.828,10.314,1.767,14.037" transform="translate(-2011.047 -1487.07)" fill="#767e9e"/>
          </g>
        </g>
        <text id="CUMPLIMIENTO" transform="translate(104.811 46.892)" fill="#4d5b8c" font-size="6" font-family="ArialRoundedMTBold, Arial Rounded MT"><tspan x="0" y="0">CUMPLIMIEN</tspan><tspan y="0" letter-spacing="-0.013em">T</tspan><tspan y="0">O</tspan></text>
      </g>
    </g>
  </g>
</svg>
