<svg xmlns="http://www.w3.org/2000/svg" xmlns:xlink="http://www.w3.org/1999/xlink" width="132.222" height="138.421" viewBox="0 0 132.222 138.421">
  <defs>
    <clipPath id="clip-path">
      <rect id="Rectángulo_273381" data-name="Rectángulo 273381" width="124.817" height="126.169" fill="none"/>
    </clipPath>
    <clipPath id="clip-path-2">
      <rect id="Rectángulo_273382" data-name="Rectángulo 273382" width="35.816" height="36.009" fill="none"/>
    </clipPath>
  </defs>
  <g id="Grupo_726903" data-name="Grupo 726903" transform="translate(-934.579 -6801.438)">
    <g id="Grupo_726902" data-name="Grupo 726902" transform="translate(-175.421 6024.81)">
      <g id="Grupo_148192" data-name="Grupo 148192" transform="translate(1110 798.248)">
        <ellipse id="Elipse_4740" data-name="Elipse 4740" cx="37.981" cy="6.126" rx="37.981" ry="6.126" transform="translate(0 104.549)" fill="#afafaf" opacity="0.5"/>
        <circle id="_40" data-name="40" cx="57.175" cy="57.175" r="57.175" fill="#aedbef"/>
        <g id="Grupo_726899" data-name="Grupo 726899" transform="translate(7.405 -21.621)">
          <g id="Grupo_726895" data-name="Grupo 726895" clip-path="url(#clip-path)">
            <path id="Trazado_484805" data-name="Trazado 484805" d="M7.706,126.169a15.859,15.859,0,0,1-2.694-1.406c-2.087-1.643-2.579-3.913-2.115-6.423a9.86,9.86,0,0,1,5.228-7.208,1.37,1.37,0,0,0,.85-1.423c-.04-2.42-.015-4.841-.015-7.5l-3.035,1.794L.01,93.445,3.036,91.6,0,89.712,6.46,78.381,8.869,80.2c.091-1.327.106-2.53.266-3.713A14.274,14.274,0,0,1,22.393,64.08c2.9-.211,5.784-.521,8.813-.8,0-.859.046-1.631-.026-2.392a1.065,1.065,0,0,0-.544-.7C24.2,57.1,20.5,51.949,19.188,44.909c-.408-.069-.842-.146-1.276-.216a7.777,7.777,0,0,1-6.643-5.649A7.654,7.654,0,0,1,13.6,30.655a1.914,1.914,0,0,0,.689-2.007c-.444-2.5-.888-5.008-1.21-7.528A18.864,18.864,0,0,1,31.339.064q10.036-.126,20.074,0a18.917,18.917,0,0,1,18.23,21.76c-.388,2.429-.817,4.853-1.159,7.289a1.592,1.592,0,0,0,.424,1.215c2.627,2.373,3.631,5.266,2.613,8.661a7.728,7.728,0,0,1-6.958,5.737c-.8.1-1.049.4-1.208,1.179a19.477,19.477,0,0,1-9.858,13.589c-2.1,1.195-2.118,1.169-1.835,3.78,2.124.194,4.273.42,6.427.583,7.325.555,13.046,4.826,15.057,11.467a51.468,51.468,0,0,1,1.08,6.072H75.49c12.357,0,24.713.017,37.07-.017A6.336,6.336,0,0,1,117.5,83.41c1.775,1.88,3.65,3.664,5.473,5.5,3.061,3.082,2.224,7-1.834,8.617-.111.044-.214.109-.388.2v6c0,5.747-.064,11.5.03,17.241.041,2.515-.8,4.288-3.2,5.2ZM59.807,35.8l-.146-.007c0-2.38.021-4.761-.006-7.141a4.04,4.04,0,0,0-4.089-4.174c-.7-.029-1.4-.015-2.093-.009A44.886,44.886,0,0,1,32.947,19.7a1.859,1.859,0,0,0-1.92.038c-1.628.866-3.265,1.723-4.95,2.47a4.607,4.607,0,0,0-2.963,4.748c.068,4.842.007,9.685.031,14.528a17.713,17.713,0,0,0,.234,3.308A15.455,15.455,0,0,0,34.134,57.114c.962.334,1.273.748,1.212,1.727a35.838,35.838,0,0,0,.008,4.183,1.565,1.565,0,0,0,.634,1.126c1.578.869,3.205,1.649,4.831,2.429a1.235,1.235,0,0,0,.913.115C43.6,65.775,45.45,64.8,47.3,63.846q.068-2.326.136-4.653a1.791,1.791,0,0,0,0-.369c-.182-1.009.315-1.391,1.242-1.711,5.726-1.979,9.462-5.922,10.59-11.876.582-3.07.384-6.286.538-9.437m4.185,86.047a5.794,5.794,0,0,0,.627.084c7.465,0,14.931-.009,22.4.026.991,0,1.017-.517,1.017-1.239q-.013-13.966-.011-27.933a6.448,6.448,0,0,0-.153-.905c-1,1.241-1.922,2.287-2.73,3.417a6.068,6.068,0,0,1-5.4,2.57c-4.84-.044-9.68.013-14.52-.034-1.019-.01-1.32.289-1.314,1.315.041,7.178.021,14.356.024,21.534,0,.361.041.721.068,1.166M55,67.85c-.614,4.254-1.221,8.453-1.85,12.815l-4.837-2.853a22.238,22.238,0,0,0-.629,4.59c.295,3.8.849,7.579,1.3,11.367.863,7.332,1.71,14.666,2.6,21.994a1.808,1.808,0,0,1-.867,1.938c-1.858,1.312-3.651,2.716-5.711,4.264H59.623V97.68c-4.507-1.334-5.223-6.254-1.908-9.093a70.551,70.551,0,0,0,5.235-5.209,5.906,5.906,0,0,1,4.821-2c.643.033,1.289,0,1.906,0C70.983,73.791,63.9,67.271,55,67.85m61.46,30h-1.617c-4.76,0-9.521-.02-14.28.009a5.914,5.914,0,0,1-5.2-2.482c-.85-1.173-1.814-2.264-2.877-3.576-.056.483-.1.679-.1.875,0,9.356.01,18.712-.02,28.068,0,1.023.42,1.212,1.326,1.209,7.222-.028,14.445-.014,21.667-.02.354,0,.709-.059,1.1-.094ZM23.987,79.148,29.9,89.723l-2.989,1.842,2.98,1.908-5.913,10.562-3.105-1.812v3.611H13.185v4.055c.634,0,1.164-.012,1.692,0a36.814,36.814,0,0,1,3.686.134,10.135,10.135,0,0,1,8.409,11.909H37.756c-2.005-1.5-3.736-2.892-5.567-4.133a1.914,1.914,0,0,1-.937-2.347,20.2,20.2,0,0,0,.321-2.562c1.186-10.146,2.418-20.287,3.506-30.443.156-1.453-.381-2.979-.621-4.64l-4.82,2.862L27.765,67.7c-2.166.207-4.251.318-6.308.621a9.975,9.975,0,0,0-8.226,9.02H20.94v3.6l3.047-1.794m19.54,4.467c-1.138,0-2.126.069-3.1-.019-1-.09-1.281.4-1.359,1.264q-.236,2.629-.555,5.251c-.953,7.964-1.932,15.924-2.842,23.892a2.043,2.043,0,0,0,.646,1.535c1.413,1.183,2.908,2.274,4.425,3.322a1.363,1.363,0,0,0,1.238.059c1.616-1.122,3.184-2.316,4.725-3.54a1.337,1.337,0,0,0,.395-1.018c-.194-2.077-.454-4.149-.7-6.222q-.787-6.767-1.577-13.535c-.424-3.611-.855-7.22-1.3-10.988M7.785,84.4c-.555.965-1.074,1.94-1.664,2.87a1.209,1.209,0,0,0,.1,1.7,3.991,3.991,0,0,1-.02,5.3l-.592.742,1.823,3.224c3.185-.554,4.326.133,5.793,3.429H16.71c1.225-3.171,2.432-3.894,5.771-3.459.43-.762.837-1.567,1.326-2.32a1.2,1.2,0,0,0-.132-1.7,3.477,3.477,0,0,1-.4-4.542c1.106-1.4.681-2.365-.11-3.517-.273-.4-.494-.83-.722-1.217-2.626.472-4.431-.153-5.154-2.092A1.846,1.846,0,0,0,15,81.459c-.446.048-.914-.052-1.348.036a1.308,1.308,0,0,0-.846.508,4.226,4.226,0,0,1-5.025,2.4M14.9,122.032v0c2.011,0,4.023.029,6.033-.01A1.906,1.906,0,0,0,23,119.835a5.857,5.857,0,0,0-5.24-5.726,40.338,40.338,0,0,0-5.411-.026,5.854,5.854,0,0,0-5.434,5.284c-.194,1.806.515,2.64,2.315,2.66,1.888.021,3.776,0,5.664,0M41.4,79.246c2.214,0,3.361-.907,2.939-3.036-.178-.9-1.83-1.617-2.935-2.177-.591-.3-3.04,1.692-3.031,2.26.037,2.308.7,2.953,3.026,2.953M18.94,40.562V32.724a3.859,3.859,0,0,0-3.929,4.005,3.8,3.8,0,0,0,3.929,3.832m45-7.834v7.886A4,4,0,0,0,67.8,36.546a3.9,3.9,0,0,0-3.854-3.817M38.989,70.272c-2.495-.974-4.449-2.63-7.122-3.05.345,2.375.65,4.476.977,6.732l6.146-3.682m4.829.013,6.147,3.675c.319-2.315.61-4.43.947-6.87-2.671.718-4.664,2.148-7.094,3.2" transform="translate(0 0)"/>
            <path id="Trazado_484806" data-name="Trazado 484806" d="M106.924,75.446c-.154,3.15.044,6.367-.538,9.437-1.128,5.954-4.864,9.9-10.59,11.876-.927.321-1.424.7-1.242,1.711a1.817,1.817,0,0,1,0,.369q-.067,2.327-.136,4.653c-1.854.956-3.7,1.929-5.572,2.847a1.233,1.233,0,0,1-.913-.115c-1.626-.779-3.253-1.559-4.831-2.429a1.564,1.564,0,0,1-.634-1.125,35.835,35.835,0,0,1-.008-4.183c.061-.979-.25-1.393-1.212-1.727A15.454,15.454,0,0,1,70.5,84.434a17.711,17.711,0,0,1-.234-3.308c-.024-4.843.037-9.686-.031-14.528a4.607,4.607,0,0,1,2.963-4.748c1.685-.746,3.322-1.6,4.95-2.47a1.857,1.857,0,0,1,1.92-.038,44.888,44.888,0,0,0,20.526,4.773c.7-.006,1.4-.02,2.093.009a4.04,4.04,0,0,1,4.089,4.174c.027,2.38.006,4.761.006,7.141l.146.007M92.9,85.571c-2.381,4.033-6.719,3.641-8.743,0l-3.523,1.759a8.519,8.519,0,0,0,8.24,5.3c3.4-.174,6.616-2.441,7.466-5.323L92.9,85.571M86.439,72.259a18.341,18.341,0,0,1-2.747,9.028l5.97,2.972L91.479,80.6l-2.036-1.111,1.351-7.234ZM82.43,70.232a2.061,2.061,0,0,0-4.119-.12,2.061,2.061,0,1,0,4.119.12M98.7,70.184a2.05,2.05,0,0,0-4.1-.024,2.05,2.05,0,1,0,4.1.024" transform="translate(-47.117 -39.646)" fill="#f0d0b4"/>
            <path id="Trazado_484807" data-name="Trazado 484807" d="M194.255,309.15c-.027-.444-.068-.8-.068-1.166,0-7.178.016-14.356-.025-21.534-.006-1.025.3-1.325,1.314-1.315,4.84.047,9.68-.01,14.52.034a6.067,6.067,0,0,0,5.4-2.57c.807-1.13,1.732-2.177,2.729-3.417a6.341,6.341,0,0,1,.153.905q.009,13.966.011,27.933c0,.722-.026,1.244-1.017,1.239-7.465-.034-14.93-.021-22.4-.026a5.7,5.7,0,0,1-.627-.084" transform="translate(-130.263 -187.303)" fill="#d3a06c"/>
            <path id="Trazado_484808" data-name="Trazado 484808" d="M146.75,206.094c8.894-.579,15.98,5.941,14.673,13.53-.617,0-1.263.028-1.905-.005a5.907,5.907,0,0,0-4.821,2,70.489,70.489,0,0,1-5.235,5.209c-3.314,2.839-2.6,7.76,1.908,9.093v24.287H136.752c2.061-1.549,3.853-2.953,5.711-4.264a1.808,1.808,0,0,0,.867-1.938c-.891-7.328-1.738-14.662-2.6-21.994-.446-3.788-1-7.568-1.3-11.367a22.26,22.26,0,0,1,.629-4.59l4.837,2.853c.63-4.362,1.236-8.561,1.85-12.815" transform="translate(-91.747 -138.244)" fill="#e6e9ed"/>
            <path id="Trazado_484809" data-name="Trazado 484809" d="M304.765,285v23.988c-.391.035-.746.094-1.1.094-7.222.006-14.444-.008-21.666.02-.906,0-1.33-.186-1.327-1.209.03-9.356.017-18.712.021-28.068,0-.2.042-.392.1-.875,1.063,1.312,2.027,2.4,2.877,3.576a5.913,5.913,0,0,0,5.2,2.482c4.76-.029,9.52-.009,14.28-.009h1.617m-16.137,20.111c3.975.68,4.448.315,4.258-3.169,0-.082.03-.2-.012-.241-.242-.255-.476-.669-.759-.71-3.4-.5-3.593-.313-3.545,3.085,0,.323.036.646.058,1.034m12.215.077c.775-3.8.289-4.44-3.157-4.23-.123.008-.285-.035-.361.028-.222.184-.572.4-.583.619-.058,1.171-.027,2.346-.027,3.583Z" transform="translate(-188.303 -187.149)" fill="#d3a06c"/>
            <path id="Trazado_484810" data-name="Trazado 484810" d="M50.867,217.162l-3.047,1.794v-3.6H40.111a9.975,9.975,0,0,1,8.226-9.02c2.057-.3,4.142-.414,6.309-.621l1.873,12.969,4.82-2.862c.241,1.661.777,3.188.621,4.64-1.089,10.156-2.32,20.3-3.506,30.443a20.2,20.2,0,0,1-.321,2.562,1.914,1.914,0,0,0,.937,2.347c1.831,1.241,3.562,2.631,5.567,4.133H53.851a10.135,10.135,0,0,0-8.409-11.909,36.818,36.818,0,0,0-3.685-.134c-.529-.014-1.058,0-1.693,0v-4.055h7.688v-3.611l3.105,1.812,5.913-10.562-2.98-1.908,2.989-1.842-5.915-10.575" transform="translate(-26.88 -138.015)" fill="#e6e9ed"/>
            <path id="Trazado_484811" data-name="Trazado 484811" d="M116.237,254.007c.447,3.768.878,7.378,1.3,10.988q.794,6.767,1.577,13.536c.241,2.073.5,4.144.7,6.222a1.337,1.337,0,0,1-.395,1.018c-1.541,1.225-3.108,2.419-4.725,3.54a1.363,1.363,0,0,1-1.238-.059c-1.517-1.048-3.012-2.139-4.425-3.322a2.043,2.043,0,0,1-.646-1.535c.91-7.969,1.889-15.929,2.842-23.892q.314-2.621.555-5.251c.078-.868.355-1.355,1.359-1.264.973.088,1.961.019,3.1.019" transform="translate(-72.71 -170.393)" fill="#ff826e"/>
            <path id="Trazado_484812" data-name="Trazado 484812" d="M19.213,250.406a4.226,4.226,0,0,0,5.025-2.4,1.307,1.307,0,0,1,.846-.508c.434-.088.9.012,1.349-.036a1.845,1.845,0,0,1,2.285,1.367c.723,1.938,2.528,2.564,5.154,2.091.227.387.449.82.722,1.217.791,1.152,1.215,2.113.109,3.517a3.477,3.477,0,0,0,.4,4.542,1.2,1.2,0,0,1,.132,1.7c-.489.752-.9,1.558-1.326,2.319-3.339-.435-4.547.289-5.772,3.459H24.649c-1.466-3.3-2.608-3.982-5.793-3.429l-1.823-3.224.592-.742a3.991,3.991,0,0,0,.021-5.3,1.209,1.209,0,0,1-.1-1.7c.59-.93,1.109-1.9,1.664-2.87M32.5,257.639a6.132,6.132,0,0,0-12.263-.1,6.132,6.132,0,1,0,12.263.1" transform="translate(-11.428 -166.005)" fill="#fcd770"/>
            <path id="Trazado_484813" data-name="Trazado 484813" d="M28.937,354.439c-1.888,0-3.776.016-5.664,0-1.8-.02-2.508-.854-2.315-2.66a5.854,5.854,0,0,1,5.434-5.284,40.343,40.343,0,0,1,5.411.026,5.857,5.857,0,0,1,5.24,5.726,1.906,1.906,0,0,1-2.073,2.183c-2.01.039-4.022.01-6.033.01v0" transform="translate(-14.04 -232.407)" fill="#f0d0b4"/>
            <path id="Trazado_484814" data-name="Trazado 484814" d="M119.626,230.1c-2.328,0-2.99-.646-3.026-2.954-.009-.567,2.439-2.559,3.03-2.26,1.1.56,2.756,1.278,2.935,2.177.422,2.129-.725,3.036-2.939,3.036" transform="translate(-78.227 -150.859)" fill="#fff"/>
            <path id="Trazado_484815" data-name="Trazado 484815" d="M49.54,107.274a3.8,3.8,0,0,1-3.929-3.832,3.859,3.859,0,0,1,3.929-4.005Z" transform="translate(-30.6 -66.712)" fill="#f0d0b4"/>
            <path id="Trazado_484816" data-name="Trazado 484816" d="M194.3,99.448a3.9,3.9,0,0,1,3.854,3.817,4,4,0,0,1-3.854,4.069Z" transform="translate(-130.356 -66.72)" fill="#f0d0b4"/>
            <path id="Trazado_484817" data-name="Trazado 484817" d="M103.951,207.308l-6.145,3.682c-.327-2.256-.632-4.357-.977-6.732,2.673.42,4.628,2.076,7.122,3.05" transform="translate(-64.963 -137.037)" fill="#fff"/>
            <path id="Trazado_484818" data-name="Trazado 484818" d="M133.144,207.051c2.431-1.047,4.423-2.477,7.094-3.2-.337,2.441-.628,4.556-.947,6.87l-6.147-3.675" transform="translate(-89.326 -136.767)" fill="#fff"/>
            <path id="Trazado_484819" data-name="Trazado 484819" d="M114.1,139.545l3.439,1.735c-.85,2.882-4.064,5.148-7.466,5.323a8.518,8.518,0,0,1-8.24-5.3l3.524-1.759c2.024,3.642,6.362,4.035,8.743,0" transform="translate(-68.321 -93.619)"/>
            <path id="Trazado_484820" data-name="Trazado 484820" d="M113.884,99.1h4.354l-1.351,7.234,2.036,1.111-1.818,3.655-5.97-2.972a18.335,18.335,0,0,0,2.747-9.028" transform="translate(-74.562 -66.483)"/>
            <path id="Trazado_484821" data-name="Trazado 484821" d="M98.9,88.726a2.061,2.061,0,1,1-2-2.065,2.039,2.039,0,0,1,2,2.065" transform="translate(-63.587 -58.14)"/>
            <path id="Trazado_484822" data-name="Trazado 484822" d="M148.373,88.675a2.05,2.05,0,1,1-2.036-2.019,2.022,2.022,0,0,1,2.036,2.019" transform="translate(-96.792 -58.137)"/>
            <path id="Trazado_484825" data-name="Trazado 484825" d="M39.034,265.851a6.132,6.132,0,1,1-6.016-6.173,6.113,6.113,0,0,1,6.016,6.173m-4.1.049a2.03,2.03,0,0,0-4.056-.195,2.03,2.03,0,1,0,4.056.195" transform="translate(-17.96 -174.218)"/>
            <path id="Trazado_484826" data-name="Trazado 484826" d="M43.293,274.255a2.03,2.03,0,1,1-1.928-2.122,2.076,2.076,0,0,1,1.928,2.122" transform="translate(-26.322 -182.572)" fill="#fff"/>
            <g id="Grupo_726901" data-name="Grupo 726901" transform="translate(75.965 40.565)">
              <g id="Grupo_726904" data-name="Grupo 726904">
                <path id="Trazado_484827" data-name="Trazado 484827" d="M35.37,38.785V3.322H0v21.63H3.9V7.285H31.444V34.894H13.779v3.891Z" transform="translate(0.446 -3.322)"/>
                <g id="Grupo_726900" data-name="Grupo 726900" transform="translate(0 0)">
                  <g id="Grupo_726899-2" data-name="Grupo 726899" clip-path="url(#clip-path-2)">
                    <path id="Trazado_484828" data-name="Trazado 484828" d="M50.667,28.1l-2.814-2.835L69.16,3.914H62.081V0H75.8V13.722H71.915V6.807L50.667,28.1" transform="translate(-47.853 7.909)"/>
                  </g>
                </g>
              </g>
            </g>
          </g>
          <g id="Grupo_726905" data-name="Grupo 726905" transform="translate(-949.294 -6801.438)">
            <path id="Trazado_484832" data-name="Trazado 484832" d="M259.373,63.262H277.11l5.962,7.266H264.546Z" transform="translate(785.628 6823.837)" fill="#b27946"/>
            <path id="Trazado_484831" data-name="Trazado 484831" d="M283.071,63.262H265.334l-5.962,7.266H277.9Z" transform="translate(750.628 6823.837)" fill="#b27946"/>
          </g>
          <rect id="Rectángulo_273386" data-name="Rectángulo 273386" width="6" height="5" transform="translate(107.34 113.563)"/>
          <rect id="Rectángulo_273387" data-name="Rectángulo 273387" width="6" height="5" transform="translate(99.34 113.563)"/>
        </g>
      </g>
    </g>
  </g>
</svg>
