<svg xmlns="http://www.w3.org/2000/svg" xmlns:xlink="http://www.w3.org/1999/xlink" width="1256.257" height="191.464" viewBox="0 0 1256.257 191.464">
  <defs>
    <filter id="Trazado_471964" x="1085.571" y="12.713" width="160.987" height="160.987" filterUnits="userSpaceOnUse">
      <feOffset dy="3" input="SourceAlpha"/>
      <feGaussianBlur stdDeviation="3" result="blur"/>
      <feFlood flood-opacity="0.161"/>
      <feComposite operator="in" in2="blur"/>
      <feComposite in="SourceGraphic"/>
    </filter>
    <clipPath id="clip-path">
      <path id="Trazado_471970" data-name="Trazado 471970" d="M0,0H1256.257V191.464H0Z" fill="none"/>
    </clipPath>
    <filter id="Trazado_471286" x="14.803" y="-5.999" width="211.255" height="178.135" filterUnits="userSpaceOnUse">
      <feOffset dy="3" input="SourceAlpha"/>
      <feGaussianBlur stdDeviation="3" result="blur-2"/>
      <feFlood flood-opacity="0.161"/>
      <feComposite operator="in" in2="blur-2"/>
      <feComposite in="SourceGraphic"/>
    </filter>
    <clipPath id="clip-path-2">
      <path id="Trazado_471399" data-name="Trazado 471399" d="M87.717,108.915a71.493,71.493,0,1,0,72.666-70.3c-.4-.007-.8-.01-1.207-.01a71.5,71.5,0,0,0-71.46,70.311" transform="translate(-87.707 -38.604)" fill="none"/>
    </clipPath>
    <linearGradient id="linear-gradient" x1="-0.069" y1="1.121" x2="-0.066" y2="1.121" gradientUnits="objectBoundingBox">
      <stop offset="0" stop-color="#fff"/>
      <stop offset="0.997" stop-color="#d7d6d6"/>
      <stop offset="1" stop-color="#d7d6d6"/>
    </linearGradient>
    <clipPath id="clip-path-3">
      <rect id="Rectángulo_269201" data-name="Rectángulo 269201" width="1256.258" height="215.086" fill="none"/>
    </clipPath>
    <filter id="Trazado_471400" x="36.575" y="15.774" width="154.865" height="154.865" filterUnits="userSpaceOnUse">
      <feOffset dy="3" input="SourceAlpha"/>
      <feGaussianBlur stdDeviation="3" result="blur-3"/>
      <feFlood flood-opacity="0.161"/>
      <feComposite operator="in" in2="blur-3"/>
      <feComposite in="SourceGraphic"/>
    </filter>
    <filter id="Trazado_471966" x="44.195" y="23.394" width="139.625" height="139.625" filterUnits="userSpaceOnUse">
      <feOffset dy="3" input="SourceAlpha"/>
      <feGaussianBlur stdDeviation="3" result="blur-4"/>
      <feFlood flood-opacity="0.161"/>
      <feComposite operator="in" in2="blur-4"/>
      <feComposite in="SourceGraphic"/>
    </filter>
    <filter id="Trazado_471401" x="225.214" y="14.277" width="211.256" height="178.134" filterUnits="userSpaceOnUse">
      <feOffset dy="3" input="SourceAlpha"/>
      <feGaussianBlur stdDeviation="3" result="blur-5"/>
      <feFlood flood-opacity="0.161"/>
      <feComposite operator="in" in2="blur-5"/>
      <feComposite in="SourceGraphic"/>
    </filter>
    <clipPath id="clip-path-4">
      <path id="Trazado_471514" data-name="Trazado 471514" d="M521.8,108.915a71.493,71.493,0,1,0,72.667-70.3c-.4-.007-.8-.01-1.206-.01a71.5,71.5,0,0,0-71.46,70.311" transform="translate(-521.785 -38.604)" fill="none"/>
    </clipPath>
    <filter id="Trazado_471515" x="246.986" y="15.774" width="154.865" height="154.865" filterUnits="userSpaceOnUse">
      <feOffset dy="3" input="SourceAlpha"/>
      <feGaussianBlur stdDeviation="3" result="blur-6"/>
      <feFlood flood-opacity="0.161"/>
      <feComposite operator="in" in2="blur-6"/>
      <feComposite in="SourceGraphic"/>
    </filter>
    <filter id="Trazado_471516" x="435.626" y="-5.999" width="211.255" height="178.135" filterUnits="userSpaceOnUse">
      <feOffset dy="3" input="SourceAlpha"/>
      <feGaussianBlur stdDeviation="3" result="blur-7"/>
      <feFlood flood-opacity="0.161"/>
      <feComposite operator="in" in2="blur-7"/>
      <feComposite in="SourceGraphic"/>
    </filter>
    <filter id="Trazado_471967" x="254.606" y="23.394" width="139.625" height="139.626" filterUnits="userSpaceOnUse">
      <feOffset dy="3" input="SourceAlpha"/>
      <feGaussianBlur stdDeviation="3" result="blur-8"/>
      <feFlood flood-opacity="0.161"/>
      <feComposite operator="in" in2="blur-8"/>
      <feComposite in="SourceGraphic"/>
    </filter>
    <clipPath id="clip-path-6">
      <path id="Trazado_471629" data-name="Trazado 471629" d="M955.874,108.915a71.493,71.493,0,1,0,72.667-70.3c-.4-.007-.8-.01-1.207-.01a71.5,71.5,0,0,0-71.46,70.311" transform="translate(-955.864 -38.604)" fill="none"/>
    </clipPath>
    <linearGradient id="linear-gradient-2" x1="-2.167" y1="1.121" x2="-2.165" y2="1.121" xlink:href="#linear-gradient"/>
    <filter id="Trazado_471630" x="457.398" y="15.774" width="154.865" height="154.865" filterUnits="userSpaceOnUse">
      <feOffset dy="3" input="SourceAlpha"/>
      <feGaussianBlur stdDeviation="3" result="blur-9"/>
      <feFlood flood-opacity="0.161"/>
      <feComposite operator="in" in2="blur-9"/>
      <feComposite in="SourceGraphic"/>
    </filter>
    <filter id="Trazado_471631" x="646.037" y="14.277" width="211.256" height="178.134" filterUnits="userSpaceOnUse">
      <feOffset dy="3" input="SourceAlpha"/>
      <feGaussianBlur stdDeviation="3" result="blur-10"/>
      <feFlood flood-opacity="0.161"/>
      <feComposite operator="in" in2="blur-10"/>
      <feComposite in="SourceGraphic"/>
    </filter>
    <filter id="Trazado_471968" x="465.018" y="23.394" width="139.625" height="139.626" filterUnits="userSpaceOnUse">
      <feOffset dy="3" input="SourceAlpha"/>
      <feGaussianBlur stdDeviation="3" result="blur-11"/>
      <feFlood flood-opacity="0.161"/>
      <feComposite operator="in" in2="blur-11"/>
      <feComposite in="SourceGraphic"/>
    </filter>
    <clipPath id="clip-path-8">
      <path id="Trazado_471744" data-name="Trazado 471744" d="M1389.953,108.915a71.493,71.493,0,1,0,72.666-70.3c-.4-.007-.8-.01-1.206-.01a71.5,71.5,0,0,0-71.46,70.311" transform="translate(-1389.943 -38.604)" fill="none"/>
    </clipPath>
    <linearGradient id="linear-gradient-3" x1="-3.217" y1="1.121" x2="-3.214" y2="1.121" xlink:href="#linear-gradient"/>
    <filter id="Trazado_471745" x="667.809" y="15.774" width="154.865" height="154.865" filterUnits="userSpaceOnUse">
      <feOffset dy="3" input="SourceAlpha"/>
      <feGaussianBlur stdDeviation="3" result="blur-12"/>
      <feFlood flood-opacity="0.161"/>
      <feComposite operator="in" in2="blur-12"/>
      <feComposite in="SourceGraphic"/>
    </filter>
    <filter id="Trazado_471746" x="856.449" y="-5.999" width="211.255" height="178.135" filterUnits="userSpaceOnUse">
      <feOffset dy="3" input="SourceAlpha"/>
      <feGaussianBlur stdDeviation="3" result="blur-13"/>
      <feFlood flood-opacity="0.161"/>
      <feComposite operator="in" in2="blur-13"/>
      <feComposite in="SourceGraphic"/>
    </filter>
    <filter id="Trazado_471971" x="675.429" y="23.393" width="139.625" height="139.626" filterUnits="userSpaceOnUse">
      <feOffset dy="3" input="SourceAlpha"/>
      <feGaussianBlur stdDeviation="3" result="blur-14"/>
      <feFlood flood-opacity="0.161"/>
      <feComposite operator="in" in2="blur-14"/>
      <feComposite in="SourceGraphic"/>
    </filter>
    <clipPath id="clip-path-9">
      <path id="Trazado_471859" data-name="Trazado 471859" d="M1824.031,108.915a71.493,71.493,0,1,0,72.667-70.3c-.4-.007-.8-.01-1.207-.01a71.5,71.5,0,0,0-71.46,70.311" transform="translate(-1824.021 -38.604)" fill="none"/>
    </clipPath>
    <linearGradient id="linear-gradient-4" x1="-4.266" y1="1.121" x2="-4.263" y2="1.121" xlink:href="#linear-gradient"/>
    <filter id="Trazado_471860" x="878.22" y="15.774" width="154.865" height="154.865" filterUnits="userSpaceOnUse">
      <feOffset dy="3" input="SourceAlpha"/>
      <feGaussianBlur stdDeviation="3" result="blur-15"/>
      <feFlood flood-opacity="0.161"/>
      <feComposite operator="in" in2="blur-15"/>
      <feComposite in="SourceGraphic"/>
    </filter>
    <filter id="Trazado_471861" x="1066.857" y="-6" width="198.401" height="198.412" filterUnits="userSpaceOnUse">
      <feOffset dy="3" input="SourceAlpha"/>
      <feGaussianBlur stdDeviation="3" result="blur-16"/>
      <feFlood flood-opacity="0.161"/>
      <feComposite operator="in" in2="blur-16"/>
      <feComposite in="SourceGraphic"/>
    </filter>
    <filter id="Trazado_471972" x="885.84" y="23.393" width="139.625" height="139.626" filterUnits="userSpaceOnUse">
      <feOffset dy="3" input="SourceAlpha"/>
      <feGaussianBlur stdDeviation="3" result="blur-17"/>
      <feFlood flood-opacity="0.161"/>
      <feComposite operator="in" in2="blur-17"/>
      <feComposite in="SourceGraphic"/>
    </filter>
    <clipPath id="clip-path-10">
      <g transform="matrix(1, 0, 0, 1, 0, 0)" filter="url(#Trazado_471964)">
        <path id="Trazado_471964-2" data-name="Trazado 471964" d="M2258.111,108.915a71.493,71.493,0,1,0,72.666-70.3c-.4-.007-.8-.01-1.206-.01a71.5,71.5,0,0,0-71.46,70.311" transform="translate(-2258.1 -38.6)" fill="none"/>
      </g>
    </clipPath>
    <linearGradient id="linear-gradient-5" x1="-5.315" y1="1.121" x2="-5.313" y2="1.121" xlink:href="#linear-gradient"/>
    <filter id="Trazado_471965" x="1088.632" y="15.774" width="154.865" height="154.865" filterUnits="userSpaceOnUse">
      <feOffset dy="3" input="SourceAlpha"/>
      <feGaussianBlur stdDeviation="3" result="blur-18"/>
      <feFlood flood-opacity="0.161"/>
      <feComposite operator="in" in2="blur-18"/>
      <feComposite in="SourceGraphic"/>
    </filter>
    <filter id="Trazado_471973" x="1096.252" y="23.393" width="139.625" height="139.626" filterUnits="userSpaceOnUse">
      <feOffset dy="3" input="SourceAlpha"/>
      <feGaussianBlur stdDeviation="3" result="blur-19"/>
      <feFlood flood-opacity="0.161"/>
      <feComposite operator="in" in2="blur-19"/>
      <feComposite in="SourceGraphic"/>
    </filter>
  </defs>
  <g id="Grupo_726942" data-name="Grupo 726942" transform="translate(-163.743 -886.637)">
    <g id="Grupo_720596" data-name="Grupo 720596" transform="translate(163.743 886.637)">
      <g id="Enmascarar_grupo_716047" data-name="Enmascarar grupo 716047" clip-path="url(#clip-path)">
        <g id="Grupo_719025" data-name="Grupo 719025">
          <g id="Grupo_720597" data-name="Grupo 720597">
            <g transform="matrix(1, 0, 0, 1, 0, 0)" filter="url(#Trazado_471286)">
              <path id="Trazado_471286-2" data-name="Trazado 471286" d="M241.73,89.04l-12.713-8.324A90.206,90.206,0,1,0,69.7,147.587a91.008,91.008,0,0,0,12.231,12.23c.009.007.02.009.029.016a1.426,1.426,0,0,0,.379.214l.048.015a1.355,1.355,0,0,0,.429.076,1.382,1.382,0,0,0,.293-.033c.046-.01.089-.029.133-.043s.078-.02.114-.036l.009,0a1.308,1.308,0,0,0,.136-.072,1.271,1.271,0,0,0,.123-.074,1.313,1.313,0,0,0,.115-.1c.02-.018.043-.032.063-.052s.023-.03.037-.044.04-.034.057-.055.029-.046.046-.068.048-.068.069-.1a1.261,1.261,0,0,0,.071-.133c.008-.017.019-.033.028-.051s.011-.041.018-.062a1.363,1.363,0,0,0,.043-.137c.009-.04.017-.08.023-.121a1.459,1.459,0,0,0,.016-.178c0-.011,0-.021,0-.033s0-.019,0-.028a1.4,1.4,0,0,0-.023-.225c0-.009,0-.017,0-.026s-.005-.017-.007-.026a1.4,1.4,0,0,0-.048-.165.666.666,0,0,0-.019-.069c-.009-.019-.02-.034-.03-.052A1.345,1.345,0,0,0,84,158c-.007-.011-.012-.023-.019-.034s-.012-.012-.016-.019a1.447,1.447,0,0,0-.147-.177c-.005,0-.009-.012-.014-.016s-.014-.011-.019-.016c-.026-.025-.048-.053-.076-.076A87.422,87.422,0,0,1,71.853,34.61,87.417,87.417,0,0,1,226.306,81.654a1.4,1.4,0,0,0,.625,1.032l11.487,7.522-11.492,7.524a1.394,1.394,0,0,0-.625,1.032,86.787,86.787,0,0,1-31.39,58.9c-.023.019-.04.042-.062.062s-.026.013-.037.023-.044.054-.067.081-.038.045-.056.068-.036.042-.053.065-.034.063-.052.1-.024.043-.035.064-.031.053-.044.082-.018.063-.028.1-.019.064-.028.1-.015.046-.019.067,0,.044-.007.067a1.4,1.4,0,0,0-.015.142c0,.02-.006.042-.006.061s.006.021.006.032a1.4,1.4,0,0,0,.09.466c.009.023.017.044.027.066a1.383,1.383,0,0,0,.2.329c.025.031.055.054.082.082,0,0,0,.008.007.011s.008,0,.012.008a1.374,1.374,0,0,0,.422.286l.041.016a1.4,1.4,0,0,0,.5.1l.01,0,.023,0a1.372,1.372,0,0,0,.2-.017c.033,0,.066-.012.1-.019a1.376,1.376,0,0,0,.165-.051c.015-.006.03-.007.044-.014s.028-.016.044-.022a1.472,1.472,0,0,0,.132-.067,1.264,1.264,0,0,0,.125-.083c.019-.015.04-.024.058-.039A89.559,89.559,0,0,0,229.013,99.7l12.717-8.327a1.395,1.395,0,0,0,0-2.335" transform="translate(-25.3 0)" fill="#9dcc3b"/>
            </g>
            <path id="Trazado_471287" data-name="Trazado 471287" d="M222.288,366.079a1.393,1.393,0,1,0-.168,2.781c.028,0,.056.01.084.01a1.4,1.4,0,0,0,.084-2.791" transform="translate(-113.774 -188.628)" fill="#9dcc3b"/>
            <path id="Trazado_471288" data-name="Trazado 471288" d="M199.7,363.252a1.4,1.4,0,0,0-.521,2.744,2.354,2.354,0,0,0,.26.019,1.393,1.393,0,0,0,.26-2.763" transform="translate(-102.049 -187.159)" fill="#9dcc3b"/>
            <path id="Trazado_471289" data-name="Trazado 471289" d="M177.641,357.62a1.393,1.393,0,1,0-.428,2.726,1.414,1.414,0,0,0,1.331-.967,1.4,1.4,0,0,0-.9-1.758" transform="translate(-90.593 -184.235)" fill="#9dcc3b"/>
            <path id="Trazado_471290" data-name="Trazado 471290" d="M156.469,349.243a1.4,1.4,0,0,0-1.19,2.53,1.368,1.368,0,0,0,.595.13,1.4,1.4,0,0,0,.6-2.66" transform="translate(-79.599 -179.886)" fill="#9dcc3b"/>
            <path id="Trazado_471291" data-name="Trazado 471291" d="M136.511,338.29a1.4,1.4,0,0,0-1.5,2.364,1.46,1.46,0,0,0,.744.213,1.4,1.4,0,0,0,.754-2.577" transform="translate(-69.234 -174.2)" fill="#9dcc3b"/>
            <path id="Trazado_471292" data-name="Trazado 471292" d="M330.89,338.309a1.393,1.393,0,1,0,1.488,2.354v.009a1.4,1.4,0,1,0-1.488-2.364" transform="translate(-170.162 -174.21)" fill="#9dcc3b"/>
            <path id="Trazado_471293" data-name="Trazado 471293" d="M310.922,349.261a1.4,1.4,0,0,0,.6,2.661,1.374,1.374,0,0,0,.6-.131,1.4,1.4,0,1,0-1.191-2.53" transform="translate(-159.795 -179.896)" fill="#9dcc3b"/>
            <path id="Trazado_471294" data-name="Trazado 471294" d="M267.67,363.255a1.4,1.4,0,0,0,.26,2.772,1.224,1.224,0,0,0,.261-.028,1.4,1.4,0,1,0-.521-2.744" transform="translate(-137.338 -187.162)" fill="#9dcc3b"/>
            <path id="Trazado_471295" data-name="Trazado 471295" d="M289.745,357.638v-.009a1.412,1.412,0,0,0-.9,1.767,1.4,1.4,0,0,0,1.33.959,1.353,1.353,0,0,0,.428-.065,1.393,1.393,0,0,0-.856-2.651" transform="translate(-148.798 -184.243)" fill="#9dcc3b"/>
            <path id="Trazado_471296" data-name="Trazado 471296" d="M245.076,366.079a1.4,1.4,0,0,0,.084,2.791.25.25,0,0,0,.084-.01,1.393,1.393,0,0,0-.168-2.781" transform="translate(-125.603 -188.628)" fill="#9dcc3b"/>
          </g>
        </g>
        <g id="Grupo_719027" data-name="Grupo 719027" transform="translate(42.514 18.713)">
          <g id="Grupo_719026" data-name="Grupo 719026" clip-path="url(#clip-path-2)">
            <rect id="Rectángulo_269097" data-name="Rectángulo 269097" width="200.522" height="200.677" transform="matrix(0.576, -0.817, 0.817, 0.576, -68.285, 95.94)" fill="url(#linear-gradient)"/>
          </g>
        </g>
        <g id="Grupo_719338" data-name="Grupo 719338">
          <g id="Grupo_719337" data-name="Grupo 719337" clip-path="url(#clip-path-3)">
            <g transform="matrix(1, 0, 0, 1, 0, 0)" filter="url(#Trazado_471400)">
              <path id="Trazado_471400-2" data-name="Trazado 471400" d="M230.886,113.353A68.433,68.433,0,1,1,162.454,44.92a68.433,68.433,0,0,1,68.432,68.433" transform="translate(-48.45 -23.15)" fill="#fff"/>
            </g>
            <g transform="matrix(1, 0, 0, 1, 0, 0)" filter="url(#Trazado_471966)">
              <path id="Trazado_471966-2" data-name="Trazado 471966" d="M215.646,105.733A60.813,60.813,0,1,1,154.834,44.92a60.813,60.813,0,0,1,60.813,60.813" transform="translate(-40.83 -15.53)" fill="#fff"/>
            </g>
            <g transform="matrix(1, 0, 0, 1, 0, 0)" filter="url(#Trazado_471401)">
              <path id="Trazado_471401-2" data-name="Trazado 471401" d="M675.808,112.928,663.1,121.252A90.206,90.206,0,1,1,503.783,54.382a91.016,91.016,0,0,1,12.231-12.23c.009-.007.02-.009.029-.016a1.414,1.414,0,0,1,.379-.215l.048-.015a1.355,1.355,0,0,1,.429-.075,1.382,1.382,0,0,1,.293.032c.046.01.089.029.133.043s.078.021.114.036l.009.005a1.316,1.316,0,0,1,.136.071,1.273,1.273,0,0,1,.123.074,1.291,1.291,0,0,1,.115.1c.02.019.043.032.063.052s.023.03.037.044.04.034.057.055.029.046.046.068a1.226,1.226,0,0,1,.069.1,1.253,1.253,0,0,1,.071.133c.008.018.019.033.028.051s.011.042.018.062a1.39,1.39,0,0,1,.043.137c.009.04.017.08.023.121a1.433,1.433,0,0,1,.016.178c0,.011,0,.021,0,.033s0,.019,0,.028a1.419,1.419,0,0,1-.023.225c0,.008,0,.017,0,.026s-.005.018-.007.027a1.359,1.359,0,0,1-.048.165.661.661,0,0,1-.019.069c-.009.019-.02.035-.03.052a1.407,1.407,0,0,1-.081.146c-.007.011-.012.023-.019.034s-.012.012-.016.02a1.45,1.45,0,0,1-.147.177.2.2,0,0,0-.014.016.206.206,0,0,1-.019.016c-.026.025-.048.053-.076.076a87.422,87.422,0,0,0-11.858,123.054,87.417,87.417,0,0,0,154.453-47.044,1.4,1.4,0,0,1,.625-1.032L672.5,111.76l-11.492-7.524a1.4,1.4,0,0,1-.625-1.032,86.789,86.789,0,0,0-31.39-58.9c-.023-.019-.04-.042-.062-.062s-.026-.014-.037-.024-.044-.054-.066-.081-.039-.045-.057-.068-.036-.043-.053-.065-.034-.064-.052-.1-.024-.042-.035-.064-.031-.053-.044-.082-.018-.063-.027-.1-.019-.064-.028-.1-.015-.046-.019-.067,0-.044-.007-.067a1.394,1.394,0,0,1-.015-.143c0-.019-.006-.042-.006-.061s.006-.021.006-.032a1.394,1.394,0,0,1,.09-.466c.009-.023.017-.044.027-.067a1.391,1.391,0,0,1,.2-.328c.025-.031.055-.054.083-.082,0,0,0-.007.007-.011s.009,0,.012-.008a1.372,1.372,0,0,1,.422-.286l.041-.016a1.4,1.4,0,0,1,.5-.1l.01,0,.023,0a1.368,1.368,0,0,1,.2.017c.033,0,.066.012.1.019a1.381,1.381,0,0,1,.165.051c.015.006.03.007.044.013s.028.016.044.022c.045.021.089.042.132.067a1.32,1.32,0,0,1,.125.083c.019.015.04.024.058.04a89.557,89.557,0,0,1,32.324,60.111l12.717,8.327a1.394,1.394,0,0,1,0,2.334" transform="translate(-248.97 -21.55)" fill="#5dbea9"/>
            </g>
            <path id="Trazado_471402" data-name="Trazado 471402" d="M656.366,3.142A1.393,1.393,0,1,1,656.2.361c.028,0,.056-.01.084-.01a1.4,1.4,0,0,1,.084,2.791" transform="translate(-337.441 -0.181)" fill="#5dbea9"/>
            <path id="Trazado_471403" data-name="Trazado 471403" d="M633.783,5.975a1.4,1.4,0,0,1-.521-2.744,2.237,2.237,0,0,1,.26-.019,1.393,1.393,0,0,1,.261,2.763" transform="translate(-325.716 -1.655)" fill="#5dbea9"/>
            <path id="Trazado_471404" data-name="Trazado 471404" d="M611.72,11.6a1.393,1.393,0,1,1-.428-2.725,1.413,1.413,0,0,1,1.331.968,1.4,1.4,0,0,1-.9,1.758" transform="translate(-314.26 -4.573)" fill="#5dbea9"/>
            <path id="Trazado_471405" data-name="Trazado 471405" d="M590.547,19.981a1.4,1.4,0,0,1-1.19-2.53,1.367,1.367,0,0,1,.595-.13,1.4,1.4,0,0,1,.6,2.66" transform="translate(-303.266 -8.925)" fill="#5dbea9"/>
            <path id="Trazado_471406" data-name="Trazado 471406" d="M570.59,30.934a1.4,1.4,0,0,1-1.5-2.364,1.46,1.46,0,0,1,.744-.213,1.4,1.4,0,0,1,.754,2.577" transform="translate(-292.901 -14.611)" fill="#5dbea9"/>
            <path id="Trazado_471407" data-name="Trazado 471407" d="M764.969,30.914a1.393,1.393,0,1,1,1.488-2.354v-.009a1.4,1.4,0,1,1-1.488,2.363" transform="translate(-393.829 -14.601)" fill="#5dbea9"/>
            <path id="Trazado_471408" data-name="Trazado 471408" d="M745,19.961a1.4,1.4,0,0,1,.6-2.661,1.374,1.374,0,0,1,.6.131A1.4,1.4,0,1,1,745,19.961" transform="translate(-383.462 -8.914)" fill="#5dbea9"/>
            <path id="Trazado_471409" data-name="Trazado 471409" d="M701.749,5.965a1.4,1.4,0,0,1,.26-2.772,1.22,1.22,0,0,1,.261.028,1.4,1.4,0,1,1-.521,2.744" transform="translate(-361.005 -1.645)" fill="#5dbea9"/>
            <path id="Trazado_471410" data-name="Trazado 471410" d="M723.824,11.591V11.6a1.412,1.412,0,0,1-.9-1.767,1.4,1.4,0,0,1,1.33-.959,1.348,1.348,0,0,1,.428.065,1.393,1.393,0,0,1-.856,2.651" transform="translate(-372.465 -4.572)" fill="#5dbea9"/>
            <path id="Trazado_471411" data-name="Trazado 471411" d="M679.155,3.142A1.4,1.4,0,0,1,679.24.351a.25.25,0,0,1,.084.01,1.393,1.393,0,0,1-.168,2.781" transform="translate(-349.271 -0.181)" fill="#5dbea9"/>
          </g>
        </g>
        <g id="Grupo_719340" data-name="Grupo 719340" transform="translate(252.925 18.713)">
          <g id="Grupo_719339" data-name="Grupo 719339" clip-path="url(#clip-path-4)">
            <path id="Trazado_471969" data-name="Trazado 471969" d="M0,0H200.522V200.677H0Z" transform="translate(-68.285 95.94) rotate(-54.814)" fill="#fff"/>
          </g>
        </g>
        <g id="Grupo_719651" data-name="Grupo 719651">
          <g id="Grupo_719650" data-name="Grupo 719650" clip-path="url(#clip-path-3)">
            <g transform="matrix(1, 0, 0, 1, 0, 0)" filter="url(#Trazado_471515)">
              <path id="Trazado_471515-2" data-name="Trazado 471515" d="M664.965,113.353A68.433,68.433,0,1,1,596.533,44.92a68.433,68.433,0,0,1,68.432,68.433" transform="translate(-272.11 -23.15)" fill="#f2f2f2"/>
            </g>
            <g transform="matrix(1, 0, 0, 1, 0, 0)" filter="url(#Trazado_471516)">
              <path id="Trazado_471516-2" data-name="Trazado 471516" d="M1109.888,89.04l-12.713-8.324a90.206,90.206,0,1,0-159.313,66.871,91.008,91.008,0,0,0,12.231,12.23c.009.007.02.009.029.016a1.424,1.424,0,0,0,.379.214l.048.015a1.355,1.355,0,0,0,.429.076,1.381,1.381,0,0,0,.293-.033c.046-.01.089-.029.133-.043s.078-.02.114-.036l.009,0a1.306,1.306,0,0,0,.136-.072.978.978,0,0,0,.238-.169c.02-.018.043-.032.063-.052s.023-.03.037-.044.04-.034.057-.055.029-.046.046-.068.048-.068.069-.1a1.277,1.277,0,0,0,.071-.133c.008-.017.019-.033.028-.051s.011-.041.019-.062c.016-.045.031-.091.042-.137s.017-.08.023-.121a1.381,1.381,0,0,0,.016-.178c0-.011,0-.021,0-.033s0-.019,0-.028a1.394,1.394,0,0,0-.023-.225c0-.009,0-.017,0-.026s-.005-.017-.007-.026a1.379,1.379,0,0,0-.048-.165.675.675,0,0,0-.019-.069c-.009-.019-.02-.034-.03-.052a1.347,1.347,0,0,0-.081-.146c-.007-.011-.012-.023-.019-.034s-.012-.012-.016-.019a1.453,1.453,0,0,0-.147-.177c-.005,0-.009-.012-.014-.016s-.014-.011-.019-.016c-.026-.025-.048-.053-.076-.076A87.422,87.422,0,0,1,940.011,34.61a87.417,87.417,0,0,1,154.453,47.044,1.394,1.394,0,0,0,.625,1.032l11.486,7.522-11.491,7.524a1.4,1.4,0,0,0-.625,1.032,86.787,86.787,0,0,1-31.39,58.9c-.023.019-.04.042-.062.062s-.026.013-.037.023-.044.054-.067.081-.039.045-.057.068-.036.042-.053.065-.034.063-.052.1-.024.043-.035.064-.032.053-.045.082-.018.063-.028.1-.02.064-.028.1-.015.046-.02.067,0,.044-.007.067a1.4,1.4,0,0,0-.015.142c0,.02-.006.042-.006.061s.006.021.006.032a1.4,1.4,0,0,0,.09.466c.009.023.017.044.027.066a1.4,1.4,0,0,0,.2.329c.025.031.055.054.083.082,0,0,0,.008.007.011s.008,0,.012.008a1.376,1.376,0,0,0,.422.286l.041.016a1.394,1.394,0,0,0,.5.1l.01,0,.023,0a1.373,1.373,0,0,0,.2-.017c.033,0,.066-.012.1-.019a1.368,1.368,0,0,0,.165-.051c.015-.006.03-.007.044-.014s.028-.016.044-.022c.045-.02.089-.042.132-.067a1.355,1.355,0,0,0,.125-.083c.019-.015.04-.024.058-.039A89.559,89.559,0,0,0,1097.171,99.7l12.717-8.327a1.395,1.395,0,0,0,0-2.335" transform="translate(-472.64 0)" fill="#4cb6cf"/>
            </g>
            <path id="Trazado_471517" data-name="Trazado 471517" d="M1090.445,366.079a1.393,1.393,0,1,0-.168,2.781c.028,0,.056.01.084.01a1.4,1.4,0,0,0,.084-2.791" transform="translate(-561.109 -188.628)" fill="#4cb6cf"/>
            <path id="Trazado_471518" data-name="Trazado 471518" d="M1067.861,363.252a1.4,1.4,0,0,0-.521,2.744,2.356,2.356,0,0,0,.26.019,1.393,1.393,0,0,0,.26-2.763" transform="translate(-549.384 -187.159)" fill="#4cb6cf"/>
            <path id="Trazado_471519" data-name="Trazado 471519" d="M1045.8,357.62a1.393,1.393,0,1,0-.428,2.726,1.414,1.414,0,0,0,1.331-.967,1.4,1.4,0,0,0-.9-1.758" transform="translate(-537.928 -184.235)" fill="#4cb6cf"/>
            <path id="Trazado_471520" data-name="Trazado 471520" d="M1024.626,349.243a1.4,1.4,0,0,0-1.19,2.53,1.367,1.367,0,0,0,.595.13,1.4,1.4,0,0,0,.6-2.66" transform="translate(-526.933 -179.886)" fill="#4cb6cf"/>
            <path id="Trazado_471521" data-name="Trazado 471521" d="M1004.668,338.29a1.4,1.4,0,0,0-1.5,2.364,1.46,1.46,0,0,0,.744.213,1.4,1.4,0,0,0,.754-2.577" transform="translate(-516.568 -174.2)" fill="#4cb6cf"/>
            <path id="Trazado_471522" data-name="Trazado 471522" d="M1199.048,338.309a1.393,1.393,0,1,0,1.488,2.354v.009a1.4,1.4,0,1,0-1.488-2.364" transform="translate(-617.497 -174.21)" fill="#4cb6cf"/>
            <path id="Trazado_471523" data-name="Trazado 471523" d="M1179.079,349.261a1.4,1.4,0,0,0,.6,2.661,1.372,1.372,0,0,0,.6-.131,1.4,1.4,0,1,0-1.191-2.53" transform="translate(-607.13 -179.896)" fill="#4cb6cf"/>
            <path id="Trazado_471524" data-name="Trazado 471524" d="M1135.827,363.255a1.4,1.4,0,0,0,.26,2.772,1.224,1.224,0,0,0,.261-.028,1.4,1.4,0,1,0-.521-2.744" transform="translate(-584.672 -187.162)" fill="#4cb6cf"/>
            <path id="Trazado_471525" data-name="Trazado 471525" d="M1157.9,357.638v-.009a1.412,1.412,0,0,0-.9,1.767,1.4,1.4,0,0,0,1.33.959,1.352,1.352,0,0,0,.428-.065,1.393,1.393,0,0,0-.856-2.651" transform="translate(-596.133 -184.243)" fill="#4cb6cf"/>
            <path id="Trazado_471526" data-name="Trazado 471526" d="M1113.234,366.079a1.4,1.4,0,0,0,.084,2.791.249.249,0,0,0,.084-.01,1.393,1.393,0,0,0-.168-2.781" transform="translate(-572.938 -188.628)" fill="#4cb6cf"/>
            <g transform="matrix(1, 0, 0, 1, 0, 0)" filter="url(#Trazado_471967)">
              <path id="Trazado_471967-2" data-name="Trazado 471967" d="M215.646,105.733A60.813,60.813,0,1,1,154.834,44.92a60.813,60.813,0,0,1,60.813,60.813" transform="translate(169.59 -15.53)" fill="#fff"/>
            </g>
          </g>
        </g>
        <g id="Grupo_719653" data-name="Grupo 719653" transform="translate(463.337 18.713)">
          <g id="Grupo_719652" data-name="Grupo 719652" clip-path="url(#clip-path-6)">
            <rect id="Rectángulo_269307" data-name="Rectángulo 269307" width="200.522" height="200.676" transform="matrix(0.576, -0.817, 0.817, 0.576, -68.285, 95.94)" fill="url(#linear-gradient-2)"/>
          </g>
        </g>
        <g id="Grupo_719964" data-name="Grupo 719964">
          <g id="Grupo_719963" data-name="Grupo 719963" clip-path="url(#clip-path-3)">
            <g transform="matrix(1, 0, 0, 1, 0, 0)" filter="url(#Trazado_471630)">
              <path id="Trazado_471630-2" data-name="Trazado 471630" d="M1099.044,113.353a68.433,68.433,0,1,1-68.432-68.433,68.433,68.433,0,0,1,68.432,68.433" transform="translate(-495.78 -23.15)" fill="#fff"/>
            </g>
            <g transform="matrix(1, 0, 0, 1, 0, 0)" filter="url(#Trazado_471631)">
              <path id="Trazado_471631-2" data-name="Trazado 471631" d="M1543.965,112.928l-12.712,8.324A90.206,90.206,0,1,1,1371.94,54.382a91.006,91.006,0,0,1,12.231-12.23c.009-.007.02-.009.029-.016a1.414,1.414,0,0,1,.379-.215l.048-.015a1.361,1.361,0,0,1,.43-.075,1.384,1.384,0,0,1,.293.032c.046.01.089.029.133.043s.078.021.114.036l.009.005a1.238,1.238,0,0,1,.374.24c.02.019.043.032.063.052s.023.03.037.044.04.034.057.055.029.046.045.068a1.148,1.148,0,0,1,.069.1,1.276,1.276,0,0,1,.071.133c.008.018.019.033.028.051s.011.042.018.062a1.424,1.424,0,0,1,.043.137c.009.04.017.08.023.121a1.345,1.345,0,0,1,.015.178c0,.011,0,.021,0,.033s0,.019,0,.028a1.4,1.4,0,0,1-.023.225c0,.008,0,.017,0,.026s-.005.018-.007.027a1.4,1.4,0,0,1-.047.165c-.007.023-.01.047-.019.069s-.02.035-.03.052a1.384,1.384,0,0,1-.081.146c-.007.011-.012.023-.02.034s-.011.012-.016.02a1.44,1.44,0,0,1-.147.177c-.005,0-.009.011-.014.016a.179.179,0,0,1-.019.016c-.026.025-.047.053-.076.076a87.422,87.422,0,0,0-11.858,123.054,87.417,87.417,0,0,0,154.453-47.044,1.394,1.394,0,0,1,.625-1.032l11.487-7.522-11.492-7.524a1.4,1.4,0,0,1-.625-1.032,86.789,86.789,0,0,0-31.39-58.9c-.023-.019-.04-.042-.062-.062s-.026-.014-.037-.024-.044-.054-.067-.081-.038-.045-.056-.068-.036-.043-.053-.065-.034-.064-.052-.1-.024-.042-.035-.064-.031-.053-.044-.082-.018-.063-.028-.1-.019-.064-.028-.1-.015-.046-.019-.067,0-.044-.007-.067a1.43,1.43,0,0,1-.015-.143c0-.019-.006-.042-.006-.061s.006-.021.006-.032a1.376,1.376,0,0,1,.09-.466c.009-.023.017-.044.027-.067a1.392,1.392,0,0,1,.2-.328c.025-.031.055-.054.083-.082,0,0,0-.007.007-.011a.12.12,0,0,0,.011-.008,1.381,1.381,0,0,1,.422-.286l.041-.016a1.4,1.4,0,0,1,.5-.1l.01,0,.023,0a1.373,1.373,0,0,1,.2.017c.033,0,.066.012.1.019a1.352,1.352,0,0,1,.166.051c.015.006.03.007.044.013s.028.016.044.022c.045.021.089.042.132.067a1.388,1.388,0,0,1,.125.083c.019.015.04.024.058.04a89.557,89.557,0,0,1,32.324,60.111l12.717,8.327a1.394,1.394,0,0,1,0,2.334" transform="translate(-696.3 -21.55)" fill="#5e8eca"/>
            </g>
            <path id="Trazado_471632" data-name="Trazado 471632" d="M1524.524,3.142a1.393,1.393,0,1,1-.168-2.781c.028,0,.056-.01.084-.01a1.4,1.4,0,0,1,.084,2.791" transform="translate(-784.776 -0.181)" fill="#5e8eca"/>
            <path id="Trazado_471633" data-name="Trazado 471633" d="M1501.94,5.975a1.4,1.4,0,0,1-.521-2.744,2.244,2.244,0,0,1,.261-.019,1.393,1.393,0,0,1,.26,2.763" transform="translate(-773.051 -1.655)" fill="#5e8eca"/>
            <path id="Trazado_471634" data-name="Trazado 471634" d="M1479.877,11.6a1.393,1.393,0,1,1-.428-2.725,1.413,1.413,0,0,1,1.331.968,1.4,1.4,0,0,1-.9,1.758" transform="translate(-761.595 -4.573)" fill="#5e8eca"/>
            <path id="Trazado_471635" data-name="Trazado 471635" d="M1458.7,19.981a1.4,1.4,0,0,1-1.191-2.53,1.369,1.369,0,0,1,.595-.13,1.4,1.4,0,0,1,.6,2.66" transform="translate(-750.601 -8.925)" fill="#5e8eca"/>
            <path id="Trazado_471636" data-name="Trazado 471636" d="M1438.747,30.934a1.4,1.4,0,0,1-1.5-2.364,1.459,1.459,0,0,1,.744-.213,1.4,1.4,0,0,1,.754,2.577" transform="translate(-740.236 -14.611)" fill="#5e8eca"/>
            <path id="Trazado_471637" data-name="Trazado 471637" d="M1633.126,30.914a1.393,1.393,0,1,1,1.488-2.354v-.009a1.4,1.4,0,1,1-1.488,2.363" transform="translate(-841.164 -14.601)" fill="#5e8eca"/>
            <path id="Trazado_471638" data-name="Trazado 471638" d="M1613.158,19.961a1.4,1.4,0,0,1,.6-2.661,1.377,1.377,0,0,1,.6.131,1.4,1.4,0,0,1-1.192,2.53" transform="translate(-830.797 -8.914)" fill="#5e8eca"/>
            <path id="Trazado_471639" data-name="Trazado 471639" d="M1569.906,5.965a1.4,1.4,0,0,1,.26-2.772,1.224,1.224,0,0,1,.261.028,1.4,1.4,0,1,1-.521,2.744" transform="translate(-808.34 -1.645)" fill="#5e8eca"/>
            <path id="Trazado_471640" data-name="Trazado 471640" d="M1591.981,11.591V11.6a1.412,1.412,0,0,1-.9-1.767,1.4,1.4,0,0,1,1.33-.959,1.35,1.35,0,0,1,.428.065,1.393,1.393,0,0,1-.856,2.651" transform="translate(-819.8 -4.572)" fill="#5e8eca"/>
            <path id="Trazado_471641" data-name="Trazado 471641" d="M1547.313,3.142A1.4,1.4,0,0,1,1547.4.351a.25.25,0,0,1,.084.01,1.393,1.393,0,0,1-.168,2.781" transform="translate(-796.606 -0.181)" fill="#5e8eca"/>
            <g transform="matrix(1, 0, 0, 1, 0, 0)" filter="url(#Trazado_471968)">
              <path id="Trazado_471968-2" data-name="Trazado 471968" d="M215.646,105.733A60.813,60.813,0,1,1,154.834,44.92a60.813,60.813,0,0,1,60.813,60.813" transform="translate(380 -15.53)" fill="#fff"/>
            </g>
          </g>
        </g>
        <g id="Grupo_719966" data-name="Grupo 719966" transform="translate(673.748 18.713)">
          <g id="Grupo_719965" data-name="Grupo 719965" clip-path="url(#clip-path-8)">
            <rect id="Rectángulo_269412" data-name="Rectángulo 269412" width="200.522" height="200.677" transform="translate(-68.286 95.94) rotate(-54.814)" fill="url(#linear-gradient-3)"/>
          </g>
        </g>
        <g id="Grupo_720277" data-name="Grupo 720277">
          <g id="Grupo_720598" data-name="Grupo 720598">
            <g transform="matrix(1, 0, 0, 1, 0, 0)" filter="url(#Trazado_471745)">
              <path id="Trazado_471745-2" data-name="Trazado 471745" d="M1533.122,113.353A68.433,68.433,0,1,1,1464.69,44.92a68.433,68.433,0,0,1,68.432,68.433" transform="translate(-719.45 -23.15)" fill="#fff"/>
            </g>
            <g transform="matrix(1, 0, 0, 1, 0, 0)" filter="url(#Trazado_471746)">
              <path id="Trazado_471746-2" data-name="Trazado 471746" d="M1978.045,89.04l-12.712-8.324a90.206,90.206,0,1,0-159.313,66.871,90.953,90.953,0,0,0,12.231,12.23c.009.007.019.009.028.016a1.423,1.423,0,0,0,.378.214l.048.015a1.355,1.355,0,0,0,.429.076,1.376,1.376,0,0,0,.293-.033c.045-.01.089-.029.133-.043s.077-.02.114-.036l.009,0a1.259,1.259,0,0,0,.136-.072,1.184,1.184,0,0,0,.123-.074,1.3,1.3,0,0,0,.115-.1c.021-.018.043-.032.063-.052s.023-.03.037-.044.04-.034.057-.055.029-.046.046-.068.048-.068.069-.1a1.274,1.274,0,0,0,.071-.133c.008-.017.02-.033.027-.051s.011-.041.019-.062a1.413,1.413,0,0,0,.042-.137,1.182,1.182,0,0,0,.023-.121,1.339,1.339,0,0,0,.016-.178c0-.011,0-.021,0-.033s0-.019,0-.028a1.422,1.422,0,0,0-.023-.225c0-.009,0-.017,0-.026s-.005-.017-.007-.026a1.414,1.414,0,0,0-.048-.165.607.607,0,0,0-.02-.069c-.009-.019-.02-.034-.029-.052a1.3,1.3,0,0,0-.082-.146c-.007-.011-.012-.023-.019-.034s-.012-.012-.016-.019a1.408,1.408,0,0,0-.147-.177c-.005,0-.009-.012-.014-.016s-.013-.011-.019-.016c-.026-.025-.047-.053-.076-.076A87.421,87.421,0,0,1,1808.169,34.61a87.417,87.417,0,0,1,154.452,47.044,1.4,1.4,0,0,0,.625,1.032l11.487,7.522-11.492,7.524a1.4,1.4,0,0,0-.625,1.032,86.784,86.784,0,0,1-31.39,58.9c-.023.019-.04.042-.062.062s-.026.013-.037.023-.044.054-.067.081-.039.045-.057.068-.036.042-.053.065-.034.063-.052.1-.023.043-.034.064-.032.053-.045.082-.018.063-.028.1-.019.064-.027.1-.015.046-.019.067,0,.044-.007.067a1.216,1.216,0,0,0-.014.142c0,.02-.006.042-.006.061s.006.021.006.032a1.375,1.375,0,0,0,.09.466c.008.023.017.044.027.066a1.385,1.385,0,0,0,.2.329c.025.031.055.054.082.082,0,0,0,.008.007.011s.008,0,.012.008a1.372,1.372,0,0,0,.422.286l.041.016a1.392,1.392,0,0,0,.5.1l.01,0,.023,0a1.364,1.364,0,0,0,.2-.017c.033,0,.067-.012.1-.019a1.375,1.375,0,0,0,.165-.051c.015-.006.03-.007.044-.014s.028-.016.043-.022a1.429,1.429,0,0,0,.132-.067,1.3,1.3,0,0,0,.124-.083c.019-.015.04-.024.058-.039A89.561,89.561,0,0,0,1965.328,99.7l12.717-8.327a1.395,1.395,0,0,0,0-2.335" transform="translate(-919.97 0)" fill="#8869a3"/>
            </g>
            <path id="Trazado_471747" data-name="Trazado 471747" d="M1958.6,366.079a1.393,1.393,0,1,0-.167,2.781c.027,0,.056.01.083.01a1.4,1.4,0,0,0,.084-2.791" transform="translate(-1008.444 -188.628)" fill="#8869a3"/>
            <path id="Trazado_471748" data-name="Trazado 471748" d="M1936.019,363.252A1.4,1.4,0,0,0,1935.5,366a2.354,2.354,0,0,0,.26.019,1.393,1.393,0,0,0,.261-2.763" transform="translate(-996.719 -187.159)" fill="#8869a3"/>
            <path id="Trazado_471749" data-name="Trazado 471749" d="M1913.956,357.62a1.393,1.393,0,1,0-.428,2.726,1.413,1.413,0,0,0,1.33-.967,1.4,1.4,0,0,0-.9-1.758" transform="translate(-985.263 -184.235)" fill="#8869a3"/>
            <path id="Trazado_471750" data-name="Trazado 471750" d="M1892.782,349.243a1.4,1.4,0,0,0-1.191,2.53,1.371,1.371,0,0,0,.6.13,1.4,1.4,0,0,0,.6-2.66" transform="translate(-974.268 -179.886)" fill="#8869a3"/>
            <path id="Trazado_471751" data-name="Trazado 471751" d="M1872.826,338.29a1.4,1.4,0,0,0-1.5,2.364,1.46,1.46,0,0,0,.744.213,1.4,1.4,0,0,0,.754-2.577" transform="translate(-963.903 -174.2)" fill="#8869a3"/>
            <path id="Trazado_471752" data-name="Trazado 471752" d="M2067.206,338.309a1.393,1.393,0,1,0,1.488,2.354v.009a1.4,1.4,0,1,0-1.488-2.364" transform="translate(-1064.831 -174.21)" fill="#8869a3"/>
            <path id="Trazado_471753" data-name="Trazado 471753" d="M2047.236,349.261a1.4,1.4,0,0,0,.595,2.661,1.371,1.371,0,0,0,.6-.131,1.4,1.4,0,1,0-1.191-2.53" transform="translate(-1054.465 -179.896)" fill="#8869a3"/>
            <path id="Trazado_471754" data-name="Trazado 471754" d="M2003.985,363.255a1.4,1.4,0,0,0,.26,2.772,1.222,1.222,0,0,0,.261-.028,1.4,1.4,0,1,0-.521-2.744" transform="translate(-1032.007 -187.162)" fill="#8869a3"/>
            <path id="Trazado_471755" data-name="Trazado 471755" d="M2026.06,357.638v-.009a1.412,1.412,0,0,0-.9,1.767,1.4,1.4,0,0,0,1.33.959,1.353,1.353,0,0,0,.428-.065,1.393,1.393,0,0,0-.856-2.651" transform="translate(-1043.467 -184.243)" fill="#8869a3"/>
            <path id="Trazado_471756" data-name="Trazado 471756" d="M1981.391,366.079a1.4,1.4,0,0,0,.084,2.791.25.25,0,0,0,.084-.01,1.393,1.393,0,0,0-.168-2.781" transform="translate(-1020.273 -188.628)" fill="#8869a3"/>
            <g transform="matrix(1, 0, 0, 1, 0, 0)" filter="url(#Trazado_471971)">
              <path id="Trazado_471971-2" data-name="Trazado 471971" d="M215.646,105.733A60.813,60.813,0,1,1,154.834,44.92a60.813,60.813,0,0,1,60.813,60.813" transform="translate(590.41 -15.53)" fill="#fff"/>
            </g>
          </g>
        </g>
        <g id="Grupo_720279" data-name="Grupo 720279" transform="translate(884.159 18.713)">
          <g id="Grupo_720278" data-name="Grupo 720278" clip-path="url(#clip-path-9)">
            <rect id="Rectángulo_269517" data-name="Rectángulo 269517" width="200.522" height="200.677" transform="translate(-68.285 95.94) rotate(-54.814)" fill="url(#linear-gradient-4)"/>
          </g>
        </g>
        <g id="Grupo_720590" data-name="Grupo 720590">
          <g id="Grupo_720599" data-name="Grupo 720599">
            <g transform="matrix(1, 0, 0, 1, 0, 0)" filter="url(#Trazado_471860)">
              <path id="Trazado_471860-2" data-name="Trazado 471860" d="M1967.2,113.353a68.432,68.432,0,1,1-68.432-68.433,68.433,68.433,0,0,1,68.432,68.433" transform="translate(-943.12 -23.15)" fill="#fff"/>
            </g>
            <g transform="matrix(1, 0, 0, 1, 0, 0)" filter="url(#Trazado_471861)">
              <path id="Trazado_471861-2" data-name="Trazado 471861" d="M2399.895,90.2a90.2,90.2,0,1,0-180.4,0c0,48.848,39.444,90.212,90.2,90.212a90.375,90.375,0,0,0,57.391-20.6,92.086,92.086,0,0,0,12.23-12.23c0-.017,0-.017.017-.035s.005-.011.009-.016A90.369,90.369,0,0,0,2399.895,90.2m-177.605.012h0V90.2a87.406,87.406,0,1,1,143,67.465c-.035.017-.052.051-.087.069,0,.017,0,.017-.017.017a.017.017,0,0,1-.017.017l0,0a87.417,87.417,0,0,1-142.879-67.558" transform="translate(-1143.64 0)" fill="#6d69a8"/>
            </g>
            <g transform="matrix(1, 0, 0, 1, 0, 0)" filter="url(#Trazado_471972)">
              <path id="Trazado_471972-2" data-name="Trazado 471972" d="M215.646,105.733A60.813,60.813,0,1,1,154.834,44.92a60.813,60.813,0,0,1,60.813,60.813" transform="translate(800.82 -15.53)" fill="#fff"/>
            </g>
          </g>
        </g>
        <g id="Grupo_720592" data-name="Grupo 720592" transform="translate(1094.571 18.713)">
          <g id="Grupo_720591" data-name="Grupo 720591" clip-path="url(#clip-path-10)">
            <rect id="Rectángulo_269622" data-name="Rectángulo 269622" width="200.522" height="200.677" transform="translate(-68.285 95.94) rotate(-54.814)" fill="url(#linear-gradient-5)"/>
          </g>
        </g>
        <g id="Grupo_720594" data-name="Grupo 720594">
          <g id="Grupo_720593" data-name="Grupo 720593" clip-path="url(#clip-path-3)">
            <g transform="matrix(1, 0, 0, 1, 0, 0)" filter="url(#Trazado_471965)">
              <path id="Trazado_471965-2" data-name="Trazado 471965" d="M2401.281,113.353a68.433,68.433,0,1,1-68.433-68.433,68.433,68.433,0,0,1,68.433,68.433" transform="translate(-1166.78 -23.15)" fill="#fff"/>
            </g>
            <g transform="matrix(1, 0, 0, 1, 0, 0)" filter="url(#Trazado_471973)">
              <path id="Trazado_471973-2" data-name="Trazado 471973" d="M215.646,105.733A60.813,60.813,0,1,1,154.834,44.92a60.813,60.813,0,0,1,60.813,60.813" transform="translate(1011.23 -15.53)" fill="#fff"/>
            </g>
          </g>
        </g>
      </g>
    </g>
    <path id="Trazado_484903" data-name="Trazado 484903" d="M15.649,11.742h-4.93v4.031h5.727V17H9.219V5.625h7.148V6.852H10.719v3.664h4.93ZM19.657,17H18.211V5h1.445Zm5.891-4.3a4.993,4.993,0,0,1,.488-2.234A3.643,3.643,0,0,1,27.4,8.93a3.7,3.7,0,0,1,1.988-.539,3.565,3.565,0,0,1,2.793,1.2,4.6,4.6,0,0,1,1.066,3.18v.1a5.036,5.036,0,0,1-.473,2.215,3.589,3.589,0,0,1-1.352,1.527,3.743,3.743,0,0,1-2.02.547,3.556,3.556,0,0,1-2.785-1.2A4.575,4.575,0,0,1,25.547,12.8ZM27,12.867a3.616,3.616,0,0,0,.652,2.258,2.211,2.211,0,0,0,3.5-.012A3.955,3.955,0,0,0,31.8,12.7a3.61,3.61,0,0,0-.66-2.254,2.1,2.1,0,0,0-1.754-.863,2.075,2.075,0,0,0-1.727.852A3.925,3.925,0,0,0,27,12.867Zm15.211,0a5.026,5.026,0,0,1-.891,3.113,2.846,2.846,0,0,1-2.391,1.176,2.947,2.947,0,0,1-2.477-1.133l-.07.977H35.055V5H36.5V9.477a2.93,2.93,0,0,1,2.414-1.086,2.863,2.863,0,0,1,2.418,1.164,5.177,5.177,0,0,1,.879,3.188ZM40.766,12.7a3.906,3.906,0,0,0-.57-2.281,1.888,1.888,0,0,0-1.641-.8A2.122,2.122,0,0,0,36.5,10.945V14.6a2.181,2.181,0,0,0,2.07,1.328,1.878,1.878,0,0,0,1.617-.8A4.153,4.153,0,0,0,40.766,12.7Zm4.758-4.156v9.43q0,2.438-2.211,2.438a2.7,2.7,0,0,1-.883-.14V19.125a2.794,2.794,0,0,0,.656.063.982.982,0,0,0,.738-.262,1.3,1.3,0,0,0,.254-.911V8.547ZM43.93,6.3a.867.867,0,0,1,.215-.59.79.79,0,0,1,.629-.246.819.819,0,0,1,.641.242.854.854,0,0,1,.219.594.826.826,0,0,1-.219.586.834.834,0,0,1-.641.234.808.808,0,0,1-.633-.234A.843.843,0,0,1,43.93,6.3Zm7.43,10.852a3.693,3.693,0,0,1-2.8-1.129,4.19,4.19,0,0,1-1.078-3.02v-.266a5.073,5.073,0,0,1,.48-2.246,3.748,3.748,0,0,1,1.344-1.547,3.378,3.378,0,0,1,1.871-.559,3.166,3.166,0,0,1,2.563,1.086,4.7,4.7,0,0,1,.914,3.109v.6H48.93a3,3,0,0,0,.73,2.02,2.3,2.3,0,0,0,1.777.77,2.517,2.517,0,0,0,1.3-.312,3.259,3.259,0,0,0,.93-.828l.883.688A3.55,3.55,0,0,1,51.36,17.156Zm-.18-7.578a1.928,1.928,0,0,0-1.469.637A3.1,3.1,0,0,0,48.977,12h4.234v-.109a2.753,2.753,0,0,0-.594-1.707A1.815,1.815,0,0,0,51.18,9.578ZM58.29,6.5V8.547h1.578V9.664H58.29v5.249a1.173,1.173,0,0,0,.211.763.888.888,0,0,0,.719.254,3.5,3.5,0,0,0,.688-.094V17a4.215,4.215,0,0,1-1.109.155,1.8,1.8,0,0,1-1.461-.586,2.517,2.517,0,0,1-.492-1.664V9.664H55.305V8.547h1.539V6.5ZM63.125,17H61.68V8.547h1.445ZM61.563,6.3a.863.863,0,0,1,.215-.594.807.807,0,0,1,.637-.242.819.819,0,0,1,.641.242.854.854,0,0,1,.219.594.826.826,0,0,1-.219.586.834.834,0,0,1-.641.234.821.821,0,0,1-.637-.234A.834.834,0,0,1,61.563,6.3Zm6.664,8.734,2.094-6.492H71.8L68.766,17h-1.1L64.6,8.547h1.477ZM72.688,12.7a4.993,4.993,0,0,1,.488-2.234A3.643,3.643,0,0,1,74.536,8.93a3.7,3.7,0,0,1,1.988-.539,3.565,3.565,0,0,1,2.793,1.2,4.6,4.6,0,0,1,1.066,3.18v.1a5.036,5.036,0,0,1-.473,2.215,3.589,3.589,0,0,1-1.352,1.527,3.743,3.743,0,0,1-2.02.547,3.556,3.556,0,0,1-2.785-1.2A4.575,4.575,0,0,1,72.688,12.8Zm1.453.172a3.616,3.616,0,0,0,.652,2.258,2.211,2.211,0,0,0,3.5-.012,3.955,3.955,0,0,0,.648-2.418,3.61,3.61,0,0,0-.66-2.254,2.1,2.1,0,0,0-1.754-.863,2.075,2.075,0,0,0-1.727.852A3.925,3.925,0,0,0,74.141,12.867ZM3.778,36.7A4.952,4.952,0,0,1,4.7,33.574a2.915,2.915,0,0,1,2.414-1.184,2.932,2.932,0,0,1,2.352,1.016V29h1.445V41H9.583l-.07-.906A2.943,2.943,0,0,1,7.1,41.156a2.887,2.887,0,0,1-2.395-1.2,5.008,5.008,0,0,1-.926-3.141Zm1.445.164a3.749,3.749,0,0,0,.594,2.25,1.92,1.92,0,0,0,1.641.813A2.108,2.108,0,0,0,9.465,38.7V34.813a2.125,2.125,0,0,0-1.992-1.2,1.929,1.929,0,0,0-1.656.82A4.128,4.128,0,0,0,5.223,36.867Zm11.438,4.289a3.693,3.693,0,0,1-2.8-1.129,4.19,4.19,0,0,1-1.078-3.02v-.266a5.073,5.073,0,0,1,.48-2.246,3.748,3.748,0,0,1,1.344-1.547,3.378,3.378,0,0,1,1.871-.559,3.166,3.166,0,0,1,2.563,1.086,4.7,4.7,0,0,1,.914,3.109v.6H14.231a3,3,0,0,0,.73,2.02,2.3,2.3,0,0,0,1.777.77,2.517,2.517,0,0,0,1.3-.312,3.259,3.259,0,0,0,.93-.828l.883.688A3.55,3.55,0,0,1,16.661,41.156Zm-.18-7.578a1.928,1.928,0,0,0-1.469.637A3.1,3.1,0,0,0,14.278,36h4.234v-.109a2.753,2.753,0,0,0-.594-1.707A1.815,1.815,0,0,0,16.481,33.578ZM23.2,41H21.754V29H23.2Zm13.414-4.133a5.062,5.062,0,0,1-.883,3.109,2.829,2.829,0,0,1-2.391,1.18,3.1,3.1,0,0,1-2.422-.977v4.07H29.473v-11.7h1.32l.07.938a2.977,2.977,0,0,1,2.453-1.094,2.882,2.882,0,0,1,2.41,1.148,5.117,5.117,0,0,1,.887,3.2ZM35.168,36.7a3.735,3.735,0,0,0-.609-2.258,1.963,1.963,0,0,0-1.672-.828,2.125,2.125,0,0,0-1.969,1.164V38.82A2.129,2.129,0,0,0,32.9,39.977a1.954,1.954,0,0,0,1.652-.824A4.077,4.077,0,0,0,35.168,36.7Zm7.367-2.859a4.331,4.331,0,0,0-.711-.055A1.9,1.9,0,0,0,39.9,35v6H38.45V32.547h1.406l.023.977A2.251,2.251,0,0,1,41.9,32.391a1.477,1.477,0,0,1,.641.109Zm.789,2.852a4.993,4.993,0,0,1,.488-2.234,3.643,3.643,0,0,1,1.359-1.531,3.7,3.7,0,0,1,1.988-.539,3.565,3.565,0,0,1,2.793,1.2,4.6,4.6,0,0,1,1.066,3.18v.1a5.036,5.036,0,0,1-.473,2.215A3.589,3.589,0,0,1,49.2,40.609a3.743,3.743,0,0,1-2.02.547,3.556,3.556,0,0,1-2.785-1.2A4.575,4.575,0,0,1,43.325,36.8Zm1.453.172a3.616,3.616,0,0,0,.652,2.258,2.211,2.211,0,0,0,3.5-.012,3.955,3.955,0,0,0,.648-2.418,3.61,3.61,0,0,0-.66-2.254,2.1,2.1,0,0,0-1.754-.863,2.075,2.075,0,0,0-1.727.852A3.925,3.925,0,0,0,44.778,36.867Zm11.445,3.109a2.082,2.082,0,0,0,1.352-.469,1.649,1.649,0,0,0,.641-1.172h1.367a2.621,2.621,0,0,1-.5,1.383,3.293,3.293,0,0,1-1.23,1.047,3.55,3.55,0,0,1-1.629.391A3.482,3.482,0,0,1,53.477,40a4.59,4.59,0,0,1-1.02-3.152v-.242a5.089,5.089,0,0,1,.453-2.2,3.451,3.451,0,0,1,1.3-1.492,3.7,3.7,0,0,1,2-.531,3.39,3.39,0,0,1,2.363.852,3.043,3.043,0,0,1,1,2.211H58.215a1.992,1.992,0,0,0-.621-1.348,1.932,1.932,0,0,0-1.379-.527,2.023,2.023,0,0,0-1.707.793,3.724,3.724,0,0,0-.605,2.293v.273a3.65,3.65,0,0,0,.6,2.25A2.033,2.033,0,0,0,56.223,39.977Zm8.492,1.18a3.693,3.693,0,0,1-2.8-1.129,4.19,4.19,0,0,1-1.078-3.02v-.266a5.073,5.073,0,0,1,.48-2.246,3.748,3.748,0,0,1,1.344-1.547,3.378,3.378,0,0,1,1.871-.559A3.166,3.166,0,0,1,67.1,33.477a4.7,4.7,0,0,1,.914,3.109v.6H62.286a3,3,0,0,0,.73,2.02,2.3,2.3,0,0,0,1.777.77,2.517,2.517,0,0,0,1.3-.312,3.259,3.259,0,0,0,.93-.828l.883.688A3.55,3.55,0,0,1,64.715,41.156Zm-.18-7.578a1.928,1.928,0,0,0-1.469.637A3.1,3.1,0,0,0,62.333,36h4.234v-.109a2.753,2.753,0,0,0-.594-1.707A1.815,1.815,0,0,0,64.536,33.578Zm10.07,5.18a1.064,1.064,0,0,0-.441-.91,4.249,4.249,0,0,0-1.539-.559,7.277,7.277,0,0,1-1.742-.562,2.479,2.479,0,0,1-.953-.781,1.869,1.869,0,0,1-.309-1.078,2.193,2.193,0,0,1,.879-1.758,3.432,3.432,0,0,1,2.246-.719,3.532,3.532,0,0,1,2.332.742,2.357,2.357,0,0,1,.895,1.9H74.52a1.3,1.3,0,0,0-.5-1.023,1.888,1.888,0,0,0-1.27-.43,1.976,1.976,0,0,0-1.234.344,1.082,1.082,0,0,0-.445.9.877.877,0,0,0,.414.789,5.1,5.1,0,0,0,1.5.508,7.8,7.8,0,0,1,1.754.578,2.558,2.558,0,0,1,1,.809,1.988,1.988,0,0,1,.324,1.152,2.163,2.163,0,0,1-.906,1.816,3.8,3.8,0,0,1-2.352.684A4.257,4.257,0,0,1,71,40.8a2.922,2.922,0,0,1-1.223-1,2.42,2.42,0,0,1-.441-1.395h1.445a1.5,1.5,0,0,0,.582,1.152,2.258,2.258,0,0,0,1.434.426,2.331,2.331,0,0,0,1.316-.332A1.02,1.02,0,0,0,74.606,38.758ZM77.551,36.7a4.993,4.993,0,0,1,.488-2.234A3.643,3.643,0,0,1,79.4,32.93a3.7,3.7,0,0,1,1.988-.539,3.565,3.565,0,0,1,2.793,1.2,4.6,4.6,0,0,1,1.066,3.18v.1a5.036,5.036,0,0,1-.473,2.215,3.589,3.589,0,0,1-1.352,1.527,3.743,3.743,0,0,1-2.02.547,3.556,3.556,0,0,1-2.785-1.2A4.575,4.575,0,0,1,77.551,36.8ZM79,36.867a3.616,3.616,0,0,0,.652,2.258,2.211,2.211,0,0,0,3.5-.012A3.955,3.955,0,0,0,83.8,36.7a3.61,3.61,0,0,0-.66-2.254,2.1,2.1,0,0,0-1.754-.863,2.075,2.075,0,0,0-1.727.852A3.925,3.925,0,0,0,79,36.867Z" transform="translate(232.767 957)" fill="#12263f"/>
    <path id="Trazado_484904" data-name="Trazado 484904" d="M4.411,15.773H9.8V17H2.9V5.625H4.411ZM16.5,17a3.036,3.036,0,0,1-.2-.891A3.225,3.225,0,0,1,13.9,17.156a2.984,2.984,0,0,1-2.051-.707,2.287,2.287,0,0,1-.8-1.793,2.39,2.39,0,0,1,1-2.051,4.733,4.733,0,0,1,2.824-.73h1.406v-.664A1.623,1.623,0,0,0,15.825,10a1.821,1.821,0,0,0-1.336-.449,2.107,2.107,0,0,0-1.3.391,1.151,1.151,0,0,0-.523.945H11.215a2,2,0,0,1,.449-1.223,3.066,3.066,0,0,1,1.219-.934,4.1,4.1,0,0,1,1.691-.344,3.342,3.342,0,0,1,2.289.73,2.635,2.635,0,0,1,.859,2.012v3.891a4.757,4.757,0,0,0,.3,1.852V17Zm-2.4-1.1a2.54,2.54,0,0,0,1.289-.352,2.127,2.127,0,0,0,.883-.914V12.9H15.145q-2.656,0-2.656,1.555a1.316,1.316,0,0,0,.453,1.063A1.742,1.742,0,0,0,14.106,15.9Zm10.8-1.141a1.064,1.064,0,0,0-.441-.91,4.249,4.249,0,0,0-1.539-.559,7.277,7.277,0,0,1-1.742-.562,2.479,2.479,0,0,1-.953-.781,1.869,1.869,0,0,1-.309-1.078,2.193,2.193,0,0,1,.879-1.758,3.432,3.432,0,0,1,2.246-.719,3.532,3.532,0,0,1,2.332.742,2.357,2.357,0,0,1,.895,1.9H24.825a1.3,1.3,0,0,0-.5-1.023,1.888,1.888,0,0,0-1.27-.43,1.976,1.976,0,0,0-1.234.344,1.082,1.082,0,0,0-.445.9.877.877,0,0,0,.414.789,5.1,5.1,0,0,0,1.5.508,7.8,7.8,0,0,1,1.754.578,2.558,2.558,0,0,1,1,.809,1.988,1.988,0,0,1,.324,1.152,2.163,2.163,0,0,1-.906,1.816,3.8,3.8,0,0,1-2.352.684,4.257,4.257,0,0,1-1.8-.359,2.922,2.922,0,0,1-1.223-1,2.42,2.42,0,0,1-.441-1.395h1.445a1.5,1.5,0,0,0,.582,1.152,2.258,2.258,0,0,0,1.434.426,2.331,2.331,0,0,0,1.316-.332A1.02,1.02,0,0,0,24.911,14.758Zm10.8,2.4a3.693,3.693,0,0,1-2.8-1.129,4.19,4.19,0,0,1-1.078-3.02v-.266a5.073,5.073,0,0,1,.48-2.246,3.748,3.748,0,0,1,1.344-1.547,3.378,3.378,0,0,1,1.871-.559A3.166,3.166,0,0,1,38.09,9.477,4.7,4.7,0,0,1,39,12.586v.6H33.278a3,3,0,0,0,.73,2.02,2.3,2.3,0,0,0,1.777.77,2.517,2.517,0,0,0,1.3-.312,3.259,3.259,0,0,0,.93-.828l.883.688A3.55,3.55,0,0,1,35.708,17.156Zm-.18-7.578a1.928,1.928,0,0,0-1.469.637A3.1,3.1,0,0,0,33.325,12h4.234v-.109a2.753,2.753,0,0,0-.594-1.707A1.815,1.815,0,0,0,35.528,9.578Zm6.516-1.031.047,1.063a3.08,3.08,0,0,1,2.531-1.219q2.68,0,2.7,3.023V17H45.879V11.406a1.946,1.946,0,0,0-.418-1.352,1.675,1.675,0,0,0-1.277-.437,2.086,2.086,0,0,0-1.234.375,2.546,2.546,0,0,0-.828.984V17H40.676V8.547ZM51.465,6.5V8.547h1.578V9.664H51.465v5.249a1.173,1.173,0,0,0,.211.763.888.888,0,0,0,.719.254,3.5,3.5,0,0,0,.688-.094V17a4.215,4.215,0,0,1-1.109.155,1.8,1.8,0,0,1-1.461-.586,2.517,2.517,0,0,1-.492-1.664V9.664H48.481V8.547H50.02V6.5Zm7.352,3.344a4.331,4.331,0,0,0-.711-.055A1.9,1.9,0,0,0,56.176,11v6H54.731V8.547h1.406l.023.977a2.251,2.251,0,0,1,2.016-1.133,1.477,1.477,0,0,1,.641.109ZM65.051,17a3.036,3.036,0,0,1-.2-.891,3.225,3.225,0,0,1-2.406,1.047,2.984,2.984,0,0,1-2.051-.707,2.287,2.287,0,0,1-.8-1.793,2.39,2.39,0,0,1,1-2.051,4.733,4.733,0,0,1,2.824-.73h1.406v-.664A1.623,1.623,0,0,0,64.372,10a1.821,1.821,0,0,0-1.336-.449,2.107,2.107,0,0,0-1.3.391,1.151,1.151,0,0,0-.523.945H59.762a2,2,0,0,1,.449-1.223,3.066,3.066,0,0,1,1.219-.934,4.1,4.1,0,0,1,1.691-.344,3.342,3.342,0,0,1,2.289.73,2.635,2.635,0,0,1,.859,2.012v3.891a4.757,4.757,0,0,0,.3,1.852V17Zm-2.4-1.1a2.54,2.54,0,0,0,1.289-.352,2.127,2.127,0,0,0,.883-.914V12.9H63.692q-2.656,0-2.656,1.555a1.316,1.316,0,0,0,.453,1.063A1.742,1.742,0,0,0,62.653,15.9Zm5.531-3.2a4.952,4.952,0,0,1,.922-3.129,3.137,3.137,0,0,1,4.766-.168V5h1.445V17H73.989l-.07-.906A2.943,2.943,0,0,1,71.5,17.156a2.887,2.887,0,0,1-2.395-1.2,5.008,5.008,0,0,1-.926-3.141Zm1.445.164a3.749,3.749,0,0,0,.594,2.25,1.92,1.92,0,0,0,1.641.813A2.108,2.108,0,0,0,73.872,14.7V10.813a2.125,2.125,0,0,0-1.992-1.2,1.929,1.929,0,0,0-1.656.82A4.128,4.128,0,0,0,69.629,12.867ZM82.778,17a3.036,3.036,0,0,1-.2-.891,3.225,3.225,0,0,1-2.406,1.047,2.984,2.984,0,0,1-2.051-.707,2.288,2.288,0,0,1-.8-1.793,2.39,2.39,0,0,1,1-2.051,4.733,4.733,0,0,1,2.824-.73h1.406v-.664A1.623,1.623,0,0,0,82.1,10a1.821,1.821,0,0,0-1.336-.449,2.108,2.108,0,0,0-1.3.391,1.151,1.151,0,0,0-.523.945H77.489a2,2,0,0,1,.449-1.223,3.066,3.066,0,0,1,1.219-.934,4.1,4.1,0,0,1,1.691-.344,3.342,3.342,0,0,1,2.289.73A2.635,2.635,0,0,1,84,11.133v3.891a4.757,4.757,0,0,0,.3,1.852V17Zm-2.4-1.1a2.54,2.54,0,0,0,1.289-.352,2.127,2.127,0,0,0,.883-.914V12.9H81.418q-2.656,0-2.656,1.555a1.316,1.316,0,0,0,.453,1.063A1.742,1.742,0,0,0,80.379,15.9Zm10.8-1.141a1.064,1.064,0,0,0-.441-.91,4.249,4.249,0,0,0-1.539-.559,7.277,7.277,0,0,1-1.742-.562,2.479,2.479,0,0,1-.953-.781,1.869,1.869,0,0,1-.309-1.078,2.193,2.193,0,0,1,.879-1.758,3.432,3.432,0,0,1,2.246-.719,3.532,3.532,0,0,1,2.332.742,2.357,2.357,0,0,1,.895,1.9H91.1a1.3,1.3,0,0,0-.5-1.023,1.888,1.888,0,0,0-1.27-.43,1.976,1.976,0,0,0-1.234.344,1.082,1.082,0,0,0-.445.9.877.877,0,0,0,.414.789,5.1,5.1,0,0,0,1.5.508,7.8,7.8,0,0,1,1.754.578,2.558,2.558,0,0,1,1,.809,1.988,1.988,0,0,1,.324,1.152,2.163,2.163,0,0,1-.906,1.816,3.8,3.8,0,0,1-2.352.684,4.257,4.257,0,0,1-1.8-.359,2.922,2.922,0,0,1-1.223-1,2.42,2.42,0,0,1-.441-1.395h1.445a1.5,1.5,0,0,0,.582,1.152,2.258,2.258,0,0,0,1.434.426,2.331,2.331,0,0,0,1.316-.332A1.02,1.02,0,0,0,91.184,14.758ZM6.778,36.7A4.952,4.952,0,0,1,7.7,33.574a2.915,2.915,0,0,1,2.414-1.184,2.932,2.932,0,0,1,2.352,1.016V29h1.445V41H12.583l-.07-.906A2.943,2.943,0,0,1,10.1,41.156a2.887,2.887,0,0,1-2.395-1.2,5.008,5.008,0,0,1-.926-3.141Zm1.445.164a3.749,3.749,0,0,0,.594,2.25,1.92,1.92,0,0,0,1.641.813A2.108,2.108,0,0,0,12.465,38.7V34.813a2.125,2.125,0,0,0-1.992-1.2,1.929,1.929,0,0,0-1.656.82A4.128,4.128,0,0,0,8.223,36.867Zm11.438,4.289a3.693,3.693,0,0,1-2.8-1.129,4.19,4.19,0,0,1-1.078-3.02v-.266a5.073,5.073,0,0,1,.48-2.246,3.748,3.748,0,0,1,1.344-1.547,3.378,3.378,0,0,1,1.871-.559,3.166,3.166,0,0,1,2.563,1.086,4.7,4.7,0,0,1,.914,3.109v.6H17.231a3,3,0,0,0,.73,2.02,2.3,2.3,0,0,0,1.777.77,2.517,2.517,0,0,0,1.3-.312,3.259,3.259,0,0,0,.93-.828l.883.688A3.55,3.55,0,0,1,19.661,41.156Zm-.18-7.578a1.928,1.928,0,0,0-1.469.637A3.1,3.1,0,0,0,17.278,36h4.234v-.109a2.753,2.753,0,0,0-.594-1.707A1.815,1.815,0,0,0,19.481,33.578ZM26.2,41H24.754V29H26.2Zm13.414-4.133a5.062,5.062,0,0,1-.883,3.109,2.829,2.829,0,0,1-2.391,1.18,3.1,3.1,0,0,1-2.422-.977v4.07H32.473v-11.7h1.32l.07.938a2.977,2.977,0,0,1,2.453-1.094,2.882,2.882,0,0,1,2.41,1.148,5.117,5.117,0,0,1,.887,3.2ZM38.168,36.7a3.735,3.735,0,0,0-.609-2.258,1.963,1.963,0,0,0-1.672-.828,2.125,2.125,0,0,0-1.969,1.164V38.82A2.129,2.129,0,0,0,35.9,39.977a1.954,1.954,0,0,0,1.652-.824A4.077,4.077,0,0,0,38.168,36.7Zm7.367-2.859a4.331,4.331,0,0,0-.711-.055A1.9,1.9,0,0,0,42.9,35v6H41.45V32.547h1.406l.023.977A2.251,2.251,0,0,1,44.9,32.391a1.477,1.477,0,0,1,.641.109Zm.789,2.852a4.993,4.993,0,0,1,.488-2.234,3.643,3.643,0,0,1,1.359-1.531,3.7,3.7,0,0,1,1.988-.539,3.565,3.565,0,0,1,2.793,1.2,4.6,4.6,0,0,1,1.066,3.18v.1a5.036,5.036,0,0,1-.473,2.215A3.589,3.589,0,0,1,52.2,40.609a3.743,3.743,0,0,1-2.02.547,3.556,3.556,0,0,1-2.785-1.2A4.575,4.575,0,0,1,46.325,36.8Zm1.453.172a3.616,3.616,0,0,0,.652,2.258,2.211,2.211,0,0,0,3.5-.012,3.955,3.955,0,0,0,.648-2.418,3.61,3.61,0,0,0-.66-2.254,2.1,2.1,0,0,0-1.754-.863,2.075,2.075,0,0,0-1.727.852A3.925,3.925,0,0,0,47.778,36.867Zm11.445,3.109a2.082,2.082,0,0,0,1.352-.469,1.649,1.649,0,0,0,.641-1.172h1.367a2.621,2.621,0,0,1-.5,1.383,3.293,3.293,0,0,1-1.23,1.047,3.55,3.55,0,0,1-1.629.391A3.482,3.482,0,0,1,56.477,40a4.59,4.59,0,0,1-1.02-3.152v-.242a5.089,5.089,0,0,1,.453-2.2,3.451,3.451,0,0,1,1.3-1.492,3.7,3.7,0,0,1,2-.531,3.39,3.39,0,0,1,2.363.852,3.043,3.043,0,0,1,1,2.211H61.215a1.992,1.992,0,0,0-.621-1.348,1.932,1.932,0,0,0-1.379-.527,2.023,2.023,0,0,0-1.707.793,3.724,3.724,0,0,0-.605,2.293v.273a3.65,3.65,0,0,0,.6,2.25A2.033,2.033,0,0,0,59.223,39.977Zm8.492,1.18a3.693,3.693,0,0,1-2.8-1.129,4.19,4.19,0,0,1-1.078-3.02v-.266a5.073,5.073,0,0,1,.48-2.246,3.748,3.748,0,0,1,1.344-1.547,3.378,3.378,0,0,1,1.871-.559A3.166,3.166,0,0,1,70.1,33.477a4.7,4.7,0,0,1,.914,3.109v.6H65.286a3,3,0,0,0,.73,2.02,2.3,2.3,0,0,0,1.777.77,2.517,2.517,0,0,0,1.3-.312,3.259,3.259,0,0,0,.93-.828l.883.688A3.55,3.55,0,0,1,67.715,41.156Zm-.18-7.578a1.928,1.928,0,0,0-1.469.637A3.1,3.1,0,0,0,65.333,36h4.234v-.109a2.753,2.753,0,0,0-.594-1.707A1.815,1.815,0,0,0,67.536,33.578Zm10.07,5.18a1.064,1.064,0,0,0-.441-.91,4.249,4.249,0,0,0-1.539-.559,7.277,7.277,0,0,1-1.742-.562,2.479,2.479,0,0,1-.953-.781,1.869,1.869,0,0,1-.309-1.078,2.193,2.193,0,0,1,.879-1.758,3.432,3.432,0,0,1,2.246-.719,3.532,3.532,0,0,1,2.332.742,2.357,2.357,0,0,1,.895,1.9H77.52a1.3,1.3,0,0,0-.5-1.023,1.888,1.888,0,0,0-1.27-.43,1.976,1.976,0,0,0-1.234.344,1.082,1.082,0,0,0-.445.9.877.877,0,0,0,.414.789,5.1,5.1,0,0,0,1.5.508,7.8,7.8,0,0,1,1.754.578,2.558,2.558,0,0,1,1,.809,1.988,1.988,0,0,1,.324,1.152,2.163,2.163,0,0,1-.906,1.816,3.8,3.8,0,0,1-2.352.684A4.257,4.257,0,0,1,74,40.8a2.922,2.922,0,0,1-1.223-1,2.42,2.42,0,0,1-.441-1.395h1.445a1.5,1.5,0,0,0,.582,1.152,2.258,2.258,0,0,0,1.434.426,2.331,2.331,0,0,0,1.316-.332A1.02,1.02,0,0,0,77.606,38.758ZM80.551,36.7a4.993,4.993,0,0,1,.488-2.234A3.643,3.643,0,0,1,82.4,32.93a3.7,3.7,0,0,1,1.988-.539,3.565,3.565,0,0,1,2.793,1.2,4.6,4.6,0,0,1,1.066,3.18v.1a5.036,5.036,0,0,1-.473,2.215,3.589,3.589,0,0,1-1.352,1.527,3.743,3.743,0,0,1-2.02.547,3.556,3.556,0,0,1-2.785-1.2A4.575,4.575,0,0,1,80.551,36.8ZM82,36.867a3.616,3.616,0,0,0,.652,2.258,2.211,2.211,0,0,0,3.5-.012A3.955,3.955,0,0,0,86.8,36.7a3.61,3.61,0,0,0-.66-2.254,2.1,2.1,0,0,0-1.754-.863,2.075,2.075,0,0,0-1.727.852A3.925,3.925,0,0,0,82,36.867Z" transform="translate(440.767 957)" fill="#12263f"/>
    <path id="Trazado_484906" data-name="Trazado 484906" d="M37.547,15.773h5.391V17h-6.9V5.625h1.508ZM49.641,17a3.036,3.036,0,0,1-.2-.891,3.225,3.225,0,0,1-2.406,1.047,2.984,2.984,0,0,1-2.051-.707,2.287,2.287,0,0,1-.8-1.793,2.39,2.39,0,0,1,1-2.051,4.733,4.733,0,0,1,2.824-.73h1.406v-.664A1.623,1.623,0,0,0,48.961,10a1.821,1.821,0,0,0-1.336-.449,2.107,2.107,0,0,0-1.3.391,1.151,1.151,0,0,0-.523.945H44.352A2,2,0,0,1,44.8,9.668a3.066,3.066,0,0,1,1.219-.934,4.1,4.1,0,0,1,1.691-.344A3.342,3.342,0,0,1,50,9.121a2.635,2.635,0,0,1,.859,2.012v3.891a4.757,4.757,0,0,0,.3,1.852V17Zm-2.4-1.1a2.54,2.54,0,0,0,1.289-.352,2.127,2.127,0,0,0,.883-.914V12.9H48.282q-2.656,0-2.656,1.555a1.316,1.316,0,0,0,.453,1.063A1.742,1.742,0,0,0,47.243,15.9Zm10.8-1.141a1.064,1.064,0,0,0-.441-.91,4.249,4.249,0,0,0-1.539-.559,7.277,7.277,0,0,1-1.742-.562,2.479,2.479,0,0,1-.953-.781,1.869,1.869,0,0,1-.309-1.078,2.193,2.193,0,0,1,.879-1.758,3.432,3.432,0,0,1,2.246-.719,3.532,3.532,0,0,1,2.332.742,2.357,2.357,0,0,1,.895,1.9H57.961a1.3,1.3,0,0,0-.5-1.023,1.888,1.888,0,0,0-1.27-.43,1.976,1.976,0,0,0-1.234.344,1.082,1.082,0,0,0-.445.9.877.877,0,0,0,.414.789,5.1,5.1,0,0,0,1.5.508,7.8,7.8,0,0,1,1.754.578,2.558,2.558,0,0,1,1,.809,1.988,1.988,0,0,1,.324,1.152,2.163,2.163,0,0,1-.906,1.816,3.8,3.8,0,0,1-2.352.684,4.257,4.257,0,0,1-1.8-.359,2.922,2.922,0,0,1-1.223-1,2.42,2.42,0,0,1-.441-1.395h1.445a1.5,1.5,0,0,0,.582,1.152,2.258,2.258,0,0,0,1.434.426,2.331,2.331,0,0,0,1.316-.332A1.02,1.02,0,0,0,58.047,14.758ZM13.165,41a3.036,3.036,0,0,1-.2-.891,3.225,3.225,0,0,1-2.406,1.047A2.984,2.984,0,0,1,8.5,40.449a2.287,2.287,0,0,1-.8-1.793,2.39,2.39,0,0,1,1-2.051,4.733,4.733,0,0,1,2.824-.73h1.406v-.664A1.623,1.623,0,0,0,12.485,34a1.821,1.821,0,0,0-1.336-.449,2.107,2.107,0,0,0-1.3.391,1.151,1.151,0,0,0-.523.945H7.875a2,2,0,0,1,.449-1.223,3.066,3.066,0,0,1,1.219-.934,4.1,4.1,0,0,1,1.691-.344,3.342,3.342,0,0,1,2.289.73,2.635,2.635,0,0,1,.859,2.012v3.891a4.757,4.757,0,0,0,.3,1.852V41Zm-2.4-1.1a2.54,2.54,0,0,0,1.289-.352,2.127,2.127,0,0,0,.883-.914V36.9H11.805q-2.656,0-2.656,1.555A1.316,1.316,0,0,0,9.6,39.516,1.742,1.742,0,0,0,10.766,39.9Zm9.273.078a2.082,2.082,0,0,0,1.352-.469,1.649,1.649,0,0,0,.641-1.172H23.4a2.621,2.621,0,0,1-.5,1.383,3.293,3.293,0,0,1-1.23,1.047,3.55,3.55,0,0,1-1.629.391A3.482,3.482,0,0,1,17.293,40a4.59,4.59,0,0,1-1.02-3.152v-.242a5.089,5.089,0,0,1,.453-2.2,3.451,3.451,0,0,1,1.3-1.492,3.7,3.7,0,0,1,2-.531,3.39,3.39,0,0,1,2.363.852,3.043,3.043,0,0,1,1,2.211H22.032a1.992,1.992,0,0,0-.621-1.348,1.932,1.932,0,0,0-1.379-.527,2.023,2.023,0,0,0-1.707.793,3.724,3.724,0,0,0-.605,2.293v.273a3.65,3.65,0,0,0,.6,2.25A2.033,2.033,0,0,0,20.04,39.977ZM26.985,30.5v2.047h1.578v1.117H26.985v5.249a1.173,1.173,0,0,0,.211.763.888.888,0,0,0,.719.254,3.5,3.5,0,0,0,.688-.094V41a4.215,4.215,0,0,1-1.109.155,1.8,1.8,0,0,1-1.461-.586,2.517,2.517,0,0,1-.492-1.664V33.664H24V32.547H25.54V30.5ZM31.821,41H30.375V32.547h1.445ZM30.258,30.3a.863.863,0,0,1,.215-.594.807.807,0,0,1,.637-.242.819.819,0,0,1,.641.242.854.854,0,0,1,.219.594.826.826,0,0,1-.219.586.834.834,0,0,1-.641.234.821.821,0,0,1-.637-.234A.834.834,0,0,1,30.258,30.3Zm6.664,8.734,2.094-6.492h1.477L37.461,41h-1.1L33.3,32.547h1.477ZM43.454,41H42.008V32.547h1.445ZM41.891,30.3a.863.863,0,0,1,.215-.594.807.807,0,0,1,.637-.242.819.819,0,0,1,.641.242.854.854,0,0,1,.219.594.826.826,0,0,1-.219.586.834.834,0,0,1-.641.234.821.821,0,0,1-.637-.234A.834.834,0,0,1,41.891,30.3Zm3.523,6.4a4.952,4.952,0,0,1,.922-3.129,3.137,3.137,0,0,1,4.766-.168V29h1.445V41H51.219l-.07-.906a2.943,2.943,0,0,1-2.414,1.063,2.887,2.887,0,0,1-2.395-1.2,5.008,5.008,0,0,1-.926-3.141Zm1.445.164a3.749,3.749,0,0,0,.594,2.25,1.919,1.919,0,0,0,1.641.813A2.108,2.108,0,0,0,51.1,38.7V34.813a2.125,2.125,0,0,0-1.992-1.2,1.929,1.929,0,0,0-1.656.82A4.128,4.128,0,0,0,46.86,36.867ZM60.008,41a3.036,3.036,0,0,1-.2-.891A3.225,3.225,0,0,1,57.4,41.156a2.984,2.984,0,0,1-2.051-.707,2.287,2.287,0,0,1-.8-1.793,2.39,2.39,0,0,1,1-2.051,4.733,4.733,0,0,1,2.824-.73h1.406v-.664A1.623,1.623,0,0,0,59.329,34a1.821,1.821,0,0,0-1.336-.449,2.107,2.107,0,0,0-1.3.391,1.151,1.151,0,0,0-.523.945H54.719a2,2,0,0,1,.449-1.223,3.066,3.066,0,0,1,1.219-.934,4.1,4.1,0,0,1,1.691-.344,3.342,3.342,0,0,1,2.289.73,2.635,2.635,0,0,1,.859,2.012v3.891a4.757,4.757,0,0,0,.3,1.852V41Zm-2.4-1.1a2.54,2.54,0,0,0,1.289-.352,2.127,2.127,0,0,0,.883-.914V36.9H58.649q-2.656,0-2.656,1.555a1.316,1.316,0,0,0,.453,1.063A1.742,1.742,0,0,0,57.61,39.9Zm5.531-3.2a4.952,4.952,0,0,1,.922-3.129,3.137,3.137,0,0,1,4.766-.168V29h1.445V41H68.946l-.07-.906a2.943,2.943,0,0,1-2.414,1.063,2.887,2.887,0,0,1-2.395-1.2,5.008,5.008,0,0,1-.926-3.141Zm1.445.164a3.749,3.749,0,0,0,.594,2.25,1.92,1.92,0,0,0,1.641.813A2.108,2.108,0,0,0,68.829,38.7V34.813a2.125,2.125,0,0,0-1.992-1.2,1.929,1.929,0,0,0-1.656.82A4.128,4.128,0,0,0,64.586,36.867Zm11.438,4.289a3.693,3.693,0,0,1-2.8-1.129,4.19,4.19,0,0,1-1.078-3.02v-.266a5.073,5.073,0,0,1,.48-2.246,3.748,3.748,0,0,1,1.344-1.547,3.378,3.378,0,0,1,1.871-.559,3.166,3.166,0,0,1,2.563,1.086,4.7,4.7,0,0,1,.914,3.109v.6H73.594a3,3,0,0,0,.73,2.02,2.3,2.3,0,0,0,1.777.77,2.517,2.517,0,0,0,1.3-.312,3.259,3.259,0,0,0,.93-.828l.883.688A3.55,3.55,0,0,1,76.024,41.156Zm-.18-7.578a1.928,1.928,0,0,0-1.469.637A3.1,3.1,0,0,0,73.641,36h4.234v-.109a2.753,2.753,0,0,0-.594-1.707A1.815,1.815,0,0,0,75.844,33.578Zm10.07,5.18a1.064,1.064,0,0,0-.441-.91,4.249,4.249,0,0,0-1.539-.559,7.277,7.277,0,0,1-1.742-.562,2.479,2.479,0,0,1-.953-.781,1.869,1.869,0,0,1-.309-1.078,2.193,2.193,0,0,1,.879-1.758,3.432,3.432,0,0,1,2.246-.719,3.532,3.532,0,0,1,2.332.742,2.357,2.357,0,0,1,.895,1.9H85.829a1.3,1.3,0,0,0-.5-1.023,1.888,1.888,0,0,0-1.27-.43,1.976,1.976,0,0,0-1.234.344,1.082,1.082,0,0,0-.445.9.877.877,0,0,0,.414.789,5.1,5.1,0,0,0,1.5.508,7.8,7.8,0,0,1,1.754.578,2.558,2.558,0,0,1,1,.809,1.988,1.988,0,0,1,.324,1.152,2.163,2.163,0,0,1-.906,1.816,3.8,3.8,0,0,1-2.352.684,4.257,4.257,0,0,1-1.8-.359,2.922,2.922,0,0,1-1.223-1,2.42,2.42,0,0,1-.441-1.395h1.445a1.5,1.5,0,0,0,.582,1.152,2.258,2.258,0,0,0,1.434.426,2.331,2.331,0,0,0,1.316-.332A1.02,1.02,0,0,0,85.915,38.758Z" transform="translate(650.767 957)" fill="#12263f"/>
    <path id="Trazado_484910" data-name="Trazado 484910" d="M42.836,15.773h5.391V17h-6.9V5.625h1.508ZM49.329,12.7a4.993,4.993,0,0,1,.488-2.234A3.643,3.643,0,0,1,51.176,8.93a3.7,3.7,0,0,1,1.988-.539,3.565,3.565,0,0,1,2.793,1.2,4.6,4.6,0,0,1,1.066,3.18v.1a5.036,5.036,0,0,1-.473,2.215A3.589,3.589,0,0,1,55.2,16.609a3.743,3.743,0,0,1-2.02.547,3.556,3.556,0,0,1-2.785-1.2A4.575,4.575,0,0,1,49.329,12.8Zm1.453.172a3.616,3.616,0,0,0,.652,2.258,2.211,2.211,0,0,0,3.5-.012,3.955,3.955,0,0,0,.648-2.418,3.61,3.61,0,0,0-.66-2.254,2.1,2.1,0,0,0-1.754-.863,2.075,2.075,0,0,0-1.727.852A3.925,3.925,0,0,0,50.782,12.867Zm12.977,1.891a1.064,1.064,0,0,0-.441-.91,4.249,4.249,0,0,0-1.539-.559,7.277,7.277,0,0,1-1.742-.562,2.479,2.479,0,0,1-.953-.781,1.869,1.869,0,0,1-.309-1.078,2.193,2.193,0,0,1,.879-1.758A3.432,3.432,0,0,1,61.9,8.391a3.532,3.532,0,0,1,2.332.742,2.357,2.357,0,0,1,.895,1.9H63.672a1.3,1.3,0,0,0-.5-1.023,1.888,1.888,0,0,0-1.27-.43,1.976,1.976,0,0,0-1.234.344,1.082,1.082,0,0,0-.445.9.877.877,0,0,0,.414.789,5.1,5.1,0,0,0,1.5.508,7.8,7.8,0,0,1,1.754.578,2.558,2.558,0,0,1,1,.809,1.988,1.988,0,0,1,.324,1.152,2.163,2.163,0,0,1-.906,1.816,3.8,3.8,0,0,1-2.352.684,4.257,4.257,0,0,1-1.8-.359,2.922,2.922,0,0,1-1.223-1,2.42,2.42,0,0,1-.441-1.395H59.93a1.5,1.5,0,0,0,.582,1.152,2.258,2.258,0,0,0,1.434.426,2.331,2.331,0,0,0,1.316-.332A1.02,1.02,0,0,0,63.758,14.758ZM3.442,39H2V30.547H3.442ZM1.879,28.3a.863.863,0,0,1,.215-.594.807.807,0,0,1,.637-.242.819.819,0,0,1,.641.242.854.854,0,0,1,.219.594.826.826,0,0,1-.219.586.834.834,0,0,1-.641.234.821.821,0,0,1-.637-.234A.834.834,0,0,1,1.879,28.3Zm5.242,2.242.047,1.063A3.08,3.08,0,0,1,9.7,30.391q2.68,0,2.7,3.023V39H10.958V33.406a1.946,1.946,0,0,0-.418-1.352,1.675,1.675,0,0,0-1.277-.437,2.086,2.086,0,0,0-1.234.375,2.546,2.546,0,0,0-.828.984V39H5.754V30.547ZM14.231,34.7a4.952,4.952,0,0,1,.922-3.129,2.915,2.915,0,0,1,2.414-1.184,2.932,2.932,0,0,1,2.352,1.016V27h1.445V39H20.036l-.07-.906a2.943,2.943,0,0,1-2.414,1.063,2.887,2.887,0,0,1-2.395-1.2,5.008,5.008,0,0,1-.926-3.141Zm1.445.164a3.749,3.749,0,0,0,.594,2.25,1.92,1.92,0,0,0,1.641.813A2.108,2.108,0,0,0,19.918,36.7V32.813a2.125,2.125,0,0,0-1.992-1.2,1.929,1.929,0,0,0-1.656.82A4.128,4.128,0,0,0,15.676,34.867ZM25.176,39H23.731V30.547h1.445ZM23.614,28.3a.863.863,0,0,1,.215-.594.807.807,0,0,1,.637-.242.819.819,0,0,1,.641.242.854.854,0,0,1,.219.594.826.826,0,0,1-.219.586.834.834,0,0,1-.641.234.821.821,0,0,1-.637-.234A.834.834,0,0,1,23.614,28.3Zm7.266,9.672a2.082,2.082,0,0,0,1.352-.469,1.649,1.649,0,0,0,.641-1.172h1.367a2.621,2.621,0,0,1-.5,1.383,3.293,3.293,0,0,1-1.23,1.047,3.55,3.55,0,0,1-1.629.391A3.482,3.482,0,0,1,28.133,38a4.59,4.59,0,0,1-1.02-3.152v-.242a5.089,5.089,0,0,1,.453-2.2,3.451,3.451,0,0,1,1.3-1.492,3.7,3.7,0,0,1,2-.531,3.39,3.39,0,0,1,2.363.852,3.043,3.043,0,0,1,1,2.211H32.872a1.992,1.992,0,0,0-.621-1.348,1.932,1.932,0,0,0-1.379-.527,2.023,2.023,0,0,0-1.707.793,3.724,3.724,0,0,0-.605,2.293v.273a3.65,3.65,0,0,0,.6,2.25A2.033,2.033,0,0,0,30.879,37.977ZM41.083,39a3.036,3.036,0,0,1-.2-.891,3.225,3.225,0,0,1-2.406,1.047,2.984,2.984,0,0,1-2.051-.707,2.287,2.287,0,0,1-.8-1.793,2.39,2.39,0,0,1,1-2.051,4.733,4.733,0,0,1,2.824-.73h1.406v-.664A1.623,1.623,0,0,0,40.4,32a1.821,1.821,0,0,0-1.336-.449,2.107,2.107,0,0,0-1.3.391,1.151,1.151,0,0,0-.523.945H35.793a2,2,0,0,1,.449-1.223,3.066,3.066,0,0,1,1.219-.934,4.1,4.1,0,0,1,1.691-.344,3.342,3.342,0,0,1,2.289.73,2.635,2.635,0,0,1,.859,2.012v3.891a4.757,4.757,0,0,0,.3,1.852V39Zm-2.4-1.1a2.54,2.54,0,0,0,1.289-.352,2.127,2.127,0,0,0,.883-.914V34.9H39.723q-2.656,0-2.656,1.555a1.316,1.316,0,0,0,.453,1.063A1.742,1.742,0,0,0,38.684,37.9Zm5.531-3.2a4.952,4.952,0,0,1,.922-3.129,3.137,3.137,0,0,1,4.766-.168V27h1.445V39H50.02l-.07-.906a2.943,2.943,0,0,1-2.414,1.063,2.887,2.887,0,0,1-2.395-1.2,5.008,5.008,0,0,1-.926-3.141Zm1.445.164a3.749,3.749,0,0,0,.594,2.25,1.919,1.919,0,0,0,1.641.813A2.108,2.108,0,0,0,49.9,36.7V32.813a2.125,2.125,0,0,0-1.992-1.2,1.929,1.929,0,0,0-1.656.82A4.128,4.128,0,0,0,45.661,34.867Zm7.547-.172a4.993,4.993,0,0,1,.488-2.234,3.643,3.643,0,0,1,1.359-1.531,3.7,3.7,0,0,1,1.988-.539,3.565,3.565,0,0,1,2.793,1.2,4.6,4.6,0,0,1,1.066,3.18v.1a5.036,5.036,0,0,1-.473,2.215,3.589,3.589,0,0,1-1.352,1.527,3.743,3.743,0,0,1-2.02.547,3.556,3.556,0,0,1-2.785-1.2A4.575,4.575,0,0,1,53.208,34.8Zm1.453.172a3.616,3.616,0,0,0,.652,2.258,2.211,2.211,0,0,0,3.5-.012,3.955,3.955,0,0,0,.648-2.418,3.61,3.61,0,0,0-.66-2.254,2.1,2.1,0,0,0-1.754-.863,2.075,2.075,0,0,0-1.727.852A3.925,3.925,0,0,0,54.661,34.867ZM66.8,31.844a4.331,4.331,0,0,0-.711-.055A1.9,1.9,0,0,0,64.161,33v6H62.715V30.547h1.406l.023.977a2.251,2.251,0,0,1,2.016-1.133,1.477,1.477,0,0,1,.641.109Zm4.836,7.313a3.693,3.693,0,0,1-2.8-1.129,4.19,4.19,0,0,1-1.078-3.02v-.266a5.073,5.073,0,0,1,.48-2.246,3.748,3.748,0,0,1,1.344-1.547,3.378,3.378,0,0,1,1.871-.559,3.166,3.166,0,0,1,2.563,1.086,4.7,4.7,0,0,1,.914,3.109v.6H69.208a3,3,0,0,0,.73,2.02,2.3,2.3,0,0,0,1.777.77,2.517,2.517,0,0,0,1.3-.312,3.259,3.259,0,0,0,.93-.828l.883.688A3.55,3.55,0,0,1,71.637,39.156Zm-.18-7.578a1.928,1.928,0,0,0-1.469.637A3.1,3.1,0,0,0,69.254,34h4.234v-.109a2.753,2.753,0,0,0-.594-1.707A1.815,1.815,0,0,0,71.458,31.578Zm10.07,5.18a1.064,1.064,0,0,0-.441-.91,4.249,4.249,0,0,0-1.539-.559,7.277,7.277,0,0,1-1.742-.562,2.479,2.479,0,0,1-.953-.781,1.869,1.869,0,0,1-.309-1.078,2.193,2.193,0,0,1,.879-1.758,3.432,3.432,0,0,1,2.246-.719A3.532,3.532,0,0,1,82,31.133a2.357,2.357,0,0,1,.895,1.9H81.442a1.3,1.3,0,0,0-.5-1.023,1.888,1.888,0,0,0-1.27-.43,1.976,1.976,0,0,0-1.234.344,1.082,1.082,0,0,0-.445.9.877.877,0,0,0,.414.789,5.1,5.1,0,0,0,1.5.508,7.8,7.8,0,0,1,1.754.578,2.558,2.558,0,0,1,1,.809,1.988,1.988,0,0,1,.324,1.152,2.163,2.163,0,0,1-.906,1.816,3.8,3.8,0,0,1-2.352.684,4.257,4.257,0,0,1-1.8-.359,2.922,2.922,0,0,1-1.223-1,2.42,2.42,0,0,1-.441-1.395H77.7a1.5,1.5,0,0,0,.582,1.152,2.258,2.258,0,0,0,1.434.426,2.331,2.331,0,0,0,1.316-.332A1.02,1.02,0,0,0,81.528,36.758ZM88.465,34.7a4.952,4.952,0,0,1,.922-3.129,3.137,3.137,0,0,1,4.766-.168V27H95.6V39H94.27l-.07-.906a2.943,2.943,0,0,1-2.414,1.063,2.887,2.887,0,0,1-2.395-1.2,5.008,5.008,0,0,1-.926-3.141Zm1.445.164a3.749,3.749,0,0,0,.594,2.25,1.92,1.92,0,0,0,1.641.813A2.108,2.108,0,0,0,94.153,36.7V32.813a2.125,2.125,0,0,0-1.992-1.2,1.929,1.929,0,0,0-1.656.82A4.128,4.128,0,0,0,89.911,34.867Zm11.438,4.289a3.693,3.693,0,0,1-2.8-1.129,4.19,4.19,0,0,1-1.078-3.02v-.266a5.073,5.073,0,0,1,.48-2.246A3.748,3.748,0,0,1,99.3,30.949a3.378,3.378,0,0,1,1.871-.559,3.166,3.166,0,0,1,2.563,1.086,4.7,4.7,0,0,1,.914,3.109v.6H98.918a3,3,0,0,0,.73,2.02,2.3,2.3,0,0,0,1.777.77,2.517,2.517,0,0,0,1.3-.312,3.259,3.259,0,0,0,.93-.828l.883.688A3.55,3.55,0,0,1,101.348,39.156Zm-.18-7.578a1.928,1.928,0,0,0-1.469.637A3.1,3.1,0,0,0,98.965,34H103.2v-.109a2.753,2.753,0,0,0-.594-1.707A1.815,1.815,0,0,0,101.168,31.578ZM27.368,56.7a4.968,4.968,0,0,1,.914-3.145,3.151,3.151,0,0,1,4.836-.074l.07-.937h1.32V60.8a3.439,3.439,0,0,1-.973,2.586,3.589,3.589,0,0,1-2.613.945,4.348,4.348,0,0,1-1.789-.391,3.08,3.08,0,0,1-1.336-1.07l.75-.867a2.826,2.826,0,0,0,2.273,1.148,2.214,2.214,0,0,0,1.645-.594,2.269,2.269,0,0,0,.59-1.672v-.727a2.971,2.971,0,0,1-2.367,1,2.887,2.887,0,0,1-2.4-1.2A5.224,5.224,0,0,1,27.368,56.7Zm1.453.164a3.79,3.79,0,0,0,.586,2.246,1.9,1.9,0,0,0,1.641.816,2.117,2.117,0,0,0,2.008-1.242V54.828a2.142,2.142,0,0,0-1.992-1.211,1.921,1.921,0,0,0-1.648.82A4.128,4.128,0,0,0,28.821,56.867ZM40.2,61.156a3.693,3.693,0,0,1-2.8-1.129,4.19,4.19,0,0,1-1.078-3.02v-.266A5.073,5.073,0,0,1,36.8,54.5a3.748,3.748,0,0,1,1.344-1.547,3.378,3.378,0,0,1,1.871-.559,3.166,3.166,0,0,1,2.563,1.086,4.7,4.7,0,0,1,.914,3.109v.6H37.766a3,3,0,0,0,.73,2.02,2.3,2.3,0,0,0,1.777.77,2.517,2.517,0,0,0,1.3-.312,3.258,3.258,0,0,0,.93-.828l.883.688A3.55,3.55,0,0,1,40.2,61.156Zm-.18-7.578a1.928,1.928,0,0,0-1.469.637A3.1,3.1,0,0,0,37.813,56h4.234v-.109a2.753,2.753,0,0,0-.594-1.707A1.815,1.815,0,0,0,40.016,53.578Zm10.07,5.18a1.064,1.064,0,0,0-.441-.91,4.249,4.249,0,0,0-1.539-.559,7.277,7.277,0,0,1-1.742-.562,2.479,2.479,0,0,1-.953-.781,1.869,1.869,0,0,1-.309-1.078,2.193,2.193,0,0,1,.879-1.758,3.432,3.432,0,0,1,2.246-.719,3.532,3.532,0,0,1,2.332.742,2.357,2.357,0,0,1,.895,1.9H50a1.3,1.3,0,0,0-.5-1.023,1.888,1.888,0,0,0-1.27-.43,1.976,1.976,0,0,0-1.234.344,1.082,1.082,0,0,0-.445.9.877.877,0,0,0,.414.789,5.1,5.1,0,0,0,1.5.508,7.8,7.8,0,0,1,1.754.578,2.558,2.558,0,0,1,1,.809,1.988,1.988,0,0,1,.324,1.152,2.163,2.163,0,0,1-.906,1.816,3.8,3.8,0,0,1-2.352.684,4.257,4.257,0,0,1-1.8-.359,2.922,2.922,0,0,1-1.223-1,2.42,2.42,0,0,1-.441-1.395h1.445a1.5,1.5,0,0,0,.582,1.152,2.258,2.258,0,0,0,1.434.426,2.331,2.331,0,0,0,1.316-.332A1.02,1.02,0,0,0,50.086,58.758ZM55.375,50.5v2.047h1.578v1.117H55.375v5.249a1.173,1.173,0,0,0,.211.763.888.888,0,0,0,.719.254,3.5,3.5,0,0,0,.688-.094V61a4.215,4.215,0,0,1-1.109.155,1.8,1.8,0,0,1-1.461-.586,2.517,2.517,0,0,1-.492-1.664V53.664H52.391V52.547H53.93V50.5ZM60.211,61H58.766V52.547h1.445ZM58.649,50.3a.863.863,0,0,1,.215-.594.807.807,0,0,1,.637-.242.819.819,0,0,1,.641.242.854.854,0,0,1,.219.594.826.826,0,0,1-.219.586.834.834,0,0,1-.641.234.821.821,0,0,1-.637-.234A.834.834,0,0,1,58.649,50.3ZM62.141,56.7a4.993,4.993,0,0,1,.488-2.234,3.643,3.643,0,0,1,1.359-1.531,3.7,3.7,0,0,1,1.988-.539,3.565,3.565,0,0,1,2.793,1.2,4.6,4.6,0,0,1,1.066,3.18v.1a5.036,5.036,0,0,1-.473,2.215,3.589,3.589,0,0,1-1.352,1.527,3.743,3.743,0,0,1-2.02.547,3.556,3.556,0,0,1-2.785-1.2A4.575,4.575,0,0,1,62.141,56.8Zm1.453.172a3.616,3.616,0,0,0,.652,2.258,2.211,2.211,0,0,0,3.5-.012,3.955,3.955,0,0,0,.648-2.418,3.61,3.61,0,0,0-.66-2.254,2.1,2.1,0,0,0-1.754-.863,2.075,2.075,0,0,0-1.727.852A3.925,3.925,0,0,0,63.594,56.867ZM66.633,49h1.75L66.29,51.3l-1.164,0Zm6.383,3.547.047,1.063a3.08,3.08,0,0,1,2.531-1.219q2.68,0,2.7,3.023V61H76.852V55.406a1.946,1.946,0,0,0-.418-1.352,1.675,1.675,0,0,0-1.277-.437,2.086,2.086,0,0,0-1.234.375,2.546,2.546,0,0,0-.828.984V61H71.649V52.547Z" transform="translate(1066.767 957)" fill="#12263f"/>
    <path id="Trazado_484912" data-name="Trazado 484912" d="M7.583,15.773h5.391V17h-6.9V5.625H7.583ZM14.075,12.7a4.993,4.993,0,0,1,.488-2.234A3.643,3.643,0,0,1,15.922,8.93a3.7,3.7,0,0,1,1.988-.539,3.565,3.565,0,0,1,2.793,1.2,4.6,4.6,0,0,1,1.066,3.18v.1a5.036,5.036,0,0,1-.473,2.215,3.589,3.589,0,0,1-1.352,1.527,3.743,3.743,0,0,1-2.02.547,3.556,3.556,0,0,1-2.785-1.2A4.575,4.575,0,0,1,14.075,12.8Zm1.453.172a3.616,3.616,0,0,0,.652,2.258,2.211,2.211,0,0,0,3.5-.012,3.955,3.955,0,0,0,.648-2.418,3.61,3.61,0,0,0-.66-2.254,2.1,2.1,0,0,0-1.754-.863,2.075,2.075,0,0,0-1.727.852A3.925,3.925,0,0,0,15.528,12.867ZM28.5,14.758a1.064,1.064,0,0,0-.441-.91,4.249,4.249,0,0,0-1.539-.559,7.277,7.277,0,0,1-1.742-.562,2.479,2.479,0,0,1-.953-.781,1.869,1.869,0,0,1-.309-1.078A2.193,2.193,0,0,1,24.4,9.109a3.432,3.432,0,0,1,2.246-.719,3.532,3.532,0,0,1,2.332.742,2.357,2.357,0,0,1,.895,1.9H28.418a1.3,1.3,0,0,0-.5-1.023,1.888,1.888,0,0,0-1.27-.43,1.976,1.976,0,0,0-1.234.344,1.082,1.082,0,0,0-.445.9.877.877,0,0,0,.414.789,5.1,5.1,0,0,0,1.5.508,7.8,7.8,0,0,1,1.754.578,2.558,2.558,0,0,1,1,.809,1.988,1.988,0,0,1,.324,1.152,2.163,2.163,0,0,1-.906,1.816,3.8,3.8,0,0,1-2.352.684,4.257,4.257,0,0,1-1.8-.359,2.922,2.922,0,0,1-1.223-1,2.42,2.42,0,0,1-.441-1.395h1.445a1.5,1.5,0,0,0,.582,1.152,2.258,2.258,0,0,0,1.434.426,2.331,2.331,0,0,0,1.316-.332A1.02,1.02,0,0,0,28.5,14.758Zm10.68,1.219a2.082,2.082,0,0,0,1.352-.469,1.649,1.649,0,0,0,.641-1.172h1.367a2.621,2.621,0,0,1-.5,1.383,3.293,3.293,0,0,1-1.23,1.047,3.55,3.55,0,0,1-1.629.391A3.482,3.482,0,0,1,36.438,16a4.59,4.59,0,0,1-1.02-3.152v-.242a5.089,5.089,0,0,1,.453-2.2,3.451,3.451,0,0,1,1.3-1.492,3.7,3.7,0,0,1,2-.531,3.39,3.39,0,0,1,2.363.852,3.043,3.043,0,0,1,1,2.211H41.176a1.992,1.992,0,0,0-.621-1.348,1.932,1.932,0,0,0-1.379-.527,2.023,2.023,0,0,0-1.707.793,3.724,3.724,0,0,0-.605,2.293v.273a3.65,3.65,0,0,0,.6,2.25A2.033,2.033,0,0,0,39.184,15.977Zm4.6-3.281a4.993,4.993,0,0,1,.488-2.234A3.643,3.643,0,0,1,45.633,8.93a3.7,3.7,0,0,1,1.988-.539,3.565,3.565,0,0,1,2.793,1.2,4.6,4.6,0,0,1,1.066,3.18v.1a5.036,5.036,0,0,1-.473,2.215,3.589,3.589,0,0,1-1.352,1.527,3.743,3.743,0,0,1-2.02.547,3.556,3.556,0,0,1-2.785-1.2A4.575,4.575,0,0,1,43.786,12.8Zm1.453.172a3.616,3.616,0,0,0,.652,2.258,2.211,2.211,0,0,0,3.5-.012,3.955,3.955,0,0,0,.648-2.418,3.61,3.61,0,0,0-.66-2.254,2.1,2.1,0,0,0-1.754-.863,2.075,2.075,0,0,0-1.727.852A3.925,3.925,0,0,0,45.239,12.867Zm9.422-4.32.047,1.063a3.08,3.08,0,0,1,2.531-1.219q2.68,0,2.7,3.023V17H58.5V11.406a1.946,1.946,0,0,0-.418-1.352A1.675,1.675,0,0,0,56.8,9.617a2.086,2.086,0,0,0-1.234.375,2.546,2.546,0,0,0-.828.984V17H53.293V8.547ZM64.083,6.5V8.547h1.578V9.664H64.083v5.249a1.173,1.173,0,0,0,.211.763.888.888,0,0,0,.719.254,3.5,3.5,0,0,0,.688-.094V17a4.215,4.215,0,0,1-1.109.155,1.8,1.8,0,0,1-1.461-.586,2.517,2.517,0,0,1-.492-1.664V9.664H61.1V8.547h1.539V6.5Zm7.352,3.344a4.331,4.331,0,0,0-.711-.055A1.9,1.9,0,0,0,68.793,11v6H67.348V8.547h1.406l.023.977a2.251,2.251,0,0,1,2.016-1.133,1.477,1.477,0,0,1,.641.109Zm.789,2.852a4.993,4.993,0,0,1,.488-2.234A3.643,3.643,0,0,1,74.071,8.93a3.7,3.7,0,0,1,1.988-.539,3.565,3.565,0,0,1,2.793,1.2,4.6,4.6,0,0,1,1.066,3.18v.1a5.036,5.036,0,0,1-.473,2.215,3.589,3.589,0,0,1-1.352,1.527,3.743,3.743,0,0,1-2.02.547,3.556,3.556,0,0,1-2.785-1.2A4.575,4.575,0,0,1,72.223,12.8Zm1.453.172a3.616,3.616,0,0,0,.652,2.258,2.211,2.211,0,0,0,3.5-.012,3.955,3.955,0,0,0,.648-2.418,3.61,3.61,0,0,0-.66-2.254,2.1,2.1,0,0,0-1.754-.863,2.075,2.075,0,0,0-1.727.852A3.925,3.925,0,0,0,73.676,12.867ZM83.3,17H81.856V5H83.3Zm5.82.156a3.693,3.693,0,0,1-2.8-1.129,4.19,4.19,0,0,1-1.078-3.02v-.266a5.073,5.073,0,0,1,.48-2.246,3.748,3.748,0,0,1,1.344-1.547,3.378,3.378,0,0,1,1.871-.559A3.166,3.166,0,0,1,91.5,9.477a4.7,4.7,0,0,1,.914,3.109v.6H86.692a3,3,0,0,0,.73,2.02,2.3,2.3,0,0,0,1.777.77,2.517,2.517,0,0,0,1.3-.312,3.259,3.259,0,0,0,.93-.828l.883.688A3.55,3.55,0,0,1,89.122,17.156Zm-.18-7.578a1.928,1.928,0,0,0-1.469.637A3.1,3.1,0,0,0,86.739,12h4.234v-.109a2.753,2.753,0,0,0-.594-1.707A1.815,1.815,0,0,0,88.942,9.578Zm10.07,5.18a1.064,1.064,0,0,0-.441-.91,4.249,4.249,0,0,0-1.539-.559,7.277,7.277,0,0,1-1.742-.562,2.479,2.479,0,0,1-.953-.781,1.869,1.869,0,0,1-.309-1.078,2.193,2.193,0,0,1,.879-1.758,3.432,3.432,0,0,1,2.246-.719,3.532,3.532,0,0,1,2.332.742,2.357,2.357,0,0,1,.895,1.9H98.926a1.3,1.3,0,0,0-.5-1.023,1.888,1.888,0,0,0-1.27-.43,1.976,1.976,0,0,0-1.234.344,1.082,1.082,0,0,0-.445.9.877.877,0,0,0,.414.789,5.1,5.1,0,0,0,1.5.508,7.8,7.8,0,0,1,1.754.578,2.558,2.558,0,0,1,1,.809,1.988,1.988,0,0,1,.324,1.152,2.163,2.163,0,0,1-.906,1.816,3.8,3.8,0,0,1-2.352.684,4.257,4.257,0,0,1-1.8-.359,2.922,2.922,0,0,1-1.223-1,2.42,2.42,0,0,1-.441-1.395h1.445a1.5,1.5,0,0,0,.582,1.152,2.258,2.258,0,0,0,1.434.426,2.331,2.331,0,0,0,1.316-.332A1.02,1.02,0,0,0,99.012,14.758ZM12.278,36.7a4.952,4.952,0,0,1,.922-3.129,2.915,2.915,0,0,1,2.414-1.184,2.932,2.932,0,0,1,2.352,1.016V29h1.445V41H18.083l-.07-.906A2.943,2.943,0,0,1,15.6,41.156a2.887,2.887,0,0,1-2.395-1.2,5.008,5.008,0,0,1-.926-3.141Zm1.445.164a3.749,3.749,0,0,0,.594,2.25,1.92,1.92,0,0,0,1.641.813A2.108,2.108,0,0,0,17.965,38.7V34.813a2.125,2.125,0,0,0-1.992-1.2,1.929,1.929,0,0,0-1.656.82A4.128,4.128,0,0,0,13.723,36.867Zm11.438,4.289a3.693,3.693,0,0,1-2.8-1.129,4.19,4.19,0,0,1-1.078-3.02v-.266a5.073,5.073,0,0,1,.48-2.246,3.748,3.748,0,0,1,1.344-1.547,3.378,3.378,0,0,1,1.871-.559,3.166,3.166,0,0,1,2.563,1.086,4.7,4.7,0,0,1,.914,3.109v.6H22.731a3,3,0,0,0,.73,2.02,2.3,2.3,0,0,0,1.777.77,2.517,2.517,0,0,0,1.3-.312,3.259,3.259,0,0,0,.93-.828l.883.688A3.55,3.55,0,0,1,25.161,41.156Zm-.18-7.578a1.928,1.928,0,0,0-1.469.637A3.1,3.1,0,0,0,22.778,36h4.234v-.109a2.753,2.753,0,0,0-.594-1.707A1.815,1.815,0,0,0,24.981,33.578ZM31.7,41H30.254V29H31.7Zm13.414-4.133a5.062,5.062,0,0,1-.883,3.109,2.829,2.829,0,0,1-2.391,1.18,3.1,3.1,0,0,1-2.422-.977v4.07H37.973v-11.7h1.32l.07.938a2.977,2.977,0,0,1,2.453-1.094,2.882,2.882,0,0,1,2.41,1.148,5.117,5.117,0,0,1,.887,3.2ZM43.668,36.7a3.735,3.735,0,0,0-.609-2.258,1.963,1.963,0,0,0-1.672-.828,2.125,2.125,0,0,0-1.969,1.164V38.82A2.129,2.129,0,0,0,41.4,39.977a1.954,1.954,0,0,0,1.652-.824A4.077,4.077,0,0,0,43.668,36.7Zm7.367-2.859a4.331,4.331,0,0,0-.711-.055A1.9,1.9,0,0,0,48.4,35v6H46.95V32.547h1.406l.023.977A2.251,2.251,0,0,1,50.4,32.391a1.477,1.477,0,0,1,.641.109Zm.789,2.852a4.993,4.993,0,0,1,.488-2.234,3.643,3.643,0,0,1,1.359-1.531,3.7,3.7,0,0,1,1.988-.539,3.565,3.565,0,0,1,2.793,1.2,4.6,4.6,0,0,1,1.066,3.18v.1a5.036,5.036,0,0,1-.473,2.215A3.589,3.589,0,0,1,57.7,40.609a3.743,3.743,0,0,1-2.02.547,3.556,3.556,0,0,1-2.785-1.2A4.575,4.575,0,0,1,51.825,36.8Zm1.453.172a3.616,3.616,0,0,0,.652,2.258,2.211,2.211,0,0,0,3.5-.012,3.955,3.955,0,0,0,.648-2.418,3.61,3.61,0,0,0-.66-2.254,2.1,2.1,0,0,0-1.754-.863,2.075,2.075,0,0,0-1.727.852A3.925,3.925,0,0,0,53.278,36.867Zm11.445,3.109a2.082,2.082,0,0,0,1.352-.469,1.649,1.649,0,0,0,.641-1.172h1.367a2.621,2.621,0,0,1-.5,1.383,3.293,3.293,0,0,1-1.23,1.047,3.55,3.55,0,0,1-1.629.391A3.482,3.482,0,0,1,61.977,40a4.59,4.59,0,0,1-1.02-3.152v-.242a5.089,5.089,0,0,1,.453-2.2,3.451,3.451,0,0,1,1.3-1.492,3.7,3.7,0,0,1,2-.531,3.39,3.39,0,0,1,2.363.852,3.043,3.043,0,0,1,1,2.211H66.715a1.992,1.992,0,0,0-.621-1.348,1.932,1.932,0,0,0-1.379-.527,2.023,2.023,0,0,0-1.707.793,3.724,3.724,0,0,0-.605,2.293v.273a3.65,3.65,0,0,0,.6,2.25A2.033,2.033,0,0,0,64.723,39.977Zm8.492,1.18a3.693,3.693,0,0,1-2.8-1.129,4.19,4.19,0,0,1-1.078-3.02v-.266a5.073,5.073,0,0,1,.48-2.246,3.748,3.748,0,0,1,1.344-1.547,3.378,3.378,0,0,1,1.871-.559A3.166,3.166,0,0,1,75.6,33.477a4.7,4.7,0,0,1,.914,3.109v.6H70.786a3,3,0,0,0,.73,2.02,2.3,2.3,0,0,0,1.777.77,2.517,2.517,0,0,0,1.3-.312,3.259,3.259,0,0,0,.93-.828l.883.688A3.55,3.55,0,0,1,73.215,41.156Zm-.18-7.578a1.928,1.928,0,0,0-1.469.637A3.1,3.1,0,0,0,70.833,36h4.234v-.109a2.753,2.753,0,0,0-.594-1.707A1.815,1.815,0,0,0,73.036,33.578Zm10.07,5.18a1.064,1.064,0,0,0-.441-.91,4.249,4.249,0,0,0-1.539-.559,7.277,7.277,0,0,1-1.742-.562,2.479,2.479,0,0,1-.953-.781,1.869,1.869,0,0,1-.309-1.078A2.193,2.193,0,0,1,79,33.109a3.432,3.432,0,0,1,2.246-.719,3.532,3.532,0,0,1,2.332.742,2.357,2.357,0,0,1,.895,1.9H83.02a1.3,1.3,0,0,0-.5-1.023,1.888,1.888,0,0,0-1.27-.43,1.976,1.976,0,0,0-1.234.344,1.082,1.082,0,0,0-.445.9.877.877,0,0,0,.414.789,5.1,5.1,0,0,0,1.5.508,7.8,7.8,0,0,1,1.754.578,2.558,2.558,0,0,1,1,.809,1.988,1.988,0,0,1,.324,1.152,2.163,2.163,0,0,1-.906,1.816,3.8,3.8,0,0,1-2.352.684,4.257,4.257,0,0,1-1.8-.359,2.922,2.922,0,0,1-1.223-1,2.42,2.42,0,0,1-.441-1.395h1.445a1.5,1.5,0,0,0,.582,1.152,2.258,2.258,0,0,0,1.434.426,2.331,2.331,0,0,0,1.316-.332A1.02,1.02,0,0,0,83.106,38.758ZM86.051,36.7a4.993,4.993,0,0,1,.488-2.234A3.643,3.643,0,0,1,87.9,32.93a3.7,3.7,0,0,1,1.988-.539,3.565,3.565,0,0,1,2.793,1.2,4.6,4.6,0,0,1,1.066,3.18v.1a5.036,5.036,0,0,1-.473,2.215,3.589,3.589,0,0,1-1.352,1.527,3.743,3.743,0,0,1-2.02.547,3.556,3.556,0,0,1-2.785-1.2A4.575,4.575,0,0,1,86.051,36.8Zm1.453.172a3.616,3.616,0,0,0,.652,2.258,2.211,2.211,0,0,0,3.5-.012A3.955,3.955,0,0,0,92.3,36.7a3.61,3.61,0,0,0-.66-2.254,2.1,2.1,0,0,0-1.754-.863,2.075,2.075,0,0,0-1.727.852A3.925,3.925,0,0,0,87.5,36.867Z" transform="translate(1276.767 957)" fill="#12263f"/>
    <path id="Trazado_484908" data-name="Trazado 484908" d="M17.9,11.742h-4.93v4.031h5.727V17H11.465V5.625h7.148V6.852H12.965v3.664H17.9ZM21.9,17H20.458V5H21.9Zm13.414-4.133a5.062,5.062,0,0,1-.883,3.109,2.829,2.829,0,0,1-2.391,1.18,3.1,3.1,0,0,1-2.422-.977v4.07H28.176V8.547H29.5l.07.938A2.977,2.977,0,0,1,32.02,8.391a2.882,2.882,0,0,1,2.41,1.148,5.117,5.117,0,0,1,.887,3.2ZM33.872,12.7a3.735,3.735,0,0,0-.609-2.258,1.963,1.963,0,0,0-1.672-.828,2.125,2.125,0,0,0-1.969,1.164V14.82a2.129,2.129,0,0,0,1.984,1.156,1.954,1.954,0,0,0,1.652-.824A4.077,4.077,0,0,0,33.872,12.7Zm7.367-2.859a4.331,4.331,0,0,0-.711-.055A1.9,1.9,0,0,0,38.6,11v6H37.153V8.547h1.406l.023.977A2.251,2.251,0,0,1,40.6,8.391a1.477,1.477,0,0,1,.641.109Zm.789,2.852a4.993,4.993,0,0,1,.488-2.234A3.643,3.643,0,0,1,43.875,8.93a3.7,3.7,0,0,1,1.988-.539,3.565,3.565,0,0,1,2.793,1.2,4.6,4.6,0,0,1,1.066,3.18v.1a5.036,5.036,0,0,1-.473,2.215A3.589,3.589,0,0,1,47.9,16.609a3.743,3.743,0,0,1-2.02.547,3.556,3.556,0,0,1-2.785-1.2A4.575,4.575,0,0,1,42.028,12.8Zm1.453.172a3.616,3.616,0,0,0,.652,2.258,2.211,2.211,0,0,0,3.5-.012,3.955,3.955,0,0,0,.648-2.418,3.61,3.61,0,0,0-.66-2.254,2.1,2.1,0,0,0-1.754-.863,2.075,2.075,0,0,0-1.727.852A3.925,3.925,0,0,0,43.481,12.867Zm7.7-.164a4.952,4.952,0,0,1,.922-3.129,3.137,3.137,0,0,1,4.766-.168V5h1.445V17H56.989l-.07-.906A2.943,2.943,0,0,1,54.5,17.156a2.887,2.887,0,0,1-2.395-1.2,5.008,5.008,0,0,1-.926-3.141Zm1.445.164a3.749,3.749,0,0,0,.594,2.25,1.92,1.92,0,0,0,1.641.813A2.108,2.108,0,0,0,56.872,14.7V10.813a2.125,2.125,0,0,0-1.992-1.2,1.929,1.929,0,0,0-1.656.82A4.128,4.128,0,0,0,52.629,12.867Zm13.148,3.3a3.07,3.07,0,0,1-2.477.992,2.628,2.628,0,0,1-2.059-.785,3.4,3.4,0,0,1-.715-2.324v-5.5h1.445v5.461q0,1.922,1.563,1.922a2.163,2.163,0,0,0,2.2-1.234V8.547h1.445V17H65.809Zm6.992-.187a2.082,2.082,0,0,0,1.352-.469,1.649,1.649,0,0,0,.641-1.172h1.367a2.621,2.621,0,0,1-.5,1.383,3.293,3.293,0,0,1-1.23,1.047,3.55,3.55,0,0,1-1.629.391A3.482,3.482,0,0,1,70.024,16,4.59,4.59,0,0,1,69,12.852v-.242a5.089,5.089,0,0,1,.453-2.2,3.451,3.451,0,0,1,1.3-1.492,3.7,3.7,0,0,1,2-.531,3.39,3.39,0,0,1,2.363.852,3.043,3.043,0,0,1,1,2.211H74.762a1.992,1.992,0,0,0-.621-1.348,1.932,1.932,0,0,0-1.379-.527,2.023,2.023,0,0,0-1.707.793,3.724,3.724,0,0,0-.605,2.293v.273a3.65,3.65,0,0,0,.6,2.25A2.033,2.033,0,0,0,72.77,15.977ZM79.715,6.5V8.547h1.578V9.664H79.715v5.249a1.173,1.173,0,0,0,.211.763.888.888,0,0,0,.719.254,3.5,3.5,0,0,0,.688-.094V17a4.215,4.215,0,0,1-1.109.155,1.8,1.8,0,0,1-1.461-.586,2.517,2.517,0,0,1-.492-1.664V9.664H76.731V8.547H78.27V6.5Zm2.727,6.2a4.993,4.993,0,0,1,.488-2.234A3.643,3.643,0,0,1,84.29,8.93a3.7,3.7,0,0,1,1.988-.539,3.565,3.565,0,0,1,2.793,1.2,4.6,4.6,0,0,1,1.066,3.18v.1a5.036,5.036,0,0,1-.473,2.215,3.589,3.589,0,0,1-1.352,1.527,3.743,3.743,0,0,1-2.02.547,3.556,3.556,0,0,1-2.785-1.2A4.575,4.575,0,0,1,82.442,12.8Zm1.453.172a3.616,3.616,0,0,0,.652,2.258,2.211,2.211,0,0,0,3.5-.012,3.955,3.955,0,0,0,.648-2.418,3.61,3.61,0,0,0-.66-2.254,2.1,2.1,0,0,0-1.754-.863,2.075,2.075,0,0,0-1.727.852A3.925,3.925,0,0,0,83.9,12.867ZM3.235,29.7a4.952,4.952,0,0,1,.922-3.129,2.915,2.915,0,0,1,2.414-1.184,2.932,2.932,0,0,1,2.352,1.016V22h1.445V34H9.04l-.07-.906a2.943,2.943,0,0,1-2.414,1.063,2.887,2.887,0,0,1-2.395-1.2,5.008,5.008,0,0,1-.926-3.141Zm1.445.164a3.749,3.749,0,0,0,.594,2.25,1.92,1.92,0,0,0,1.641.813A2.108,2.108,0,0,0,8.922,31.7V27.813a2.125,2.125,0,0,0-1.992-1.2,1.929,1.929,0,0,0-1.656.82A4.128,4.128,0,0,0,4.68,29.867Zm11.438,4.289a3.693,3.693,0,0,1-2.8-1.129,4.19,4.19,0,0,1-1.078-3.02v-.266a5.073,5.073,0,0,1,.48-2.246,3.748,3.748,0,0,1,1.344-1.547,3.378,3.378,0,0,1,1.871-.559A3.166,3.166,0,0,1,18.5,26.477a4.7,4.7,0,0,1,.914,3.109v.6H13.688a3,3,0,0,0,.73,2.02,2.3,2.3,0,0,0,1.777.77,2.517,2.517,0,0,0,1.3-.312,3.259,3.259,0,0,0,.93-.828l.883.688A3.55,3.55,0,0,1,16.118,34.156Zm-.18-7.578a1.928,1.928,0,0,0-1.469.637A3.1,3.1,0,0,0,13.735,29h4.234v-.109a2.753,2.753,0,0,0-.594-1.707A1.815,1.815,0,0,0,15.938,26.578ZM22.657,34H21.211V22h1.445Zm13.414-4.133a5.062,5.062,0,0,1-.883,3.109,2.829,2.829,0,0,1-2.391,1.18,3.1,3.1,0,0,1-2.422-.977v4.07H28.93v-11.7h1.32l.07.938a2.977,2.977,0,0,1,2.453-1.094,2.882,2.882,0,0,1,2.41,1.148,5.117,5.117,0,0,1,.887,3.2ZM34.625,29.7a3.735,3.735,0,0,0-.609-2.258,1.963,1.963,0,0,0-1.672-.828,2.125,2.125,0,0,0-1.969,1.164V31.82a2.129,2.129,0,0,0,1.984,1.156,1.954,1.954,0,0,0,1.652-.824A4.077,4.077,0,0,0,34.625,29.7Zm7.367-2.859a4.331,4.331,0,0,0-.711-.055A1.9,1.9,0,0,0,39.352,28v6H37.907V25.547h1.406l.023.977a2.251,2.251,0,0,1,2.016-1.133,1.477,1.477,0,0,1,.641.109Zm.789,2.852a4.993,4.993,0,0,1,.488-2.234,3.643,3.643,0,0,1,1.359-1.531,3.7,3.7,0,0,1,1.988-.539,3.565,3.565,0,0,1,2.793,1.2,4.6,4.6,0,0,1,1.066,3.18v.1A5.036,5.036,0,0,1,50,32.082a3.589,3.589,0,0,1-1.352,1.527,3.743,3.743,0,0,1-2.02.547,3.556,3.556,0,0,1-2.785-1.2A4.575,4.575,0,0,1,42.782,29.8Zm1.453.172a3.616,3.616,0,0,0,.652,2.258,2.211,2.211,0,0,0,3.5-.012,3.955,3.955,0,0,0,.648-2.418,3.61,3.61,0,0,0-.66-2.254,2.1,2.1,0,0,0-1.754-.863,2.075,2.075,0,0,0-1.727.852A3.925,3.925,0,0,0,44.235,29.867ZM55.68,32.977a2.082,2.082,0,0,0,1.352-.469,1.649,1.649,0,0,0,.641-1.172H59.04a2.621,2.621,0,0,1-.5,1.383,3.293,3.293,0,0,1-1.23,1.047,3.55,3.55,0,0,1-1.629.391A3.482,3.482,0,0,1,52.934,33a4.59,4.59,0,0,1-1.02-3.152v-.242a5.089,5.089,0,0,1,.453-2.2,3.451,3.451,0,0,1,1.3-1.492,3.7,3.7,0,0,1,2-.531,3.39,3.39,0,0,1,2.363.852,3.043,3.043,0,0,1,1,2.211H57.672a1.992,1.992,0,0,0-.621-1.348,1.932,1.932,0,0,0-1.379-.527,2.023,2.023,0,0,0-1.707.793,3.724,3.724,0,0,0-.605,2.293v.273a3.65,3.65,0,0,0,.6,2.25A2.033,2.033,0,0,0,55.68,32.977Zm8.492,1.18a3.693,3.693,0,0,1-2.8-1.129,4.19,4.19,0,0,1-1.078-3.02v-.266a5.073,5.073,0,0,1,.48-2.246,3.748,3.748,0,0,1,1.344-1.547,3.378,3.378,0,0,1,1.871-.559,3.166,3.166,0,0,1,2.563,1.086,4.7,4.7,0,0,1,.914,3.109v.6H61.743a3,3,0,0,0,.73,2.02,2.3,2.3,0,0,0,1.777.77,2.517,2.517,0,0,0,1.3-.312,3.259,3.259,0,0,0,.93-.828l.883.688A3.55,3.55,0,0,1,64.172,34.156Zm-.18-7.578a1.928,1.928,0,0,0-1.469.637A3.1,3.1,0,0,0,61.79,29h4.234v-.109a2.753,2.753,0,0,0-.594-1.707A1.815,1.815,0,0,0,63.993,26.578Zm10.07,5.18a1.064,1.064,0,0,0-.441-.91,4.249,4.249,0,0,0-1.539-.559,7.277,7.277,0,0,1-1.742-.562,2.478,2.478,0,0,1-.953-.781,1.869,1.869,0,0,1-.309-1.078,2.193,2.193,0,0,1,.879-1.758,3.432,3.432,0,0,1,2.246-.719,3.532,3.532,0,0,1,2.332.742,2.357,2.357,0,0,1,.895,1.9H73.977a1.3,1.3,0,0,0-.5-1.023,1.888,1.888,0,0,0-1.27-.43,1.976,1.976,0,0,0-1.234.344,1.082,1.082,0,0,0-.445.9.877.877,0,0,0,.414.789,5.1,5.1,0,0,0,1.5.508,7.8,7.8,0,0,1,1.754.578,2.558,2.558,0,0,1,1,.809,1.988,1.988,0,0,1,.324,1.152,2.163,2.163,0,0,1-.906,1.816,3.8,3.8,0,0,1-2.352.684,4.257,4.257,0,0,1-1.8-.359,2.922,2.922,0,0,1-1.223-1A2.42,2.42,0,0,1,68.79,31.4h1.445a1.5,1.5,0,0,0,.582,1.152,2.258,2.258,0,0,0,1.434.426,2.331,2.331,0,0,0,1.316-.332A1.02,1.02,0,0,0,74.063,31.758ZM77.008,29.7a4.993,4.993,0,0,1,.488-2.234,3.643,3.643,0,0,1,1.359-1.531,3.7,3.7,0,0,1,1.988-.539,3.565,3.565,0,0,1,2.793,1.2,4.6,4.6,0,0,1,1.066,3.18v.1a5.036,5.036,0,0,1-.473,2.215,3.589,3.589,0,0,1-1.352,1.527,3.743,3.743,0,0,1-2.02.547,3.556,3.556,0,0,1-2.785-1.2A4.575,4.575,0,0,1,77.008,29.8Zm1.453.172a3.616,3.616,0,0,0,.652,2.258,2.211,2.211,0,0,0,3.5-.012,3.955,3.955,0,0,0,.648-2.418,3.61,3.61,0,0,0-.66-2.254,2.1,2.1,0,0,0-1.754-.863,2.075,2.075,0,0,0-1.727.852A3.925,3.925,0,0,0,78.461,29.867ZM90.094,29.7a4.993,4.993,0,0,1,.488-2.234,3.643,3.643,0,0,1,1.359-1.531,3.7,3.7,0,0,1,1.988-.539,3.565,3.565,0,0,1,2.793,1.2,4.6,4.6,0,0,1,1.066,3.18v.1a5.036,5.036,0,0,1-.473,2.215,3.589,3.589,0,0,1-1.352,1.527,3.743,3.743,0,0,1-2.02.547,3.556,3.556,0,0,1-2.785-1.2A4.575,4.575,0,0,1,90.094,29.8Zm1.453.172a3.616,3.616,0,0,0,.652,2.258,2.211,2.211,0,0,0,3.5-.012,3.955,3.955,0,0,0,.648-2.418,3.61,3.61,0,0,0-.66-2.254,2.1,2.1,0,0,0-1.754-.863,2.075,2.075,0,0,0-1.727.852A3.925,3.925,0,0,0,91.547,29.867ZM22.219,43.844a4.331,4.331,0,0,0-.711-.055A1.9,1.9,0,0,0,19.579,45v6H18.133V42.547H19.54l.023.977a2.251,2.251,0,0,1,2.016-1.133,1.477,1.477,0,0,1,.641.109Zm4.836,7.313a3.693,3.693,0,0,1-2.8-1.129,4.19,4.19,0,0,1-1.078-3.02v-.266a5.073,5.073,0,0,1,.48-2.246A3.748,3.748,0,0,1,25,42.949a3.378,3.378,0,0,1,1.871-.559,3.166,3.166,0,0,1,2.563,1.086,4.7,4.7,0,0,1,.914,3.109v.6H24.625a3,3,0,0,0,.73,2.02,2.3,2.3,0,0,0,1.777.77,2.517,2.517,0,0,0,1.3-.312,3.259,3.259,0,0,0,.93-.828l.883.688A3.55,3.55,0,0,1,27.055,51.156Zm-.18-7.578a1.928,1.928,0,0,0-1.469.637A3.1,3.1,0,0,0,24.672,46h4.234v-.109a2.753,2.753,0,0,0-.594-1.707A1.815,1.815,0,0,0,26.875,43.578Zm10.07,5.18a1.064,1.064,0,0,0-.441-.91,4.249,4.249,0,0,0-1.539-.559,7.277,7.277,0,0,1-1.742-.562,2.479,2.479,0,0,1-.953-.781,1.869,1.869,0,0,1-.309-1.078,2.193,2.193,0,0,1,.879-1.758,3.432,3.432,0,0,1,2.246-.719,3.532,3.532,0,0,1,2.332.742,2.357,2.357,0,0,1,.895,1.9H36.86a1.3,1.3,0,0,0-.5-1.023,1.888,1.888,0,0,0-1.27-.43,1.976,1.976,0,0,0-1.234.344,1.082,1.082,0,0,0-.445.9.877.877,0,0,0,.414.789,5.1,5.1,0,0,0,1.5.508,7.8,7.8,0,0,1,1.754.578,2.558,2.558,0,0,1,1,.809,1.988,1.988,0,0,1,.324,1.152,2.163,2.163,0,0,1-.906,1.816,3.8,3.8,0,0,1-2.352.684,4.257,4.257,0,0,1-1.8-.359,2.922,2.922,0,0,1-1.223-1,2.42,2.42,0,0,1-.441-1.395h1.445a1.5,1.5,0,0,0,.582,1.152,2.258,2.258,0,0,0,1.434.426,2.331,2.331,0,0,0,1.316-.332A1.02,1.02,0,0,0,36.946,48.758Zm8.547,1.406a3.07,3.07,0,0,1-2.477.992,2.628,2.628,0,0,1-2.059-.785,3.4,3.4,0,0,1-.715-2.324v-5.5h1.445v5.461q0,1.922,1.563,1.922a2.163,2.163,0,0,0,2.2-1.234V42.547H46.9V51H45.524ZM50.665,51H49.219V39h1.445Zm4.273-10.5v2.047h1.578v1.117H54.938v5.249a1.173,1.173,0,0,0,.211.763.888.888,0,0,0,.719.254,3.5,3.5,0,0,0,.688-.094V51a4.215,4.215,0,0,1-1.109.155,1.8,1.8,0,0,1-1.461-.586,2.517,2.517,0,0,1-.492-1.664V43.664H51.954V42.547h1.539V40.5ZM63.422,51a3.036,3.036,0,0,1-.2-.891,3.225,3.225,0,0,1-2.406,1.047,2.984,2.984,0,0,1-2.051-.707,2.287,2.287,0,0,1-.8-1.793,2.39,2.39,0,0,1,1-2.051,4.733,4.733,0,0,1,2.824-.73H63.2v-.664A1.623,1.623,0,0,0,62.743,44a1.821,1.821,0,0,0-1.336-.449,2.107,2.107,0,0,0-1.3.391,1.151,1.151,0,0,0-.523.945H58.133a2,2,0,0,1,.449-1.223,3.066,3.066,0,0,1,1.219-.934,4.1,4.1,0,0,1,1.691-.344,3.342,3.342,0,0,1,2.289.73,2.635,2.635,0,0,1,.859,2.012v3.891a4.757,4.757,0,0,0,.3,1.852V51Zm-2.4-1.1a2.54,2.54,0,0,0,1.289-.352,2.127,2.127,0,0,0,.883-.914V46.9H62.063q-2.656,0-2.656,1.555a1.316,1.316,0,0,0,.453,1.063A1.742,1.742,0,0,0,61.024,49.9Zm5.531-3.2a4.952,4.952,0,0,1,.922-3.129,3.137,3.137,0,0,1,4.766-.168V39h1.445V51H72.36l-.07-.906a2.943,2.943,0,0,1-2.414,1.063,2.887,2.887,0,0,1-2.395-1.2,5.008,5.008,0,0,1-.926-3.141ZM68,46.867a3.749,3.749,0,0,0,.594,2.25,1.92,1.92,0,0,0,1.641.813A2.108,2.108,0,0,0,72.243,48.7V44.813a2.125,2.125,0,0,0-1.992-1.2,1.929,1.929,0,0,0-1.656.82A4.128,4.128,0,0,0,68,46.867Zm7.547-.172a4.993,4.993,0,0,1,.488-2.234A3.643,3.643,0,0,1,77.4,42.93a3.7,3.7,0,0,1,1.988-.539,3.565,3.565,0,0,1,2.793,1.2,4.6,4.6,0,0,1,1.066,3.18v.1a5.036,5.036,0,0,1-.473,2.215,3.589,3.589,0,0,1-1.352,1.527,3.743,3.743,0,0,1-2.02.547,3.556,3.556,0,0,1-2.785-1.2A4.575,4.575,0,0,1,75.547,46.8ZM77,46.867a3.616,3.616,0,0,0,.652,2.258,2.211,2.211,0,0,0,3.5-.012A3.955,3.955,0,0,0,81.8,46.7a3.61,3.61,0,0,0-.66-2.254,2.1,2.1,0,0,0-1.754-.863,2.075,2.075,0,0,0-1.727.852A3.925,3.925,0,0,0,77,46.867ZM36.942,68V60.664H35.606V59.547h1.336v-.719a2.937,2.937,0,0,1,.809-2.2,3.136,3.136,0,0,1,2.285-.789,6.881,6.881,0,0,1,2.211.477L42,57.531a5.008,5.008,0,0,0-1.859-.391,1.819,1.819,0,0,0-1.34.418,1.723,1.723,0,0,0-.41,1.254v.734h1.727v1.117H38.4V68Zm6.023,0H41.512V59.547h1.453Zm3.719-8.453.047,1.063a3.08,3.08,0,0,1,2.531-1.219q2.68,0,2.7,3.023V68H50.52V62.406a1.946,1.946,0,0,0-.418-1.352,1.675,1.675,0,0,0-1.277-.437,2.086,2.086,0,0,0-1.234.375,2.546,2.546,0,0,0-.828.984V68H45.317V59.547ZM59.364,68a3.036,3.036,0,0,1-.2-.891,3.225,3.225,0,0,1-2.406,1.047,2.984,2.984,0,0,1-2.051-.707,2.287,2.287,0,0,1-.8-1.793,2.39,2.39,0,0,1,1-2.051,4.733,4.733,0,0,1,2.824-.73h1.406v-.664A1.623,1.623,0,0,0,58.684,61a1.821,1.821,0,0,0-1.336-.449,2.107,2.107,0,0,0-1.3.391,1.151,1.151,0,0,0-.523.945H54.075a2,2,0,0,1,.449-1.223,3.066,3.066,0,0,1,1.219-.934,4.1,4.1,0,0,1,1.691-.344,3.342,3.342,0,0,1,2.289.73,2.635,2.635,0,0,1,.859,2.012v3.891a4.757,4.757,0,0,0,.3,1.852V68Zm-2.4-1.1a2.54,2.54,0,0,0,1.289-.352,2.127,2.127,0,0,0,.883-.914V63.9H58q-2.656,0-2.656,1.555a1.316,1.316,0,0,0,.453,1.063A1.742,1.742,0,0,0,56.965,66.9ZM64.418,68H62.973V56h1.445Z" transform="translate(857.767 957)" fill="#12263f"/>
    <path id="Trazado_484902" data-name="Trazado 484902" d="M-1.008-6.973A8.147,8.147,0,0,1-2.561-1.641,5.366,5.366,0,0,1-6.937.234a5.4,5.4,0,0,1-4.406-1.887A8.135,8.135,0,0,1-12.9-6.973V-10.09a8.147,8.147,0,0,1,1.553-5.332A5.379,5.379,0,0,1-6.961-17.3,5.381,5.381,0,0,1-2.566-15.41a8.155,8.155,0,0,1,1.559,5.332Zm-3.949-3.621a6.085,6.085,0,0,0-.48-2.748,1.606,1.606,0,0,0-1.523-.908,1.568,1.568,0,0,0-1.482.844,5.733,5.733,0,0,0-.5,2.555v4.359A6.131,6.131,0,0,0-8.461-3.7a1.612,1.612,0,0,0,1.523.885,1.59,1.59,0,0,0,1.488-.861,5.853,5.853,0,0,0,.492-2.7ZM9.8,0H5.836V-12.609L1.945-11.473v-3l7.488-2.59H9.8Z" transform="translate(277.767 949)" fill="#12263f"/>
    <path id="Trazado_484905" data-name="Trazado 484905" d="M-1.008-6.973A8.147,8.147,0,0,1-2.561-1.641,5.366,5.366,0,0,1-6.937.234a5.4,5.4,0,0,1-4.406-1.887A8.135,8.135,0,0,1-12.9-6.973V-10.09a8.147,8.147,0,0,1,1.553-5.332A5.379,5.379,0,0,1-6.961-17.3,5.381,5.381,0,0,1-2.566-15.41a8.155,8.155,0,0,1,1.559,5.332Zm-3.949-3.621a6.085,6.085,0,0,0-.48-2.748,1.606,1.606,0,0,0-1.523-.908,1.568,1.568,0,0,0-1.482.844,5.733,5.733,0,0,0-.5,2.555v4.359A6.131,6.131,0,0,0-8.461-3.7a1.612,1.612,0,0,0,1.523.885,1.59,1.59,0,0,0,1.488-.861,5.853,5.853,0,0,0,.492-2.7ZM12.949,0H1.043V-2.578L6.527-8.344q2.027-2.309,2.027-3.668a2.551,2.551,0,0,0-.48-1.676,1.715,1.715,0,0,0-1.395-.574,1.737,1.737,0,0,0-1.465.768,3.155,3.155,0,0,0-.562,1.916H.691a5.6,5.6,0,0,1,.785-2.9,5.506,5.506,0,0,1,2.18-2.08,6.475,6.475,0,0,1,3.117-.75,6.369,6.369,0,0,1,4.26,1.277,4.56,4.56,0,0,1,1.494,3.668,5.326,5.326,0,0,1-.375,1.963,8.608,8.608,0,0,1-1.166,2A29.372,29.372,0,0,1,8.438-5.59l-2.2,2.543h6.715Z" transform="translate(488.767 949)" fill="#12263f"/>
    <path id="Trazado_484907" data-name="Trazado 484907" d="M-1.008-6.973A8.147,8.147,0,0,1-2.561-1.641,5.366,5.366,0,0,1-6.937.234a5.4,5.4,0,0,1-4.406-1.887A8.135,8.135,0,0,1-12.9-6.973V-10.09a8.147,8.147,0,0,1,1.553-5.332A5.379,5.379,0,0,1-6.961-17.3,5.381,5.381,0,0,1-2.566-15.41a8.155,8.155,0,0,1,1.559,5.332Zm-3.949-3.621a6.085,6.085,0,0,0-.48-2.748,1.606,1.606,0,0,0-1.523-.908,1.568,1.568,0,0,0-1.482.844,5.733,5.733,0,0,0-.5,2.555v4.359A6.131,6.131,0,0,0-8.461-3.7a1.612,1.612,0,0,0,1.523.885,1.59,1.59,0,0,0,1.488-.861,5.853,5.853,0,0,0,.492-2.7Zm9.609.41H6.516A1.937,1.937,0,0,0,8.73-12.352,1.875,1.875,0,0,0,8.2-13.729a2,2,0,0,0-1.488-.533A2.141,2.141,0,0,0,5.35-13.8a1.394,1.394,0,0,0-.58,1.137H.82a4.043,4.043,0,0,1,.75-2.4,4.953,4.953,0,0,1,2.08-1.646,7.112,7.112,0,0,1,2.924-.592,6.988,6.988,0,0,1,4.477,1.3,4.324,4.324,0,0,1,1.629,3.574,3.6,3.6,0,0,1-.674,2.08,4.8,4.8,0,0,1-1.963,1.588,4.587,4.587,0,0,1,2.133,1.494,3.935,3.935,0,0,1,.773,2.479,4.4,4.4,0,0,1-1.758,3.656A7.3,7.3,0,0,1,6.574.234,7.567,7.567,0,0,1,3.463-.4a4.875,4.875,0,0,1-2.174-1.77A4.6,4.6,0,0,1,.551-4.746H4.523a1.778,1.778,0,0,0,.633,1.359,2.234,2.234,0,0,0,1.559.574,2.34,2.34,0,0,0,1.664-.58A1.939,1.939,0,0,0,9-4.875,2.267,2.267,0,0,0,8.355-6.7a2.694,2.694,0,0,0-1.781-.539H4.652Z" transform="translate(698.767 949)" fill="#12263f"/>
    <path id="Trazado_484911" data-name="Trazado 484911" d="M-1.008-6.973A8.147,8.147,0,0,1-2.561-1.641,5.366,5.366,0,0,1-6.937.234a5.4,5.4,0,0,1-4.406-1.887A8.135,8.135,0,0,1-12.9-6.973V-10.09a8.147,8.147,0,0,1,1.553-5.332A5.379,5.379,0,0,1-6.961-17.3,5.381,5.381,0,0,1-2.566-15.41a8.155,8.155,0,0,1,1.559,5.332Zm-3.949-3.621a6.085,6.085,0,0,0-.48-2.748,1.606,1.606,0,0,0-1.523-.908,1.568,1.568,0,0,0-1.482.844,5.733,5.733,0,0,0-.5,2.555v4.359A6.131,6.131,0,0,0-8.461-3.7a1.612,1.612,0,0,0,1.523.885,1.59,1.59,0,0,0,1.488-.861,5.853,5.853,0,0,0,.492-2.7ZM1.277-8.335,2.32-17.062h9.973v3.07H5.531L5.145-10.6a4.658,4.658,0,0,1,1.107-.436,5.053,5.053,0,0,1,1.342-.188A5.006,5.006,0,0,1,11.5-9.721,6.066,6.066,0,0,1,12.867-5.5a6.055,6.055,0,0,1-.732,2.971A5.034,5.034,0,0,1,10.078-.48,6.493,6.493,0,0,1,6.949.234,6.987,6.987,0,0,1,3.938-.427a5.4,5.4,0,0,1-2.2-1.815A4.41,4.41,0,0,1,.949-4.847H4.91a2.24,2.24,0,0,0,.6,1.485,1.9,1.9,0,0,0,1.418.55q1.992,0,1.992-2.947,0-2.725-2.437-2.725A2.432,2.432,0,0,0,4.418-7.6Z" transform="translate(1119.767 949)" fill="#12263f"/>
    <path id="Trazado_484913" data-name="Trazado 484913" d="M-1.008-6.973A8.147,8.147,0,0,1-2.561-1.641,5.366,5.366,0,0,1-6.937.234a5.4,5.4,0,0,1-4.406-1.887A8.135,8.135,0,0,1-12.9-6.973V-10.09a8.147,8.147,0,0,1,1.553-5.332A5.379,5.379,0,0,1-6.961-17.3,5.381,5.381,0,0,1-2.566-15.41a8.155,8.155,0,0,1,1.559,5.332Zm-3.949-3.621a6.085,6.085,0,0,0-.48-2.748,1.606,1.606,0,0,0-1.523-.908,1.568,1.568,0,0,0-1.482.844,5.733,5.733,0,0,0-.5,2.555v4.359A6.131,6.131,0,0,0-8.461-3.7a1.612,1.612,0,0,0,1.523.885,1.59,1.59,0,0,0,1.488-.861,5.853,5.853,0,0,0,.492-2.7Zm15.539-6.715V-14.2h-.176a5.929,5.929,0,0,0-3.639,1.061A4.478,4.478,0,0,0,5.016-10.2a4.618,4.618,0,0,1,3.375-1.312,4.308,4.308,0,0,1,3.527,1.617A6.523,6.523,0,0,1,13.23-5.648a5.973,5.973,0,0,1-.768,2.988A5.477,5.477,0,0,1,10.318-.533,6.162,6.162,0,0,1,7.266.234,6.369,6.369,0,0,1,4.02-.592,5.68,5.68,0,0,1,1.793-2.953a7.776,7.776,0,0,1-.82-3.539V-8.074A9.85,9.85,0,0,1,2.1-12.814a8.2,8.2,0,0,1,3.229-3.3,9.231,9.231,0,0,1,4.652-1.2ZM7.02-8.484a2.26,2.26,0,0,0-1.312.363,2.306,2.306,0,0,0-.785.891v1.184q0,3.234,2.238,3.234a1.816,1.816,0,0,0,1.506-.809,3.3,3.3,0,0,0,.6-2.027,3.235,3.235,0,0,0-.615-2.045A1.968,1.968,0,0,0,7.02-8.484Z" transform="translate(1329.767 949)" fill="#12263f"/>
    <path id="Trazado_484909" data-name="Trazado 484909" d="M-1.008-6.973A8.147,8.147,0,0,1-2.561-1.641,5.366,5.366,0,0,1-6.937.234a5.4,5.4,0,0,1-4.406-1.887A8.135,8.135,0,0,1-12.9-6.973V-10.09a8.147,8.147,0,0,1,1.553-5.332A5.379,5.379,0,0,1-6.961-17.3,5.381,5.381,0,0,1-2.566-15.41a8.155,8.155,0,0,1,1.559,5.332Zm-3.949-3.621a6.085,6.085,0,0,0-.48-2.748,1.606,1.606,0,0,0-1.523-.908,1.568,1.568,0,0,0-1.482.844,5.733,5.733,0,0,0-.5,2.555v4.359A6.131,6.131,0,0,0-8.461-3.7a1.612,1.612,0,0,0,1.523.885,1.59,1.59,0,0,0,1.488-.861,5.853,5.853,0,0,0,.492-2.7Zm16.43,3.926h1.734v3.047H11.473V0H7.523V-3.621H.926L.691-6.035,7.523-17.027v-.035h3.949Zm-7.02,0h3.07v-5.25l-.246.4Z" transform="translate(908.767 949)" fill="#12263f"/>
  </g>
</svg>
