<svg id="Grupo_715483" data-name="Grupo 715483" xmlns="http://www.w3.org/2000/svg" xmlns:xlink="http://www.w3.org/1999/xlink" width="505" height="294.958" viewBox="0 0 505 294.958">
  <defs>
    <clipPath id="clip-path">
      <rect id="Rectángulo_268202" data-name="Rectángulo 268202" width="505" height="294.959" fill="none"/>
    </clipPath>
  </defs>
  <g id="Grupo_715482" data-name="Grupo 715482" clip-path="url(#clip-path)">
    <path id="Trazado_466835" data-name="Trazado 466835" d="M246.157,276.064c-2.274,0-4.57-.08-6.9-.259-18.9-1.45-38.274-7.683-56.026-18.023-23.061-13.434-44.037-33.518-64.126-61.4-16.419-22.785-26.281-42.66-31.034-62.55-5.928-24.81-2.987-49.853,8.07-68.707,13.383-22.82,39.237-37.98,67.475-39.568,25.88-1.449,53.01,8.327,74.439,26.835,10.48,9.051,19.4,19.89,28.021,30.371,3.443,4.185,7,8.512,10.6,12.654,10.735,12.343,25.517,27.348,44.707,33.891,7.794,2.657,16.178,3.846,24.287,4.995,5,.707,10.164,1.439,15.2,2.51,11.64,2.475,27.07,8.2,34.472,21.408,7.2,12.852,5.253,30.857-5.346,49.4-14.37,25.132-37.825,44.928-66.045,55.741-12.515,4.795-24.781,6.447-37.768,8.2-2.045.275-4.1.552-6.173.843-2.191.309-4.367.634-6.532.957-9.249,1.382-18.089,2.7-27.318,2.7M184.907,254.9c17.319,10.09,36.2,16.169,54.6,17.58,11.428.874,22.136-.723,33.473-2.416,2.174-.325,4.359-.651,6.56-.962,2.078-.292,4.142-.57,6.193-.847,12.788-1.722,24.867-3.349,37.02-8,27.5-10.539,50.354-29.816,64.342-54.282,14.208-24.85,8.462-40.525,5.332-46.11-6.791-12.12-21.289-17.444-32.255-19.776-4.921-1.046-10.03-1.771-14.971-2.47-8.262-1.171-16.8-2.381-24.9-5.14-19.944-6.8-35.138-22.2-46.147-34.86-3.631-4.176-7.207-8.521-10.664-12.723-8.535-10.374-17.36-21.1-27.625-29.966C215.089,36.975,188.816,27.489,163.8,28.894c-27.137,1.525-51.96,16.056-64.785,37.923-10.625,18.118-13.433,42.264-7.7,66.244,4.649,19.453,14.338,38.955,30.5,61.376,19.81,27.491,40.45,47.269,63.1,60.462" transform="translate(-14.119 -4.219)" fill="#fff"/>
    <path id="Trazado_466836" data-name="Trazado 466836" d="M494.341,320.613c4.447-1.505,8.333-4.083,10.333-8.239,2.249-4.678,1.507-10.16,1.088-15.334-.341-4.2-.606-10.233,2.259-13.748,2.61-3.2,8.523-4.651,12.3-6.359,4.446-2.009,9.186-4.28,11.558-8.545,3.183-5.721,1.075-13.2,3.942-19.088,4.136-8.492,16.848-10.416,20.133-19.273,2.241-6.044-.867-13.3,2.068-19.035,3.309-6.475,11.734-9.7,16.334-15.287,5.078-6.163,4.068-15.977-2.893-20.352a13.745,13.745,0,0,0-16.566,1.913c-5.531,5.594-5.56,15.36-11.814,20.132-4.206,3.208-9.965,3.154-15.016,4.726a23.73,23.73,0,0,0-14.6,13.243c-2.61,6.189-2.9,13.992-8.317,17.969-5.225,3.841-12.52,2.081-18.907,3.2a20.789,20.789,0,0,0-14.614,10.715c-2.04,3.926-2.877,8.61-6,11.742-3.081,3.088-6.449,3.207-10.4,3.653a15.831,15.831,0,0,0-9.333,4.439,27.244,27.244,0,0,0-8.842,20.084c.08,11.123,6.809,21.594,16.1,27.7s20.828,8.2,31.928,7.469a36.741,36.741,0,0,0,9.25-1.735" transform="translate(-72.543 -28.784)" fill="#247b98"/>
    <path id="Trazado_466837" data-name="Trazado 466837" d="M468.018,307.693a.834.834,0,0,1-.633-1.377l102.472-119.5a.834.834,0,0,1,1.266,1.087L468.651,307.4a.832.832,0,0,1-.633.291" transform="translate(-77.543 -30.959)" fill="#016587"/>
    <path id="Trazado_466838" data-name="Trazado 466838" d="M581.672,197.522a.833.833,0,0,1-.834-.834v-7.1a.834.834,0,1,1,1.668,0v7.1a.833.833,0,0,1-.834.834" transform="translate(-96.407 -31.33)" fill="#016587"/>
    <path id="Trazado_466839" data-name="Trazado 466839" d="M568,214.282a.834.834,0,0,1-.246-1.631l9.709-3a.834.834,0,1,1,.491,1.593l-9.708,3a.843.843,0,0,1-.246.038" transform="translate(-94.138 -34.792)" fill="#016587"/>
    <path id="Trazado_466840" data-name="Trazado 466840" d="M548.254,234.5a.834.834,0,0,1-.832-.806l-.565-16.466a.833.833,0,0,1,.8-.862.812.812,0,0,1,.862.8l.565,16.466a.833.833,0,0,1-.8.862h-.029" transform="translate(-90.767 -35.912)" fill="#016587"/>
    <path id="Trazado_466841" data-name="Trazado 466841" d="M537.22,250.265a.834.834,0,0,1-.1-1.661l20.5-2.55a.834.834,0,0,1,.205,1.656l-20.5,2.549a.717.717,0,0,1-.1.007" transform="translate(-89.029 -40.839)" fill="#016587"/>
    <path id="Trazado_466842" data-name="Trazado 466842" d="M514.428,273.946a.833.833,0,0,1-.834-.834V255.99a.834.834,0,1,1,1.668,0v17.122a.833.833,0,0,1-.834.834" transform="translate(-85.246 -42.351)" fill="#016587"/>
    <path id="Trazado_466843" data-name="Trazado 466843" d="M503.6,289.458a.834.834,0,0,1-.081-1.664l26.612-2.611a.834.834,0,0,1,.163,1.66l-26.611,2.611c-.028,0-.056,0-.083,0" transform="translate(-83.45 -47.334)" fill="#016587"/>
    <path id="Trazado_466844" data-name="Trazado 466844" d="M490.275,300.112a.833.833,0,0,1-.834-.834V271.286a.834.834,0,1,1,1.668,0v27.992a.833.833,0,0,1-.834.834" transform="translate(-81.237 -44.89)" fill="#016587"/>
    <path id="Trazado_466845" data-name="Trazado 466845" d="M492.579,341.337a83.153,83.153,0,0,0,76.7-48.4,85.925,85.925,0,0,0-45.325,12.511c-13.449,8.37-24.418,21.662-31.378,35.891" transform="translate(-81.758 -48.621)" fill="#75b693"/>
    <path id="Trazado_466846" data-name="Trazado 466846" d="M569.281,292.934a85.939,85.939,0,0,0-45.326,12.512c-13.449,8.369-24.417,21.661-31.377,35.89Z" transform="translate(-81.758 -48.621)" fill="#7fc89b"/>
    <path id="Trazado_466847" data-name="Trazado 466847" d="M223.6,167.211s15.663-6,26.772-.288c14.293,7.348,51.346,68.024,51.346,68.024s30.516-52.8,33.377-58.265,8.876-7.535,12.226-6.741l4.492-8.669s12.823,12.5,24.927,13.231l-3.569,8.424s5.123,3.766.037,14.265-40.673,72.617-49.732,84.11c-5.714,7.249-22.712,16.11-40.035-3.533s-36.079-48.386-36.079-48.386" transform="translate(-37.113 -26.768)" fill="#9ed3ff"/>
    <path id="Trazado_466848" data-name="Trazado 466848" d="M391.329,185.215l-.045,0c-.133-.014-13.437-1.536-19.165-12.056a.417.417,0,0,1,.733-.4c5.515,10.13,18.39,11.611,18.52,11.625a.417.417,0,0,1-.043.832" transform="translate(-61.756 -28.638)" fill="#3a407e"/>
    <path id="Trazado_466849" data-name="Trazado 466849" d="M237.174,185.966s6.937,41.108,7.414,70.988,1.213,64.111,1.213,64.111H139.055S124.393,159.8,137.936,159.8c13.85,0,34.573,6.628,34.573,6.628l35.92.538" transform="translate(-21.942 -26.524)" fill="#9ed3ff"/>
    <path id="Trazado_466850" data-name="Trazado 466850" d="M144.359,294.847l-5.518,35.57c.8,7.611,1.317,12.193,1.317,12.193H246.9s-.54-25.153-.994-51.156l-.347-1.852Z" transform="translate(-23.045 -48.068)" fill="#3a407e"/>
    <path id="Trazado_466851" data-name="Trazado 466851" d="M135.792,262.052c26.482,4.135,42.834,6.686,59.313,7.243,16.788.565,33.758-.985,49.808-5.837-.389-10.7-1.466-22.417-2.677-32.976-15.254,4.239-31.273,5.592-47.13,5.058-16.658-.562-33.181-3.162-60.175-7.377.121,10.939.442,22.544.862,33.89" transform="translate(-22.396 -37.87)" fill="#fafafc"/>
    <path id="Trazado_466852" data-name="Trazado 466852" d="M266.609,326.606a.417.417,0,0,1-.417-.408c-.008-.342-.741-34.574-1.213-64.114-.47-29.506-7.338-70.515-7.408-70.926a.417.417,0,1,1,.822-.138c.069.411,6.948,41.481,7.419,71.051.471,29.537,1.205,63.767,1.213,64.109a.417.417,0,0,1-.408.426Z" transform="translate(-42.751 -31.648)" fill="#3a407e"/>
    <path id="Trazado_466853" data-name="Trazado 466853" d="M138.3,161.473c6.175,3.793,5.786,8.322,5.43,21.9L136.588,273.3s56.989,3.5,67.35,4.935,12.939,7.937,12.939,7.937h15.242c-9.586,17.778,0,34.3,0,34.3H153.643c-16.253,0-47.919,3.306-57.813-4.74S97.494,210.72,105.887,183.95s27.03-25.784,32.414-22.477" transform="translate(-15.274 -26.523)" fill="#9ed3ff"/>
    <path id="Trazado_466854" data-name="Trazado 466854" d="M263.111,337.889a26.189,26.189,0,0,1-.786,2.982c-.806,2.447-1.883,4.2-3.173,4.754a30.569,30.569,0,0,1-2.236-5.258c-.323-.957-.635-2.025-.917-3.193a36.11,36.11,0,0,1,1.1-21.313c.323-.877.695-1.763,1.108-2.649.292-.635.6-1.259.947-1.894a8.8,8.8,0,0,1,1.541,1.894A15.129,15.129,0,0,1,262,315.861c2.367,6.073,2.508,15.4,1.108,22.028" transform="translate(-42.307 -51.673)" fill="#3a407e"/>
    <path id="Trazado_466855" data-name="Trazado 466855" d="M239.549,340.946a.418.418,0,0,1-.394-.282,51.456,51.456,0,0,1-2.109-10.349c-.537-5.411-.364-13.152,3.513-19.3a.417.417,0,0,1,.706.445c-7.2,11.4-1.38,28.757-1.32,28.93a.417.417,0,0,1-.259.53.425.425,0,0,1-.135.023" transform="translate(-39.308 -51.59)" fill="#3a407e"/>
    <path id="Trazado_466856" data-name="Trazado 466856" d="M241.617,291.2H225.663a.418.418,0,0,1-.388-.262c-.025-.063-2.636-6.3-12.609-7.68-10.227-1.419-66.749-4.9-67.319-4.932a.413.413,0,0,1-.289-.142.423.423,0,0,1-.1-.308l7.143-89.932a.417.417,0,0,1,.832.067l-7.109,89.51c5.247.324,57.171,3.554,66.958,4.911,9.418,1.307,12.537,6.661,13.152,7.934h15.684a.417.417,0,1,1,0,.834" transform="translate(-24.06 -31.131)" fill="#3a407e"/>
    <path id="Trazado_466857" data-name="Trazado 466857" d="M402.255,174.5a21.98,21.98,0,0,1-3.837-.595c-7.162-1.732-14.062-6.7-17.929-9.851-1.984-1.631-3.163-2.78-3.163-2.78a30.581,30.581,0,0,1,3.233.393c4.592.786,13.124,3.032,18.976,9.307a22.109,22.109,0,0,1,2.72,3.525" transform="translate(-62.628 -26.769)" fill="#3a407e"/>
    <path id="Trazado_466858" data-name="Trazado 466858" d="M405.179,150.217l-5.771,15.089-1.118,2.931c-7.162-1.733-14.062-6.7-17.929-9.851.03-.624.05-1.45.07-2.387.091-4.7.131-12.5-.6-15.5-1.068-4.432-4.271-11.372-2.972-13.114s9.619,5.308,11.513,10.434Z" transform="translate(-62.5 -21.099)" fill="#fec39d"/>
    <rect id="Rectángulo_268189" data-name="Rectángulo 268189" width="6.671" height="37.386" transform="translate(302.117 93.305) rotate(-45)" fill="#247b98"/>
    <path id="Trazado_466859" data-name="Trazado 466859" d="M377.68,125.229a14.428,14.428,0,0,0,3.5-4.793l-14.219-14.219-4.717,4.717,14.821,14.821c.222-.183.433-.36.617-.525" transform="translate(-60.125 -17.63)" fill="#122030"/>
    <path id="Trazado_466860" data-name="Trazado 466860" d="M340.724,117.108a22.916,22.916,0,1,0,0-32.408,22.917,22.917,0,0,0,0,32.408" transform="translate(-55.439 -12.944)" fill="#ffc100"/>
    <path id="Trazado_466861" data-name="Trazado 466861" d="M355.306,104.769c1.864,1.864,2.48,4.27,1.374,5.375s-3.511.49-5.375-1.374-2.48-4.27-1.374-5.375,3.511-.49,5.375,1.374" transform="translate(-57.99 -17.07)" fill="#122030"/>
    <path id="Trazado_466862" data-name="Trazado 466862" d="M360.793,99.282c1.864,1.864,4.27,2.48,5.375,1.374s.49-3.511-1.374-5.375-4.27-2.48-5.375-1.374-.49,3.511,1.374,5.375" transform="translate(-59.565 -15.495)" fill="#122030"/>
    <path id="Trazado_466863" data-name="Trazado 466863" d="M373.135,100.453l-16.658,16.658a12.584,12.584,0,0,0,16.658-16.658" transform="translate(-59.168 -16.673)" fill="#fff"/>
    <path id="Trazado_466864" data-name="Trazado 466864" d="M404.153,128.928c-5.587-.646-15.464,9.641-15.4,12.122s5.71.42,5.71.42-3.193,4.868-1.733,6.342,4-.7,4-.7-3.89,5.116-2.725,6.814,5.828-1.309,5.828-1.309-2.224,4.706-.56,5.665,14.362-9.075,13.349-10.741-3.962-1.823-3.962-1.823,4.662-5.627,3.012-7.408-4.158.232-4.158.232,2.722-4.1,1.392-5.829-4.123.391-4.123.391,1.294-3.957-.628-4.179" transform="translate(-64.525 -21.395)" fill="#fec39d"/>
    <path id="Trazado_466865" data-name="Trazado 466865" d="M399.432,161.084a.89.89,0,0,1-.45-.1c-1.415-.813-.692-3.458-.1-5.035-1.567.844-4.3,2.012-5.305.554-.892-1.3.48-3.93,1.613-5.692a2.48,2.48,0,0,1-2.836-.367c-1.263-1.274.187-4.307,1.093-5.9-1.324.375-3.481.817-4.541.1a1.485,1.485,0,0,1-.651-1.243.418.418,0,0,1,.405-.428h.012a.418.418,0,0,1,.417.406.651.651,0,0,0,.284.575c.866.587,3.443-.017,4.865-.535a.417.417,0,0,1,.492.62c-1.162,1.773-2.675,4.922-1.784,5.82,1.171,1.186,3.406-.7,3.428-.721a.417.417,0,0,1,.6.57c-1.434,1.886-3.438,5.27-2.713,6.325.7,1.028,3.846-.514,5.258-1.423a.417.417,0,0,1,.6.529c-.671,1.423-1.733,4.547-.728,5.125.585.252,4.338-1.839,8.684-5.57,3.535-3.033,4.156-4.374,4.1-4.6a.413.413,0,0,1,.142-.569.422.422,0,0,1,.575.145c.264.435.29,1.219-1.878,3.441-2.477,2.537-9.281,7.979-11.584,7.98" transform="translate(-64.442 -23.73)" fill="#e87555"/>
    <path id="Trazado_466866" data-name="Trazado 466866" d="M299.592,320.5s3.7,3.485-3.978,6.577c0,0,2.679,3.565-3.616,5.751,0,0,2.71,5.439-7.293,5.439-6.587,0-13.688-1.37-21.594-2.3-1.259-.151-2.539-.282-3.838-.4-1.349-.131-2.457-.232-3.274-.312a36.1,36.1,0,0,1,1.1-21.313h7.03s5.128-3.978,9.63-5.4c0,0,11.442-11.412,11.442-8.209,0,3.445-3.968,13.568-3.968,13.568H300.7c5.379,0,3.817,3.958-1.108,6.6" transform="translate(-42.307 -49.756)" fill="#fec39d"/>
    <path id="Trazado_466867" data-name="Trazado 466867" d="M218.281,116.2a19.83,19.83,0,0,0,15.483-14.243,8.31,8.31,0,0,0-1.006-6.932,18.186,18.186,0,0,0,10.683-4.194c-2.835-.289-5.159-2.512-6.453-5.051s-1.765-5.4-2.4-8.177-1.511-5.614-3.416-7.733a9.683,9.683,0,0,0-15.41,1.344c-.961-7.995-5.207-15.144-12.782-17.873A22.342,22.342,0,0,0,180.52,58.05c-2.024,1.922-3.66,4.213-5.567,6.251a14.334,14.334,0,0,1-6.908,4.513c-2.717.636-5.925-.208-7.416-2.567a10.079,10.079,0,0,0-.038,7.933,10.37,10.37,0,0,0,5.581,5.807c-4.335-.22-8.345,4.421-9.21,8.675s.7,8.69,3.132,12.288,5.677,6.549,8.674,9.69a89.563,89.563,0,0,1,7.993,9.651c2.017,2.816,4.114,5.94,7.405,7.017a13.66,13.66,0,0,0,6.61.028c10.446-1.852,17.048-9.352,27.505-11.142" transform="translate(-26.013 -8.648)" fill="#122030"/>
    <path id="Trazado_466868" data-name="Trazado 466868" d="M184.608,148.539,179.8,121.214s-12.208,4.188-13.16-5.786c-.848-8.886,8.821-9.555,13.464-5.376,0,0-8.334-31.031,18.517-33.476S225.7,110.906,225.8,119.8c.168,15.675-11.086,23.188-19.217,23.961l-.138,5.8s.638,8.412-7.266,8.722c-10.533.414-14.571-9.754-14.571-9.754" transform="translate(-27.651 -12.691)" fill="#fec39d"/>
    <path id="Trazado_466869" data-name="Trazado 466869" d="M216.688,128.21a.657.657,0,0,0,.167,0,4.218,4.218,0,0,0,3.638-4.918l-1.2-6.781a.662.662,0,0,0-1.3.229l1.2,6.781a2.893,2.893,0,0,1-2.5,3.374.662.662,0,0,0-.006,1.314" transform="translate(-35.87 -19.248)" fill="#122030"/>
    <path id="Trazado_466870" data-name="Trazado 466870" d="M229.287,111.225c2.122-2.017-7.886-7.386-7.422-2.2.132,1.47,6.173,3.389,7.422,2.2" transform="translate(-36.822 -17.732)" fill="#122030"/>
    <path id="Trazado_466871" data-name="Trazado 466871" d="M203.832,111.225c-2.122-2.017,7.886-7.386,7.422-2.2-.132,1.47-6.173,3.389-7.422,2.2" transform="translate(-33.783 -17.732)" fill="#122030"/>
    <path id="Trazado_466872" data-name="Trazado 466872" d="M206.394,119.189a2.885,2.885,0,1,0,3.264-2.448,2.885,2.885,0,0,0-3.264,2.448" transform="translate(-34.252 -19.372)" fill="#122030"/>
    <path id="Trazado_466873" data-name="Trazado 466873" d="M223.411,119.011a2.885,2.885,0,1,0,3.264-2.449,2.885,2.885,0,0,0-3.264,2.449" transform="translate(-37.077 -19.342)" fill="#122030"/>
    <path id="Trazado_466874" data-name="Trazado 466874" d="M216.6,135.453c.246.033.494.054.741.069a.662.662,0,0,0,.077-1.323,9.332,9.332,0,0,1-6-2.7.663.663,0,0,0-.941.934,10.665,10.665,0,0,0,6.12,3.018" transform="translate(-34.903 -21.794)" fill="#122030"/>
    <path id="Trazado_466875" data-name="Trazado 466875" d="M178.512,123.919a.735.735,0,0,0,.143,0,.664.664,0,0,0,.6-.716,5.574,5.574,0,0,0-7.842-4.611.663.663,0,0,0,.544,1.209,4.245,4.245,0,0,1,5.978,3.515.664.664,0,0,0,.574.6" transform="translate(-28.387 -19.604)" fill="#122030"/>
    <path id="Trazado_466876" data-name="Trazado 466876" d="M226.656,108.665s-7.147-8.554-9.719-18.345c0,0-6.321,11.541-27.769,19.76,0,0,1.4,10.783-.419,10.829s-4.344-5.931-7.444-11.56a70.525,70.525,0,0,0-7.484-10.666l13.3-22.936L195.5,72.78l10.138-.558,9.054,3.811,7.2,4.6,5.737,10.685,1.527,8.671Z" transform="translate(-28.851 -11.987)" fill="#122030"/>
    <path id="Trazado_466877" data-name="Trazado 466877" d="M204.32,131a3.608,3.608,0,1,1,.1-4,3.611,3.611,0,0,1-.1,4" transform="translate(-32.825 -20.801)" fill="#fea889"/>
    <path id="Trazado_466878" data-name="Trazado 466878" d="M233.353,131.958a3.608,3.608,0,1,1,.1-4,3.611,3.611,0,0,1-.1,4" transform="translate(-37.644 -20.959)" fill="#fea889"/>
    <path id="Trazado_466879" data-name="Trazado 466879" d="M216.447,165.808l-2.058-10.8s-2.521,1.651-10.473,1.509c-4.755-.085-8.9-3.7-8.9-3.7s-11.138.876-12.992,1.539-1.5,10.912-1.5,10.912,11.631,6.816,22.071,8.073a12.889,12.889,0,0,0,13.849-7.535" transform="translate(-29.959 -25.365)" fill="#9ed3ff"/>
    <path id="Trazado_466880" data-name="Trazado 466880" d="M217.278,155.007l.066,3.1c-7.117,1.972-16.569-.771-19.439-5.284,0,0,4.771,2.982,9.526,3.067,7.952.143,9.847-.878,9.847-.878" transform="translate(-32.848 -25.365)" fill="#3a407e"/>
    <path id="Trazado_466881" data-name="Trazado 466881" d="M199.6,173.717a40.919,40.919,0,0,1-14.842-2.766.417.417,0,0,1,.3-.777,40.39,40.39,0,0,0,30-.364.417.417,0,0,1,.321.77,40.97,40.97,0,0,1-15.781,3.138" transform="translate(-30.622 -28.18)" fill="#3a407e"/>
    <rect id="Rectángulo_268190" data-name="Rectángulo 268190" width="117.199" height="92.75" transform="translate(238.923 201.202)" fill="#ffc100"/>
    <rect id="Rectángulo_268191" data-name="Rectángulo 268191" width="40.354" height="92.75" transform="translate(356.122 201.202)" fill="#b57f27"/>
    <path id="Trazado_466882" data-name="Trazado 466882" d="M454.474,302.6v-61.36h-8.207V302.6l2.6-1.289,1.184,1.676,1.56-1.729,1.077,1.991Z" transform="translate(-74.071 -40.042)" fill="#c2984c"/>
    <path id="Trazado_466883" data-name="Trazado 466883" d="M363.863,282.191h39.87a3.022,3.022,0,0,0,3.022-3.022V255.814a3.022,3.022,0,0,0-3.022-3.022h-39.87a3.022,3.022,0,0,0-3.022,3.022V279.17a3.022,3.022,0,0,0,3.022,3.022" transform="translate(-59.892 -41.958)" fill="#f7edc9"/>
    <rect id="Rectángulo_268192" data-name="Rectángulo 268192" width="37.856" height="5.086" transform="translate(304.977 214.862)" fill="#edd27b"/>
    <path id="Trazado_466884" data-name="Trazado 466884" d="M338.627,308.356a19.179,19.179,0,1,1-19.178-19.178,19.178,19.178,0,0,1,19.178,19.178" transform="translate(-49.839 -47.998)" fill="#f75244"/>
    <path id="Trazado_466885" data-name="Trazado 466885" d="M473.513,319.106a10.746,10.746,0,0,0,0,21.317Z" transform="translate(-77.038 -52.965)" fill="#c2984c"/>
    <path id="Trazado_466886" data-name="Trazado 466886" d="M442.532,228.656h0a2.437,2.437,0,0,0,2.437-2.437V207.255a2.437,2.437,0,0,0-2.437-2.437l-37.783-4.577-30.427,12.22-5.873.442a13.62,13.62,0,0,0-12.595,13.258,2.436,2.436,0,0,0,2.435,2.495h84.242Z" transform="translate(-59.065 -33.236)" fill="#247b98"/>
    <path id="Trazado_466887" data-name="Trazado 466887" d="M374.322,214.893l-5.873.442a13.621,13.621,0,0,0-12.6,13.258,2.437,2.437,0,0,0,2.436,2.495h23.116s1.128-10.5-7.083-16.195" transform="translate(-59.064 -35.668)" fill="#fff"/>
    <path id="Trazado_466888" data-name="Trazado 466888" d="M408.425,200.241,378,212.461a15.433,15.433,0,0,1,3.734,3.653c6.924-1.965,25.7-7.371,29.681-9.335a9.716,9.716,0,0,0,4.506-5.63Z" transform="translate(-62.74 -33.236)" fill="#ffc83a"/>
    <path id="Trazado_466889" data-name="Trazado 466889" d="M399.589,212.784s3.671,12.881,16.371,12.881,33.832-20.015,33.832-20.015l-3.28-.4s-16.744,15.087-27.468,13.876c-6.239-.7-9.119-9.6-9.119-9.6Z" transform="translate(-66.324 -34.068)" fill="#fff"/>
    <path id="Trazado_466890" data-name="Trazado 466890" d="M456.953,216.831a10.736,10.736,0,0,0-10.044,14.579h10.618a2.437,2.437,0,0,0,2.437-2.436V217.266a10.742,10.742,0,0,0-3.011-.435" transform="translate(-74.06 -35.99)" fill="#ffc83a"/>
    <path id="Trazado_466891" data-name="Trazado 466891" d="M414.48,197.455l1.2-11.806a2.436,2.436,0,0,1,2.6-2.184l35.166,2.6a2.437,2.437,0,0,1,2.25,2.611l-.827,11.1a2.437,2.437,0,0,1-2.429,2.256h-.175Z" transform="translate(-68.795 -30.45)" fill="#016587"/>
    <rect id="Rectángulo_268193" data-name="Rectángulo 268193" width="0.833" height="40.188" transform="translate(346.642 157.634) rotate(-85.494)" fill="#247b98"/>
    <rect id="Rectángulo_268194" data-name="Rectángulo 268194" width="0.834" height="39.937" transform="translate(346.438 160.52) rotate(-84.077)" fill="#247b98"/>
    <rect id="Rectángulo_268195" data-name="Rectángulo 268195" width="0.835" height="40.412" transform="translate(346.028 163.487) rotate(-82.403)" fill="#247b98"/>
    <path id="Trazado_466892" data-name="Trazado 466892" d="M409.727,205.422a1.249,1.249,0,0,1-1.1-.652l-1.662-3.048a1.251,1.251,0,0,1,2.2-1.2l1.661,3.048a1.251,1.251,0,0,1-1.1,1.85" transform="translate(-67.523 -33.175)" fill="#fff"/>
    <path id="Trazado_466893" data-name="Trazado 466893" d="M403.513,207.98a1.251,1.251,0,0,1-1.1-.652l-1.661-3.048a1.251,1.251,0,0,1,2.2-1.2l1.661,3.048a1.251,1.251,0,0,1-1.1,1.85" transform="translate(-66.492 -33.599)" fill="#fff"/>
    <path id="Trazado_466894" data-name="Trazado 466894" d="M397.126,210.217a1.249,1.249,0,0,1-1.1-.652l-1.488-2.728a1.251,1.251,0,1,1,2.2-1.2l1.487,2.727a1.251,1.251,0,0,1-1.1,1.85" transform="translate(-65.46 -34.024)" fill="#fff"/>
    <path id="Trazado_466895" data-name="Trazado 466895" d="M390.626,212.247a1.249,1.249,0,0,1-1.1-.652l-1.2-2.2a1.251,1.251,0,0,1,2.2-1.2l1.2,2.2a1.251,1.251,0,0,1-1.1,1.85" transform="translate(-64.429 -34.448)" fill="#fff"/>
    <path id="Trazado_466896" data-name="Trazado 466896" d="M414.062,185.887l26.506,2.208a1.007,1.007,0,0,1,.918,1.109l-.767,7.251a1.008,1.008,0,0,1-1.1.9l-26.5-2.539a1.007,1.007,0,0,1-.9-1.113l.765-6.92a1.008,1.008,0,0,1,1.085-.893" transform="translate(-68.418 -30.853)" fill="#247b98"/>
    <rect id="Rectángulo_268196" data-name="Rectángulo 268196" width="89.173" height="5.878" transform="translate(296.731 195.324)" fill="#fefcf5"/>
    <path id="Trazado_466897" data-name="Trazado 466897" d="M464.247,131.8c0,8.6,2.324,10.824,7.963,10.824-5.64,0-7.963,2.223-7.963,10.823,0-8.6-2.324-10.823-7.963-10.823,5.64,0,7.963-2.223,7.963-10.824" transform="translate(-75.734 -21.877)" fill="#fafafc"/>
    <path id="Trazado_466898" data-name="Trazado 466898" d="M329.963,173.267c0,8.6,2.324,10.824,7.963,10.824-5.64,0-7.963,2.223-7.963,10.823,0-8.6-2.324-10.823-7.963-10.823,5.64,0,7.963-2.223,7.963-10.824" transform="translate(-53.445 -28.759)" fill="#fafafc"/>
    <path id="Trazado_466899" data-name="Trazado 466899" d="M488.75,221.333c0,8.6,2.324,10.824,7.963,10.824-5.64,0-7.963,2.223-7.963,10.823,0-8.6-2.324-10.823-7.963-10.823,5.64,0,7.963-2.223,7.963-10.824" transform="translate(-79.801 -36.737)" fill="#fafafc"/>
    <path id="Trazado_466900" data-name="Trazado 466900" d="M479.039,157.272c0,4.827,1.3,6.075,4.47,6.075-3.165,0-4.47,1.248-4.47,6.075,0-4.827-1.3-6.075-4.469-6.075,3.165,0,4.469-1.248,4.469-6.075" transform="translate(-78.769 -26.104)" fill="#fafafc"/>
    <path id="Trazado_466901" data-name="Trazado 466901" d="M256.07.3a23.056,23.056,0,0,0-18.863,36.777l-2.795,8.185,6.927-3.879A23.077,23.077,0,1,0,256.07.3" transform="translate(-38.62 -0.049)" fill="#9ed3ff"/>
    <path id="Trazado_466902" data-name="Trazado 466902" d="M260.7,27.322a3.351,3.351,0,1,1-3.307-3.4,3.351,3.351,0,0,1,3.307,3.4m-15.048-3.551a3.351,3.351,0,1,0,3.307,3.4,3.352,3.352,0,0,0-3.307-3.4m23.4,7.014a3.352,3.352,0,1,0-3.308-3.4,3.353,3.353,0,0,0,3.308,3.4" transform="translate(-40.21 -3.945)" fill="#fff"/>
    <rect id="Rectángulo_268197" data-name="Rectángulo 268197" width="500.927" height="2.743" transform="translate(0 291.755)" fill="#122030"/>
    <path id="Trazado_466903" data-name="Trazado 466903" d="M484.246,48.432H350.7a20.144,20.144,0,0,1-20.143-20.145V20.145A20.144,20.144,0,0,1,350.7,0H484.246a20.145,20.145,0,0,1,20.145,20.145v8.143a20.145,20.145,0,0,1-20.145,20.145" transform="translate(-54.865)" fill="#247b98"/>
    <path id="Trazado_466904" data-name="Trazado 466904" d="M369.325,14.465l3.948,8,8.829,1.284-6.389,6.227,1.508,8.793-7.9-4.151-7.9,4.151,1.508-8.793-6.389-6.227,8.829-1.284Z" transform="translate(-59.18 -2.401)" fill="#ffc100"/>
    <path id="Trazado_466905" data-name="Trazado 466905" d="M411.259,14.465l3.948,8,8.829,1.284-6.389,6.227,1.508,8.793-7.9-4.151-7.9,4.151,1.508-8.793-6.389-6.227,8.829-1.284Z" transform="translate(-66.14 -2.401)" fill="#ffc100"/>
    <path id="Trazado_466906" data-name="Trazado 466906" d="M453.193,14.465l3.948,8,8.829,1.284-6.389,6.227,1.508,8.793-7.9-4.151-7.9,4.151,1.508-8.793-6.389-6.227,8.829-1.284Z" transform="translate(-73.1 -2.401)" fill="#ffc100"/>
    <path id="Trazado_466907" data-name="Trazado 466907" d="M495.127,14.465l3.948,8,8.829,1.284-6.389,6.227,1.508,8.793-7.9-4.151-7.9,4.151,1.508-8.793-6.389-6.227,8.829-1.284Z" transform="translate(-80.06 -2.401)" fill="#ffc100"/>
    <path id="Trazado_466908" data-name="Trazado 466908" d="M516.724,152.78H495.509a14.734,14.734,0,0,1,0-29.468h21.215a14.734,14.734,0,1,1,0,29.468" transform="translate(-79.799 -20.467)" fill="#9ed3ff"/>
    <path id="Trazado_466909" data-name="Trazado 466909" d="M519.642,136.42a3.8,3.8,0,1,1-3.8,3.8,3.8,3.8,0,0,1,3.8-3.8m-15.337,3.8a3.8,3.8,0,1,0,3.8-3.8,3.8,3.8,0,0,0-3.8,3.8m-7.733-3.8a3.8,3.8,0,1,0,3.8,3.8,3.8,3.8,0,0,0-3.8-3.8" transform="translate(-81.79 -22.643)" fill="#fff"/>
    <path id="Trazado_466910" data-name="Trazado 466910" d="M499.346,156.228v6.892l7.585-7.585Z" transform="translate(-82.881 -25.816)" fill="#9ed3ff"/>
    <path id="Trazado_466911" data-name="Trazado 466911" d="M522.7,123.312h-5.907v1.812a5.036,5.036,0,0,0,5.036,5.037h13.3a14.709,14.709,0,0,0-12.432-6.849" transform="translate(-85.778 -20.467)" fill="#122030"/>
    <path id="Trazado_466912" data-name="Trazado 466912" d="M568.985,119.885h-44.53a5.036,5.036,0,0,1-5.036-5.037V79.622a5.035,5.035,0,0,1,5.036-5.036h44.53a5.036,5.036,0,0,1,5.037,5.036v35.227a5.037,5.037,0,0,1-5.037,5.037" transform="translate(-86.213 -12.38)" fill="#7fc89b"/>
    <path id="Trazado_466913" data-name="Trazado 466913" d="M565.544,96.986h0a1.586,1.586,0,0,0-1.588-1.584l-4.746.007-4.6-9.712a1.61,1.61,0,0,0-2.911,1.379l3.95,8.338L542,95.43l3.928-8.348a1.61,1.61,0,1,0-2.914-1.371l-4.576,9.724-4.746.006a1.586,1.586,0,0,0,0,3.172l1.091,0,3.424,13.2a1.683,1.683,0,0,0,1.633,1.262l18-.023a1.686,1.686,0,0,0,1.631-1.266l3.39-13.213,1.09,0a1.586,1.586,0,0,0,1.584-1.588M544.4,110.172l-.262.059a.765.765,0,0,1-.915-.578l-1.66-7.355a.765.765,0,0,1,.577-.915l.262-.058a.764.764,0,0,1,.915.577l1.661,7.355a.765.765,0,0,1-.578.915m4.579.133h-.269a.766.766,0,0,1-.766-.764L547.934,102a.765.765,0,0,1,.764-.766h.268a.764.764,0,0,1,.766.764l.01,7.54a.765.765,0,0,1-.764.766m5.484-.666a.764.764,0,0,1-.913.58l-.262-.058a.764.764,0,0,1-.58-.912l1.641-7.36a.765.765,0,0,1,.913-.58l.263.058a.765.765,0,0,1,.58.913Z" transform="translate(-88.319 -14.071)" fill="#fff"/>
    <path id="Trazado_466914" data-name="Trazado 466914" d="M112.567,56.288H75.847a8.267,8.267,0,0,0-8.268,8.268V87.691a8.267,8.267,0,0,0,8.268,8.268H86.828l7.381,7.381,7.382-7.381h10.976a8.268,8.268,0,0,0,8.268-8.268V64.556a8.268,8.268,0,0,0-8.268-8.268" transform="translate(-11.217 -9.343)" fill="#ffc100"/>
    <path id="Trazado_466915" data-name="Trazado 466915" d="M100.374,84.729l-2.852,1.847-2.853-1.844c-7.131-4.61-7.131-7.9-7.131-9.143a5.256,5.256,0,0,1,9.984-2.294,5.252,5.252,0,0,1,9.978,2.294c0,1.239,0,4.53-7.126,9.14" transform="translate(-14.53 -11.674)" fill="#fff"/>
    <path id="Trazado_466916" data-name="Trazado 466916" d="M107.864,347.889H14.794V338.2h93.07a4.844,4.844,0,0,1,0,9.687" transform="translate(-2.456 -56.135)" fill="#edd27b"/>
    <path id="Trazado_466917" data-name="Trazado 466917" d="M58.62,346.263H14.794v-5.625H58.62a2.813,2.813,0,1,1,0,5.625" transform="translate(-2.456 -56.539)" fill="#fafafc"/>
    <path id="Trazado_466918" data-name="Trazado 466918" d="M101.9,336.275H8.834v-9.687H101.9a4.844,4.844,0,0,1,0,9.687" transform="translate(-1.466 -54.207)" fill="#f75244"/>
    <path id="Trazado_466919" data-name="Trazado 466919" d="M52.66,334.648H8.834v-5.625H52.66a2.813,2.813,0,1,1,0,5.625" transform="translate(-1.466 -54.611)" fill="#fafafc"/>
    <path id="Trazado_466920" data-name="Trazado 466920" d="M452.873,112.236a19.377,19.377,0,0,1-7.57-1.5,20.279,20.279,0,0,1-10.595-10.957,16.421,16.421,0,0,1-8-.826A20.074,20.074,0,0,1,415,86.275a28.223,28.223,0,0,1,.328-17.329.834.834,0,1,1,1.586.513,26.548,26.548,0,0,0-.329,16.294,18.394,18.394,0,0,0,10.7,11.633,14.733,14.733,0,0,0,6.849.791,18.688,18.688,0,0,1-.751-3.743c-.327-3.465.453-6.474,2.2-8.475,2-2.289,6.022-3.321,8.6-1.144a5.355,5.355,0,0,1,1.865,3.917,9.561,9.561,0,0,1-2.642,6.73,14.6,14.6,0,0,1-7.037,3.987,17.994,17.994,0,0,0,27.9,7.263.834.834,0,1,1,1.039,1.3,20.106,20.106,0,0,1-12.436,4.221M440.759,85.283a5.407,5.407,0,0,0-3.917,1.772c-1.946,2.229-1.961,5.481-1.8,7.221a17.152,17.152,0,0,0,.745,3.606A12.968,12.968,0,0,0,442.2,94.31a7.815,7.815,0,0,0,2.183-5.487,3.675,3.675,0,0,0-1.274-2.734,3.6,3.6,0,0,0-2.354-.806" transform="translate(-68.682 -11.348)" fill="#bdd8f3"/>
    <path id="Trazado_466921" data-name="Trazado 466921" d="M60.262,279.642H15.785a8.34,8.34,0,0,1-8.34-8.34V165.157a8.34,8.34,0,0,1,8.34-8.34H60.262a8.34,8.34,0,0,1,8.34,8.34V271.3a8.34,8.34,0,0,1-8.34,8.34" transform="translate(-1.236 -26.028)" fill="#fff"/>
    <path id="Trazado_466922" data-name="Trazado 466922" d="M35.8,183.658a12.976,12.976,0,1,0,12.976-12.976A12.976,12.976,0,0,0,35.8,183.658" transform="translate(-5.941 -28.33)" fill="#ffc100"/>
    <path id="Trazado_466923" data-name="Trazado 466923" d="M48.838,183.574c0,1.492-.717,2.7-1.6,2.7s-1.6-1.21-1.6-2.7.717-2.7,1.6-2.7,1.6,1.209,1.6,2.7" transform="translate(-7.574 -30.021)" fill="#fafafc"/>
    <path id="Trazado_466924" data-name="Trazado 466924" d="M53.233,183.574c0,1.492.717,2.7,1.6,2.7s1.6-1.21,1.6-2.7-.717-2.7-1.6-2.7-1.6,1.209-1.6,2.7" transform="translate(-8.836 -30.021)" fill="#fafafc"/>
    <path id="Trazado_466925" data-name="Trazado 466925" d="M49.861,195.51a8.006,8.006,0,0,1-7.449-5.157.834.834,0,1,1,1.56-.59,6.291,6.291,0,0,0,11.778,0,.834.834,0,0,1,1.561.59,8.007,8.007,0,0,1-7.45,5.157" transform="translate(-7.03 -31.407)" fill="#fafafc"/>
    <path id="Trazado_466926" data-name="Trazado 466926" d="M35.8,227.869a12.976,12.976,0,1,0,12.976-12.976A12.976,12.976,0,0,0,35.8,227.869" transform="translate(-5.941 -35.668)" fill="#ffc100"/>
    <path id="Trazado_466927" data-name="Trazado 466927" d="M48.838,227.785c0,1.493-.717,2.7-1.6,2.7s-1.6-1.209-1.6-2.7.717-2.7,1.6-2.7,1.6,1.209,1.6,2.7" transform="translate(-7.574 -37.359)" fill="#fafafc"/>
    <path id="Trazado_466928" data-name="Trazado 466928" d="M53.233,227.785c0,1.493.717,2.7,1.6,2.7s1.6-1.209,1.6-2.7-.717-2.7-1.6-2.7-1.6,1.209-1.6,2.7" transform="translate(-8.836 -37.359)" fill="#fafafc"/>
    <path id="Trazado_466929" data-name="Trazado 466929" d="M56.53,235.959H43.191a.834.834,0,1,1,0-1.668H56.53a.834.834,0,1,1,0,1.668" transform="translate(-7.03 -38.888)" fill="#fafafc"/>
    <path id="Trazado_466930" data-name="Trazado 466930" d="M35.8,272.08A12.976,12.976,0,1,0,48.772,259.1,12.976,12.976,0,0,0,35.8,272.08" transform="translate(-5.941 -43.006)" fill="#ffc100"/>
    <path id="Trazado_466931" data-name="Trazado 466931" d="M48.838,271.14c0,1.493-.717,2.7-1.6,2.7s-1.6-1.209-1.6-2.7.717-2.7,1.6-2.7,1.6,1.21,1.6,2.7" transform="translate(-7.574 -44.555)" fill="#fafafc"/>
    <path id="Trazado_466932" data-name="Trazado 466932" d="M53.233,271.14c0,1.493.717,2.7,1.6,2.7s1.6-1.209,1.6-2.7-.717-2.7-1.6-2.7-1.6,1.21-1.6,2.7" transform="translate(-8.836 -44.555)" fill="#fafafc"/>
    <path id="Trazado_466933" data-name="Trazado 466933" d="M56.53,282.037a.835.835,0,0,1-.781-.539,6.291,6.291,0,0,0-11.778,0,.834.834,0,1,1-1.56-.59,7.959,7.959,0,0,1,14.9,0,.833.833,0,0,1-.78,1.129" transform="translate(-7.03 -45.769)" fill="#fafafc"/>
    <rect id="Rectángulo_268198" data-name="Rectángulo 268198" width="4.649" height="4.65" transform="translate(17.77 190.803)" fill="#f7edc9"/>
    <rect id="Rectángulo_268199" data-name="Rectángulo 268199" width="4.649" height="4.649" transform="translate(17.77 153.931)" fill="#f7edc9"/>
    <rect id="Rectángulo_268200" data-name="Rectángulo 268200" width="4.649" height="4.65" transform="translate(17.77 227.467)" fill="#f7edc9"/>
    <path id="Trazado_466934" data-name="Trazado 466934" d="M17.044,179.324A97.71,97.71,0,0,1,42.269,138.05a85.5,85.5,0,0,1,8.463,9.776c-14.881,7.068-27.505,20.019-33.121,35.507-4.022-5.17-11.454-8.389-17.387-11.166a45.614,45.614,0,0,1,2.907-9.21c5.338,4.158,11.328,10.115,13.913,16.368" transform="translate(-0.037 -22.914)" fill="#7fc89b"/>
    <path id="Trazado_466935" data-name="Trazado 466935" d="M17.98,61.172V71.36L29.192,60.147Z" transform="translate(-2.984 -9.983)" fill="#247b98"/>
    <path id="Trazado_466936" data-name="Trazado 466936" d="M95.89,56.288H75.847c-4.567,0-8.268,2.867-8.268,7.433v2.513H89.191a6.7,6.7,0,0,0,6.7-6.7Z" transform="translate(-11.217 -9.343)" fill="#122030"/>
    <rect id="Rectángulo_268201" data-name="Rectángulo 268201" width="83.913" height="42.942" rx="8.032" transform="translate(3.995 11.547)" fill="#247b98"/>
    <path id="Trazado_466937" data-name="Trazado 466937" d="M36.766,50.031H20.415a2.92,2.92,0,0,1,0-5.841H36.766a2.92,2.92,0,0,1,0,5.841" transform="translate(-2.904 -7.335)" fill="#fff"/>
    <path id="Trazado_466938" data-name="Trazado 466938" d="M77.3,33.828H20.416a2.92,2.92,0,1,1,0-5.841H77.3a2.92,2.92,0,0,1,0,5.841" transform="translate(-2.904 -4.645)" fill="#fff"/>
  </g>
</svg>
