<svg xmlns="http://www.w3.org/2000/svg" xmlns:xlink="http://www.w3.org/1999/xlink" width="540" height="339" viewBox="0 0 540 339">
  <defs>
    <clipPath id="clip-path">
      <rect id="Rectángulo_268230" data-name="Rectángulo 268230" width="516" height="321" transform="translate(880 4055)" fill="#fff" stroke="#707070" stroke-width="1"/>
    </clipPath>
    <clipPath id="clip-path-2">
      <rect id="Rectángulo_268186" data-name="Rectángulo 268186" width="530.588" height="336.827" transform="translate(-59)" fill="none"/>
    </clipPath>
    <clipPath id="clip-path-3">
      <rect id="Rectángulo_268185" data-name="Rectángulo 268185" width="530.587" height="336.828" transform="translate(-59)" fill="none"/>
    </clipPath>
    <clipPath id="clip-path-4">
      <rect id="Rectángulo_268167" data-name="Rectángulo 268167" width="6.15" height="6.149" fill="none"/>
    </clipPath>
    <clipPath id="clip-path-5">
      <rect id="Rectángulo_268173" data-name="Rectángulo 268173" width="34.759" height="17.657" fill="none"/>
    </clipPath>
    <clipPath id="clip-path-6">
      <rect id="Rectángulo_268178" data-name="Rectángulo 268178" width="6.283" height="6.283" fill="none"/>
    </clipPath>
    <clipPath id="clip-path-7">
      <rect id="Rectángulo_268184" data-name="Rectángulo 268184" width="3.964" height="3.964" fill="none"/>
    </clipPath>
  </defs>
  <g id="Grupo_726941" data-name="Grupo 726941" transform="translate(-856 -4199.8)">
    <g id="Enmascarar_grupo_180560" data-name="Enmascarar grupo 180560" transform="translate(0 162.8)" clip-path="url(#clip-path)">
      <g id="Grupo_715459" data-name="Grupo 715459" transform="translate(828 4035.335)" opacity="0.07">
        <path id="Trazado_183874" data-name="Trazado 183874" d="M555.249,177.708l50.813-29.337-50.813-29.339-50.815,29.339Zm47.215-29.337-47.215,27.26-47.217-27.26,47.217-27.26Z" transform="translate(-504.426 -119.029)" fill="#173d7a"/>
        <path id="Trazado_183875" data-name="Trazado 183875" d="M494.893,177.708l50.815-29.339-50.813-29.337-.448.261L444.08,148.371Zm47.217-29.339-47.217,27.261-47.215-27.26,47.217-27.26Z" transform="translate(-346.042 -119.029)" fill="#173d7a"/>
        <path id="Trazado_183876" data-name="Trazado 183876" d="M525.07,195.131l50.814-29.337L525.07,136.455l-50.813,29.339Zm47.217-29.337-47.217,27.26-47.216-27.26,47.216-27.26Z" transform="translate(-425.234 -108.153)" fill="#173d7a"/>
        <path id="Trazado_183877" data-name="Trazado 183877" d="M555.249,212.554l.448-.26,50.366-29.077L555.25,153.878l-.45.26-50.367,29.079Zm47.217-29.337-47.217,27.26-47.217-27.26,47.219-27.261Z" transform="translate(-504.427 -97.276)" fill="#173d7a"/>
        <path id="Trazado_183878" data-name="Trazado 183878" d="M434.54,177.707l.448-.26,50.366-29.077-50.813-29.339-.45.261L383.725,148.37Zm47.217-29.337L434.54,175.63l-47.217-27.26,47.219-27.26Z" transform="translate(-187.657 -119.029)" fill="#173d7a"/>
        <path id="Trazado_183879" data-name="Trazado 183879" d="M464.716,195.13l.448-.26,50.366-29.077-50.813-29.339L413.9,165.794Zm47.217-29.337-47.217,27.26L417.5,165.794l47.217-27.261Z" transform="translate(-266.85 -108.153)" fill="#173d7a"/>
        <path id="Trazado_183880" data-name="Trazado 183880" d="M494.892,212.552l.448-.26,50.366-29.077-50.813-29.337-50.813,29.339Zm47.217-29.337-47.217,27.26-47.214-27.258,47.215-27.261Z" transform="translate(-346.043 -97.276)" fill="#173d7a"/>
        <path id="Trazado_183881" data-name="Trazado 183881" d="M525.071,229.977l50.815-29.34L525.073,171.3l-.448.26-50.366,29.077Zm47.217-29.34L525.071,227.9l-47.215-27.261,47.217-27.26Z" transform="translate(-425.236 -86.4)" fill="#173d7a"/>
        <path id="Trazado_183882" data-name="Trazado 183882" d="M555.25,247.4l.449-.26,50.366-29.079-50.813-29.337-.45.26-50.366,29.077Zm47.217-29.339-47.217,27.26-47.217-27.26,47.219-27.26Z" transform="translate(-504.43 -75.524)" fill="#173d7a"/>
        <path id="Trazado_183883" data-name="Trazado 183883" d="M374.184,177.707,425,148.368l-50.813-29.337-.448.261L323.371,148.37ZM421.4,148.368,374.184,175.63l-47.215-27.26,47.217-27.26Z" transform="translate(-29.272 -119.029)" fill="#173d7a"/>
        <path id="Trazado_183884" data-name="Trazado 183884" d="M404.361,195.13l.45-.26,50.366-29.077-50.815-29.339-.448.26-50.366,29.079Zm47.219-29.337-47.219,27.26-47.215-27.26,47.217-27.26Z" transform="translate(-108.465 -108.153)" fill="#173d7a"/>
        <path id="Trazado_183885" data-name="Trazado 183885" d="M434.541,212.553l.448-.26,50.366-29.077-50.813-29.339-.45.26-50.366,29.079Zm47.217-29.337-47.217,27.26-47.217-27.26,47.218-27.261Z" transform="translate(-187.66 -97.277)" fill="#173d7a"/>
        <path id="Trazado_183886" data-name="Trazado 183886" d="M464.717,229.976l.448-.26,50.366-29.079L464.719,171.3l-.45.26L413.9,200.637Zm47.217-29.339L464.717,227.9,417.5,200.637l47.217-27.26Z" transform="translate(-266.853 -86.401)" fill="#173d7a"/>
        <path id="Trazado_183887" data-name="Trazado 183887" d="M494.9,247.4l50.813-29.339L494.9,188.723l-50.813,29.339ZM542.11,218.06,494.9,245.32,447.68,218.062,494.9,190.8Z" transform="translate(-346.046 -75.524)" fill="#173d7a"/>
        <path id="Trazado_183888" data-name="Trazado 183888" d="M525.071,264.823l50.816-29.341-50.814-29.335-.448.26-50.366,29.077Zm47.219-29.341-47.219,27.261-47.215-27.26,47.217-27.26Z" transform="translate(-425.238 -64.647)" fill="#173d7a"/>
        <path id="Trazado_183889" data-name="Trazado 183889" d="M555.25,282.245l.448-.26,50.366-29.077-50.813-29.339-.45.261-50.366,29.077Zm47.217-29.337-47.217,27.26-47.217-27.26,47.219-27.26Z" transform="translate(-504.433 -53.772)" fill="#173d7a"/>
        <path id="Trazado_183890" data-name="Trazado 183890" d="M313.831,177.706l.448-.26,50.366-29.077L313.832,119.03l-.45.262-50.366,29.077Zm47.217-29.337-47.217,27.26-47.217-27.26,47.219-27.26Z" transform="translate(129.113 -119.03)" fill="#173d7a"/>
        <path id="Trazado_183891" data-name="Trazado 183891" d="M344.007,195.129l.448-.26,50.366-29.077-50.813-29.339-50.815,29.34Zm47.217-29.337-47.217,27.26-47.215-27.258,47.217-27.261Z" transform="translate(49.92 -108.154)" fill="#173d7a"/>
        <path id="Trazado_183892" data-name="Trazado 183892" d="M374.185,212.551l.448-.26L425,183.214l-50.813-29.337-.448.26-50.366,29.079ZM421.4,183.214l-47.217,27.26L326.97,183.216l47.217-27.261Z" transform="translate(-29.274 -97.277)" fill="#173d7a"/>
        <path id="Trazado_183893" data-name="Trazado 183893" d="M404.362,229.976l50.816-29.34L404.364,171.3l-.448.26-50.366,29.077Zm47.219-29.34L404.362,227.9l-47.215-27.261,47.217-27.26Z" transform="translate(-108.468 -86.401)" fill="#173d7a"/>
        <path id="Trazado_183894" data-name="Trazado 183894" d="M434.542,247.4l.448-.26,50.366-29.079-50.813-29.337-.45.26L383.727,218.06Zm47.217-29.339-47.217,27.26-47.217-27.26,47.219-27.26Z" transform="translate(-187.663 -75.524)" fill="#173d7a"/>
        <path id="Trazado_183895" data-name="Trazado 183895" d="M464.718,264.822l50.813-29.339-50.813-29.337L413.9,235.483Zm47.215-29.339-47.215,27.26L417.5,235.483l47.215-27.26Z" transform="translate(-266.854 -64.648)" fill="#173d7a"/>
        <path id="Trazado_183896" data-name="Trazado 183896" d="M494.895,282.244l.45-.26,50.365-29.077L494.9,223.568l-50.815,29.34Zm47.217-29.337-47.217,27.26L447.68,252.908,494.9,225.647Z" transform="translate(-346.047 -53.772)" fill="#173d7a"/>
        <path id="Trazado_183897" data-name="Trazado 183897" d="M525.072,299.666l.45-.26,50.366-29.077-50.815-29.337-.448.26-50.366,29.079Zm47.219-29.337-47.219,27.26-47.215-27.258,47.217-27.26Z" transform="translate(-425.241 -42.895)" fill="#173d7a"/>
        <path id="Trazado_183898" data-name="Trazado 183898" d="M555.25,317.091l50.815-29.339-50.813-29.337-.45.26-50.364,29.079Zm47.217-29.339L555.25,315.013l-47.217-27.26,47.218-27.261Z" transform="translate(-504.434 -32.019)" fill="#173d7a"/>
        <path id="Trazado_183899" data-name="Trazado 183899" d="M253.475,177.7l.448-.26,50.366-29.077L253.477,119.03l-.448.262-50.366,29.077Zm47.217-29.337-47.217,27.26L206.26,148.369l47.217-27.26Z" transform="translate(287.499 -119.03)" fill="#173d7a"/>
        <path id="Trazado_183900" data-name="Trazado 183900" d="M283.653,195.129l50.815-29.339-50.813-29.337-.448.26L232.84,165.792Zm47.218-29.339-47.218,27.261-47.215-27.26,47.217-27.26Z" transform="translate(208.304 -108.154)" fill="#173d7a"/>
        <path id="Trazado_183901" data-name="Trazado 183901" d="M313.832,212.552l.448-.26,50.366-29.077-50.813-29.339-.45.26-50.366,29.079Zm47.217-29.337-47.217,27.26-47.217-27.26,47.219-27.261Z" transform="translate(129.11 -97.277)" fill="#173d7a"/>
        <path id="Trazado_183902" data-name="Trazado 183902" d="M344.008,229.975l.448-.26,50.366-29.079L344.01,171.3l-.45.26-50.365,29.077Zm47.217-29.339L344.008,227.9l-47.215-27.261,47.217-27.26Z" transform="translate(49.918 -86.401)" fill="#173d7a"/>
        <path id="Trazado_183903" data-name="Trazado 183903" d="M374.186,247.4l.45-.26L425,218.059l-50.813-29.337-50.815,29.339ZM421.4,218.059l-47.217,27.261-47.215-27.26L374.187,190.8Z" transform="translate(-29.277 -75.525)" fill="#173d7a"/>
        <path id="Trazado_183904" data-name="Trazado 183904" d="M404.363,264.82l.45-.26,50.366-29.079-50.815-29.336-.448.26L353.55,235.483Zm47.218-29.339-47.218,27.26-47.215-27.258,47.217-27.26Z" transform="translate(-108.47 -64.648)" fill="#173d7a"/>
        <path id="Trazado_183905" data-name="Trazado 183905" d="M434.541,282.244l50.815-29.339-50.813-29.337-50.815,29.339Zm47.217-29.339-47.217,27.261-47.215-27.26,47.217-27.26Z" transform="translate(-187.663 -53.772)" fill="#173d7a"/>
        <path id="Trazado_183906" data-name="Trazado 183906" d="M464.719,299.667l50.813-29.337L464.72,240.991l-.448.26L413.906,270.33Zm47.215-29.337-47.215,27.26L417.5,270.33l47.217-27.26Z" transform="translate(-266.856 -42.896)" fill="#173d7a"/>
        <path id="Trazado_183907" data-name="Trazado 183907" d="M494.9,317.09l.45-.26,50.365-29.077L494.9,258.414l-.448.26-50.366,29.079Zm47.217-29.337L494.9,315.013l-47.215-27.26L494.9,260.491Z" transform="translate(-346.05 -32.02)" fill="#173d7a"/>
        <path id="Trazado_183908" data-name="Trazado 183908" d="M525.073,334.513l.45-.26,50.366-29.079-50.815-29.337L474.26,305.176Zm47.218-29.339-47.218,27.261-47.215-27.26,47.217-27.261Z" transform="translate(-425.243 -21.144)" fill="#173d7a"/>
        <path id="Trazado_183909" data-name="Trazado 183909" d="M555.251,351.937l50.815-29.34-50.813-29.336-.45.26L504.438,322.6Zm47.217-29.34-47.217,27.261L508.034,322.6l47.218-27.26Z" transform="translate(-504.436 -10.267)" fill="#173d7a"/>
        <path id="Trazado_183910" data-name="Trazado 183910" d="M253.476,212.551l.448-.26,50.366-29.077-50.813-29.339-50.815,29.34Zm47.217-29.337-47.217,27.26-47.215-27.258,47.217-27.263Z" transform="translate(287.496 -97.278)" fill="#173d7a"/>
        <path id="Trazado_183911" data-name="Trazado 183911" d="M283.653,229.975l50.816-29.34L283.655,171.3l-.448.26L232.84,200.636Zm47.219-29.34L283.653,227.9l-47.215-27.261,47.217-27.26Z" transform="translate(208.302 -86.401)" fill="#173d7a"/>
        <path id="Trazado_183912" data-name="Trazado 183912" d="M313.833,247.4l.448-.26,50.366-29.079-50.813-29.337-.45.26-50.366,29.077Zm47.217-29.339-47.217,27.261-47.217-27.261,47.219-27.26Z" transform="translate(129.108 -75.525)" fill="#173d7a"/>
        <path id="Trazado_183913" data-name="Trazado 183913" d="M344.009,264.821l.448-.26,50.366-29.079-50.813-29.337-.448.26L293.2,235.482Zm47.217-29.339-47.217,27.26-47.215-27.26,47.217-27.26Z" transform="translate(49.915 -64.649)" fill="#173d7a"/>
        <path id="Trazado_183914" data-name="Trazado 183914" d="M374.187,282.244l.45-.261L425,252.905l-50.813-29.337-.448.26-50.366,29.077ZM421.4,252.905l-47.217,27.26-47.215-27.26,47.217-27.26Z" transform="translate(-29.28 -53.772)" fill="#173d7a"/>
        <path id="Trazado_183915" data-name="Trazado 183915" d="M404.364,299.666l.45-.26,50.366-29.077L404.366,240.99l-50.815,29.34Zm47.219-29.337-47.219,27.26-47.215-27.258,47.217-27.261Z" transform="translate(-108.473 -42.897)" fill="#173d7a"/>
        <path id="Trazado_183916" data-name="Trazado 183916" d="M434.544,317.09l50.813-29.339-50.813-29.337-50.815,29.339Zm47.215-29.339-47.215,27.261-47.217-27.26,47.217-27.261Z" transform="translate(-187.666 -32.02)" fill="#173d7a"/>
        <path id="Trazado_183917" data-name="Trazado 183917" d="M464.719,334.513l.448-.26,50.366-29.079-50.813-29.337-.448.26-50.366,29.077Zm47.217-29.339-47.217,27.261L417.5,305.174l47.217-27.26Z" transform="translate(-266.858 -21.144)" fill="#173d7a"/>
        <path id="Trazado_183918" data-name="Trazado 183918" d="M494.9,351.936l.45-.26L545.711,322.6,494.9,293.26l-.448.26L444.084,322.6ZM542.115,322.6,494.9,349.859,447.682,322.6l47.217-27.26Z" transform="translate(-346.052 -10.267)" fill="#173d7a"/>
        <path id="Trazado_183919" data-name="Trazado 183919" d="M525.074,369.359l.45-.26L575.89,340.02l-50.815-29.337-50.814,29.339Zm47.218-29.339-47.218,27.26-47.215-27.258,47.217-27.261Z" transform="translate(-425.246 0.609)" fill="#173d7a"/>
        <path id="Trazado_183920" data-name="Trazado 183920" d="M555.252,386.782l.448-.262,50.367-29.077-50.813-29.337-.45.261-50.365,29.077Zm47.217-29.339L555.252,384.7l-47.217-27.258,47.219-27.26Z" transform="translate(-504.439 11.485)" fill="#173d7a"/>
        <path id="Trazado_183921" data-name="Trazado 183921" d="M253.477,247.4l.448-.26,50.366-29.079-50.813-29.337L202.664,218.06Zm47.217-29.339L253.477,245.32l-47.215-27.26L253.479,190.8Z" transform="translate(287.493 -75.526)" fill="#173d7a"/>
        <path id="Trazado_183922" data-name="Trazado 183922" d="M283.654,264.819l.45-.26L334.47,235.48l-50.815-29.335-.448.26-50.366,29.077Zm47.219-29.339-47.219,27.26-47.215-27.258,47.217-27.26Z" transform="translate(208.3 -64.649)" fill="#173d7a"/>
        <path id="Trazado_183923" data-name="Trazado 183923" d="M313.834,282.244l50.815-29.34-50.813-29.336-.45.26-50.366,29.077ZM361.05,252.9l-47.217,27.261-47.217-27.26,47.219-27.26Z" transform="translate(129.105 -53.772)" fill="#173d7a"/>
        <path id="Trazado_183924" data-name="Trazado 183924" d="M344.01,299.666l.448-.26,50.366-29.077L344.012,240.99l-.448.26L293.2,270.329Zm47.217-29.337-47.217,27.26-47.215-27.26,47.217-27.26Z" transform="translate(49.912 -42.897)" fill="#173d7a"/>
        <path id="Trazado_183925" data-name="Trazado 183925" d="M374.188,317.089l.45-.26L425,287.752,374.19,258.413l-.448.26-50.366,29.079ZM421.4,287.752l-47.217,27.26-47.215-27.26,47.217-27.26Z" transform="translate(-29.282 -32.021)" fill="#173d7a"/>
        <path id="Trazado_183926" data-name="Trazado 183926" d="M404.365,334.512l50.815-29.337-50.815-29.339-50.813,29.339Zm47.217-29.337-47.217,27.26-47.215-27.26,47.215-27.261Z" transform="translate(-108.474 -21.144)" fill="#173d7a"/>
        <path id="Trazado_183927" data-name="Trazado 183927" d="M434.542,351.934l.448-.26L485.357,322.6,434.544,293.26l-.45.26L383.729,322.6ZM481.759,322.6l-47.217,27.261L387.325,322.6l47.219-27.26Z" transform="translate(-187.666 -10.267)" fill="#173d7a"/>
        <path id="Trazado_183928" data-name="Trazado 183928" d="M464.72,369.359l50.814-29.341-50.813-29.335-.448.26L413.907,340.02Zm47.217-29.341L464.72,367.28,417.5,340.02l47.217-27.26Z" transform="translate(-266.861 0.609)" fill="#173d7a"/>
        <path id="Trazado_183929" data-name="Trazado 183929" d="M494.9,386.782l.45-.262,50.365-29.077L494.9,328.106l-.448.26-50.366,29.077Zm47.219-29.339L494.9,384.7l-47.215-27.26,47.217-27.26Z" transform="translate(-346.055 11.485)" fill="#173d7a"/>
        <path id="Trazado_183930" data-name="Trazado 183930" d="M253.478,282.243l.45-.262L304.293,252.9,253.48,223.567l-.448.26L202.665,252.9ZM300.695,252.9l-47.217,27.26L206.263,252.9l47.217-27.26Z" transform="translate(287.491 -53.773)" fill="#173d7a"/>
        <path id="Trazado_183931" data-name="Trazado 183931" d="M283.655,299.665l.45-.26,50.366-29.077-50.815-29.339-50.815,29.34Zm47.219-29.337-47.219,27.26L236.44,270.329l47.217-27.261Z" transform="translate(208.297 -42.897)" fill="#173d7a"/>
        <path id="Trazado_183932" data-name="Trazado 183932" d="M313.835,317.089l50.815-29.339-50.813-29.337-.45.26L263.02,287.752Zm47.217-29.339-47.217,27.261-47.217-27.26,47.219-27.26Z" transform="translate(129.103 -32.021)" fill="#173d7a"/>
        <path id="Trazado_183933" data-name="Trazado 183933" d="M344.011,334.512l.448-.26,50.366-29.077-50.813-29.339-.448.26L293.2,305.175Zm47.217-29.337-47.217,27.26L296.8,305.175l47.217-27.261Z" transform="translate(49.91 -21.144)" fill="#173d7a"/>
        <path id="Trazado_183934" data-name="Trazado 183934" d="M374.187,351.935l.45-.26L425,322.6l-50.813-29.337L323.376,322.6ZM421.406,322.6l-47.219,27.261L326.974,322.6l47.215-27.26Z" transform="translate(-29.283 -10.268)" fill="#173d7a"/>
        <path id="Trazado_183935" data-name="Trazado 183935" d="M404.366,369.358l50.815-29.339-50.813-29.337-.448.26-50.366,29.077Zm47.217-29.339-47.217,27.26-47.215-27.26,47.217-27.26Z" transform="translate(-108.477 0.608)" fill="#173d7a"/>
        <path id="Trazado_183936" data-name="Trazado 183936" d="M434.543,386.781l.448-.262,50.366-29.077-50.813-29.337L383.73,357.444Zm47.217-29.339L434.543,384.7l-47.217-27.258,47.219-27.261Z" transform="translate(-187.669 11.485)" fill="#173d7a"/>
        <path id="Trazado_183937" data-name="Trazado 183937" d="M253.479,317.088l.45-.26,50.365-29.077-50.813-29.339-.448.26-50.366,29.079ZM300.7,287.751l-47.217,27.26-47.215-27.26,47.217-27.26Z" transform="translate(287.488 -32.021)" fill="#173d7a"/>
        <path id="Trazado_183938" data-name="Trazado 183938" d="M283.656,334.511l.45-.26,50.366-29.077-50.814-29.339-50.815,29.34Zm47.218-29.337-47.218,27.26-47.215-27.258,47.217-27.263Z" transform="translate(208.295 -21.145)" fill="#173d7a"/>
        <path id="Trazado_183939" data-name="Trazado 183939" d="M313.834,351.933l.448-.26,50.366-29.079-50.813-29.336-.45.26L263.021,322.6Zm47.217-29.339-47.217,27.261L266.617,322.6l47.218-27.26Z" transform="translate(129.102 -10.268)" fill="#173d7a"/>
        <path id="Trazado_183940" data-name="Trazado 183940" d="M344.012,369.358l50.815-29.34-50.813-29.336-.448.26L293.2,340.019Zm47.217-29.34-47.217,27.261L296.8,340.019l47.217-27.26Z" transform="translate(49.907 0.608)" fill="#173d7a"/>
        <path id="Trazado_183941" data-name="Trazado 183941" d="M374.19,386.781,425,357.442,374.19,328.105l-50.813,29.337Zm47.217-29.339L374.19,384.7l-47.215-27.26,47.215-27.26Z" transform="translate(-29.286 11.485)" fill="#173d7a"/>
        <path id="Trazado_183942" data-name="Trazado 183942" d="M253.48,351.934l.45-.26L304.294,322.6l-50.813-29.337-.448.26L202.667,322.6ZM300.7,322.6,253.48,349.856,206.265,322.6l47.217-27.26Z" transform="translate(287.486 -10.269)" fill="#173d7a"/>
        <path id="Trazado_183943" data-name="Trazado 183943" d="M283.657,369.357l.45-.26,50.366-29.079-50.815-29.337-.448.26-50.366,29.077Zm47.219-29.339-47.219,27.26-47.215-27.26,47.217-27.26Z" transform="translate(208.292 0.608)" fill="#173d7a"/>
        <path id="Trazado_183944" data-name="Trazado 183944" d="M313.835,386.78l.448-.262,50.366-29.077L313.837,328.1l-50.815,29.339Zm47.217-29.339L313.835,384.7l-47.217-27.258,47.218-27.261Z" transform="translate(129.099 11.484)" fill="#173d7a"/>
        <path id="Trazado_183945" data-name="Trazado 183945" d="M253.481,386.78l.45-.262L304.3,357.441,253.483,328.1l-.448.26-50.366,29.077ZM300.7,357.441,253.481,384.7l-47.215-27.26,47.217-27.26Z" transform="translate(287.483 11.484)" fill="#173d7a"/>
      </g>
    </g>
    <g id="Grupo_715475" data-name="Grupo 715475" transform="translate(915 4199.8)">
      <g id="Grupo_715474" data-name="Grupo 715474" clip-path="url(#clip-path-2)">
        <rect id="Rectángulo_268159" data-name="Rectángulo 268159" width="66.007" height="91.287" transform="translate(28.85 245.54)" fill="#5893cf"/>
        <rect id="Rectángulo_268160" data-name="Rectángulo 268160" width="66.368" height="118.159" transform="translate(139.549 218.668)" fill="#5893cf"/>
        <rect id="Rectángulo_268161" data-name="Rectángulo 268161" width="69.483" height="156.366" transform="translate(252.263 180.46)" fill="#5893cf"/>
        <rect id="Rectángulo_268162" data-name="Rectángulo 268162" width="72.764" height="206.107" transform="translate(372.995 130.72)" fill="#5893cf"/>
        <g id="Grupo_715473" data-name="Grupo 715473" transform="translate(0 -0.001)">
          <g id="Grupo_715472" data-name="Grupo 715472" clip-path="url(#clip-path-3)">
            <path id="Trazado_466709" data-name="Trazado 466709" d="M108.108,208.478l-.208-12.845c19.008-.317,70.885-5.228,131.173-21.542a664.153,664.153,0,0,0,125.855-47.971A578.777,578.777,0,0,0,497.223,34.776l8.725,9.428a591.685,591.685,0,0,1-135.458,93.5,677.179,677.179,0,0,1-128.458,48.9c-76.8,20.736-131.627,21.842-133.923,21.879" transform="translate(-79.05 -25.477)" fill="#4860a8"/>
            <path id="Trazado_466710" data-name="Trazado 466710" d="M1518.086,39.7,1478.38,0h39.706Z" transform="translate(-1083.094 0.004)" fill="#4860a8"/>
            <path id="Trazado_466711" data-name="Trazado 466711" d="M1102.526,92.285l-14.783-9.1c-.121-.6-.259-1.194-.43-1.79a22.845,22.845,0,0,0-44.588,9.431l-10.61,12.975a.259.259,0,0,0,.277.411l13.7-4.234a22.847,22.847,0,0,0,41.343-6.41l14.931-.661a.338.338,0,0,0,.162-.625" transform="translate(-756.107 -47.508)" fill="#fff"/>
            <path id="Trazado_466712" data-name="Trazado 466712" d="M1064.235,109.868a23.077,23.077,0,0,1-8.353-1.573,23.443,23.443,0,0,1-11.061-8.93l-13.407,4.145a.66.66,0,0,1-.706-1.049l10.5-12.84A23.246,23.246,0,0,1,1086.6,80.2c.145.5.277,1.045.4,1.649l14.635,9.007a.739.739,0,0,1-.354,1.367l-14.64.648a23.3,23.3,0,0,1-22.41,17m-19.069-11.45.164.258a22.57,22.57,0,0,0,25.116,9.508,22.285,22.285,0,0,0,15.5-15.806l.076-.284,15.019-.665-14.755-9.081-.035-.171c-.132-.653-.271-1.228-.422-1.759a22.443,22.443,0,0,0-43.8,9.265l.024.174L1031.626,102.6Z" transform="translate(-755.009 -46.419)" fill="#5254cf"/>
            <path id="Trazado_466713" data-name="Trazado 466713" d="M1146.873,128.256a6.016,6.016,0,1,0-10.981,3.388,2.8,2.8,0,0,1,.484,1.584v3.718h8.962v-3.717a2.756,2.756,0,0,1,.473-1.569,5.967,5.967,0,0,0,1.062-3.4" transform="translate(-831.409 -89.555)" fill="#fff"/>
            <path id="Trazado_466714" data-name="Trazado 466714" d="M1144.643,136.251h-9.764v-4.119a2.386,2.386,0,0,0-.413-1.357,6.417,6.417,0,1,1,10.579.017,2.344,2.344,0,0,0-.4,1.341Zm-8.962-.8h8.16v-3.316a3.141,3.141,0,0,1,.544-1.8,5.563,5.563,0,0,0,.991-3.176,5.615,5.615,0,1,0-10.249,3.161,3.187,3.187,0,0,1,.554,1.811Z" transform="translate(-830.314 -88.459)" fill="#5254cf"/>
            <rect id="Rectángulo_268163" data-name="Rectángulo 268163" width="8.962" height="3.304" transform="translate(304.966 49.941)" fill="#fff"/>
            <path id="Trazado_466715" data-name="Trazado 466715" d="M1148.845,189.382h-9.764v-4.106h9.764Zm-8.962-.8h8.16v-2.5h-8.16Z" transform="translate(-834.516 -135.736)" fill="#5254cf"/>
            <path id="Trazado_466716" data-name="Trazado 466716" d="M1146.293,135.24a2.649,2.649,0,0,0-.869,3.275" transform="translate(-838.985 -99.079)" fill="#fff"/>
            <path id="Trazado_466717" data-name="Trazado 466717" d="M1143.961,137.747a3.041,3.041,0,0,1,1.021-3.762l.439.671-.219-.336.221.335a2.247,2.247,0,0,0-.719,2.79Z" transform="translate(-837.893 -98.159)" fill="#5254cf"/>
            <line id="Línea_208" data-name="Línea 208" x1="5.147" y1="3.676" transform="translate(296.948 29.276)" fill="#fff"/>
            <rect id="Rectángulo_268164" data-name="Rectángulo 268164" width="0.802" height="6.325" transform="translate(296.714 29.603) rotate(-54.462)" fill="#5254cf"/>
            <line id="Línea_209" data-name="Línea 209" y1="3.676" x2="5.147" transform="translate(316.399 28.942)" fill="#fff"/>
            <rect id="Rectángulo_268165" data-name="Rectángulo 268165" width="6.325" height="0.802" transform="translate(316.166 32.293) rotate(-35.546)" fill="#5254cf"/>
            <line id="Línea_210" data-name="Línea 210" y1="6.322" x2="0.202" transform="translate(309.306 22.762)" fill="#fff"/>
            <rect id="Rectángulo_268166" data-name="Rectángulo 268166" width="6.325" height="0.802" transform="translate(308.905 29.071) rotate(-88.167)" fill="#5254cf"/>
            <path id="Trazado_466718" data-name="Trazado 466718" d="M499.257,179.948a17.773,17.773,0,0,0-16.875,23.425l-7.752,9.415a.188.188,0,0,0,.218.294l10.417-4.36a17.791,17.791,0,1,0,13.991-28.774" transform="translate(-347.692 -131.833)" fill="#fff"/>
            <path id="Trazado_466719" data-name="Trazado 466719" d="M498.16,214.845a18.091,18.091,0,0,1-14.115-6.735l-10.138,4.243a.59.59,0,0,1-.683-.919l7.611-9.245a18.193,18.193,0,1,1,17.324,12.656m-13.864-7.71.189.24a17.424,17.424,0,1,0-2.819-5.228l.07.211-7.347,8.923Z" transform="translate(-346.596 -130.734)" fill="#5254cf"/>
            <path id="Trazado_466720" data-name="Trazado 466720" d="M545.792,223.8l5.08,5.214,6.283-15.107" transform="translate(-399.859 -156.712)" fill="#fff"/>
            <path id="Trazado_466721" data-name="Trazado 466721" d="M550.222,229.307l-5.5-5.649.574-.56,4.656,4.779L556,213.331l.741.308Z" transform="translate(-399.072 -156.29)" fill="#5254cf"/>
            <path id="Trazado_466722" data-name="Trazado 466722" d="M1631.385,230.633a24.153,24.153,0,1,1-24.4-24.149c-.081,2.628-.162,5.715-.225,8.794a15.363,15.363,0,1,0,15.832,15.355,15.039,15.039,0,0,0-.774-4.788l8.4-2.628a23.783,23.783,0,0,1,1.17,7.417" transform="translate(-1159.799 -151.274)" fill="#4860a8"/>
            <path id="Trazado_466723" data-name="Trazado 466723" d="M1695.1,223.192l-8.4,2.628a15.332,15.332,0,0,0-14.59-10.576c-.153,0-.315,0-.468.009.063-3.078.144-6.165.225-8.794a2.235,2.235,0,0,1,.243-.009,24.159,24.159,0,0,1,22.988,16.741" transform="translate(-1224.684 -151.25)" fill="#cbcbff"/>
            <g id="Grupo_715523" data-name="Grupo 715523" transform="translate(-51 171.81)">
              <path id="Trazado_466724" data-name="Trazado 466724" d="M115.121,360.258A18.628,18.628,0,1,1,96.493,341.63a18.628,18.628,0,0,1,18.628,18.628" transform="translate(-57.045 -250.285)" fill="#cbcbff"/>
              <path id="Trazado_466725" data-name="Trazado 466725" d="M127.728,390.126v-2.832a12.011,12.011,0,0,1-5.071-1.282l.9-3.49a10.541,10.541,0,0,0,4.951,1.311c1.7,0,2.863-.656,2.863-1.848,0-1.134-.954-1.851-3.161-2.6-3.193-1.074-5.37-2.565-5.37-5.458,0-2.625,1.849-4.683,5.041-5.309v-2.834H130.8v2.625a10.763,10.763,0,0,1,4.326.984l-.865,3.371a9.9,9.9,0,0,0-4.3-1.015c-1.939,0-2.566.836-2.566,1.671,0,.983,1.044,1.61,3.58,2.565,3.55,1.253,4.982,2.893,4.982,5.579,0,2.655-1.88,4.921-5.309,5.518v3.041Z" transform="translate(-89.861 -267.982)" fill="#fff"/>
              <path id="Trazado_466726" data-name="Trazado 466726" d="M19.6,248.91a9.8,9.8,0,1,1-9.8-9.8,9.8,9.8,0,0,1,9.8,9.8" transform="translate(0 -175.177)" fill="#cbcbff"/>
              <path id="Trazado_466727" data-name="Trazado 466727" d="M26.231,264.622v-1.49a6.32,6.32,0,0,1-2.668-.675l.471-1.836a5.549,5.549,0,0,0,2.6.69c.894,0,1.506-.345,1.506-.972,0-.6-.5-.974-1.663-1.366-1.679-.565-2.825-1.349-2.825-2.871a2.9,2.9,0,0,1,2.652-2.793v-1.491h1.537V253.2a5.658,5.658,0,0,1,2.276.517l-.455,1.773a5.208,5.208,0,0,0-2.26-.534c-1.02,0-1.35.44-1.35.879,0,.518.549.847,1.883,1.349,1.867.659,2.621,1.522,2.621,2.935a3.007,3.007,0,0,1-2.793,2.9v1.6Z" transform="translate(-17.263 -184.487)" fill="#fff"/>
              <path id="Trazado_466728" data-name="Trazado 466728" d="M169.6,151.975a9.8,9.8,0,1,1-9.8-9.8,9.8,9.8,0,0,1,9.8,9.8" transform="translate(-109.896 -104.16)" fill="#cbcbff"/>
              <path id="Trazado_466729" data-name="Trazado 466729" d="M176.234,167.687V166.2a6.32,6.32,0,0,1-2.668-.675l.471-1.836a5.55,5.55,0,0,0,2.6.69c.894,0,1.506-.345,1.506-.972,0-.6-.5-.974-1.663-1.366-1.679-.565-2.825-1.349-2.825-2.871a2.9,2.9,0,0,1,2.652-2.793v-1.491h1.537v1.381a5.659,5.659,0,0,1,2.276.517l-.455,1.773a5.207,5.207,0,0,0-2.26-.534c-1.02,0-1.35.44-1.35.879,0,.518.55.847,1.883,1.349,1.867.659,2.621,1.522,2.621,2.935a3.007,3.007,0,0,1-2.793,2.9v1.6Z" transform="translate(-127.158 -113.471)" fill="#fff"/>
            </g>
            <g id="Grupo_715524" data-name="Grupo 715524" transform="translate(-2.08 55.849)">
              <path id="Trazado_466724-2" data-name="Trazado 466724" d="M103.211,354.3A12.673,12.673,0,1,1,90.538,341.63,12.673,12.673,0,0,1,103.211,354.3" transform="translate(-63.701 -267.334)" fill="#cbcbff"/>
              <path id="Trazado_466725-2" data-name="Trazado 466725" d="M126.107,382.345v-1.927a8.172,8.172,0,0,1-3.45-.872l.609-2.374a7.171,7.171,0,0,0,3.368.892c1.157,0,1.948-.446,1.948-1.258,0-.772-.649-1.259-2.15-1.766-2.172-.73-3.653-1.745-3.653-3.713,0-1.786,1.258-3.186,3.429-3.612v-1.928H128.2v1.786a7.321,7.321,0,0,1,2.943.669l-.588,2.293a6.731,6.731,0,0,0-2.922-.691c-1.319,0-1.746.568-1.746,1.137,0,.669.71,1.1,2.435,1.745,2.415.853,3.389,1.968,3.389,3.8,0,1.806-1.279,3.348-3.612,3.754v2.069Z" transform="translate(-100.346 -287.097)" fill="#fff"/>
              <path id="Trazado_466726-2" data-name="Trazado 466726" d="M13.333,245.778a6.667,6.667,0,1,1-6.667-6.667,6.667,6.667,0,0,1,6.667,6.667" transform="translate(0 -183.463)" fill="#cbcbff"/>
              <path id="Trazado_466727-2" data-name="Trazado 466727" d="M25.378,260.529v-1.014a4.3,4.3,0,0,1-1.815-.459l.32-1.249a3.775,3.775,0,0,0,1.772.469c.608,0,1.025-.235,1.025-.661,0-.406-.342-.662-1.131-.929-1.143-.384-1.922-.918-1.922-1.953a1.973,1.973,0,0,1,1.8-1.9v-1.014h1.046v.94a3.849,3.849,0,0,1,1.548.352l-.309,1.206a3.542,3.542,0,0,0-1.537-.363c-.694,0-.918.3-.918.6,0,.352.374.576,1.281.918,1.27.448,1.783,1.035,1.783,2a2.046,2.046,0,0,1-1.9,1.975v1.088Z" transform="translate(-19.277 -193.859)" fill="#fff"/>
              <path id="Trazado_466728-2" data-name="Trazado 466728" d="M163.336,148.843a6.667,6.667,0,1,1-6.667-6.667,6.667,6.667,0,0,1,6.667,6.667" transform="translate(-122.718 -104.16)" fill="#cbcbff"/>
              <path id="Trazado_466729-2" data-name="Trazado 466729" d="M175.381,163.594v-1.014a4.3,4.3,0,0,1-1.815-.459l.32-1.249a3.775,3.775,0,0,0,1.772.469c.608,0,1.025-.235,1.025-.661,0-.406-.341-.662-1.131-.929-1.142-.384-1.922-.918-1.922-1.953a1.973,1.973,0,0,1,1.8-1.9v-1.014h1.046v.94a3.85,3.85,0,0,1,1.548.352l-.309,1.206a3.542,3.542,0,0,0-1.537-.363c-.694,0-.918.3-.918.6,0,.352.374.576,1.281.918,1.27.449,1.783,1.035,1.783,2a2.046,2.046,0,0,1-1.9,1.975v1.088Z" transform="translate(-141.995 -114.557)" fill="#fff"/>
            </g>
            <path id="Trazado_466730" data-name="Trazado 466730" d="M1601.7,828.358a19.832,19.832,0,1,1-19.832-19.832,19.831,19.831,0,0,1,19.832,19.832" transform="translate(-1144.384 -592.343)" fill="#cbcbff"/>
            <path id="Trazado_466731" data-name="Trazado 466731" d="M1615.124,860.155V857.14a12.789,12.789,0,0,1-5.4-1.365l.953-3.716a11.225,11.225,0,0,0,5.271,1.4c1.81,0,3.048-.7,3.048-1.968,0-1.208-1.016-1.97-3.365-2.764-3.4-1.143-5.717-2.73-5.717-5.81,0-2.8,1.969-4.985,5.367-5.652v-3.017h3.112v2.8a11.464,11.464,0,0,1,4.6,1.047l-.92,3.589a10.537,10.537,0,0,0-4.573-1.081c-2.064,0-2.732.889-2.732,1.779,0,1.047,1.112,1.714,3.811,2.73,3.779,1.334,5.3,3.079,5.3,5.939,0,2.826-2,5.239-5.652,5.875v3.237Z" transform="translate(-1179.32 -611.185)" fill="#fff"/>
            <path id="Trazado_466732" data-name="Trazado 466732" d="M1668.5,638.861a12.134,12.134,0,1,1-12.134-12.133,12.134,12.134,0,0,1,12.134,12.133" transform="translate(-1204.605 -459.153)" fill="#cbcbff"/>
            <path id="Trazado_466733" data-name="Trazado 466733" d="M1676.716,658.315V656.47a7.819,7.819,0,0,1-3.3-.835l.583-2.273a6.867,6.867,0,0,0,3.225.854c1.108,0,1.865-.427,1.865-1.2,0-.739-.622-1.205-2.059-1.691-2.08-.7-3.5-1.671-3.5-3.555,0-1.71,1.2-3.05,3.283-3.458v-1.846h1.9v1.71a7.012,7.012,0,0,1,2.818.641l-.563,2.2a6.444,6.444,0,0,0-2.8-.662c-1.263,0-1.671.544-1.671,1.089,0,.641.68,1.049,2.332,1.671,2.312.816,3.245,1.884,3.245,3.634,0,1.729-1.225,3.205-3.458,3.594v1.981Z" transform="translate(-1225.979 -470.681)" fill="#fff"/>
            <path id="Trazado_466734" data-name="Trazado 466734" d="M961.042,249.943c.311.155,4.738,5.048,2.8,5.98a9.23,9.23,0,0,1-4.582.544Z" transform="translate(-702.772 -183.113)" fill="#d28572"/>
            <path id="Trazado_466735" data-name="Trazado 466735" d="M878.432,288.927l-5.38,15.818,14.278,7.519,3.7-21.069-12.594-2.267Z" transform="translate(-639.617 -211.673)" fill="#ffbc96"/>
            <path id="Trazado_466736" data-name="Trazado 466736" d="M915.827,296.259,913.944,307.5a41.7,41.7,0,0,1-6.652-12.5l2.642-.15Z" transform="translate(-664.702 -216.01)" fill="#d28572"/>
            <path id="Trazado_466737" data-name="Trazado 466737" d="M912.554,212.56s3.206,22.182-2.949,23.849-16.412-6.155-16.412-6.155l3.077-18.464,8.976-2.949Z" transform="translate(-654.372 -153.001)" fill="#ffbc96"/>
            <path id="Trazado_466738" data-name="Trazado 466738" d="M907.986,201.23s-5.77-2.308-9.617,7.565l-1.923,3.334-9.489-1.026L888.5,199.05l8.335-4.1s9.36-6.283,11.155,6.283" transform="translate(-649.805 -141.671)" fill="#1b1b43"/>
            <path id="Trazado_466739" data-name="Trazado 466739" d="M879.67,201.918s-4.83-3.462-12.523,4.231-3.761,22.995,4.445,22.824c8-.167,5.77-8.078,5.257-9.488s2.821-17.566,2.821-17.566" transform="translate(-632.259 -147.359)" fill="#1b1b43"/>
            <path id="Trazado_466740" data-name="Trazado 466740" d="M914.067,247.877a3.728,3.728,0,1,1-5.308-1.8,3.981,3.981,0,0,1,5.308,1.8" transform="translate(-664.513 -179.955)" fill="#ffbc96"/>
            <path id="Trazado_466741" data-name="Trazado 466741" d="M918.232,257.706a3.181,3.181,0,0,0-.817-2.075,2.123,2.123,0,0,0-1.687-.468l-.073-.8a2.885,2.885,0,0,1,2.3.677,3.952,3.952,0,0,1,1.075,2.664h-.8Z" transform="translate(-670.83 -186.339)" fill="#1b1b43"/>
            <g id="Grupo_715462" data-name="Grupo 715462" transform="translate(250.277 68.961)" opacity="0.4">
              <g id="Grupo_715461" data-name="Grupo 715461">
                <g id="Grupo_715460" data-name="Grupo 715460" clip-path="url(#clip-path-4)">
                  <path id="Trazado_466742" data-name="Trazado 466742" d="M942.192,260.982a3.075,3.075,0,1,1-3.075-3.075,3.075,3.075,0,0,1,3.075,3.075" transform="translate(-936.042 -257.908)" fill="#fe5b52"/>
                </g>
              </g>
            </g>
            <path id="Trazado_466743" data-name="Trazado 466743" d="M839.01,208.2a6.925,6.925,0,1,1-6.925-6.925,6.925,6.925,0,0,1,6.925,6.925" transform="translate(-604.531 -147.457)" fill="#1b1b43"/>
            <path id="Trazado_466744" data-name="Trazado 466744" d="M857,1168.046A100.616,100.616,0,0,1,855.1,1156.1l-14.656.9.358,9.491c3.693,2.385,10.914,6.294,18.6,6.339a13.838,13.838,0,0,1-2.4-4.788" transform="translate(-615.724 -846.983)" fill="#d28572"/>
            <path id="Trazado_466745" data-name="Trazado 466745" d="M869.529,1209.679c-1.845-2.012-6.229-4.487-9.145-8.362-7.691-.045-14.912-3.954-18.6-6.339l.646,17.111h2.911l1.606-8.131s9.737,7.83,16.564,8.231,7.127-1.305,6.023-2.51" transform="translate(-616.706 -875.466)" fill="#1b1b43"/>
            <path id="Trazado_466746" data-name="Trazado 466746" d="M812.137,638.584c-3.407,2.963,2.71,110.224,4.818,142.749l20.178-.3L833.82,642.8Z" transform="translate(-594.248 -467.84)" fill="#003273"/>
            <path id="Trazado_466747" data-name="Trazado 466747" d="M907.688,1168.046a100.625,100.625,0,0,1-1.907-11.946l-14.656.9.358,9.491c3.693,2.385,10.914,6.294,18.6,6.339a13.836,13.836,0,0,1-2.4-4.788" transform="translate(-652.857 -846.983)" fill="#ffbc96"/>
            <path id="Trazado_466748" data-name="Trazado 466748" d="M920.214,1209.679c-1.845-2.012-6.229-4.487-9.145-8.362-7.691-.045-14.912-3.954-18.6-6.339l.646,17.111h2.911l1.606-8.131s9.738,7.83,16.563,8.231,7.128-1.305,6.023-2.51" transform="translate(-653.839 -875.466)" fill="#1b1b43"/>
            <path id="Trazado_466749" data-name="Trazado 466749" d="M839.688,645.342l11.391,140.925,21.134.619s.9-113.537-3.915-139.737Z" transform="translate(-615.174 -472.791)" fill="#003d8d"/>
            <path id="Trazado_466750" data-name="Trazado 466750" d="M936.033,892.429c-.048,0-.1,0-.145-.006l-2.1-.175.067-.8,2.1.175a.905.905,0,1,0,.09-1.807l-6.777-.107.013-.8,6.777.107a1.707,1.707,0,0,1-.024,3.415" transform="translate(-680.802 -651.232)" fill="#1b1b43"/>
            <path id="Trazado_466751" data-name="Trazado 466751" d="M878.359,316.531l1.405-6.274a72.277,72.277,0,0,1,11.093,6.479,8.016,8.016,0,0,1,3.117,5.8l.4,5.645-12.046-3.313Z" transform="translate(-643.505 -227.3)" fill="#fed3d1"/>
            <path id="Trazado_466752" data-name="Trazado 466752" d="M1118.361,548.722a23.321,23.321,0,0,1-15.66-6.425l-.2-10.34,17.668,1.405,4.919,4.618Z" transform="translate(-807.716 -389.723)" fill="#d28572"/>
            <path id="Trazado_466753" data-name="Trazado 466753" d="M1004.509,539.484s7.529-1.707,8.232-16.162l-6.626,5.22Z" transform="translate(-735.925 -383.396)" fill="#1b1b43"/>
            <path id="Trazado_466754" data-name="Trazado 466754" d="M817.021,333.722l10.942,5.664a15.242,15.242,0,0,1,7.877,10.193c3.087,13.762,8.663,46.014,3.065,81.116a102.214,102.214,0,0,1-44.27-13.653l8.49-64.209a22.116,22.116,0,0,1,7.914-14.213Z" transform="translate(-582.167 -244.491)" fill="#ffcd64"/>
            <path id="Trazado_466755" data-name="Trazado 466755" d="M985.411,522.2l19.791.878a13.294,13.294,0,0,1,5.763,1.569,44.768,44.768,0,0,1,7.885,5.481,4.064,4.064,0,0,1-.1,6.206l-2.417,1.977a4.07,4.07,0,0,1-.659.439l-3.449,1.84a3.923,3.923,0,0,1-1.688.471,11.821,11.821,0,0,1-9.268-3.853l-25.3-2.861,4.216-9.487Z" transform="translate(-715.021 -382.571)" fill="#ffbc96"/>
            <path id="Trazado_466756" data-name="Trazado 466756" d="M1103.763,525.962l-11.935-3.931a3.455,3.455,0,0,0-1.785-.1c-2.843.587-11.209,2.527-9.771,4.788,1.054,1.656,9.436-.954,9.436-.954Z" transform="translate(-791.311 -382.322)" fill="#d28572"/>
            <path id="Trazado_466757" data-name="Trazado 466757" d="M1059.089,566.311h0a1.613,1.613,0,0,1-.422-2.242l1.821-2.665a1.613,1.613,0,0,1,2.664,1.82l-1.822,2.665a1.613,1.613,0,0,1-2.242.422" transform="translate(-775.397 -410.78)" fill="#d28572"/>
            <path id="Trazado_466758" data-name="Trazado 466758" d="M1067.679,568.877h0a1.613,1.613,0,0,1-.422-2.242l2.431-3.556a1.613,1.613,0,1,1,2.664,1.821l-2.431,3.556a1.613,1.613,0,0,1-2.242.422" transform="translate(-781.69 -412.008)" fill="#d28572"/>
            <path id="Trazado_466759" data-name="Trazado 466759" d="M1078.094,576.127h0a1.613,1.613,0,0,1-.422-2.242l1.821-2.665a1.613,1.613,0,1,1,2.664,1.821l-1.822,2.665a1.613,1.613,0,0,1-2.242.422" transform="translate(-789.321 -417.972)" fill="#d28572"/>
            <path id="Trazado_466760" data-name="Trazado 466760" d="M1087.713,583.428l-.1-.067a1.355,1.355,0,0,1-.354-1.884l1.3-1.9a1.355,1.355,0,0,1,1.884-.354l.1.067a1.355,1.355,0,0,1,.354,1.884l-1.3,1.9a1.355,1.355,0,0,1-1.884.354" transform="translate(-796.378 -424.175)" fill="#d28572"/>
            <path id="Trazado_466761" data-name="Trazado 466761" d="M886.346,376.2s7.027-4.016,8.834,34.733l23.49,4.517a43.115,43.115,0,0,0-8.232,16.162l-20-2.149a13.161,13.161,0,0,1-11.717-12.076l-2.612-33.96Z" transform="translate(-641.855 -275.524)" fill="#ffcd64"/>
            <path id="Trazado_466762" data-name="Trazado 466762" d="M911.742,452.638l-21.27-2.172a13.312,13.312,0,0,1-11.947-12.671L877.46,413l.8-.034,1.065,24.8a12.51,12.51,0,0,0,11.227,11.908l20.567,2.1a37.332,37.332,0,0,1,7.761-15.469l-23.064-4.436L891.724,404.3l.793-.118,4.009,27,23.955,4.607-.536.535a35.57,35.57,0,0,0-8.124,15.968Z" transform="translate(-642.847 -296.115)" fill="#1b1b43"/>
            <rect id="Rectángulo_268168" data-name="Rectángulo 268168" width="0.802" height="13.534" transform="matrix(0.224, -0.975, 0.975, 0.224, 237.955, 161.641)" fill="#1b1b43"/>
            <path id="Trazado_466763" data-name="Trazado 466763" d="M1123.061,557.447l-2.5-4.474-2.466-1.233.239-.478,2.614,1.307,2.58,4.617Z" transform="translate(-819.141 -403.866)" fill="#d28572"/>
            <rect id="Rectángulo_268169" data-name="Rectángulo 268169" width="0.535" height="5.543" transform="matrix(0.858, -0.513, 0.513, 0.858, 298.242, 151.115)" fill="#d28572"/>
            <rect id="Rectángulo_268170" data-name="Rectángulo 268170" width="0.535" height="5.543" transform="matrix(0.858, -0.513, 0.513, 0.858, 294.967, 152.92)" fill="#d28572"/>
            <path id="Trazado_466764" data-name="Trazado 466764" d="M1250.6,1154.953l-.2,15.259-16.865,11.042h31.923l1.2-28.309Z" transform="translate(-903.712 -844.672)" fill="#1b1b43"/>
            <rect id="Rectángulo_268171" data-name="Rectángulo 268171" width="1.069" height="6.493" transform="matrix(0.585, -0.811, 0.811, 0.585, 346.371, 325.973)" fill="#fefefe"/>
            <path id="Trazado_466765" data-name="Trazado 466765" d="M1510.446,1136.425l3.614,19.575,11.444,13.151h-23.792l-4.618-28.309Z" transform="translate(-1096.804 -832.569)" fill="#1b1b43"/>
            <rect id="Rectángulo_268172" data-name="Rectángulo 268172" width="6.002" height="1.069" transform="translate(412.867 327.56) rotate(-48.345)" fill="#fefefe"/>
            <path id="Trazado_466766" data-name="Trazado 466766" d="M1287.595,614.564s-9.838,39.753-6.826,146.363h22.888s6.023-89.143,14.456-149.374Z" transform="translate(-937.9 -448.036)" fill="#5254cf"/>
            <path id="Trazado_466767" data-name="Trazado 466767" d="M1409.02,609.3l17.969,147.266L1403.4,760.48,1374.958,609.6Z" transform="translate(-1007.325 -446.385)" fill="#5254cf"/>
            <path id="Trazado_466768" data-name="Trazado 466768" d="M1383.293,758.208l-6.369-36.444-7.568-1.376.144-.789,8.118,1.476.048.276,6.417,36.72Z" transform="translate(-1003.221 -527.193)" fill="#1b1b43"/>
            <path id="Trazado_466769" data-name="Trazado 466769" d="M1283.908,938.716a1.446,1.446,0,0,1-1.435-1.3,1.452,1.452,0,0,1,1.186-1.567l6.6-1.168.14.789-6.6,1.168a.646.646,0,0,0-.528.7.643.643,0,0,0,.706.575l2.835-.293.083.8-2.835.293a1.489,1.489,0,0,1-.152.008" transform="translate(-939.563 -684.766)" fill="#1b1b43"/>
            <path id="Trazado_466770" data-name="Trazado 466770" d="M1437.929,932.869a1.445,1.445,0,0,1-1.435-1.3A1.451,1.451,0,0,1,1437.68,930l6.6-1.168.14.79-6.6,1.168a.643.643,0,0,0-.294,1.131.633.633,0,0,0,.472.141l2.835-.293.083.8-2.835.293c-.051.005-.1.008-.151.008" transform="translate(-1052.402 -680.482)" fill="#1b1b43"/>
            <path id="Trazado_466771" data-name="Trazado 466771" d="M1330.5,323.128l-20.427,52.423-2.208,27.707,43.969,3.012-6.405-82.719Z" transform="translate(-958.174 -236.73)" fill="#fff"/>
            <g id="Grupo_715465" data-name="Grupo 715465" transform="translate(350.522 116.063)" opacity="0.2">
              <g id="Grupo_715464" data-name="Grupo 715464">
                <g id="Grupo_715463" data-name="Grupo 715463" clip-path="url(#clip-path-5)">
                  <path id="Trazado_466772" data-name="Trazado 466772" d="M1310.958,450.65a34.561,34.561,0,0,0,9.968-.777,39.534,39.534,0,0,0,9.258-3.334,41.39,41.39,0,0,0,4.226-2.549c.675-.474,1.4-.882,2.038-1.412s1.288-1.043,1.946-1.554a20.336,20.336,0,0,0,1.883-1.644l1.862-1.695c1.2-1.18,2.323-2.435,3.579-3.613-.873,1.459-1.795,2.909-2.792,4.309l-1.65,1.982a17.129,17.129,0,0,1-1.76,1.9,35.477,35.477,0,0,1-8.354,6.18,30.956,30.956,0,0,1-9.958,3.073,22.746,22.746,0,0,1-10.245-.863" transform="translate(-1310.959 -434.073)" fill="#1b1b43"/>
                </g>
              </g>
            </g>
            <path id="Trazado_466773" data-name="Trazado 466773" d="M1307.674,323.128s-8.439,12.3-16.539,101.632a.639.639,0,0,1-1,.468l-13.424-9.623,11.745-76.494Z" transform="translate(-935.344 -236.73)" fill="#1b1b43"/>
            <path id="Trazado_466774" data-name="Trazado 466774" d="M1223.506,323.128l-17.823,4.846a8.03,8.03,0,0,0-5.632,5.6l-11.728,42.275-24.7,4.517-1.807,15.359,32.044-1.5a8.257,8.257,0,0,0,7.724-6.7l8.718-45.7Z" transform="translate(-851.176 -236.73)" fill="#1b1b43"/>
            <path id="Trazado_466775" data-name="Trazado 466775" d="M1423.385,324.708s-9.376,64.625-9.109,101.523l29.412-1.337.056-62.038Z" transform="translate(-1036.126 -237.887)" fill="#1b1b43"/>
            <path id="Trazado_466776" data-name="Trazado 466776" d="M1409.286,571.931l-42.2-5.6a1.205,1.205,0,0,1-1.036-1.353l4.174-31.434a1.205,1.205,0,0,1,1.353-1.036l42.2,5.6a1.2,1.2,0,0,1,1.036,1.353l-4.174,31.433a1.2,1.2,0,0,1-1.353,1.036" transform="translate(-1000.789 -390.115)" fill="#cbcbff"/>
            <path id="Trazado_466777" data-name="Trazado 466777" d="M1450.15,600.108a.4.4,0,0,1-.056,0h0l-5.422-.72a.422.422,0,0,1-.363-.475l.536-4.038a.422.422,0,0,1,.475-.363l5.421.72a.422.422,0,0,1,.363.474l-.536,4.039a.422.422,0,0,1-.418.367m-5.3-1.239,5.2.69.506-3.815-5.2-.69Zm-.015.111h0Zm.41-3.941h0Z" transform="translate(-1058.13 -435.546)" fill="#fff"/>
            <path id="Trazado_466778" data-name="Trazado 466778" d="M1447.076,599.485l-1.294,1.849a7.167,7.167,0,0,1-3.567,2.689c-2.925.989-8.925,2.861-8.123,4.71.46,1.06,6.046-.383,6.046-.383s-6.456,7.613-3.758,9.925a8.649,8.649,0,0,0,3.5,1.516,13.822,13.822,0,0,0,5.174.119,5.791,5.791,0,0,0,3.477-1.921,27.355,27.355,0,0,0,3-4.154,49.867,49.867,0,0,0,4.981-10.882Z" transform="translate(-1050.594 -439.195)" fill="#d28572"/>
            <path id="Trazado_466779" data-name="Trazado 466779" d="M1448.359,324.708l13.25,2.933a11.149,11.149,0,0,1,7.972,6.82l13.287,30.618a15.968,15.968,0,0,1-.852,14.4l-15,25.743-11.645-6.224,11.042-27.706Z" transform="translate(-1061.1 -237.887)" fill="#1b1b43"/>
            <path id="Trazado_466780" data-name="Trazado 466780" d="M1397.172,351.615a12.575,12.575,0,0,1-7.156-2.418l.5-.625c.053.043,5.4,4.244,11.322,1.029l.383.705a10.466,10.466,0,0,1-5.052,1.309" transform="translate(-1018.357 -255.37)" fill="#1b1b43"/>
            <rect id="Rectángulo_268174" data-name="Rectángulo 268174" width="74.443" height="0.802" transform="matrix(0.142, -0.99, 0.99, 0.142, 340.973, 178.82)" fill="#5254cf"/>
            <path id="Trazado_466781" data-name="Trazado 466781" d="M1473.926,460.046l-.738-.315,12.515-29.291-9.381-22.3.74-.311,9.513,22.616Z" transform="translate(-1079.29 -298.781)" fill="#5254cf"/>
            <rect id="Rectángulo_268175" data-name="Rectángulo 268175" width="5.389" height="0.535" transform="matrix(0.562, -0.827, 0.827, 0.562, 386.129, 179.192)" fill="#925d4f"/>
            <rect id="Rectángulo_268176" data-name="Rectángulo 268176" width="5.389" height="0.535" transform="matrix(0.562, -0.827, 0.827, 0.562, 388.981, 180.528)" fill="#925d4f"/>
            <rect id="Rectángulo_268177" data-name="Rectángulo 268177" width="5.389" height="0.535" transform="matrix(0.562, -0.827, 0.827, 0.562, 393.17, 180.618)" fill="#925d4f"/>
            <path id="Trazado_466782" data-name="Trazado 466782" d="M1363.451,229.646s-6.572,5.633-4.507,7.511a10.106,10.106,0,0,0,4.882,2.253Z" transform="translate(-995.298 -168.243)" fill="#925d4f"/>
            <path id="Trazado_466783" data-name="Trazado 466783" d="M1407.879,254.127,1407.462,273c-7.465,7.743-14.931-.428-14.931-.428l.535-3.872.235-1.722,1.059-7.711.278-2.043,7.786-1.818Z" transform="translate(-1020.2 -186.178)" fill="#d28572"/>
            <path id="Trazado_466784" data-name="Trazado 466784" d="M1404.628,267.729s-2.46,4.866-10.1,10.353l.235-1.722,1.059-7.711,8-1.722Z" transform="translate(-1021.665 -195.556)" fill="#925d4f"/>
            <path id="Trazado_466785" data-name="Trazado 466785" d="M1371.271,199.92s-4.319,23.285,1.5,22.909,16.713-6.384,16.713-6.384l1.314-11.079-4.882-7.323-8.45.188Z" transform="translate(-1003.495 -145.089)" fill="#d28572"/>
            <path id="Trazado_466786" data-name="Trazado 466786" d="M1370.457,197.4s4.929,8.521,7.394,8.239,6.9-16.055,1.479-22.6-17.745-2.817-18.731-2.817-6.478-.141-10.21-.211c0,0,3.028,11.2,15.421,7.817,0,0,1.479,5.422,4.436,6.126Z" transform="translate(-989.324 -131.254)" fill="#1b1b43"/>
            <path id="Trazado_466787" data-name="Trazado 466787" d="M1418.9,228.993c-.767,2.245-2.872,3.558-4.7,2.933s-2.688-2.952-1.921-5.2,2.871-3.558,4.7-2.933,2.688,2.951,1.921,5.2" transform="translate(-1034.46 -163.843)" fill="#d28572"/>
            <g id="Grupo_715468" data-name="Grupo 715468" transform="translate(369.193 63.947)" opacity="0.3">
              <g id="Grupo_715467" data-name="Grupo 715467">
                <g id="Grupo_715466" data-name="Grupo 715466" clip-path="url(#clip-path-6)">
                  <path id="Trazado_466788" data-name="Trazado 466788" d="M1387.075,242.3a3.142,3.142,0,1,1-3.142-3.142,3.142,3.142,0,0,1,3.142,3.142" transform="translate(-1380.791 -239.158)" fill="#be443d"/>
                </g>
              </g>
            </g>
            <path id="Trazado_466789" data-name="Trazado 466789" d="M1419.36,237.21a3.621,3.621,0,0,1,.43-2.629,3.42,3.42,0,0,1,2.435-1.4l.129.792a2.659,2.659,0,0,0-1.9,1.056,2.812,2.812,0,0,0-.319,2Z" transform="translate(-1039.795 -170.829)" fill="#1b1b43"/>
            <path id="Trazado_466790" data-name="Trazado 466790" d="M384.552,852.81l-20.178-7.73c2.229,11.89,3.427,81.187,3.594,91.472l14.016,2.652c2.367-32.687,2.568-86.394,2.568-86.394" transform="translate(-266.948 -619.123)" fill="#ffbc96"/>
            <path id="Trazado_466791" data-name="Trazado 466791" d="M405,1205.038c-6.226-7.531-8.937-5.122-14.257-14.96.014-.076.028-.161.042-.239l-14.016-2.651c.013.83.02,1.284.02,1.284l-.4,18.07H380.2l2.208-8.131,9.135,8.131h12.48c.773,0,1.466-.907.974-1.5" transform="translate(-275.75 -869.759)" fill="#fe5b52"/>
            <path id="Trazado_466792" data-name="Trazado 466792" d="M274.661,843.192l-18.852-10.558c.492,12.087-8.314,80.833-9.632,91.034l13.487,4.645c7.056-32,15-85.121,15-85.121" transform="translate(-180.355 -610.005)" fill="#ffbc96"/>
            <path id="Trazado_466793" data-name="Trazado 466793" d="M262.86,1194.839c-5.075-8.35-8.1-6.357-11.951-16.859.025-.073.051-.155.076-.23l-13.487-4.645c-.106.823-.165,1.274-.165,1.274l-3,17.823,3.775.55,3.358-7.728,8.665,11,11.552.163c.765.111,1.582-.686,1.18-1.347" transform="translate(-171.675 -859.442)" fill="#fe5b52"/>
            <path id="Trazado_466794" data-name="Trazado 466794" d="M268.083,622.526s-4.216,37.645,1.807,65.351c0,0,22.587,7.228,43.066-1.2,0,0,1.807-59.328-6.324-68.363Z" transform="translate(-195.352 -452.987)" fill="#1b1b43"/>
            <path id="Trazado_466795" data-name="Trazado 466795" d="M299.228,843.984a147.8,147.8,0,0,1-21.18-1.6l.13-.791c.274.045,27.618,4.456,43.374-1.583l.287.749c-6.491,2.488-14.9,3.229-22.611,3.229" transform="translate(-203.704 -615.406)" fill="#4a94cd"/>
            <path id="Trazado_466796" data-name="Trazado 466796" d="M353.2,645.177c-.247-1.836-2.41-17.964-2.41-18.77h.8c0,.569,1.437,11.473,2.4,18.663Z" transform="translate(-256.998 -458.919)" fill="#4a94cd"/>
            <path id="Trazado_466797" data-name="Trazado 466797" d="M415.491,921.823a4.632,4.632,0,0,1-3.359-1.538.833.833,0,0,1-.134-.927c.226-.449.868-.883,4.012-1,1.632-.062,3.177-.01,3.242-.008l-.037,1.069a24.2,24.2,0,0,0-6.1.364,3.662,3.662,0,0,0,2.379.973Z" transform="translate(-301.778 -672.784)" fill="#d28572"/>
            <path id="Trazado_466798" data-name="Trazado 466798" d="M319.491,929.823a4.632,4.632,0,0,1-3.359-1.538.833.833,0,0,1-.134-.927c.226-.449.868-.883,4.012-1,1.632-.062,3.177-.01,3.242-.008l-.037,1.069a24.2,24.2,0,0,0-6.1.364,3.663,3.663,0,0,0,2.379.973Z" transform="translate(-231.446 -678.645)" fill="#d28572"/>
            <path id="Trazado_466799" data-name="Trazado 466799" d="M294.119,376.073l6.463,7.549a17.634,17.634,0,0,1,4.2,12.639l-1.966,29.522s.6,15.259,2.61,17.668-3.815,4.618-12.046,6.023-33.73,1.2-34.934-2.61,5.019-6.425,3.011-15.861l4.016-43.367,5.32-9.236,13.954-.6Z" transform="translate(-189.229 -275.518)" fill="#77b5e5"/>
            <path id="Trazado_466800" data-name="Trazado 466800" d="M377.292,504.6l9.626-35.695,28.781,1.549-10.541,35.386Z" transform="translate(-276.412 -343.53)" fill="#5254cf"/>
            <path id="Trazado_466801" data-name="Trazado 466801" d="M323.972,533.6s14.1-3.614,18.019-2.861,5.572,3.463,4.819,4.216a3.587,3.587,0,0,1-2.409.6s-.753,7.077-3.463,8.131-22.788,4.568-22.788,4.568l-2.209-5.772Z" transform="translate(-231.465 -388.752)" fill="#ffbc96"/>
            <path id="Trazado_466802" data-name="Trazado 466802" d="M248.692,426.755l-5.83,14.66-18.7.145h-.06a10.9,10.9,0,0,1-10.42-14.191L224.648,392.5c.048-.169.109-.337.169-.506a8.438,8.438,0,0,1,5.505-5.036l7.421-2.156-.084.554-6.24,40.6Z" transform="translate(-156.181 -281.91)" fill="#77b5e5"/>
            <path id="Trazado_466803" data-name="Trazado 466803" d="M354.1,416.017a1.8,1.8,0,1,1,1.8-1.8,1.807,1.807,0,0,1-1.8,1.8m0-2.807a1,1,0,1,0,1,1,1,1,0,0,0-1-1" transform="translate(-258.097 -302.137)" fill="#4a94cd"/>
            <path id="Trazado_466804" data-name="Trazado 466804" d="M284.971,498.789l-14.683-.039,0-.8,14.137.037,5.522-13.884-17.2-.8,4.9-20.736.781.184-4.677,19.8,17.353.811Z" transform="translate(-198.019 -338.882)" fill="#4a94cd"/>
            <path id="Trazado_466805" data-name="Trazado 466805" d="M450.338,464.24l-.712,4.037,8.833.522.57-3.941Z" transform="translate(-329.405 -340.111)" fill="#1b1b43"/>
            <path id="Trazado_466806" data-name="Trazado 466806" d="M406.009,545.382l-2.363-1.118-3.4.349-.055-.532,3.55-.364,2.5,1.181Z" transform="translate(-293.188 -398.338)" fill="#d28572"/>
            <rect id="Rectángulo_268179" data-name="Rectángulo 268179" width="0.535" height="3.195" transform="translate(109.435 148.691) rotate(-59.858)" fill="#d28572"/>
            <rect id="Rectángulo_268180" data-name="Rectángulo 268180" width="0.535" height="3.462" transform="matrix(0.528, -0.849, 0.849, 0.528, 108.225, 151.406)" fill="#d28572"/>
            <path id="Trazado_466807" data-name="Trazado 466807" d="M482.528,526.715s-4.577-9.818-3.212-10.842c.8-.6,1.706.2,1.706.2s-1.3-3.012-.3-3.514,1.707.6,1.707.6.1-2.309.9-2.309,1.706,1.405,1.706,1.405-.1-1.606,1-1.707,3.614,5.12,4.116,9.637c.467,4.2.3,11.544-8.734,10.641Z" transform="translate(-350.971 -374.04)" fill="#ffbc96"/>
            <rect id="Rectángulo_268181" data-name="Rectángulo 268181" width="0.535" height="4.724" transform="translate(129.801 142.128) rotate(-20.651)" fill="#d28572"/>
            <rect id="Rectángulo_268182" data-name="Rectángulo 268182" width="0.535" height="5.998" transform="translate(131.228 139.236) rotate(-21.528)" fill="#d28572"/>
            <rect id="Rectángulo_268183" data-name="Rectángulo 268183" width="0.535" height="5.99" transform="matrix(0.924, -0.382, 0.382, 0.924, 133.726, 138.125)" fill="#d28572"/>
            <path id="Trazado_466808" data-name="Trazado 466808" d="M338.866,319.194l-15.241.535,2.138-22.875,9.48,5.879,2.626,1.626.651,9.083Z" transform="translate(-237.095 -217.48)" fill="#ffbc96"/>
            <path id="Trazado_466809" data-name="Trazado 466809" d="M349.659,329.548c-7.011-1.325-10.83-9.637-10.83-9.637l7.553-1.072,2.626,1.626Z" transform="translate(-248.234 -233.587)" fill="#d28572"/>
            <path id="Trazado_466810" data-name="Trazado 466810" d="M342.929,246.511s4.826,22.813-3.949,22.959-17.4-5.118-17.4-5.118l.219-12.284,5.338-5.118,8.628-2.779Z" transform="translate(-235.595 -178.884)" fill="#ffbc96"/>
            <path id="Trazado_466811" data-name="Trazado 466811" d="M289.819,228.952a3.536,3.536,0,0,1-1.658,1.979c-2.225,1.037-4.888-1.348-7.2-.5-2.289.845-2.492,4.1-4.332,5.7-1.733,1.5-4.374,1.112-6.6.556l1.583,3.219q-2.422,2.775-2.118,8.374a15.821,15.821,0,0,1-1.176,8.481c-2.645,5.911-5.676,6.535-5.676,6.535l-7.576,1.989a8.455,8.455,0,0,0-5.508,5.037,16.256,16.256,0,0,1-1.979-3.38,7.269,7.269,0,0,1,.214-6.353c.717-1.187,1.914-2.1,2.481-3.369,1.112-2.535-.513-5.818,1.048-8.118.856-1.273,2.417-1.8,3.818-2.406s2.877-1.54,3.166-3.027c.278-1.422-.631-2.77-1.412-3.979s-1.529-2.717-.952-4.032c.866-1.968,3.754-1.84,5.412-3.209,1.551-1.3,1.658-3.594,2.086-5.572.727-3.444,3.016-6.717,6.364-7.775,3.765-1.176,7.807.6,11.027,2.856a3.5,3.5,0,0,0,1.037.567,5.047,5.047,0,0,0,2.267-.257,5.032,5.032,0,0,1,5.679,6.684" transform="translate(-180.929 -160.244)" fill="#1b1b43"/>
            <path id="Trazado_466812" data-name="Trazado 466812" d="M331.349,282.711a4.014,4.014,0,1,1-5.779-1.646,4.264,4.264,0,0,1,5.779,1.646" transform="translate(-237.259 -205.499)" fill="#ffbc96"/>
            <path id="Trazado_466813" data-name="Trazado 466813" d="M333.392,293.617a3.629,3.629,0,0,0-1-2.286,2.469,2.469,0,0,0-1.913-.539l-.067-.8a3.237,3.237,0,0,1,2.514.741,4.394,4.394,0,0,1,1.262,2.852Z" transform="translate(-242.071 -212.442)" fill="#1b1b43"/>
            <g id="Grupo_715471" data-name="Grupo 715471" transform="translate(94.174 79.054)" opacity="0.4">
              <g id="Grupo_715470" data-name="Grupo 715470">
                <g id="Grupo_715469" data-name="Grupo 715469" clip-path="url(#clip-path-7)">
                  <path id="Trazado_466814" data-name="Trazado 466814" d="M356.176,297.642a1.982,1.982,0,1,1-1.982-1.982,1.982,1.982,0,0,1,1.982,1.982" transform="translate(-352.211 -295.66)" fill="#fe5b52"/>
                </g>
              </g>
            </g>
            <path id="Trazado_466815" data-name="Trazado 466815" d="M388.494,290.222a10.157,10.157,0,0,1,1.4,1.224,7.56,7.56,0,0,1,1.16,1.506,2.871,2.871,0,0,1,.209.475,1.346,1.346,0,0,1,.074.613.814.814,0,0,1-.153.369.823.823,0,0,1-.3.243,1.071,1.071,0,0,1-.3.091c-.083.013-.164.023-.244.031a8.356,8.356,0,0,1-1.871-.044l0-.289c.6-.1,1.207-.177,1.775-.294.071-.015.139-.032.206-.05a.53.53,0,0,0,.131-.052c.059-.044.047-.041.055-.1a.774.774,0,0,0-.056-.284,2.693,2.693,0,0,0-.167-.358,11.962,11.962,0,0,0-.993-1.443l-1.116-1.43Z" transform="translate(-284.473 -212.622)" fill="#d28572"/>
            <path id="Trazado_466816" data-name="Trazado 466816" d="M376.1,288.529a.685.685,0,1,1-.685-.685.685.685,0,0,1,.685.685" transform="translate(-274.535 -210.88)" fill="#1b1b43"/>
            <path id="Trazado_466817" data-name="Trazado 466817" d="M399.787,287.091a.685.685,0,1,1-.685-.685.685.685,0,0,1,.685.685" transform="translate(-291.889 -209.826)" fill="#1b1b43"/>
            <path id="Trazado_466818" data-name="Trazado 466818" d="M370.176,280.409l-2.139.346a.6.6,0,0,1-.191-1.181l2.139-.346a.6.6,0,1,1,.191,1.181" transform="translate(-269.124 -204.562)" fill="#1b1b43"/>
            <path id="Trazado_466819" data-name="Trazado 466819" d="M397.217,279.439h-1.7a.6.6,0,1,1,0-1.2h1.7a.6.6,0,1,1,0,1.2" transform="translate(-289.325 -203.846)" fill="#1b1b43"/>
            <path id="Trazado_466820" data-name="Trazado 466820" d="M372.954,309.893a6.51,6.51,0,0,0,1.151,1.032,4.875,4.875,0,0,0,1.357.667,4.6,4.6,0,0,0,1.489.215,5.953,5.953,0,0,0,.768-.051c.258-.029.51-.1.776-.131l.07.2a6.772,6.772,0,0,1-.769.3,4.4,4.4,0,0,1-.821.154,4.017,4.017,0,0,1-1.675-.177,4.407,4.407,0,0,1-2.523-2.1Z" transform="translate(-273.104 -227.033)" fill="#1b1b43"/>
            <path id="Trazado_466821" data-name="Trazado 466821" d="M319.947,366.732l-4.92,6.823-8.7-5.989.16-.128a16.343,16.343,0,0,0,5.326-6.471Z" transform="translate(-224.426 -264.451)" fill="#77b5e5"/>
            <path id="Trazado_466822" data-name="Trazado 466822" d="M357.241,365.2l5.923,6.625,5.588-5.945-5.588-7Z" transform="translate(-261.722 -262.92)" fill="#77b5e5"/>
            <path id="Trazado_466823" data-name="Trazado 466823" d="M313.55,373.285l-9.362-6.442.455-.661,8.715,6,4.45-6.175-7.983-5.5.456-.66,8.656,5.969Z" transform="translate(-222.855 -263.625)" fill="#4a94cd"/>
            <path id="Trazado_466824" data-name="Trazado 466824" d="M361.667,371.669l-6.459-7.225,6.174-6.592.585.548-5.672,6.056,5.387,6.026,5.2-5.537.585.549Z" transform="translate(-260.233 -262.169)" fill="#4a94cd"/>
          </g>
        </g>
      </g>
    </g>
  </g>
</svg>
